<svg xmlns="http://www.w3.org/2000/svg" width="329.914449" height="301.424894" viewBox="0 0 329.914449 301.424894" font-family="sans-serif" font-size="14.666667" fill="none">
<g id="s0">
<line x1="137.312344" y1="222.457464" x2="29.161544" y2="275.284305" stroke="black" stroke-width="1.066667"/>
<polygon stroke-width="0" points="36.864983,274.192524 27.185668,276.249432 34.758283,269.879542" fill="black"/>
</g>
<g id="s1">
<text font-size="11pt" stroke-width="0.266667" fill="black" x="10.666667" y="289.158227" text-anchor="middle">x</text>
</g>
<g id="s2">
<line x1="137.312344" y1="222.457464" x2="292.451017" y2="259.610862" stroke="black" stroke-width="1.066667"/>
<polygon stroke-width="0" points="285.812487,255.553169 294.589536,260.123005 284.69457,260.221173" fill="black"/>
</g>
<g id="s3">
<text font-size="11pt" stroke-width="0.266667" fill="black" x="318.181115" y="270.612837" text-anchor="middle">y</text>
</g>
<g id="s4">
<line x1="137.312344" y1="222.457464" x2="137.312344" y2="44.23547" stroke="black" stroke-width="1.066667"/>
<polygon stroke-width="0" points="134.912344,51.636481 137.312344,42.036481 139.712344,51.636481" fill="black"/>
</g>
<g id="s5">
<text font-size="11pt" stroke-width="0.266667" fill="black" x="137.312344" y="19.813333" text-anchor="middle">z</text>
</g>
<g id="s6">
<polyline points="137.312344,222.457464 60.223671,260.111842 138.862267,278.944612 215.95094,241.290235 137.312344,222.457464" fill="none" stroke="black" stroke-width="1.066667"/>
</g>
<g id="s7">
<polyline points="137.312344,150.289071 60.223671,187.943448 138.862267,206.776219 215.95094,169.121841 137.312344,150.289071" fill="none" stroke="black" stroke-width="1.066667"/>
</g>
<g id="s8">
<line x1="137.312344" y1="222.457464" x2="137.312344" y2="150.289071" stroke="black" stroke-width="1.066667"/>
</g>
<g id="s9">
<line x1="60.223671" y1="260.111842" x2="60.223671" y2="187.943448" stroke="black" stroke-width="1.066667"/>
</g>
<g id="s10">
<line x1="138.862267" y1="278.944612" x2="138.862267" y2="206.776219" stroke="black" stroke-width="1.066667"/>
</g>
<g id="s11">
<line x1="215.95094" y1="241.290235" x2="215.95094" y2="169.121841" stroke="black" stroke-width="1.066667"/>
</g>
</svg>
