<svg xmlns="http://www.w3.org/2000/svg" width="338.714449" height="301.424894" viewBox="0 0 338.714449 301.424894" font-family="sans-serif" font-size="14.666667" fill="none">
<g id="s0">
<line x1="141.712344" y1="222.457464" x2="33.561544" y2="275.284305" stroke="black" stroke-width="1.066667"/>
<polygon stroke-width="0" points="41.264983,274.192524 31.585668,276.249432 39.158283,269.879542" fill="black"/>
</g>
<g id="s1">
<text font-size="11pt" stroke-width="0.266667" fill="black" x="15.066667" y="289.158227" text-anchor="middle">x</text>
</g>
<g id="s2">
<line x1="141.712344" y1="222.457464" x2="296.851017" y2="259.610862" stroke="black" stroke-width="1.066667"/>
<polygon stroke-width="0" points="290.212487,255.553169 298.989536,260.123005 289.09457,260.221173" fill="black"/>
</g>
<g id="s3">
<text font-size="11pt" stroke-width="0.266667" fill="black" x="322.581115" y="270.612837" text-anchor="middle">y</text>
</g>
<g id="s4">
<line x1="141.712344" y1="222.457464" x2="141.712344" y2="44.23547" stroke="black" stroke-width="1.066667"/>
<polygon stroke-width="0" points="139.312344,51.636481 141.712344,42.036481 144.112344,51.636481" fill="black"/>
</g>
<g id="s5">
<text font-size="11pt" stroke-width="0.266667" fill="black" x="141.712344" y="19.813333" text-anchor="middle">z</text>
</g>
<g id="s6">
<polyline points="141.712344,222.457464 64.623671,260.111842 143.262267,278.944612 220.35094,241.290235 141.712344,222.457464" fill="none" stroke="black" stroke-width="1.066667"/>
</g>
<g id="s7">
<polyline points="141.712344,150.289071 64.623671,187.943448 143.262267,206.776219 220.35094,169.121841 141.712344,150.289071" fill="none" stroke="black" stroke-width="1.066667"/>
</g>
<g id="s8">
<line x1="141.712344" y1="222.457464" x2="141.712344" y2="150.289071" stroke="black" stroke-width="1.066667"/>
</g>
<g id="s9">
<line x1="64.623671" y1="260.111842" x2="64.623671" y2="187.943448" stroke="black" stroke-width="1.066667"/>
</g>
<g id="s10">
<line x1="143.262267" y1="278.944612" x2="143.262267" y2="206.776219" stroke="black" stroke-width="1.066667"/>
</g>
<g id="s11">
<line x1="220.35094" y1="241.290235" x2="220.35094" y2="169.121841" stroke="black" stroke-width="1.066667"/>
</g>
</svg>
