<svg xmlns="http://www.w3.org/2000/svg" width="518.008927" height="166.567356" viewBox="0 0 518.008927 166.567356" font-family="sans-serif" font-size="14.666667" fill="none">
<g id="s0">
<polyline points="42.778388,112.63123 9.944454,128.296118 100.154946,133.99767 132.988879,118.332783 42.778388,112.63123" fill="none" stroke="black" stroke-width="1.066667"/>
</g>
<g id="s1">
<polyline points="42.778388,18.089686 9.944454,33.754573 100.154946,39.456126 132.988879,23.791239 42.778388,18.089686" fill="none" stroke="black" stroke-width="1.066667"/>
</g>
<g id="s2">
<line x1="42.778388" y1="112.63123" x2="42.778388" y2="18.089686" stroke="black" stroke-width="1.066667"/>
</g>
<g id="s3">
<line x1="9.944454" y1="128.296118" x2="9.944454" y2="33.754573" stroke="black" stroke-width="1.066667"/>
</g>
<g id="s4">
<line x1="100.154946" y1="133.99767" x2="100.154946" y2="39.456126" stroke="black" stroke-width="1.066667"/>
</g>
<g id="s5">
<line x1="132.988879" y1="118.332783" x2="132.988879" y2="23.791239" stroke="black" stroke-width="1.066667"/>
</g>
<g id="s6">
<polyline points="258.47113,83.671772 190.588879,117.612898 258.47113,151.554023 326.353381,117.612898 258.47113,83.671772" fill="none" stroke="black" stroke-width="1.066667"/>
</g>
<g id="s7">
<polyline points="258.47113,0.533333 190.588879,34.474459 258.47113,68.415584 326.353381,34.474459 258.47113,0.533333" fill="none" stroke="black" stroke-width="1.066667"/>
</g>
<g id="s8">
<line x1="258.47113" y1="83.671772" x2="258.47113" y2="0.533333" stroke="black" stroke-width="1.066667"/>
</g>
<g id="s9">
<line x1="190.588879" y1="117.612898" x2="190.588879" y2="34.474459" stroke="black" stroke-width="1.066667"/>
</g>
<g id="s10">
<line x1="258.47113" y1="151.554023" x2="258.47113" y2="68.415584" stroke="black" stroke-width="1.066667"/>
</g>
<g id="s11">
<line x1="326.353381" y1="117.612898" x2="326.353381" y2="34.474459" stroke="black" stroke-width="1.066667"/>
</g>
<g id="s12">
<polyline points="474.163873,106.484998 383.953381,114.983045 416.787315,138.331238 506.997807,129.833191 474.163873,106.484998" fill="none" stroke="black" stroke-width="1.066667"/>
</g>
<g id="s13">
<polyline points="474.163873,13.756118 383.953381,22.254166 416.787315,45.602359 506.997807,37.104312 474.163873,13.756118" fill="none" stroke="black" stroke-width="1.066667"/>
</g>
<g id="s14">
<line x1="474.163873" y1="106.484998" x2="474.163873" y2="13.756118" stroke="black" stroke-width="1.066667"/>
</g>
<g id="s15">
<line x1="383.953381" y1="114.983045" x2="383.953381" y2="22.254166" stroke="black" stroke-width="1.066667"/>
</g>
<g id="s16">
<line x1="416.787315" y1="138.331238" x2="416.787315" y2="45.602359" stroke="black" stroke-width="1.066667"/>
</g>
<g id="s17">
<line x1="506.997807" y1="129.833191" x2="506.997807" y2="37.104312" stroke="black" stroke-width="1.066667"/>
</g>
<g id="s18">
<text font-size="11pt" stroke-width="0.266667" fill="black" x="71.466667" y="146.344337" text-anchor="middle">azim 20, elev 10</text>
</g>
<g id="s19">
<text font-size="11pt" stroke-width="0.266667" fill="black" x="258.47113" y="163.90069" text-anchor="middle">azim 45, elev 30</text>
</g>
<g id="s20">
<text font-size="11pt" stroke-width="0.266667" fill="black" x="445.475594" y="150.677905" text-anchor="middle">azim 70, elev 15</text>
</g>
</svg>
