<svg xmlns="http://www.w3.org/2000/svg" width="522.809" height="167.821" viewBox="0 0 522.809 167.821" font-family="sans-serif" font-size="14.667">
<g id="s0">
<polyline points="45.712,116.098 12.878,131.763 103.088,137.464 135.922,121.799 45.712,116.098" fill="none" stroke="black" stroke-width="1.067"/>
</g>
<g id="s1">
<polyline points="45.712,21.556 12.878,37.221 103.088,42.923 135.922,27.258 45.712,21.556" fill="none" stroke="black" stroke-width="1.067"/>
</g>
<g id="s2">
<polyline points="45.712,116.098 45.712,21.556" fill="none" stroke="black" stroke-width="1.067"/>
</g>
<g id="s3">
<polyline points="12.878,131.763 12.878,37.221" fill="none" stroke="black" stroke-width="1.067"/>
</g>
<g id="s4">
<polyline points="103.088,137.464 103.088,42.923" fill="none" stroke="black" stroke-width="1.067"/>
</g>
<g id="s5">
<polyline points="135.922,121.799 135.922,27.258" fill="none" stroke="black" stroke-width="1.067"/>
</g>
<g id="s6">
<polyline points="261.404,87.138 193.522,121.08 261.404,155.021 329.287,121.08 261.404,87.138" fill="none" stroke="black" stroke-width="1.067"/>
</g>
<g id="s7">
<polyline points="261.404,4 193.522,37.941 261.404,71.882 329.287,37.941 261.404,4" fill="none" stroke="black" stroke-width="1.067"/>
</g>
<g id="s8">
<polyline points="261.404,87.138 261.404,4" fill="none" stroke="black" stroke-width="1.067"/>
</g>
<g id="s9">
<polyline points="193.522,121.08 193.522,37.941" fill="none" stroke="black" stroke-width="1.067"/>
</g>
<g id="s10">
<polyline points="261.404,155.021 261.404,71.882" fill="none" stroke="black" stroke-width="1.067"/>
</g>
<g id="s11">
<polyline points="329.287,121.08 329.287,37.941" fill="none" stroke="black" stroke-width="1.067"/>
</g>
<g id="s12">
<polyline points="477.097,109.952 386.887,118.45 419.721,141.798 509.931,133.3 477.097,109.952" fill="none" stroke="black" stroke-width="1.067"/>
</g>
<g id="s13">
<polyline points="477.097,17.223 386.887,25.721 419.721,49.069 509.931,40.571 477.097,17.223" fill="none" stroke="black" stroke-width="1.067"/>
</g>
<g id="s14">
<polyline points="477.097,109.952 477.097,17.223" fill="none" stroke="black" stroke-width="1.067"/>
</g>
<g id="s15">
<polyline points="386.887,118.45 386.887,25.721" fill="none" stroke="black" stroke-width="1.067"/>
</g>
<g id="s16">
<polyline points="419.721,141.798 419.721,49.069" fill="none" stroke="black" stroke-width="1.067"/>
</g>
<g id="s17">
<polyline points="509.931,133.3 509.931,40.571" fill="none" stroke="black" stroke-width="1.067"/>
</g>
<g id="s18">
<text x="74.4" y="137.464" text-anchor="middle" dominant-baseline="central">azim 20, elev 10</text>
</g>
<g id="s19">
<text x="261.404" y="155.021" text-anchor="middle" dominant-baseline="central">azim 45, elev 30</text>
</g>
<g id="s20">
<text x="448.409" y="141.798" text-anchor="middle" dominant-baseline="central">azim 70, elev 15</text>
</g>
</svg>
