<svg xmlns="http://www.w3.org/2000/svg" width="597.998" height="243.149" viewBox="0 0 597.998 243.149" font-family="sans-serif" font-size="14.667">
<g id="s0">
<polyline points="186.905,103.834 282.905,46.963 282.905,46.963 100,10.846 100,10.846 4,67.716 4,67.716 4,203.032 4,203.032 186.905,239.149 186.905,239.149 282.905,182.279 282.905,182.279 282.905,46.963" fill="none" stroke="black" stroke-width="1.067"/>
</g>
<g id="s1">
<polyline points="36.785,64.712 108.785,22.059 108.785,22.059 250.12,49.968 250.12,49.968 178.12,92.621" fill="none" stroke="black" stroke-width="1.067"/>
</g>
<g id="s2">
<polyline points="198.905,119.277 270.905,76.625 270.905,76.625 270.905,166.835 270.905,166.835 198.905,209.488" fill="none" stroke="black" stroke-width="1.067"/>
</g>
<g id="s3">
<polyline points="166.12,212.492 24.785,184.584 24.785,184.584 24.785,94.373" fill="none" stroke="black" stroke-width="1.067"/>
</g>
<g id="s4">
<polyline points="108.785,22.059 108.785,157.375" fill="none" stroke="black" stroke-width="1.067"/>
</g>
<g id="s5">
<polyline points="24.785,184.584 120.785,127.714" fill="none" stroke="black" stroke-width="1.067"/>
</g>
<g id="s6">
<polyline points="270.905,166.835 88,130.718" fill="none" stroke="black" stroke-width="1.067"/>
</g>
<g id="s7">
<polyline points="250.12,162.731 250.12,88.938" fill="none" stroke="black" stroke-width="1.067"/>
</g>
<g id="s8">
<polyline points="250.12,162.731 198.905,193.071" fill="none" stroke="black" stroke-width="1.067"/>
</g>
<g id="s9">
<polyline points="108.785,157.375 221.567,179.646" fill="none" stroke="black" stroke-width="1.067"/>
</g>
<g id="s10">
<polyline points="36.785,177.475 36.785,96.743" fill="none" stroke="black" stroke-width="1.067"/>
</g>
<g id="s11">
<polyline points="36.785,177.475 166.12,203.014" fill="none" stroke="black" stroke-width="1.067"/>
</g>
<g id="s12">
<polyline points="88,130.718 36.785,161.058" fill="none" stroke="black" stroke-width="1.067"/>
</g>
<g id="s13">
<polyline points="108.785,157.375 65.337,183.113" fill="none" stroke="black" stroke-width="1.067"/>
</g>
<g id="s14">
<polyline points="88,130.718 88,56.924" fill="none" stroke="black" stroke-width="1.067"/>
</g>
<g id="s15">
<polyline points="120.785,127.714 120.785,46.981" fill="none" stroke="black" stroke-width="1.067"/>
</g>
<g id="s16">
<polyline points="120.785,127.714 250.12,153.253" fill="none" stroke="black" stroke-width="1.067"/>
</g>
<g id="s17">
<polyline points="36.785,64.712 88,74.825" fill="none" stroke="black" stroke-width="1.067"/>
</g>
<g id="s18">
<polyline points="4,67.716 88,84.303" fill="none" stroke="black" stroke-width="1.067"/>
</g>
<g id="s19">
<polyline points="24.785,94.373 88,106.856" fill="none" stroke="black" stroke-width="1.067"/>
</g>
<g id="s20">
<polyline points="108.785,44.612 221.567,66.882" fill="none" stroke="black" stroke-width="1.067"/>
</g>
<g id="s21">
<polyline points="108.785,44.612 65.337,70.35" fill="none" stroke="black" stroke-width="1.067"/>
</g>
<g id="s22">
<polyline points="186.905,239.149 186.905,172.801" fill="none" stroke="black" stroke-width="1.067"/>
</g>
<g id="s23">
<polyline points="198.905,209.488 198.905,175.17" fill="none" stroke="black" stroke-width="1.067"/>
</g>
<g id="s24">
<polyline points="166.12,212.492 166.12,168.697" fill="none" stroke="black" stroke-width="1.067"/>
</g>
<g id="s25">
<polyline points="198.905,119.277 198.905,143.139" fill="none" stroke="black" stroke-width="1.067"/>
</g>
<g id="s26">
<polyline points="186.905,103.834 186.905,140.77" fill="none" stroke="black" stroke-width="1.067"/>
</g>
<g id="s27">
<polyline points="166.12,122.282 166.12,136.666" fill="none" stroke="black" stroke-width="1.067"/>
</g>
<g id="s28">
<polyline points="166.12,122.282 120.785,113.33" fill="none" stroke="black" stroke-width="1.067"/>
</g>
<g id="s29">
<polyline points="186.905,103.834 120.785,90.777" fill="none" stroke="black" stroke-width="1.067"/>
</g>
<g id="s30">
<polyline points="178.12,92.621 120.785,81.299" fill="none" stroke="black" stroke-width="1.067"/>
</g>
<g id="s31">
<polyline points="302.105,197.358 302.105,62.043 302.105,62.043 471.81,4 471.81,4 593.998,45.791 593.998,45.791 593.998,181.107 593.998,181.107 424.293,239.149 424.293,239.149 302.105,197.358" fill="none" stroke="black" stroke-width="1.067"/>
</g>
<g id="s32">
<polyline points="336.046,62.043 471.81,15.609 471.81,15.609 560.057,45.791 560.057,45.791 424.293,92.225 424.293,92.225 336.046,62.043" fill="none" stroke="black" stroke-width="1.067"/>
</g>
<g id="s33">
<polyline points="336.046,197.358 471.81,150.924 471.81,150.924 560.057,181.107 560.057,181.107 424.293,227.541 424.293,227.541 336.046,197.358" fill="none" stroke="black" stroke-width="1.067"/>
</g>
<g id="s34">
<polyline points="441.263,120.582 577.028,74.148 577.028,74.148 577.028,164.358 577.028,164.358 488.781,134.176" fill="none" stroke="black" stroke-width="1.067"/>
</g>
<g id="s35">
<polyline points="407.322,120.582 319.075,90.4 319.075,90.4 319.075,180.61 319.075,180.61 454.84,134.176" fill="none" stroke="black" stroke-width="1.067"/>
</g>
<g id="s36">
<polyline points="302.105,62.043 424.293,103.834 424.293,103.834 593.998,45.791" fill="none" stroke="black" stroke-width="1.067"/>
</g>
<g id="s37">
<polyline points="302.105,197.358 471.81,139.316 471.81,139.316 593.998,181.107" fill="none" stroke="black" stroke-width="1.067"/>
</g>
<g id="s38">
<polyline points="488.781,134.176 488.781,104.33" fill="none" stroke="black" stroke-width="1.067"/>
</g>
<g id="s39">
<polyline points="471.81,139.316 471.81,110.134" fill="none" stroke="black" stroke-width="1.067"/>
</g>
<g id="s40">
<polyline points="454.84,134.176 454.84,115.938" fill="none" stroke="black" stroke-width="1.067"/>
</g>
<g id="s41">
<polyline points="441.263,120.582 441.263,138.819" fill="none" stroke="black" stroke-width="1.067"/>
</g>
<g id="s42">
<polyline points="424.293,103.834 424.293,144.624" fill="none" stroke="black" stroke-width="1.067"/>
</g>
<g id="s43">
<polyline points="407.322,120.582 407.322,150.428" fill="none" stroke="black" stroke-width="1.067"/>
</g>
<g id="s44">
<polyline points="454.84,43.965 454.84,81.777" fill="none" stroke="black" stroke-width="1.067"/>
</g>
<g id="s45">
<polyline points="454.84,43.965 369.015,73.319" fill="none" stroke="black" stroke-width="1.067"/>
</g>
<g id="s46">
<polyline points="471.81,15.609 471.81,75.973" fill="none" stroke="black" stroke-width="1.067"/>
</g>
<g id="s47">
<polyline points="488.781,43.965 488.781,70.169" fill="none" stroke="black" stroke-width="1.067"/>
</g>
<g id="s48">
<polyline points="488.781,43.965 527.087,57.067" fill="none" stroke="black" stroke-width="1.067"/>
</g>
<g id="s49">
<polyline points="407.322,210.792 352.045,191.886" fill="none" stroke="black" stroke-width="1.067"/>
</g>
<g id="s50">
<polyline points="407.322,210.792 407.322,172.981" fill="none" stroke="black" stroke-width="1.067"/>
</g>
<g id="s51">
<polyline points="424.293,227.541 424.293,167.176" fill="none" stroke="black" stroke-width="1.067"/>
</g>
<g id="s52">
<polyline points="441.263,210.792 441.263,161.372" fill="none" stroke="black" stroke-width="1.067"/>
</g>
<g id="s53">
<polyline points="441.263,210.792 544.058,175.634" fill="none" stroke="black" stroke-width="1.067"/>
</g>
<g id="s54">
<polyline points="336.046,174.806 336.046,96.204" fill="none" stroke="black" stroke-width="1.067"/>
</g>
<g id="s55">
<polyline points="560.057,158.554 560.057,79.952" fill="none" stroke="black" stroke-width="1.067"/>
</g>
</svg>
