<svg xmlns="http://www.w3.org/2000/svg" width="593.198245" height="238.349255" viewBox="0 0 593.198245 238.349255" font-family="sans-serif" font-size="14.666667" fill="none">
<g id="s0">
<polyline points="183.971232,100.366851 279.971232,43.49681 279.971232,43.49681 97.066667,7.379483 97.066667,7.379483 1.066667,64.249524 1.066667,64.249524 1.066667,199.565262 1.066667,199.565262 183.971232,235.682589 183.971232,235.682589 279.971232,178.812547 279.971232,178.812547 279.971232,43.49681" fill="none" stroke="black" stroke-width="1.066667"/>
</g>
<g id="s1">
<polyline points="33.851276,61.245011 105.851276,18.59248 105.851276,18.59248 247.186622,46.501323 247.186622,46.501323 175.186622,89.153854" fill="none" stroke="black" stroke-width="1.066667"/>
</g>
<g id="s2">
<polyline points="195.971232,115.810719 267.971232,73.158188 267.971232,73.158188 267.971232,163.36868 267.971232,163.36868 195.971232,206.021211" fill="none" stroke="black" stroke-width="1.066667"/>
</g>
<g id="s3">
<polyline points="163.186622,209.025724 21.851276,181.11688 21.851276,181.11688 21.851276,90.906389" fill="none" stroke="black" stroke-width="1.066667"/>
</g>
<g id="s4">
<line x1="105.851276" y1="18.59248" x2="105.851276" y2="153.908217" stroke="black" stroke-width="1.066667"/>
</g>
<g id="s5">
<line x1="21.851276" y1="181.11688" x2="117.851276" y2="124.246839" stroke="black" stroke-width="1.066667"/>
</g>
<g id="s6">
<line x1="267.971232" y1="163.36868" x2="85.066667" y2="127.251352" stroke="black" stroke-width="1.066667"/>
</g>
<g id="s7">
<line x1="247.186622" y1="159.264438" x2="247.186622" y2="85.470913" stroke="black" stroke-width="1.066667"/>
</g>
<g id="s8">
<line x1="247.186622" y1="159.264438" x2="195.971232" y2="189.604244" stroke="black" stroke-width="1.066667"/>
</g>
<g id="s9">
<line x1="105.851276" y1="153.908217" x2="218.633999" y2="176.178905" stroke="black" stroke-width="1.066667"/>
</g>
<g id="s10">
<line x1="33.851276" y1="174.008125" x2="33.851276" y2="93.275974" stroke="black" stroke-width="1.066667"/>
</g>
<g id="s11">
<line x1="33.851276" y1="174.008125" x2="163.186622" y2="199.547384" stroke="black" stroke-width="1.066667"/>
</g>
<g id="s12">
<line x1="85.066667" y1="127.251352" x2="33.851276" y2="157.591158" stroke="black" stroke-width="1.066667"/>
</g>
<g id="s13">
<line x1="105.851276" y1="153.908217" x2="62.403899" y2="179.646281" stroke="black" stroke-width="1.066667"/>
</g>
<g id="s14">
<line x1="85.066667" y1="127.251352" x2="85.066667" y2="53.457828" stroke="black" stroke-width="1.066667"/>
</g>
<g id="s15">
<line x1="117.851276" y1="124.246839" x2="117.851276" y2="43.514688" stroke="black" stroke-width="1.066667"/>
</g>
<g id="s16">
<line x1="117.851276" y1="124.246839" x2="247.186622" y2="149.786098" stroke="black" stroke-width="1.066667"/>
</g>
<g id="s17">
<line x1="33.851276" y1="61.245011" x2="85.066667" y2="71.358279" stroke="black" stroke-width="1.066667"/>
</g>
<g id="s18">
<line x1="1.066667" y1="64.249524" x2="85.066667" y2="80.83662" stroke="black" stroke-width="1.066667"/>
</g>
<g id="s19">
<line x1="21.851276" y1="90.906389" x2="85.066667" y2="103.389243" stroke="black" stroke-width="1.066667"/>
</g>
<g id="s20">
<line x1="105.851276" y1="41.145103" x2="218.633999" y2="63.415791" stroke="black" stroke-width="1.066667"/>
</g>
<g id="s21">
<line x1="105.851276" y1="41.145103" x2="62.403899" y2="66.883166" stroke="black" stroke-width="1.066667"/>
</g>
<g id="s22">
<line x1="183.971232" y1="235.682589" x2="183.971232" y2="169.334207" stroke="black" stroke-width="1.066667"/>
</g>
<g id="s23">
<line x1="195.971232" y1="206.021211" x2="195.971232" y2="171.703792" stroke="black" stroke-width="1.066667"/>
</g>
<g id="s24">
<line x1="163.186622" y1="209.025724" x2="163.186622" y2="165.229965" stroke="black" stroke-width="1.066667"/>
</g>
<g id="s25">
<line x1="195.971232" y1="115.810719" x2="195.971232" y2="139.672829" stroke="black" stroke-width="1.066667"/>
</g>
<g id="s26">
<line x1="183.971232" y1="100.366851" x2="183.971232" y2="137.303244" stroke="black" stroke-width="1.066667"/>
</g>
<g id="s27">
<line x1="163.186622" y1="118.815233" x2="163.186622" y2="133.199002" stroke="black" stroke-width="1.066667"/>
</g>
<g id="s28">
<line x1="163.186622" y1="118.815233" x2="117.851276" y2="109.863069" stroke="black" stroke-width="1.066667"/>
</g>
<g id="s29">
<line x1="183.971232" y1="100.366851" x2="117.851276" y2="87.310446" stroke="black" stroke-width="1.066667"/>
</g>
<g id="s30">
<line x1="175.186622" y1="89.153854" x2="117.851276" y2="77.832106" stroke="black" stroke-width="1.066667"/>
</g>
<g id="s31">
<polyline points="299.171232,193.891814 299.171232,58.576076 299.171232,58.576076 468.876859,0.533333 468.876859,0.533333 591.064911,42.324108 591.064911,42.324108 591.064911,177.639846 591.064911,177.639846 421.359284,235.682589 421.359284,235.682589 299.171232,193.891814" fill="none" stroke="black" stroke-width="1.066667"/>
</g>
<g id="s32">
<polyline points="333.112357,58.576076 468.876859,12.141882 468.876859,12.141882 557.123786,42.324108 557.123786,42.324108 421.359284,88.758303 421.359284,88.758303 333.112357,58.576076" fill="none" stroke="black" stroke-width="1.066667"/>
</g>
<g id="s33">
<polyline points="333.112357,193.891814 468.876859,147.457619 468.876859,147.457619 557.123786,177.639846 557.123786,177.639846 421.359284,224.07404 421.359284,224.07404 333.112357,193.891814" fill="none" stroke="black" stroke-width="1.066667"/>
</g>
<g id="s34">
<polyline points="438.329846,117.1152 574.094348,70.681006 574.094348,70.681006 574.094348,160.891497 574.094348,160.891497 485.847422,130.709271" fill="none" stroke="black" stroke-width="1.066667"/>
</g>
<g id="s35">
<polyline points="404.388721,117.1152 316.141795,86.932974 316.141795,86.932974 316.141795,177.143465 316.141795,177.143465 451.906297,130.709271" fill="none" stroke="black" stroke-width="1.066667"/>
</g>
<g id="s36">
<polyline points="299.171232,58.576076 421.359284,100.366851 421.359284,100.366851 591.064911,42.324108" fill="none" stroke="black" stroke-width="1.066667"/>
</g>
<g id="s37">
<polyline points="299.171232,193.891814 468.876859,135.849071 468.876859,135.849071 591.064911,177.639846" fill="none" stroke="black" stroke-width="1.066667"/>
</g>
<g id="s38">
<line x1="485.847422" y1="130.709271" x2="485.847422" y2="100.863232" stroke="black" stroke-width="1.066667"/>
</g>
<g id="s39">
<line x1="468.876859" y1="135.849071" x2="468.876859" y2="106.667506" stroke="black" stroke-width="1.066667"/>
</g>
<g id="s40">
<line x1="451.906297" y1="130.709271" x2="451.906297" y2="112.471781" stroke="black" stroke-width="1.066667"/>
</g>
<g id="s41">
<line x1="438.329846" y1="117.1152" x2="438.329846" y2="135.35269" stroke="black" stroke-width="1.066667"/>
</g>
<g id="s42">
<line x1="421.359284" y1="100.366851" x2="421.359284" y2="141.156964" stroke="black" stroke-width="1.066667"/>
</g>
<g id="s43">
<line x1="404.388721" y1="117.1152" x2="404.388721" y2="146.961239" stroke="black" stroke-width="1.066667"/>
</g>
<g id="s44">
<line x1="451.906297" y1="40.498779" x2="451.906297" y2="78.310609" stroke="black" stroke-width="1.066667"/>
</g>
<g id="s45">
<line x1="451.906297" y1="40.498779" x2="366.082086" y2="69.852388" stroke="black" stroke-width="1.066667"/>
</g>
<g id="s46">
<line x1="468.876859" y1="12.141882" x2="468.876859" y2="72.506335" stroke="black" stroke-width="1.066667"/>
</g>
<g id="s47">
<line x1="485.847422" y1="40.498779" x2="485.847422" y2="66.70206" stroke="black" stroke-width="1.066667"/>
</g>
<g id="s48">
<line x1="485.847422" y1="40.498779" x2="524.154057" y2="53.60042" stroke="black" stroke-width="1.066667"/>
</g>
<g id="s49">
<line x1="404.388721" y1="207.325692" x2="349.111524" y2="188.419777" stroke="black" stroke-width="1.066667"/>
</g>
<g id="s50">
<line x1="404.388721" y1="207.325692" x2="404.388721" y2="169.513862" stroke="black" stroke-width="1.066667"/>
</g>
<g id="s51">
<line x1="421.359284" y1="224.07404" x2="421.359284" y2="163.709587" stroke="black" stroke-width="1.066667"/>
</g>
<g id="s52">
<line x1="438.329846" y1="207.325692" x2="438.329846" y2="157.905313" stroke="black" stroke-width="1.066667"/>
</g>
<g id="s53">
<line x1="438.329846" y1="207.325692" x2="541.124619" y2="172.167809" stroke="black" stroke-width="1.066667"/>
</g>
<g id="s54">
<line x1="333.112357" y1="171.339191" x2="333.112357" y2="92.737248" stroke="black" stroke-width="1.066667"/>
</g>
<g id="s55">
<line x1="557.123786" y1="155.087223" x2="557.123786" y2="76.48528" stroke="black" stroke-width="1.066667"/>
</g>
</svg>
