<svg xmlns="http://www.w3.org/2000/svg" width="435.2" height="161.64" viewBox="0 0 435.2 161.64" font-family="sans-serif" font-size="14.666667" fill="none">
<g id="s0">
<polyline points="1.066667,158.973333 1.066667,14.973333 193.066667,14.973333 193.066667,158.973333" fill="none" stroke="black" stroke-width="0.533333" stroke-dasharray="0.5,2.666667" stroke-linecap="round"/>
</g>
<g id="s1">
<path d="M 1.066667 158.973333 C 1.066667 134.973333 1.066667 110.973333 1.066667 86.973333 1.066667 38.973333 33.066667 14.973333 97.066667 14.973333 161.066667 14.973333 193.066667 38.973333 193.066667 86.973333 193.066667 110.973333 193.066667 134.973333 193.066667 158.973333" fill="none" stroke="black" stroke-width="1.066667"/>
</g>
<g id="s2">
<polyline points="241.066667,158.973333 241.066667,14.973333 433.066667,14.973333 433.066667,158.973333" fill="none" stroke="black" stroke-width="0.533333" stroke-dasharray="0.5,2.666667" stroke-linecap="round"/>
</g>
<g id="s3">
<path d="M 241.066667 158.973333 C 241.066667 130.173333 317.866667 14.973333 337.066667 14.973333 C 356.266667 14.973333 433.066667 130.173333 433.066667 158.973333" fill="none" stroke="black" stroke-width="1.066667"/>
</g>
<g id="s4">
<path d="M 241.066667 158.973333 C 241.066667 72.573333 279.466667 14.973333 337.066667 14.973333 C 394.666667 14.973333 433.066667 72.573333 433.066667 158.973333" fill="none" stroke="black" stroke-width="1.066667"/>
</g>
<g id="s5">
<path d="M 241.066667 158.973333 C 241.066667 14.973333 241.066667 14.973333 337.066667 14.973333 C 433.066667 14.973333 433.066667 14.973333 433.066667 158.973333" fill="none" stroke="black" stroke-width="1.066667"/>
</g>
<g id="s6">
<path d="M 241.066667 158.973333 C 241.066667 -42.626667 202.666667 14.973333 337.066667 14.973333 C 471.466667 14.973333 433.066667 -42.626667 433.066667 158.973333" fill="none" stroke="black" stroke-width="1.066667"/>
</g>
<g id="s7">
<text font-size="11pt" stroke-width="0.266667" fill="black" x="277.333333" y="96.613333" text-anchor="start">\small x = .2</text>
</g>
<g id="s8">
<text font-size="11pt" stroke-width="0.266667" fill="black" x="269.866667" y="67.813333" text-anchor="middle">\small .6</text>
</g>
<g id="s9">
<text font-size="11pt" stroke-width="0.266667" fill="black" x="260.266667" y="43.813333" text-anchor="middle">\small 1.0</text>
</g>
<g id="s10">
<text font-size="11pt" stroke-width="0.266667" fill="black" x="279.466667" y="10.213333" text-anchor="middle">\small 1.4</text>
</g>
</svg>
