<svg xmlns="http://www.w3.org/2000/svg" width="681.2" height="612.8" viewBox="0 0 681.2 612.8" font-family="sans-serif" font-size="14.666667" fill="none">
<g id="s0">
</g>
<g id="s1">
</g>
<g id="s2">
<path stroke-width="0" stroke="rgb(0,0,15)" fill="rgb(0,0,15)" d="M 1.474432,122.70748 L 4.829773,121.402992 A 6 6 0 0 0 7.066667 126.533333 A 6 6 0 0 1 -1.880909 124.011968 L 1.474432,122.70748"/>
<path stroke-width="0" stroke="rgb(0,0,15)" fill="rgb(0,0,15)" d="M 9.240813,114.941099 L 7.936325,118.29644 A 6 6 0 0 1 13.066667 120.533333 A 6 6 0 0 0 10.545301 111.585758 L 9.240813,114.941099"/>
<path d="M 6.00561 126.438768 A 6 6 0 1 1 12.972101 119.472276" fill="none" stroke="rgb(0,0,15)" stroke-width="1.066667"/>
</g>
<g id="s3">
</g>
<g id="s4">
</g>
<g id="s5">
<path stroke-width="0" stroke="rgb(0,0,31)" fill="rgb(0,0,31)" d="M 19.882198,124.881626 L 26.592879,122.272651 A 12 12 0 0 0 31.066667 132.533333 A 12 12 0 0 1 13.171516 127.490602 L 19.882198,124.881626"/>
<path stroke-width="0" stroke="rgb(0,0,31)" fill="rgb(0,0,31)" d="M 35.41496,109.348864 L 32.805984,116.059546 A 12 12 0 0 1 43.066667 120.533333 A 12 12 0 0 0 38.023936 102.638183 L 35.41496,109.348864"/>
<path d="M 28.944553 132.344203 A 12 12 0 1 1 42.877536 118.41122" fill="none" stroke="rgb(0,0,31)" stroke-width="2.133333"/>
</g>
<g id="s6">
</g>
<g id="s7">
</g>
<g id="s8">
<path stroke-width="0" stroke="rgb(0,0,63)" fill="rgb(0,0,63)" d="M 56.697729,129.229919 L 70.119091,124.011968 A 24 24 0 0 0 79.066667 144.533333 A 24 24 0 0 1 43.276366 134.447871 L 56.697729,129.229919"/>
<path stroke-width="0" stroke="rgb(0,0,63)" fill="rgb(0,0,63)" d="M 87.763253,98.164395 L 82.545301,111.585758 A 24 24 0 0 1 103.066667 120.533333 A 24 24 0 0 0 92.981204 84.743032 L 87.763253,98.164395"/>
<path d="M 74.822439 144.155072 A 24 24 0 1 1 102.688405 116.289106" fill="none" stroke="rgb(0,0,63)" stroke-width="4.266667"/>
</g>
<g id="s9">
</g>
<g id="s10">
</g>
<g id="s11">
<path stroke-width="0" stroke="rgb(0,0,127)" fill="rgb(0,0,127)" d="M 130.328791,137.926506 L 157.171516,127.490602 A 48 48 0 0 0 175.066667 168.533333 A 48 48 0 0 1 103.486065 148.362409 L 130.328791,137.926506"/>
<path stroke-width="0" stroke="rgb(0,0,127)" fill="rgb(0,0,127)" d="M 192.459839,75.795457 L 182.023936,102.638183 A 48 48 0 0 1 223.066667 120.533333 A 48 48 0 0 0 202.895742 48.952732 L 192.459839,75.795457"/>
<path d="M 166.578212 167.77681 A 48 48 0 1 1 222.310144 112.044878" fill="none" stroke="rgb(0,0,127)" stroke-width="8.533333"/>
</g>
<g id="s12">
</g>
<g id="s13">
</g>
<g id="s14">
<path stroke-width="0" stroke="rgb(0,0,255)" fill="rgb(0,0,255)" d="M 277.590914,155.319678 L 331.276366,134.447871 A 96 96 0 0 0 367.066667 216.533333 A 96 96 0 0 1 223.905463 176.191484 L 277.590914,155.319678"/>
<path stroke-width="0" stroke="rgb(0,0,255)" fill="rgb(0,0,255)" d="M 401.853011,31.057581 L 380.981204,84.743032 A 96 96 0 0 1 463.066667 120.533333 A 96 96 0 0 0 422.724818 -22.62787 L 401.853011,31.057581"/>
<path d="M 350.089757 215.020288 A 96 96 0 1 1 461.553621 103.556423" fill="none" stroke="rgb(0,0,255)" stroke-width="17.066667"/>
</g>
<g id="s15">
</g>
<g id="s16">
<path stroke-width="0" stroke="rgb(0,0,15)" fill="rgb(0,0,15)" d="M 4.989723,375.757234 A 7.066667 7.066667 0 0 1 3.204269 371.249104 L 4.270549,371.220407 A 6 6 0 0 0 7.066667 376.133333 A 6 6 0 0 1 -1.321685 373.394553 L -0.351693,372.950827 A 4.933333 4.933333 0 0 0 4.989723 375.757234"/>
<path stroke-width="0" stroke="rgb(0,0,15)" fill="rgb(0,0,15)" d="M 12.690568,368.056389 A 7.066667 7.066667 0 0 0 8.182438 366.270936 L 8.15374,367.337216 A 6 6 0 0 1 13.066667 370.133333 A 6 6 0 0 0 10.327886 361.744982 L 9.88416,362.714974 A 4.933333 4.933333 0 0 1 12.690568 368.056389"/>
<path d="M 5.796354 375.997317 A 6 6 0 1 1 12.93065 368.86302" fill="none" stroke="rgb(0,0,15)" stroke-width="1.066667"/>
</g>
<g id="s17">
</g>
<g id="s18">
</g>
<g id="s19">
<path stroke-width="0" stroke="rgb(0,0,31)" fill="rgb(0,0,31)" d="M 26.912779,381.381135 A 14.133333 14.133333 0 0 1 23.341871 372.364875 L 25.474432,372.30748 A 12 12 0 0 0 31.066667 382.133333 A 12 12 0 0 1 14.289963 376.655773 L 16.229947,375.76832 A 9.866667 9.866667 0 0 0 26.912779 381.381135"/>
<path stroke-width="0" stroke="rgb(0,0,31)" fill="rgb(0,0,31)" d="M 42.314469,365.979445 A 14.133333 14.133333 0 0 0 33.298209 362.408538 L 33.240813,364.541099 A 12 12 0 0 1 43.066667 370.133333 A 12 12 0 0 0 37.589106 353.35663 L 36.701653,355.296614 A 9.866667 9.866667 0 0 1 42.314469 365.979445"/>
<path d="M 28.526041 381.861301 A 12 12 0 1 1 42.794634 367.592707" fill="none" stroke="rgb(0,0,31)" stroke-width="2.133333"/>
</g>
<g id="s20">
</g>
<g id="s21">
</g>
<g id="s22">
<path stroke-width="0" stroke="rgb(0,0,63)" fill="rgb(0,0,63)" d="M 70.758891,392.628938 A 28.266667 28.266667 0 0 1 63.617075 374.596418 L 67.882198,374.481626 A 24 24 0 0 0 79.066667 394.133333 A 24 24 0 0 1 45.51326 383.178212 L 49.393228,381.403307 A 19.733333 19.733333 0 0 0 70.758891 392.628938"/>
<path stroke-width="0" stroke="rgb(0,0,63)" fill="rgb(0,0,63)" d="M 101.562271,361.825557 A 28.266667 28.266667 0 0 0 83.529751 354.683742 L 83.41496,358.948864 A 24 24 0 0 1 103.066667 370.133333 A 24 24 0 0 0 92.111546 336.579926 L 90.33664,340.459895 A 19.733333 19.733333 0 0 1 101.562271 361.825557"/>
<path d="M 73.985415 393.589268 A 24 24 0 1 1 102.522601 365.052081" fill="none" stroke="rgb(0,0,63)" stroke-width="4.266667"/>
</g>
<g id="s23">
</g>
<g id="s24">
</g>
<g id="s25">
<path stroke-width="0" stroke="rgb(0,0,127)" fill="rgb(0,0,127)" d="M 158.451115,415.124542 A 56.533333 56.533333 0 0 1 144.167484 379.059502 L 152.697729,378.829919 A 48 48 0 0 0 175.066667 418.133333 A 48 48 0 0 1 107.959852 396.223092 L 115.719789,392.67328 A 39.466667 39.466667 0 0 0 158.451115 415.124542"/>
<path stroke-width="0" stroke="rgb(0,0,127)" fill="rgb(0,0,127)" d="M 220.057875,353.517782 A 56.533333 56.533333 0 0 0 183.992835 339.234151 L 183.763253,347.764395 A 48 48 0 0 1 223.066667 370.133333 A 48 48 0 0 0 201.156425 303.026519 L 197.606613,310.786456 A 39.466667 39.466667 0 0 1 220.057875 353.517782"/>
<path d="M 164.904162 417.045203 A 48 48 0 1 1 221.978536 359.970829" fill="none" stroke="rgb(0,0,127)" stroke-width="8.533333"/>
</g>
<g id="s26">
</g>
<g id="s27">
</g>
<g id="s28">
<path stroke-width="0" stroke="rgb(0,0,255)" fill="rgb(0,0,255)" d="M 333.835563,460.11575 A 113.066667 113.066667 0 0 1 305.268302 387.985671 L 322.328791,387.526506 A 96 96 0 0 0 367.066667 466.133333 A 96 96 0 0 1 232.853038 422.31285 L 248.372911,415.213227 A 78.933333 78.933333 0 0 0 333.835563 460.11575"/>
<path stroke-width="0" stroke="rgb(0,0,255)" fill="rgb(0,0,255)" d="M 457.049083,336.90223 A 113.066667 113.066667 0 0 0 384.919004 308.334968 L 384.459839,325.395457 A 96 96 0 0 1 463.066667 370.133333 A 96 96 0 0 0 419.246183 235.919705 L 412.14656,251.439578 A 78.933333 78.933333 0 0 1 457.049083 336.90223"/>
<path d="M 346.741658 463.957072 A 96 96 0 1 1 460.890406 349.808325" fill="none" stroke="rgb(0,0,255)" stroke-width="17.066667"/>
</g>
<g id="s29">
</g>
<g id="s30">
</g>
<g id="s31">
<path stroke-width="0" stroke="black" fill="black" d="M 45.341368,608.952384 A 53.333333 53.333333 0 0 1 29.558738 575.570115 L 34.871363,575.100589 A 48 48 0 0 0 55.066667 610.133333 A 48 48 0 0 1 -5.519244 601.035099 L -1.543586,597.48002 A 42.666667 42.666667 0 0 0 45.341368 608.952384"/>
<path stroke-width="0" stroke="black" fill="black" d="M 101.885717,552.408035 A 53.333333 53.333333 0 0 0 68.503448 536.625404 L 68.033922,541.93803 A 48 48 0 0 1 103.066667 562.133333 A 48 48 0 0 0 93.968433 501.547422 L 90.413353,505.52308 A 42.666667 42.666667 0 0 1 101.885717 552.408035"/>
<path d="M 49.7443 609.837342 A 48 48 0 1 1 102.770675 556.810967" fill="none" stroke="black" stroke-width="5.333333"/>
</g>
<g id="s32">
</g>
<g id="s33">
<path stroke-width="0" stroke="black" fill="black" d="M 184.501667,607.70646 A 56 56 0 0 1 170.902425 575.804878 L 178.871363,575.100589 A 48 48 0 0 0 199.066667 610.133333 A 48 48 0 0 1 138.480756 601.035099 L 144.444243,595.70248 A 40 40 0 0 0 184.501667 607.70646"/>
<path stroke-width="0" stroke="black" fill="black" d="M 244.639793,547.568334 A 56 56 0 0 0 212.738211 533.969091 L 212.033922,541.93803 A 48 48 0 0 1 247.066667 562.133333 A 48 48 0 0 0 237.968433 501.547422 L 232.635814,507.510909 A 40 40 0 0 1 244.639793 547.568334"/>
<path d="M 191.103652 609.468208 A 48 48 0 1 1 246.401542 554.170319" fill="none" stroke="black" stroke-width="8"/>
</g>
<g id="s34">
</g>
<g id="s35">
<path stroke-width="0" stroke="black" fill="black" d="M 321.274485,604.913095 A 60 60 0 0 1 310.917956 576.157022 L 322.871363,575.100589 A 48 48 0 0 0 343.066667 610.133333 A 48 48 0 0 1 282.480756 601.035099 L 291.425986,593.036171 A 36 36 0 0 0 321.274485 604.913095"/>
<path stroke-width="0" stroke="black" fill="black" d="M 385.846428,540.341152 A 60 60 0 0 0 357.090355 529.984622 L 356.033922,541.93803 A 48 48 0 0 1 391.066667 562.133333 A 48 48 0 0 0 381.968433 501.547422 L 373.969504,510.492653 A 36 36 0 0 1 385.846428 540.341152"/>
<path d="M 331.191277 608.64113 A 48 48 0 1 1 389.574463 550.257943" fill="none" stroke="black" stroke-width="12"/>
</g>
<g id="s36">
</g>
<g id="s37">
<path stroke-width="0" stroke="black" fill="black" d="M 446.676059,588.067844 L 466.871363,575.100589 A 48 48 0 0 0 487.066667 610.133333 A 48 48 0 0 1 426.480756 601.035099 L 446.676059,588.067844"/>
<path stroke-width="0" stroke="black" fill="black" d="M 513.001177,521.742726 L 500.033922,541.93803 A 48 48 0 0 1 535.066667 562.133333 A 48 48 0 0 0 525.968433 501.547422 L 513.001177,521.742726"/>
<path d="M 469.485585 606.797699 A 48 48 0 1 1 531.731033 544.552252" fill="none" stroke="black" stroke-width="18"/>
</g>
<g id="s38">
</g>
<g id="s39">
<path stroke-width="0" stroke="black" fill="black" d="M 601.469986,113.91346 L 599.671359,112.324454 A 48 48 0 0 0 607.066667 106.133333 A 48 48 0 0 1 603.268613 115.502467 L 601.469986,113.91346"/>
<path stroke-width="0" stroke="black" fill="black" d="M 601.469986,50.353206 L 599.671359,51.942213 A 48 48 0 0 1 607.066667 58.133333 A 48 48 0 0 0 603.268613 48.7642 L 601.469986,50.353206"/>
<path d="M 605.959302 107.956546 A 48 48 0 1 1 605.959302 56.31012" fill="none" stroke="black" stroke-width="1.066667"/>
</g>
<g id="s40">
<line x1="615.111746" y1="46.978413" x2="568.666667" y2="0.533333" stroke="black" stroke-width="1.066667"/>
<polygon stroke-width="0" points="611.575498,40.048052 616.666667,48.533333 608.181385,43.442165" fill="black"/>
</g>
<g id="s41">
<path stroke-width="0" stroke="black" fill="black" d="M 604.70583,349.811959 A 49.066667 49.066667 0 0 1 600.270438 353.206997 L 599.671359,352.324454 A 48 48 0 0 0 607.066667 346.133333 A 48 48 0 0 1 603.268613 355.502467 L 602.327779,354.999863 A 46.933333 46.933333 0 0 0 604.70583 349.811959"/>
<path stroke-width="0" stroke="black" fill="black" d="M 604.70583,294.454708 A 49.066667 49.066667 0 0 0 600.270438 291.05967 L 599.671359,291.942213 A 48 48 0 0 1 607.066667 298.133333 A 48 48 0 0 0 603.268613 288.7642 L 602.327779,289.266803 A 46.933333 46.933333 0 0 1 604.70583 294.454708"/>
<path d="M 605.959302 347.956546 A 48 48 0 1 1 605.959302 296.31012" fill="none" stroke="black" stroke-width="1.066667"/>
</g>
<g id="s42">
<line x1="615.111746" y1="286.978413" x2="568.666667" y2="240.533333" stroke="black" stroke-width="1.066667"/>
<polyline points="611.116057,280.318931 615.111746,286.978413 608.452264,282.982724" fill="none" stroke="black" stroke-width="1.066667"/>
</g>
</svg>
