<svg xmlns="http://www.w3.org/2000/svg" width="687.785911" height="635.961204" viewBox="0 0 687.785911 635.961204" font-family="sans-serif" font-size="14.666667" fill="none">
<g id="s0">
</g>
<g id="s1">
</g>
<g id="s2">
<path stroke-width="0" stroke="rgb(0,0,15)" fill="rgb(0,0,15)" d="M 8.060343,145.868683 L 11.415684,144.564196 A 6 6 0 0 0 13.652578 149.694537 A 6 6 0 0 1 4.705002 147.173171 L 8.060343,145.868683"/>
<path stroke-width="0" stroke="rgb(0,0,15)" fill="rgb(0,0,15)" d="M 15.826724,138.102302 L 14.522236,141.457643 A 6 6 0 0 1 19.652578 143.694537 A 6 6 0 0 0 17.131212 134.746962 L 15.826724,138.102302"/>
<path d="M 12.591521 149.599972 A 6 6 0 1 1 19.558012 142.63348" fill="none" stroke="rgb(0,0,15)" stroke-width="1.066667"/>
</g>
<g id="s3">
</g>
<g id="s4">
</g>
<g id="s5">
<path stroke-width="0" stroke="rgb(0,0,31)" fill="rgb(0,0,31)" d="M 26.468109,148.04283 L 33.17879,145.433854 A 12 12 0 0 0 37.652578 155.694537 A 12 12 0 0 1 19.757427 150.651806 L 26.468109,148.04283"/>
<path stroke-width="0" stroke="rgb(0,0,31)" fill="rgb(0,0,31)" d="M 42.000871,132.510068 L 39.391895,139.220749 A 12 12 0 0 1 49.652578 143.694537 A 12 12 0 0 0 44.609846 125.799386 L 42.000871,132.510068"/>
<path d="M 35.530464 155.505406 A 12 12 0 1 1 49.463447 141.572423" fill="none" stroke="rgb(0,0,31)" stroke-width="2.133333"/>
</g>
<g id="s6">
</g>
<g id="s7">
</g>
<g id="s8">
<path stroke-width="0" stroke="rgb(0,0,63)" fill="rgb(0,0,63)" d="M 63.28364,152.391123 L 76.705002,147.173171 A 24 24 0 0 0 85.652578 167.694537 A 24 24 0 0 1 49.862277 157.609075 L 63.28364,152.391123"/>
<path stroke-width="0" stroke="rgb(0,0,63)" fill="rgb(0,0,63)" d="M 94.349164,121.325599 L 89.131212,134.746962 A 24 24 0 0 1 109.652578 143.694537 A 24 24 0 0 0 99.567115 107.904236 L 94.349164,121.325599"/>
<path d="M 81.40835 167.316275 A 24 24 0 1 1 109.274316 139.450309" fill="none" stroke="rgb(0,0,63)" stroke-width="4.266667"/>
</g>
<g id="s9">
</g>
<g id="s10">
</g>
<g id="s11">
<path stroke-width="0" stroke="rgb(0,0,127)" fill="rgb(0,0,127)" d="M 136.914701,161.087709 L 163.757427,150.651806 A 48 48 0 0 0 181.652578 191.694537 A 48 48 0 0 1 110.071976 171.523612 L 136.914701,161.087709"/>
<path stroke-width="0" stroke="rgb(0,0,127)" fill="rgb(0,0,127)" d="M 199.04575,98.956661 L 188.609846,125.799386 A 48 48 0 0 1 229.652578 143.694537 A 48 48 0 0 0 209.481653 72.113935 L 199.04575,98.956661"/>
<path d="M 173.164123 190.938014 A 48 48 0 1 1 228.896055 135.206082" fill="none" stroke="rgb(0,0,127)" stroke-width="8.533333"/>
</g>
<g id="s12">
</g>
<g id="s13">
</g>
<g id="s14">
<path stroke-width="0" stroke="rgb(0,0,255)" fill="rgb(0,0,255)" d="M 284.176825,178.480881 L 337.862277,157.609075 A 96 96 0 0 0 373.652578 239.694537 A 96 96 0 0 1 230.491374 199.352688 L 284.176825,178.480881"/>
<path stroke-width="0" stroke="rgb(0,0,255)" fill="rgb(0,0,255)" d="M 408.438922,54.218785 L 387.567115,107.904236 A 96 96 0 0 1 469.652578 143.694537 A 96 96 0 0 0 429.310729 0.533333 L 408.438922,54.218785"/>
<path d="M 356.675667 238.181491 A 96 96 0 1 1 468.139532 126.717627" fill="none" stroke="rgb(0,0,255)" stroke-width="17.066667"/>
</g>
<g id="s15">
</g>
<g id="s16">
<path stroke-width="0" stroke="rgb(0,0,15)" fill="rgb(0,0,15)" d="M 11.575634,398.918438 A 7.066667 7.066667 0 0 1 9.79018 394.410308 L 10.85646,394.38161 A 6 6 0 0 0 13.652578 399.294537 A 6 6 0 0 1 5.264226 396.555757 L 6.234218,396.11203 A 4.933333 4.933333 0 0 0 11.575634 398.918438"/>
<path stroke-width="0" stroke="rgb(0,0,15)" fill="rgb(0,0,15)" d="M 19.276479,391.217593 A 7.066667 7.066667 0 0 0 14.768349 389.432139 L 14.739651,390.49842 A 6 6 0 0 1 19.652578 393.294537 A 6 6 0 0 0 16.913797 384.906185 L 16.470071,385.876177 A 4.933333 4.933333 0 0 1 19.276479 391.217593"/>
<path d="M 12.382265 399.158521 A 6 6 0 1 1 19.516561 392.024224" fill="none" stroke="rgb(0,0,15)" stroke-width="1.066667"/>
</g>
<g id="s17">
</g>
<g id="s18">
</g>
<g id="s19">
<path stroke-width="0" stroke="rgb(0,0,31)" fill="rgb(0,0,31)" d="M 33.49869,404.542339 A 14.133333 14.133333 0 0 1 29.927782 395.526079 L 32.060343,395.468683 A 12 12 0 0 0 37.652578 405.294537 A 12 12 0 0 1 20.875874 399.816977 L 22.815858,398.929524 A 9.866667 9.866667 0 0 0 33.49869 404.542339"/>
<path stroke-width="0" stroke="rgb(0,0,31)" fill="rgb(0,0,31)" d="M 48.90038,389.140649 A 14.133333 14.133333 0 0 0 39.88412 385.569741 L 39.826724,387.702302 A 12 12 0 0 1 49.652578 393.294537 A 12 12 0 0 0 44.175017 376.517833 L 43.287564,378.457818 A 9.866667 9.866667 0 0 1 48.90038 389.140649"/>
<path d="M 35.111952 405.022504 A 12 12 0 1 1 49.380545 390.753911" fill="none" stroke="rgb(0,0,31)" stroke-width="2.133333"/>
</g>
<g id="s20">
</g>
<g id="s21">
</g>
<g id="s22">
<path stroke-width="0" stroke="rgb(0,0,63)" fill="rgb(0,0,63)" d="M 77.344802,415.790141 A 28.266667 28.266667 0 0 1 70.202986 397.757621 L 74.468109,397.64283 A 24 24 0 0 0 85.652578 417.294537 A 24 24 0 0 1 52.09917 406.339416 L 55.979139,404.56451 A 19.733333 19.733333 0 0 0 77.344802 415.790141"/>
<path stroke-width="0" stroke="rgb(0,0,63)" fill="rgb(0,0,63)" d="M 108.148182,384.986761 A 28.266667 28.266667 0 0 0 90.115662 377.844946 L 90.000871,382.110068 A 24 24 0 0 1 109.652578 393.294537 A 24 24 0 0 0 98.697457 359.74113 L 96.922551,363.621098 A 19.733333 19.733333 0 0 1 108.148182 384.986761"/>
<path d="M 80.571325 416.750472 A 24 24 0 1 1 109.108512 388.213285" fill="none" stroke="rgb(0,0,63)" stroke-width="4.266667"/>
</g>
<g id="s23">
</g>
<g id="s24">
</g>
<g id="s25">
<path stroke-width="0" stroke="rgb(0,0,127)" fill="rgb(0,0,127)" d="M 165.037026,438.285745 A 56.533333 56.533333 0 0 1 150.753395 402.220706 L 159.28364,401.991123 A 48 48 0 0 0 181.652578 441.294537 A 48 48 0 0 1 114.545763 419.384295 L 122.3057,415.834484 A 39.466667 39.466667 0 0 0 165.037026 438.285745"/>
<path stroke-width="0" stroke="rgb(0,0,127)" fill="rgb(0,0,127)" d="M 226.643786,376.678985 A 56.533333 56.533333 0 0 0 190.578746 362.395354 L 190.349164,370.925599 A 48 48 0 0 1 229.652578 393.294537 A 48 48 0 0 0 207.742336 326.187723 L 204.192524,333.947659 A 39.466667 39.466667 0 0 1 226.643786 376.678985"/>
<path d="M 171.490073 440.206407 A 48 48 0 1 1 228.564447 383.132033" fill="none" stroke="rgb(0,0,127)" stroke-width="8.533333"/>
</g>
<g id="s26">
</g>
<g id="s27">
</g>
<g id="s28">
<path stroke-width="0" stroke="rgb(0,0,255)" fill="rgb(0,0,255)" d="M 340.421474,483.276954 A 113.066667 113.066667 0 0 1 311.854213 411.146874 L 328.914701,410.687709 A 96 96 0 0 0 373.652578 489.294537 A 96 96 0 0 1 239.438949 445.474054 L 254.958822,438.374431 A 78.933333 78.933333 0 0 0 340.421474 483.276954"/>
<path stroke-width="0" stroke="rgb(0,0,255)" fill="rgb(0,0,255)" d="M 463.634994,360.063433 A 113.066667 113.066667 0 0 0 391.504915 331.496172 L 391.04575,348.556661 A 96 96 0 0 1 469.652578 393.294537 A 96 96 0 0 0 425.832094 259.080909 L 418.732471,274.600782 A 78.933333 78.933333 0 0 1 463.634994 360.063433"/>
<path d="M 353.327569 487.118276 A 96 96 0 1 1 467.476317 372.969528" fill="none" stroke="rgb(0,0,255)" stroke-width="17.066667"/>
</g>
<g id="s29">
</g>
<g id="s30">
</g>
<g id="s31">
<path stroke-width="0" stroke="black" fill="black" d="M 51.927279,632.113587 A 53.333333 53.333333 0 0 1 36.144648 598.731318 L 41.457274,598.261792 A 48 48 0 0 0 61.652578 633.294537 A 48 48 0 0 1 1.066667 624.196303 L 5.042325,620.641224 A 42.666667 42.666667 0 0 0 51.927279 632.113587"/>
<path stroke-width="0" stroke="black" fill="black" d="M 108.471628,575.569238 A 53.333333 53.333333 0 0 0 75.089359 559.786608 L 74.619833,565.099233 A 48 48 0 0 1 109.652578 585.294537 A 48 48 0 0 0 100.554344 524.708626 L 96.999264,528.684284 A 42.666667 42.666667 0 0 1 108.471628 575.569238"/>
<path d="M 56.330211 632.998545 A 48 48 0 1 1 109.356586 579.972171" fill="none" stroke="black" stroke-width="5.333333"/>
</g>
<g id="s32">
</g>
<g id="s33">
<path stroke-width="0" stroke="black" fill="black" d="M 191.087578,630.867664 A 56 56 0 0 1 177.488336 598.966081 L 185.457274,598.261792 A 48 48 0 0 0 205.652578 633.294537 A 48 48 0 0 1 145.066667 624.196303 L 151.030154,618.863684 A 40 40 0 0 0 191.087578 630.867664"/>
<path stroke-width="0" stroke="black" fill="black" d="M 251.225704,570.729538 A 56 56 0 0 0 219.324122 557.130295 L 218.619833,565.099233 A 48 48 0 0 1 253.652578 585.294537 A 48 48 0 0 0 244.554344 524.708626 L 239.221725,530.672113 A 40 40 0 0 1 251.225704 570.729538"/>
<path d="M 197.689563 632.629412 A 48 48 0 1 1 252.987453 577.331523" fill="none" stroke="black" stroke-width="8"/>
</g>
<g id="s34">
</g>
<g id="s35">
<path stroke-width="0" stroke="black" fill="black" d="M 327.860396,628.074299 A 60 60 0 0 1 317.503867 599.318226 L 329.457274,598.261792 A 48 48 0 0 0 349.652578 633.294537 A 48 48 0 0 1 289.066667 624.196303 L 298.011897,616.197375 A 36 36 0 0 0 327.860396 628.074299"/>
<path stroke-width="0" stroke="black" fill="black" d="M 392.432339,563.502355 A 60 60 0 0 0 363.676266 553.145826 L 362.619833,565.099233 A 48 48 0 0 1 397.652578 585.294537 A 48 48 0 0 0 388.554344 524.708626 L 380.555415,533.653856 A 36 36 0 0 1 392.432339 563.502355"/>
<path d="M 337.777188 631.802333 A 48 48 0 1 1 396.160374 573.419147" fill="none" stroke="black" stroke-width="12"/>
</g>
<g id="s36">
</g>
<g id="s37">
<path stroke-width="0" stroke="black" fill="black" d="M 453.26197,611.229048 L 473.457274,598.261792 A 48 48 0 0 0 493.652578 633.294537 A 48 48 0 0 1 433.066667 624.196303 L 453.26197,611.229048"/>
<path stroke-width="0" stroke="black" fill="black" d="M 519.587088,544.90393 L 506.619833,565.099233 A 48 48 0 0 1 541.652578 585.294537 A 48 48 0 0 0 532.554344 524.708626 L 519.587088,544.90393"/>
<path d="M 476.071496 629.958903 A 48 48 0 1 1 538.316943 567.713456" fill="none" stroke="black" stroke-width="18"/>
</g>
<g id="s38">
</g>
<g id="s39">
<path stroke-width="0" stroke="black" fill="black" d="M 608.055897,137.074664 L 606.25727,135.485657 A 48 48 0 0 0 613.652578 129.294537 A 48 48 0 0 1 609.854524 138.66367 L 608.055897,137.074664"/>
<path stroke-width="0" stroke="black" fill="black" d="M 608.055897,73.51441 L 606.25727,75.103416 A 48 48 0 0 1 613.652578 81.294537 A 48 48 0 0 0 609.854524 71.925404 L 608.055897,73.51441"/>
<path d="M 612.545213 131.11775 A 48 48 0 1 1 612.545213 79.471324" fill="none" stroke="black" stroke-width="1.066667"/>
</g>
<g id="s40">
<line x1="621.697657" y1="70.139616" x2="575.252578" y2="23.694537" stroke="black" stroke-width="1.066667"/>
<polygon stroke-width="0" points="618.161409,63.209256 623.252578,71.694537 614.767296,66.603368" fill="black"/>
</g>
<g id="s41">
<path stroke-width="0" stroke="black" fill="black" d="M 611.291741,372.973163 A 49.066667 49.066667 0 0 1 606.856348 376.368201 L 606.25727,375.485657 A 48 48 0 0 0 613.652578 369.294537 A 48 48 0 0 1 609.854524 378.66367 L 608.91369,378.161067 A 46.933333 46.933333 0 0 0 611.291741 372.973163"/>
<path stroke-width="0" stroke="black" fill="black" d="M 611.291741,317.615911 A 49.066667 49.066667 0 0 0 606.856348 314.220873 L 606.25727,315.103416 A 48 48 0 0 1 613.652578 321.294537 A 48 48 0 0 0 609.854524 311.925404 L 608.91369,312.428007 A 46.933333 46.933333 0 0 1 611.291741 317.615911"/>
<path d="M 612.545213 371.11775 A 48 48 0 1 1 612.545213 319.471324" fill="none" stroke="black" stroke-width="1.066667"/>
</g>
<g id="s42">
<line x1="621.697657" y1="310.139616" x2="575.252578" y2="263.694537" stroke="black" stroke-width="1.066667"/>
<polyline points="617.701968,303.480135 621.697657,310.139616 615.038175,306.143927" fill="none" stroke="black" stroke-width="1.066667"/>
</g>
</svg>
