<svg xmlns="http://www.w3.org/2000/svg" width="728" height="776" viewBox="0 0 728 776" font-family="sans-serif" font-size="14.667">
<g id="s0">
</g>
<g id="s1">
</g>
<g id="s2">
<path d="M 52 144.4 A 6 6 0 0 0 58 138.4" fill="none" stroke="customcolor" stroke-width="1.067"/>
<polygon points="58,138.4 48.504,141.182 48.312,136.386" fill="customcolor"/>
<polygon points="52,144.4 49.986,134.712 54.782,134.904" fill="customcolor"/>
</g>
<g id="s3">
</g>
<g id="s4">
</g>
<g id="s5">
<path d="M 76 150.4 A 12 12 0 0 0 88 138.4" fill="none" stroke="customcolor" stroke-width="1.067"/>
<polygon points="88,138.4 78.504,141.182 78.312,136.386" fill="customcolor"/>
<polygon points="76,150.4 73.986,140.712 78.782,140.904" fill="customcolor"/>
</g>
<g id="s6">
</g>
<g id="s7">
</g>
<g id="s8">
<path d="M 124 162.4 A 24 24 0 0 0 148 138.4" fill="none" stroke="customcolor" stroke-width="1.067"/>
<polygon points="148,138.4 138.504,141.182 138.312,136.386" fill="customcolor"/>
<polygon points="124,162.4 121.986,152.712 126.782,152.904" fill="customcolor"/>
</g>
<g id="s9">
</g>
<g id="s10">
</g>
<g id="s11">
<path d="M 220 186.4 A 48 48 0 0 0 268 138.4" fill="none" stroke="customcolor" stroke-width="1.067"/>
<polygon points="268,138.4 258.504,141.182 258.312,136.386" fill="customcolor"/>
<polygon points="220,186.4 217.986,176.712 222.782,176.904" fill="customcolor"/>
</g>
<g id="s12">
</g>
<g id="s13">
</g>
<g id="s14">
<path d="M 412 234.4 A 96 96 0 0 0 508 138.4" fill="none" stroke="customcolor" stroke-width="1.067"/>
<polygon points="508,138.4 498.504,141.182 498.312,136.386" fill="customcolor"/>
<polygon points="412,234.4 409.986,224.712 414.782,224.904" fill="customcolor"/>
</g>
<g id="s15">
</g>
<g id="s16">
<path d="M 52 394 A 6 6 0 0 0 58 388" fill="none" stroke="customcolor" stroke-width="1.067"/>
<polyline points="48.504,390.782 58,388 48.312,385.986" fill="none" stroke="customcolor" stroke-width="1.067"/>
<polyline points="49.986,384.312 52,394 54.782,384.504" fill="none" stroke="customcolor" stroke-width="1.067"/>
</g>
<g id="s17">
</g>
<g id="s18">
</g>
<g id="s19">
<path d="M 76 400 A 12 12 0 0 0 88 388" fill="none" stroke="customcolor" stroke-width="1.067"/>
<polyline points="78.504,390.782 88,388 78.312,385.986" fill="none" stroke="customcolor" stroke-width="1.067"/>
<polyline points="73.986,390.312 76,400 78.782,390.504" fill="none" stroke="customcolor" stroke-width="1.067"/>
</g>
<g id="s20">
</g>
<g id="s21">
</g>
<g id="s22">
<path d="M 124 412 A 24 24 0 0 0 148 388" fill="none" stroke="customcolor" stroke-width="1.067"/>
<polyline points="138.504,390.782 148,388 138.312,385.986" fill="none" stroke="customcolor" stroke-width="1.067"/>
<polyline points="121.986,402.312 124,412 126.782,402.504" fill="none" stroke="customcolor" stroke-width="1.067"/>
</g>
<g id="s23">
</g>
<g id="s24">
</g>
<g id="s25">
<path d="M 220 436 A 48 48 0 0 0 268 388" fill="none" stroke="customcolor" stroke-width="1.067"/>
<polyline points="258.504,390.782 268,388 258.312,385.986" fill="none" stroke="customcolor" stroke-width="1.067"/>
<polyline points="217.986,426.312 220,436 222.782,426.504" fill="none" stroke="customcolor" stroke-width="1.067"/>
</g>
<g id="s26">
</g>
<g id="s27">
</g>
<g id="s28">
<path d="M 412 484 A 96 96 0 0 0 508 388" fill="none" stroke="customcolor" stroke-width="1.067"/>
<polyline points="498.504,390.782 508,388 498.312,385.986" fill="none" stroke="customcolor" stroke-width="1.067"/>
<polyline points="409.986,474.312 412,484 414.782,474.504" fill="none" stroke="customcolor" stroke-width="1.067"/>
</g>
<g id="s29">
</g>
<g id="s30">
</g>
<g id="s31">
<path d="M 100 628 A 48 48 0 0 0 148 580" fill="none" stroke="black" stroke-width="1.067"/>
<polyline points="138.504,582.782 148,580 138.312,577.986" fill="none" stroke="black" stroke-width="1.067"/>
<polyline points="97.986,618.312 100,628 102.782,618.504" fill="none" stroke="black" stroke-width="1.067"/>
</g>
<g id="s32">
</g>
<g id="s33">
<path d="M 244 628 A 48 48 0 0 0 292 580" fill="none" stroke="black" stroke-width="1.067"/>
<polyline points="282.504,582.782 292,580 282.312,577.986" fill="none" stroke="black" stroke-width="1.067"/>
<polyline points="241.986,618.312 244,628 246.782,618.504" fill="none" stroke="black" stroke-width="1.067"/>
</g>
<g id="s34">
</g>
<g id="s35">
<path d="M 388 628 A 48 48 0 0 0 436 580" fill="none" stroke="black" stroke-width="1.067"/>
<polyline points="426.504,582.782 436,580 426.312,577.986" fill="none" stroke="black" stroke-width="1.067"/>
<polyline points="385.986,618.312 388,628 390.782,618.504" fill="none" stroke="black" stroke-width="1.067"/>
</g>
<g id="s36">
</g>
<g id="s37">
<path d="M 532 628 A 48 48 0 0 0 580 580" fill="none" stroke="black" stroke-width="1.067"/>
<polyline points="570.504,582.782 580,580 570.312,577.986" fill="none" stroke="black" stroke-width="1.067"/>
<polyline points="529.986,618.312 532,628 534.782,618.504" fill="none" stroke="black" stroke-width="1.067"/>
</g>
<g id="s38">
</g>
<g id="s39">
<path d="M 652 124 A 48 48 0 0 0 652 76" fill="none" stroke="black" stroke-width="1.067"/>
<polyline points="649.661,85.615 652,76 645.412,83.383" fill="none" stroke="black" stroke-width="1.067"/>
<polyline points="645.412,116.617 652,124 649.661,114.385" fill="none" stroke="black" stroke-width="1.067"/>
</g>
<g id="s40">
<polyline points="661.6,66.4 613.6,18.4" fill="none" stroke="black" stroke-width="1.067"/>
<polyline points="653.115,61.309 661.6,66.4 656.509,57.915" fill="none" stroke="black" stroke-width="1.067"/>
</g>
<g id="s41">
<path d="M 652 364 A 48 48 0 0 0 652 316" fill="none" stroke="black" stroke-width="1.067"/>
<polyline points="649.661,325.615 652,316 645.412,323.383" fill="none" stroke="black" stroke-width="1.067"/>
<polyline points="645.412,356.617 652,364 649.661,354.385" fill="none" stroke="black" stroke-width="1.067"/>
</g>
<g id="s42">
<polyline points="661.6,306.4 613.6,258.4" fill="none" stroke="black" stroke-width="1.067"/>
<polyline points="653.115,301.309 661.6,306.4 656.509,297.915" fill="none" stroke="black" stroke-width="1.067"/>
</g>
</svg>
