<svg xmlns="http://www.w3.org/2000/svg" width="406.4" height="689.394677" viewBox="0 0 406.4 689.394677" font-family="sans-serif" font-size="14.666667" fill="none">
<g id="s0">
<rect x="1.066667" y="0.533333" width="48" height="72" fill="none" stroke="black" stroke-width="1.066667"/>
<text font-size="11pt" stroke-width="0.2pt" fill="black" x="25.066667" y="34.04" text-anchor="middle">line 1</text>
<text font-size="11pt" stroke-width="0.2pt" fill="black" x="25.066667" y="48.706667" text-anchor="middle">line 2</text>
</g>
<g id="s1">
</g>
<g id="s2">
<rect x="58.666667" y="0.533333" width="48" height="72" fill="none" stroke="magenta" stroke-width="2" stroke-dasharray="0.5,4" stroke-linecap="round"/>
<text font-size="11pt" stroke-width="0.2pt" fill="black" x="82.666667" y="12.04" text-anchor="middle">dotted</text>
<text font-size="11pt" stroke-width="0.2pt" fill="black" x="82.666667" y="26.706667" text-anchor="middle">thick</text>
<text font-size="11pt" stroke-width="0.2pt" fill="black" x="82.666667" y="41.373333" text-anchor="middle">1.5</text>
<text font-size="11pt" stroke-width="0.2pt" fill="black" x="82.666667" y="56.04" text-anchor="middle">outline</text>
<text font-size="11pt" stroke-width="0.2pt" fill="black" x="82.666667" y="70.706667" text-anchor="middle">magenta</text>
</g>
<g id="s3">
</g>
<g id="s4">
<rect x="116.266667" y="0.533333" width="48" height="72" fill="rgb(128,128,128)" stroke="black" stroke-width="1.066667" stroke-dasharray="5.6,4"/>
<text font-size="11pt" stroke-width="0.2pt" fill="black" x="140.266667" y="34.04" text-anchor="middle">dashed</text>
<text font-size="11pt" stroke-width="0.2pt" fill="black" x="140.266667" y="48.706667" text-anchor="middle">fill</text>
</g>
<g id="s5">
</g>
<g id="s6">
<rect x="173.866667" y="0.533333" width="48" height="72" fill="green" stroke="none"/>
<text font-size="11pt" stroke-width="0.2pt" fill="black" x="197.866667" y="26.706667" text-anchor="middle">invis</text>
<text font-size="11pt" stroke-width="0.2pt" fill="black" x="197.866667" y="41.373333" text-anchor="middle">shaded</text>
<text font-size="11pt" stroke-width="0.2pt" fill="black" x="197.866667" y="56.04" text-anchor="middle">green</text>
</g>
<g id="s7">
</g>
<g id="s8">
<rect x="231.466667" y="0.533333" width="48" height="72" fill="yellow" stroke="black" stroke-width="1.066667"/>
<text font-size="11pt" stroke-width="0.2pt" fill="black" x="255.466667" y="34.04" text-anchor="middle">shaded</text>
<text font-size="11pt" stroke-width="0.2pt" fill="black" x="255.466667" y="48.706667" text-anchor="middle">yellow</text>
</g>
<g id="s9">
</g>
<g id="s10">
<rect x="289.066667" y="0.533333" width="48" height="72" fill="yellow" stroke="red" stroke-width="1.066667"/>
<text font-size="11pt" stroke-width="0.2pt" fill="black" x="313.066667" y="19.373333" text-anchor="middle">outline</text>
<text font-size="11pt" stroke-width="0.2pt" fill="black" x="313.066667" y="34.04" text-anchor="middle">red</text>
<text font-size="11pt" stroke-width="0.2pt" fill="black" x="313.066667" y="48.706667" text-anchor="middle">shaded</text>
<text font-size="11pt" stroke-width="0.2pt" fill="black" x="313.066667" y="63.373333" text-anchor="middle">yellow</text>
</g>
<g id="s11">
</g>
<g id="s12">
<rect x="346.666667" y="0.533333" width="48" height="72" fill="rgb(204,178,153)" stroke="blue" stroke-width="1.066667"/>
<text font-size="11pt" stroke-width="0.2pt" fill="black" x="370.666667" y="19.373333" text-anchor="middle">shaded</text>
<text font-size="11pt" stroke-width="0.2pt" fill="black" x="370.666667" y="34.04" text-anchor="middle">Custom</text>
<text font-size="11pt" stroke-width="0.2pt" fill="black" x="370.666667" y="48.706667" text-anchor="middle">outline</text>
<text font-size="11pt" stroke-width="0.2pt" fill="black" x="370.666667" y="63.373333" text-anchor="middle">blue</text>
</g>
<g id="s13">
<rect x="1.066667" y="82.133333" width="48" height="72" rx="16" fill="none" stroke="black" stroke-width="1.066667"/>
<text font-size="11pt" stroke-width="0.2pt" fill="black" x="25.066667" y="122.973333" text-anchor="middle">1</text>
</g>
<g id="s14">
</g>
<g id="s15">
<rect x="58.666667" y="82.133333" width="48" height="72" rx="16" fill="none" stroke="magenta" stroke-width="2.333333" stroke-dasharray="0.5,4.666667" stroke-linecap="round"/>
<text font-size="11pt" stroke-width="0.2pt" fill="black" x="82.666667" y="122.973333" text-anchor="middle">2</text>
</g>
<g id="s16">
</g>
<g id="s17">
<rect x="116.266667" y="82.133333" width="48" height="72" rx="16" fill="rgb(128,128,128)" stroke="black" stroke-width="1.066667" stroke-dasharray="5.6,4"/>
<text font-size="11pt" stroke-width="0.2pt" fill="black" x="140.266667" y="122.973333" text-anchor="middle">3</text>
</g>
<g id="s18">
</g>
<g id="s19">
<rect x="173.866667" y="82.133333" width="48" height="72" rx="16" fill="green" stroke="none"/>
<text font-size="11pt" stroke-width="0.2pt" fill="black" x="197.866667" y="122.973333" text-anchor="middle">4</text>
</g>
<g id="s20">
</g>
<g id="s21">
<rect x="231.466667" y="82.133333" width="48" height="72" rx="16" fill="yellow" stroke="black" stroke-width="1.066667"/>
<text font-size="11pt" stroke-width="0.2pt" fill="black" x="255.466667" y="122.973333" text-anchor="middle">5</text>
</g>
<g id="s22">
</g>
<g id="s23">
<rect x="289.066667" y="82.133333" width="48" height="72" rx="16" fill="yellow" stroke="red" stroke-width="1.066667"/>
<text font-size="11pt" stroke-width="0.2pt" fill="black" x="313.066667" y="122.973333" text-anchor="middle">6</text>
</g>
<g id="s24">
</g>
<g id="s25">
<rect x="346.666667" y="82.133333" width="48" height="72" rx="16" fill="rgb(204,178,153)" stroke="blue" stroke-width="1.066667"/>
<text font-size="11pt" stroke-width="0.2pt" fill="black" x="370.666667" y="122.973333" text-anchor="middle">7</text>
</g>
<g id="s26">
<circle cx="25.066667" cy="187.733333" r="24" fill="none" stroke="black" stroke-width="1.066667"/>
<text font-size="11pt" stroke-width="0.2pt" fill="black" x="25.066667" y="192.573333" text-anchor="middle">1</text>
</g>
<g id="s27">
</g>
<g id="s28">
<circle cx="82.666667" cy="187.733333" r="24" fill="none" stroke="magenta" stroke-width="2.666667" stroke-dasharray="0.5,5.333333" stroke-linecap="round"/>
<text font-size="11pt" stroke-width="0.2pt" fill="black" x="82.666667" y="192.573333" text-anchor="middle">2</text>
</g>
<g id="s29">
</g>
<g id="s30">
<circle cx="140.266667" cy="187.733333" r="24" fill="rgb(128,128,128)" stroke="black" stroke-width="1.066667" stroke-dasharray="5.6,4"/>
<text font-size="11pt" stroke-width="0.2pt" fill="black" x="140.266667" y="192.573333" text-anchor="middle">3</text>
</g>
<g id="s31">
</g>
<g id="s32">
<circle cx="197.866667" cy="187.733333" r="24" fill="green" stroke="none"/>
<text font-size="11pt" stroke-width="0.2pt" fill="black" x="197.866667" y="192.573333" text-anchor="middle">4</text>
</g>
<g id="s33">
</g>
<g id="s34">
<circle cx="255.466667" cy="187.733333" r="24" fill="yellow" stroke="black" stroke-width="1.066667"/>
<text font-size="11pt" stroke-width="0.2pt" fill="black" x="255.466667" y="192.573333" text-anchor="middle">5</text>
</g>
<g id="s35">
</g>
<g id="s36">
<circle cx="313.066667" cy="187.733333" r="24" fill="yellow" stroke="red" stroke-width="1.066667"/>
<text font-size="11pt" stroke-width="0.2pt" fill="black" x="313.066667" y="192.573333" text-anchor="middle">6</text>
</g>
<g id="s37">
</g>
<g id="s38">
<circle cx="370.666667" cy="187.733333" r="24" fill="rgb(204,178,153)" stroke="blue" stroke-width="1.066667"/>
<text font-size="11pt" stroke-width="0.2pt" fill="black" x="370.666667" y="192.573333" text-anchor="middle">7</text>
</g>
<g id="s39">
<ellipse cx="25.066667" cy="257.333333" rx="24" ry="36" fill="none" stroke="black" stroke-width="1.066667"/>
<text font-size="11pt" stroke-width="0.2pt" fill="black" x="25.066667" y="262.173333" text-anchor="middle">1</text>
</g>
<g id="s40">
</g>
<g id="s41">
<ellipse cx="82.666667" cy="257.333333" rx="24" ry="36" fill="none" stroke="magenta" stroke-width="3" stroke-dasharray="0.5,6" stroke-linecap="round"/>
<text font-size="11pt" stroke-width="0.2pt" fill="black" x="82.666667" y="262.173333" text-anchor="middle">2</text>
</g>
<g id="s42">
</g>
<g id="s43">
<ellipse cx="140.266667" cy="257.333333" rx="24" ry="36" fill="rgb(128,128,128)" stroke="black" stroke-width="1.066667" stroke-dasharray="5.6,4"/>
<text font-size="11pt" stroke-width="0.2pt" fill="black" x="140.266667" y="262.173333" text-anchor="middle">3</text>
</g>
<g id="s44">
</g>
<g id="s45">
<ellipse cx="197.866667" cy="257.333333" rx="24" ry="36" fill="green" stroke="none"/>
<text font-size="11pt" stroke-width="0.2pt" fill="black" x="197.866667" y="262.173333" text-anchor="middle">4</text>
</g>
<g id="s46">
</g>
<g id="s47">
<ellipse cx="255.466667" cy="257.333333" rx="24" ry="36" fill="yellow" stroke="black" stroke-width="1.066667"/>
<text font-size="11pt" stroke-width="0.2pt" fill="black" x="255.466667" y="262.173333" text-anchor="middle">5</text>
</g>
<g id="s48">
</g>
<g id="s49">
<ellipse cx="313.066667" cy="257.333333" rx="24" ry="36" fill="yellow" stroke="red" stroke-width="1.066667"/>
<text font-size="11pt" stroke-width="0.2pt" fill="black" x="313.066667" y="262.173333" text-anchor="middle">6</text>
</g>
<g id="s50">
</g>
<g id="s51">
<ellipse cx="370.666667" cy="257.333333" rx="24" ry="36" fill="rgb(204,178,153)" stroke="blue" stroke-width="1.066667"/>
<text font-size="11pt" stroke-width="0.2pt" fill="black" x="370.666667" y="262.173333" text-anchor="middle">7</text>
</g>
<g id="s52">
<path d="M 18.037229 350.72801 A 24 24 0 1 0 1.066667 309.757447" fill="none" stroke="black" stroke-width="1.066667"/>
<text font-size="11pt" stroke-width="0.2pt" fill="black" x="18.037229" y="331.56801" text-anchor="middle">1</text>
</g>
<g id="s53">
</g>
<g id="s54">
<path d="M 75.637229 350.72801 A 24 24 0 1 0 58.666667 309.757447" fill="none" stroke="magenta" stroke-width="3.333333" stroke-dasharray="0.5,6.666667" stroke-linecap="round"/>
<text font-size="11pt" stroke-width="0.2pt" fill="black" x="75.637229" y="331.56801" text-anchor="middle">2</text>
</g>
<g id="s55">
</g>
<g id="s56">
<path d="M 133.237229 350.72801 A 24 24 0 1 0 116.266667 309.757447" fill="rgb(128,128,128)" stroke-width="0" stroke="black"/>
<path d="M 133.237229 350.72801 A 24 24 0 1 0 116.266667 309.757447" fill="none" stroke="black" stroke-width="1.066667" stroke-dasharray="5.6,4"/>
<text font-size="11pt" stroke-width="0.2pt" fill="black" x="133.237229" y="331.56801" text-anchor="middle">3</text>
</g>
<g id="s57">
</g>
<g id="s58">
<path d="M 190.837229 350.72801 A 24 24 0 1 0 173.866667 309.757447" fill="green" stroke-width="0" stroke="black"/>
<text font-size="11pt" stroke-width="0.2pt" fill="black" x="190.837229" y="331.56801" text-anchor="middle">4</text>
</g>
<g id="s59">
</g>
<g id="s60">
<path d="M 248.437229 350.72801 A 24 24 0 1 0 231.466667 309.757447" fill="yellow" stroke-width="0" stroke="black"/>
<path stroke-width="0" stroke="black" fill="black" d="M 257.78327,348.833474 L 256.848666,346.622927 A 24 24 0 0 1 248.437229 350.72801 A 24 24 0 0 0 258.717874 351.04402 L 257.78327,348.833474"/>
<path stroke-width="0" stroke="black" fill="black" d="M 239.414954,304.488438 L 240.317182,306.712395 A 24 24 0 0 0 231.466667 309.757447 A 24 24 0 0 1 238.512727 302.264481 L 239.414954,304.488438"/>
<path d="M 250.567755 350.633258 A 24 24 0 1 0 233.040175 308.317939" fill="none" stroke="black" stroke-width="1.066667"/>
<text font-size="11pt" stroke-width="0.2pt" fill="black" x="248.437229" y="331.56801" text-anchor="middle">5</text>
</g>
<g id="s61">
</g>
<g id="s62">
<path d="M 306.037229 350.72801 A 24 24 0 1 0 289.066667 309.757447" fill="yellow" stroke-width="0" stroke="black"/>
<path stroke-width="0" stroke="red" fill="red" d="M 315.38327,348.833474 L 314.448666,346.622927 A 24 24 0 0 1 306.037229 350.72801 A 24 24 0 0 0 316.317874 351.04402 L 315.38327,348.833474"/>
<path stroke-width="0" stroke="red" fill="red" d="M 297.014954,304.488438 L 297.917182,306.712395 A 24 24 0 0 0 289.066667 309.757447 A 24 24 0 0 1 296.112727 302.264481 L 297.014954,304.488438"/>
<path d="M 308.167755 350.633258 A 24 24 0 1 0 290.640175 308.317939" fill="none" stroke="red" stroke-width="1.066667" stroke-dasharray="5.6,4"/>
<text font-size="11pt" stroke-width="0.2pt" fill="black" x="306.037229" y="331.56801" text-anchor="middle">6</text>
</g>
<g id="s63">
</g>
<g id="s64">
<path d="M 363.637229 350.72801 A 24 24 0 1 0 346.666667 309.757447" fill="rgb(204,178,153)" stroke-width="0" stroke="black"/>
<path stroke-width="0" stroke="blue" fill="blue" d="M 372.98327,348.833474 L 372.048666,346.622927 A 24 24 0 0 1 363.637229 350.72801 A 24 24 0 0 0 373.917874 351.04402 L 372.98327,348.833474"/>
<path stroke-width="0" stroke="blue" fill="blue" d="M 354.614954,304.488438 L 355.517182,306.712395 A 24 24 0 0 0 346.666667 309.757447 A 24 24 0 0 1 353.712727 302.264481 L 354.614954,304.488438"/>
<path d="M 370.856982 349.616329 A 24 24 0 1 0 352.55788 305.438388" fill="none" stroke="blue" stroke-width="3.666667" stroke-dasharray="0.5,7.333333" stroke-linecap="round"/>
<text font-size="11pt" stroke-width="0.2pt" fill="black" x="363.637229" y="331.56801" text-anchor="middle">7</text>
</g>
<g id="s65">
<polyline points="1.066667,408.32801 49.066667,408.32801 49.066667,360.32801 1.066667,360.32801" fill="none" stroke="black" stroke-width="1.066667"/>
</g>
<g id="s66">
</g>
<g id="s67">
<polyline points="58.666667,408.32801 106.666667,408.32801 106.666667,360.32801 58.666667,360.32801" fill="none" stroke="magenta" stroke-width="4" stroke-dasharray="0.5,8" stroke-linecap="round"/>
</g>
<g id="s68">
</g>
<g id="s69">
<polyline points="116.266667,408.32801 164.266667,408.32801 164.266667,360.32801 116.266667,360.32801" fill="rgb(128,128,128)" stroke-width="0" stroke="black"/>
<polyline points="116.266667,408.32801 164.266667,408.32801 164.266667,360.32801 116.266667,360.32801" fill="none" stroke="black" stroke-width="1.066667" stroke-dasharray="5.6,4"/>
</g>
<g id="s70">
</g>
<g id="s71">
<polyline points="173.866667,408.32801 221.866667,408.32801 221.866667,360.32801 173.866667,360.32801" fill="green" stroke-width="0" stroke="black"/>
</g>
<g id="s72">
</g>
<g id="s73">
<polyline points="231.466667,408.32801 279.466667,408.32801 279.466667,360.32801 231.466667,360.32801" fill="yellow" stroke-width="0" stroke="black"/>
<polyline points="233.665656,408.32801 279.466667,408.32801 279.466667,360.32801 233.665656,360.32801" fill="none" stroke="black" stroke-width="1.066667"/>
<polygon stroke-width="0" points="241.066667,362.72801 231.466667,360.32801 241.066667,357.92801" fill="black"/>
<polygon stroke-width="0" points="241.066667,410.72801 231.466667,408.32801 241.066667,405.92801" fill="black"/>
</g>
<g id="s74">
</g>
<g id="s75">
<polyline points="289.066667,408.32801 337.066667,408.32801 337.066667,360.32801 289.066667,360.32801" fill="yellow" stroke-width="0" stroke="black"/>
<polyline points="291.265656,408.32801 337.066667,408.32801 337.066667,360.32801 291.265656,360.32801" fill="none" stroke="red" stroke-width="1.066667" stroke-dasharray="5.6,4"/>
<polygon stroke-width="0" points="298.666667,362.72801 289.066667,360.32801 298.666667,357.92801" fill="red"/>
<polygon stroke-width="0" points="298.666667,410.72801 289.066667,408.32801 298.666667,405.92801" fill="red"/>
</g>
<g id="s76">
</g>
<g id="s77">
<polyline points="346.666667,408.32801 394.666667,408.32801 394.666667,360.32801 346.666667,360.32801" fill="rgb(204,178,153)" stroke-width="0" stroke="black"/>
<polyline points="355.600062,408.32801 394.666667,408.32801 394.666667,360.32801 355.600062,360.32801" fill="none" stroke="blue" stroke-width="4.333333" stroke-dasharray="0.5,8.666667" stroke-linecap="round"/>
<polygon stroke-width="0" points="356.266667,362.72801 346.666667,360.32801 356.266667,357.92801" fill="blue"/>
<polygon stroke-width="0" points="356.266667,410.72801 346.666667,408.32801 356.266667,405.92801" fill="blue"/>
</g>
<g id="s78">
</g>
<g id="s79">
<path d="M 1.066667 465.92801 C 9.066667 465.92801 17.066667 465.92801 25.066667 465.92801 41.066667 465.92801 49.066667 457.92801 49.066667 441.92801 49.066667 425.92801 41.066667 417.92801 25.066667 417.92801 17.066667 417.92801 9.066667 417.92801 1.066667 417.92801" fill="none" stroke="black" stroke-width="1.066667"/>
</g>
<g id="s80">
</g>
<g id="s81">
<path d="M 58.666667 465.92801 C 66.666667 465.92801 74.666667 465.92801 82.666667 465.92801 98.666667 465.92801 106.666667 457.92801 106.666667 441.92801 106.666667 425.92801 98.666667 417.92801 82.666667 417.92801 74.666667 417.92801 66.666667 417.92801 58.666667 417.92801" fill="none" stroke="magenta" stroke-width="4.666667" stroke-dasharray="0.5,9.333333" stroke-linecap="round"/>
</g>
<g id="s82">
</g>
<g id="s83">
<path d="M 116.266667 465.92801 C 124.266667 465.92801 132.266667 465.92801 140.266667 465.92801 156.266667 465.92801 164.266667 457.92801 164.266667 441.92801 164.266667 425.92801 156.266667 417.92801 140.266667 417.92801 132.266667 417.92801 124.266667 417.92801 116.266667 417.92801" fill="rgb(128,128,128)" stroke-width="0" stroke="black"/>
<path d="M 116.266667 465.92801 C 124.266667 465.92801 132.266667 465.92801 140.266667 465.92801 156.266667 465.92801 164.266667 457.92801 164.266667 441.92801 164.266667 425.92801 156.266667 417.92801 140.266667 417.92801 132.266667 417.92801 124.266667 417.92801 116.266667 417.92801" fill="none" stroke="black" stroke-width="1.066667" stroke-dasharray="5.6,4"/>
</g>
<g id="s84">
</g>
<g id="s85">
<path d="M 173.866667 465.92801 C 181.866667 465.92801 189.866667 465.92801 197.866667 465.92801 213.866667 465.92801 221.866667 457.92801 221.866667 441.92801 221.866667 425.92801 213.866667 417.92801 197.866667 417.92801 189.866667 417.92801 181.866667 417.92801 173.866667 417.92801" fill="green" stroke-width="0" stroke="black"/>
</g>
<g id="s86">
</g>
<g id="s87">
<path d="M 231.466667 465.92801 C 239.466667 465.92801 247.466667 465.92801 255.466667 465.92801 271.466667 465.92801 279.466667 457.92801 279.466667 441.92801 279.466667 425.92801 271.466667 417.92801 255.466667 417.92801 247.466667 417.92801 239.466667 417.92801 231.466667 417.92801" fill="yellow" stroke-width="0" stroke="black"/>
<path d="M 233.665656 465.92801 C 241.299158 465.92801 248.93266 465.92801 256.566162 465.92801 271.833165 465.92801 279.466667 457.92801 279.466667 441.92801 279.466667 425.92801 271.833165 417.92801 256.566162 417.92801 248.93266 417.92801 241.299158 417.92801 233.665656 417.92801" fill="none" stroke="black" stroke-width="1.066667"/>
<polygon stroke-width="0" points="241.066667,420.32801 231.466667,417.92801 241.066667,415.52801" fill="black"/>
<polygon stroke-width="0" points="241.066667,468.32801 231.466667,465.92801 241.066667,463.52801" fill="black"/>
</g>
<g id="s88">
</g>
<g id="s89">
<path d="M 289.066667 465.92801 C 297.066667 465.92801 305.066667 465.92801 313.066667 465.92801 329.066667 465.92801 337.066667 457.92801 337.066667 441.92801 337.066667 425.92801 329.066667 417.92801 313.066667 417.92801 305.066667 417.92801 297.066667 417.92801 289.066667 417.92801" fill="yellow" stroke-width="0" stroke="black"/>
<path d="M 291.265656 465.92801 C 298.899158 465.92801 306.53266 465.92801 314.166162 465.92801 329.433165 465.92801 337.066667 457.92801 337.066667 441.92801 337.066667 425.92801 329.433165 417.92801 314.166162 417.92801 306.53266 417.92801 298.899158 417.92801 291.265656 417.92801" fill="none" stroke="red" stroke-width="1.066667" stroke-dasharray="5.6,4"/>
<polygon stroke-width="0" points="298.666667,420.32801 289.066667,417.92801 298.666667,415.52801" fill="red"/>
<polygon stroke-width="0" points="298.666667,468.32801 289.066667,465.92801 298.666667,463.52801" fill="red"/>
</g>
<g id="s90">
</g>
<g id="s91">
<path d="M 346.666667 465.92801 C 354.666667 465.92801 362.666667 465.92801 370.666667 465.92801 386.666667 465.92801 394.666667 457.92801 394.666667 441.92801 394.666667 425.92801 386.666667 417.92801 370.666667 417.92801 362.666667 417.92801 354.666667 417.92801 346.666667 417.92801" fill="rgb(204,178,153)" stroke-width="0" stroke="black"/>
<path d="M 356.266667 465.92801 C 362.666667 465.92801 369.066667 465.92801 375.466667 465.92801 388.266667 465.92801 394.666667 457.92801 394.666667 441.92801 394.666667 425.92801 388.266667 417.92801 375.466667 417.92801 369.066667 417.92801 362.666667 417.92801 356.266667 417.92801" fill="none" stroke="blue" stroke-width="5" stroke-dasharray="0.5,10" stroke-linecap="round"/>
<polygon stroke-width="0" points="356.266667,420.32801 346.666667,417.92801 356.266667,415.52801" fill="blue"/>
<polygon stroke-width="0" points="356.266667,468.32801 346.666667,465.92801 356.266667,463.52801" fill="blue"/>
</g>
<g id="s92">
</g>
<g id="s93">
<path d="M 1.066667 523.52801 C 10.666667 523.52801 49.066667 504.32801 49.066667 499.52801 C 49.066667 494.72801 10.666667 475.52801 1.066667 475.52801" fill="none" stroke="black" stroke-width="1.066667"/>
</g>
<g id="s94">
<text font-size="11pt" stroke-width="0.266667" fill="black" x="25.066667" y="504.36801" text-anchor="middle">0.2</text>
</g>
<g id="s95">
</g>
<g id="s96">
<path d="M 58.666667 523.52801 C 73.066667 523.52801 106.666667 506.72801 106.666667 499.52801 C 106.666667 492.32801 73.066667 475.52801 58.666667 475.52801" fill="none" stroke="magenta" stroke-width="5.333333" stroke-dasharray="0.5,10.666667" stroke-linecap="round"/>
</g>
<g id="s97">
<text font-size="11pt" stroke-width="0.266667" fill="black" x="82.666667" y="504.36801" text-anchor="middle">0.3</text>
</g>
<g id="s98">
</g>
<g id="s99">
<path d="M 116.266667 523.52801 C 135.466667 523.52801 164.266667 509.12801 164.266667 499.52801 C 164.266667 489.92801 135.466667 475.52801 116.266667 475.52801" fill="rgb(128,128,128)" stroke-width="0" stroke="black"/>
<path d="M 116.266667 523.52801 C 135.466667 523.52801 164.266667 509.12801 164.266667 499.52801 C 164.266667 489.92801 135.466667 475.52801 116.266667 475.52801" fill="none" stroke="black" stroke-width="1.066667" stroke-dasharray="5.6,4"/>
</g>
<g id="s100">
<text font-size="11pt" stroke-width="0.266667" fill="black" x="140.266667" y="504.36801" text-anchor="middle">0.4</text>
</g>
<g id="s101">
</g>
<g id="s102">
<path d="M 173.866667 523.52801 C 197.866667 523.52801 221.866667 511.52801 221.866667 499.52801 C 221.866667 487.52801 197.866667 475.52801 173.866667 475.52801" fill="green" stroke-width="0" stroke="black"/>
</g>
<g id="s103">
<text font-size="11pt" stroke-width="0.266667" fill="black" x="197.866667" y="504.36801" text-anchor="middle">0.5</text>
</g>
<g id="s104">
</g>
<g id="s105">
<path d="M 231.466667 523.52801 C 260.266667 523.52801 279.466667 513.92801 279.466667 499.52801 C 279.466667 485.12801 260.266667 475.52801 231.466667 475.52801" fill="yellow" stroke-width="0" stroke="black"/>
<path d="M 233.665656 523.52801 C 261.146263 523.52801 279.466667 513.92801 279.466667 499.52801 C 279.466667 485.12801 261.146263 475.52801 233.665656 475.52801" fill="none" stroke="black" stroke-width="1.066667"/>
<polygon stroke-width="0" points="241.066667,477.92801 231.466667,475.52801 241.066667,473.12801" fill="black"/>
<polygon stroke-width="0" points="241.066667,525.92801 231.466667,523.52801 241.066667,521.12801" fill="black"/>
</g>
<g id="s106">
<text font-size="11pt" stroke-width="0.266667" fill="black" x="255.466667" y="504.36801" text-anchor="middle">0.6</text>
</g>
<g id="s107">
</g>
<g id="s108">
<path d="M 289.066667 523.52801 C 322.666667 523.52801 337.066667 516.32801 337.066667 499.52801 C 337.066667 482.72801 322.666667 475.52801 289.066667 475.52801" fill="yellow" stroke-width="0" stroke="black"/>
<path d="M 291.265656 523.52801 C 323.326364 523.52801 337.066667 516.32801 337.066667 499.52801 C 337.066667 482.72801 323.326364 475.52801 291.265656 475.52801" fill="none" stroke="red" stroke-width="1.066667" stroke-dasharray="5.6,4"/>
<polygon stroke-width="0" points="298.666667,477.92801 289.066667,475.52801 298.666667,473.12801" fill="red"/>
<polygon stroke-width="0" points="298.666667,525.92801 289.066667,523.52801 298.666667,521.12801" fill="red"/>
</g>
<g id="s109">
<text font-size="11pt" stroke-width="0.266667" fill="black" x="313.066667" y="504.36801" text-anchor="middle">0.7</text>
</g>
<g id="s110">
</g>
<g id="s111">
<path d="M 346.666667 523.52801 C 385.066667 523.52801 394.666667 518.72801 394.666667 499.52801 C 394.666667 480.32801 385.066667 475.52801 346.666667 475.52801" fill="rgb(204,178,153)" stroke-width="0" stroke="black"/>
<path d="M 356.266667 523.52801 C 386.986667 523.52801 394.666667 518.72801 394.666667 499.52801 C 394.666667 480.32801 386.986667 475.52801 356.266667 475.52801" fill="none" stroke="blue" stroke-width="5.666667" stroke-dasharray="0.5,11.333333" stroke-linecap="round"/>
<polygon stroke-width="0" points="356.266667,477.92801 346.666667,475.52801 356.266667,473.12801" fill="blue"/>
<polygon stroke-width="0" points="356.266667,525.92801 346.666667,523.52801 356.266667,521.12801" fill="blue"/>
</g>
<g id="s112">
<text font-size="11pt" stroke-width="0.266667" fill="black" x="370.666667" y="504.36801" text-anchor="middle">0.8</text>
</g>
<g id="s113">
</g>
<g id="s114">
<polyline points="1.066667,605.12801 49.066667,533.12801 49.066667,605.12801" fill="none" stroke="black" stroke-width="1.066667"/>
<text font-size="11pt" stroke-width="0.2pt" fill="black" x="25.066667" y="602.634677" text-anchor="middle">1</text>
<text font-size="11pt" stroke-width="0.2pt" fill="black" x="25.066667" y="617.301343" text-anchor="middle">2</text>
</g>
<g id="s115">
</g>
<g id="s116">
<polyline points="58.666667,605.12801 106.666667,533.12801 106.666667,605.12801" fill="none" stroke="magenta" stroke-width="6" stroke-dasharray="0.5,12" stroke-linecap="round"/>
<text font-size="11pt" stroke-width="0.2pt" fill="black" x="82.666667" y="602.634677" text-anchor="middle">1</text>
<text font-size="11pt" stroke-width="0.2pt" fill="black" x="82.666667" y="617.301343" text-anchor="middle">2</text>
</g>
<g id="s117">
</g>
<g id="s118">
<line x1="116.266667" y1="605.12801" x2="164.266667" y2="533.12801" stroke="black" stroke-width="1.066667" stroke-dasharray="5.6,4"/>
</g>
<g id="s119">
</g>
<g id="s120">
<line x1="175.086447" y1="603.29834" x2="220.646887" y2="534.95768" stroke="black" stroke-width="1.066667" stroke-dasharray="5.6,4"/>
<polygon stroke-width="0" points="214.544624,539.784412 221.866667,533.12801 218.538465,542.446973" fill="black"/>
<polygon stroke-width="0" points="181.188709,598.471608 173.866667,605.12801 177.194868,595.809047" fill="black"/>
</g>
<g id="s121">
</g>
<g id="s122">
<line x1="236.791789" y1="597.140327" x2="274.141545" y2="541.115693" stroke="rgb(204,178,153)" stroke-width="6.333333" stroke-dasharray="0.5,12.666667" stroke-linecap="round"/>
<polygon stroke-width="0" points="272.144624,539.784412 279.466667,533.12801 276.138465,542.446973" fill="rgb(204,178,153)"/>
<polygon stroke-width="0" points="238.788709,598.471608 231.466667,605.12801 234.794868,595.809047" fill="rgb(204,178,153)"/>
</g>
<g id="s123">
</g>
<g id="s124">
<line x1="294.391789" y1="597.140327" x2="331.741545" y2="541.115693" stroke="red" stroke-width="6.666667" stroke-dasharray="0.5,13.333333" stroke-linecap="round"/>
<polygon stroke-width="0" points="329.744624,539.784412 337.066667,533.12801 333.738465,542.446973" fill="red"/>
<polygon stroke-width="0" points="296.388709,598.471608 289.066667,605.12801 292.394868,595.809047" fill="red"/>
</g>
<g id="s125">
</g>
<g id="s126">
</g>
<g id="s127">
<line x1="346.666667" y1="545.12801" x2="394.666667" y2="545.12801" stroke="black" stroke-width="1.066667"/>
<text font-size="11pt" stroke-width="0.2pt" fill="black" x="370.666667" y="542.461343" text-anchor="middle">above</text>
</g>
<g id="s128">
</g>
<g id="s129">
<line x1="346.666667" y1="569.12801" x2="394.666667" y2="569.12801" stroke="black" stroke-width="1.066667"/>
<text font-size="11pt" stroke-width="0.2pt" fill="black" x="370.666667" y="573.96801" text-anchor="middle">on</text>
</g>
<g id="s130">
</g>
<g id="s131">
<line x1="346.666667" y1="593.12801" x2="394.666667" y2="593.12801" stroke="black" stroke-width="1.066667"/>
<text font-size="11pt" stroke-width="0.2pt" fill="black" x="370.666667" y="605.474677" text-anchor="middle">below</text>
</g>
<g id="s132">
<rect x="1.066667" y="614.72801" width="35.781818" height="72" fill="rgb(0,0,0)" stroke="black" stroke-width="1.066667"/>
<text font-size="11pt" stroke-width="0.2pt" fill="black" x="18.957576" y="655.56801" text-anchor="middle">0</text>
</g>
<g id="s133">
<rect x="36.848485" y="614.72801" width="35.781818" height="72" fill="rgb(26,26,26)" stroke="black" stroke-width="1.066667"/>
<text font-size="11pt" stroke-width="0.2pt" fill="black" x="54.739394" y="655.56801" text-anchor="middle">0.1</text>
</g>
<g id="s134">
<rect x="72.630303" y="614.72801" width="35.781818" height="72" fill="rgb(51,51,51)" stroke="black" stroke-width="1.066667"/>
<text font-size="11pt" stroke-width="0.2pt" fill="black" x="90.521212" y="655.56801" text-anchor="middle">0.2</text>
</g>
<g id="s135">
<rect x="108.412121" y="614.72801" width="35.781818" height="72" fill="rgb(77,77,77)" stroke="black" stroke-width="1.066667"/>
<text font-size="11pt" stroke-width="0.2pt" fill="black" x="126.30303" y="655.56801" text-anchor="middle">0.30000000000000004</text>
</g>
<g id="s136">
<rect x="144.193939" y="614.72801" width="35.781818" height="72" fill="rgb(102,102,102)" stroke="black" stroke-width="1.066667"/>
<text font-size="11pt" stroke-width="0.2pt" fill="black" x="162.084848" y="655.56801" text-anchor="middle">0.4</text>
</g>
<g id="s137">
<rect x="179.975758" y="614.72801" width="35.781818" height="72" fill="rgb(128,128,128)" stroke="black" stroke-width="1.066667"/>
<text font-size="11pt" stroke-width="0.2pt" fill="black" x="197.866667" y="655.56801" text-anchor="middle">0.5</text>
</g>
<g id="s138">
<rect x="215.757576" y="614.72801" width="35.781818" height="72" fill="rgb(153,153,153)" stroke="black" stroke-width="1.066667"/>
<text font-size="11pt" stroke-width="0.2pt" fill="black" x="233.648485" y="655.56801" text-anchor="middle">0.6</text>
</g>
<g id="s139">
<rect x="251.539394" y="614.72801" width="35.781818" height="72" fill="rgb(179,179,179)" stroke="black" stroke-width="1.066667"/>
<text font-size="11pt" stroke-width="0.2pt" fill="black" x="269.430303" y="655.56801" text-anchor="middle">0.7</text>
</g>
<g id="s140">
<rect x="287.321212" y="614.72801" width="35.781818" height="72" fill="rgb(204,204,204)" stroke="black" stroke-width="1.066667"/>
<text font-size="11pt" stroke-width="0.2pt" fill="black" x="305.212121" y="655.56801" text-anchor="middle">0.7999999999999999</text>
</g>
<g id="s141">
<rect x="323.10303" y="614.72801" width="35.781818" height="72" fill="rgb(229,229,229)" stroke="black" stroke-width="1.066667"/>
<text font-size="11pt" stroke-width="0.2pt" fill="black" x="340.993939" y="655.56801" text-anchor="middle">0.8999999999999999</text>
</g>
<g id="s142">
<rect x="358.884848" y="614.72801" width="35.781818" height="72" fill="rgb(255,255,255)" stroke="black" stroke-width="1.066667"/>
<text font-size="11pt" stroke-width="0.2pt" fill="black" x="376.775758" y="655.56801" text-anchor="middle">0.9999999999999999</text>
</g>
</svg>
