<svg xmlns="http://www.w3.org/2000/svg" width="153.866667" height="69.6" viewBox="0 0 153.866667 69.6" font-family="sans-serif" font-size="14.666667" fill="none">
<g id="s0">
<line x1="36" y1="39.6" x2="35.852273" y2="39.6" stroke="black" stroke-width="2.4"/>
<polygon stroke-width="0" points="31.2,37.2 40.8,39.6 31.2,42" fill="black"/>
</g>
<g id="s1">
<text font-size="11pt" stroke-width="0.266667" fill="black" x="33.333333" y="44.44" text-anchor="end">RF</text>
</g>
<g id="s2">
<circle cx="43.2" cy="39.6" r="2.4" fill="none" stroke="black" stroke-width="2.4"/>
</g>
<g id="s3">
<line x1="45.6" y1="39.6" x2="45.452273" y2="39.6" stroke="black" stroke-width="2.4"/>
<polygon stroke-width="0" points="40.8,37.2 50.4,39.6 40.8,42" fill="black"/>
</g>
<g id="s4">
<rect x="50.4" y="36" width="9.6" height="7.2" fill="none" stroke="black" stroke-width="2.4"/>
<text font-size="11pt" stroke-width="0.2pt" fill="black" x="55.2" y="44.44" text-anchor="middle"> $A$ </text>
</g>
<g id="s5">
<line x1="60" y1="39.6" x2="64.652273" y2="39.6" stroke="black" stroke-width="2.4"/>
<polygon stroke-width="0" points="60,37.2 69.6,39.6 60,42" fill="black"/>
</g>
<g id="s6">
<polyline points="64.8,39.6 64.8,49.2 64.947727,49.2" fill="none" stroke="black" stroke-width="2.4"/>
<polygon stroke-width="0" points="69.6,51.6 60,49.2 69.6,46.8" fill="black"/>
</g>
<g id="s7">
<rect x="50.4" y="45.6" width="9.6" height="7.2" fill="none" stroke="black" stroke-width="2.4"/>
<text font-size="11pt" stroke-width="0.2pt" fill="black" x="55.2" y="54.04" text-anchor="middle">$\beta$</text>
</g>
<g id="s8">
<polyline points="50.4,49.2 2.4,49.2 2.4,1.2 39.701429,38.501429" fill="none" stroke="black" stroke-width="2.4"/>
<polygon stroke-width="0" points="38.108831,33.514719 43.2,42 34.714719,36.908831" fill="black"/>
</g>
<g id="s9">
<text font-size="11pt" stroke-width="0.266667" fill="black" x="43.2" y="44.44" text-anchor="middle">$+$</text>
</g>
<g id="s10">
<rect x="69.6" y="15.6" width="72" height="48" fill="none" stroke="black" stroke-width="2.4"/>
<text font-size="11pt" stroke-width="0.2pt" fill="black" x="105.6" y="37.106667" text-anchor="middle">{\small Detetor de}</text>
<text font-size="11pt" stroke-width="0.2pt" fill="black" x="105.6" y="51.773333" text-anchor="middle">{\small envelope}</text>
</g>
<g id="s11">
<line x1="141.6" y1="39.6" x2="141.452273" y2="39.6" stroke="black" stroke-width="2.4"/>
<polygon stroke-width="0" points="136.8,37.2 146.4,39.6 136.8,42" fill="black"/>
</g>
<g id="s12">
<text font-size="11pt" stroke-width="0.266667" fill="black" x="149.066667" y="44.44" text-anchor="start">BF</text>
</g>
<g id="s13">
<line x1="55.2" y1="31.052273" x2="55.2" y2="31.2" stroke="black" stroke-width="2.4"/>
<polygon stroke-width="0" points="57.6,26.4 55.2,36 52.8,26.4" fill="black"/>
</g>
<g id="s14">
<rect x="51.6" y="26.4" width="7.2" height="4.8" fill="none" stroke="black" stroke-width="2.4"/>
<text font-size="11pt" stroke-width="0.2pt" fill="black" x="55.2" y="33.64" text-anchor="middle">oct</text>
</g>
</svg>
