<svg xmlns="http://www.w3.org/2000/svg" width="195.2" height="78.055" viewBox="0 0 195.2 78.055" font-family="sans-serif" font-size="14.667">
<g id="s0">
</g>
<g id="s1">
<polyline points="92.8,39.028 95.2,34.871" fill="none" stroke="black" stroke-width="1.067"/>
</g>
<g id="s2">
<polyline points="95.2,34.871 100,34.871" fill="none" stroke="black" stroke-width="1.067"/>
</g>
<g id="s3">
<polyline points="100,34.871 102.4,39.028" fill="none" stroke="black" stroke-width="1.067"/>
</g>
<g id="s4">
<polyline points="102.4,39.028 100,43.185" fill="none" stroke="black" stroke-width="1.067"/>
</g>
<g id="s5">
<polyline points="100,43.185 95.2,43.185" fill="none" stroke="black" stroke-width="1.067"/>
</g>
<g id="s6">
<polyline points="95.2,43.185 92.8,39.028" fill="none" stroke="black" stroke-width="1.067"/>
</g>
<g id="s7">
<text x="97.6" y="39.028" text-anchor="middle" dominant-baseline="central">$</text>
</g>
<g id="s8">
</g>
<g id="s9">
</g>
<g id="s10">
<polyline points="92.8,30.714 95.2,26.557" fill="none" stroke="black" stroke-width="1.067"/>
</g>
<g id="s11">
<polyline points="95.2,26.557 100,26.557" fill="none" stroke="black" stroke-width="1.067"/>
</g>
<g id="s12">
<polyline points="100,26.557 102.4,30.714" fill="none" stroke="black" stroke-width="1.067"/>
</g>
<g id="s13">
<polyline points="102.4,30.714 100,34.871" fill="none" stroke="black" stroke-width="1.067"/>
</g>
<g id="s14">
<polyline points="100,34.871 95.2,34.871" fill="none" stroke="black" stroke-width="1.067"/>
</g>
<g id="s15">
<polyline points="95.2,34.871 92.8,30.714" fill="none" stroke="black" stroke-width="1.067"/>
</g>
<g id="s16">
<text x="97.6" y="30.714" text-anchor="middle" dominant-baseline="central">B_1$</text>
</g>
<g id="s17">
</g>
<g id="s18">
</g>
<g id="s19">
<polyline points="100,34.871 102.4,30.714" fill="none" stroke="black" stroke-width="1.067"/>
</g>
<g id="s20">
<polyline points="102.4,30.714 107.2,30.714" fill="none" stroke="black" stroke-width="1.067"/>
</g>
<g id="s21">
<polyline points="107.2,30.714 109.6,34.871" fill="none" stroke="black" stroke-width="1.067"/>
</g>
<g id="s22">
<polyline points="109.6,34.871 107.2,39.028" fill="none" stroke="black" stroke-width="1.067"/>
</g>
<g id="s23">
<polyline points="107.2,39.028 102.4,39.028" fill="none" stroke="black" stroke-width="1.067"/>
</g>
<g id="s24">
<polyline points="102.4,39.028 100,34.871" fill="none" stroke="black" stroke-width="1.067"/>
</g>
<g id="s25">
<text x="104.8" y="34.871" text-anchor="middle" dominant-baseline="central">C_1$</text>
</g>
<g id="s26">
</g>
<g id="s27">
</g>
<g id="s28">
<polyline points="100,43.185 102.4,39.028" fill="none" stroke="black" stroke-width="1.067"/>
</g>
<g id="s29">
<polyline points="102.4,39.028 107.2,39.028" fill="none" stroke="black" stroke-width="1.067"/>
</g>
<g id="s30">
<polyline points="107.2,39.028 109.6,43.185" fill="none" stroke="black" stroke-width="1.067"/>
</g>
<g id="s31">
<polyline points="109.6,43.185 107.2,47.342" fill="none" stroke="black" stroke-width="1.067"/>
</g>
<g id="s32">
<polyline points="107.2,47.342 102.4,47.342" fill="none" stroke="black" stroke-width="1.067"/>
</g>
<g id="s33">
<polyline points="102.4,47.342 100,43.185" fill="none" stroke="black" stroke-width="1.067"/>
</g>
<g id="s34">
<text x="104.8" y="43.185" text-anchor="middle" dominant-baseline="central">D_1$</text>
</g>
<g id="s35">
</g>
<g id="s36">
</g>
<g id="s37">
<polyline points="92.8,22.4 95.2,18.243" fill="none" stroke="black" stroke-width="1.067"/>
</g>
<g id="s38">
<polyline points="95.2,18.243 100,18.243" fill="none" stroke="black" stroke-width="1.067"/>
</g>
<g id="s39">
<polyline points="100,18.243 102.4,22.4" fill="none" stroke="black" stroke-width="1.067"/>
</g>
<g id="s40">
<polyline points="102.4,22.4 100,26.557" fill="none" stroke="black" stroke-width="1.067"/>
</g>
<g id="s41">
<polyline points="100,26.557 95.2,26.557" fill="none" stroke="black" stroke-width="1.067"/>
</g>
<g id="s42">
<polyline points="95.2,26.557 92.8,22.4" fill="none" stroke="black" stroke-width="1.067"/>
</g>
<g id="s43">
<text x="97.6" y="22.4" text-anchor="middle" dominant-baseline="central">$</text>
</g>
<g id="s44">
</g>
<g id="s45">
</g>
<g id="s46">
<polyline points="92.8,14.086 95.2,9.929" fill="none" stroke="black" stroke-width="1.067"/>
</g>
<g id="s47">
<polyline points="95.2,9.929 100,9.929" fill="none" stroke="black" stroke-width="1.067"/>
</g>
<g id="s48">
<polyline points="100,9.929 102.4,14.086" fill="none" stroke="black" stroke-width="1.067"/>
</g>
<g id="s49">
<polyline points="102.4,14.086 100,18.243" fill="none" stroke="black" stroke-width="1.067"/>
</g>
<g id="s50">
<polyline points="100,18.243 95.2,18.243" fill="none" stroke="black" stroke-width="1.067"/>
</g>
<g id="s51">
<polyline points="95.2,18.243 92.8,14.086" fill="none" stroke="black" stroke-width="1.067"/>
</g>
<g id="s52">
<text x="97.6" y="14.086" text-anchor="middle" dominant-baseline="central">B_2$</text>
</g>
<g id="s53">
</g>
<g id="s54">
</g>
<g id="s55">
<polyline points="100,18.243 102.4,14.086" fill="none" stroke="black" stroke-width="1.067"/>
</g>
<g id="s56">
<polyline points="102.4,14.086 107.2,14.086" fill="none" stroke="black" stroke-width="1.067"/>
</g>
<g id="s57">
<polyline points="107.2,14.086 109.6,18.243" fill="none" stroke="black" stroke-width="1.067"/>
</g>
<g id="s58">
<polyline points="109.6,18.243 107.2,22.4" fill="none" stroke="black" stroke-width="1.067"/>
</g>
<g id="s59">
<polyline points="107.2,22.4 102.4,22.4" fill="none" stroke="black" stroke-width="1.067"/>
</g>
<g id="s60">
<polyline points="102.4,22.4 100,18.243" fill="none" stroke="black" stroke-width="1.067"/>
</g>
<g id="s61">
<text x="104.8" y="18.243" text-anchor="middle" dominant-baseline="central">C_2$</text>
</g>
<g id="s62">
</g>
<g id="s63">
</g>
<g id="s64">
<polyline points="100,26.557 102.4,22.4" fill="none" stroke="black" stroke-width="1.067"/>
</g>
<g id="s65">
<polyline points="102.4,22.4 107.2,22.4" fill="none" stroke="black" stroke-width="1.067"/>
</g>
<g id="s66">
<polyline points="107.2,22.4 109.6,26.557" fill="none" stroke="black" stroke-width="1.067"/>
</g>
<g id="s67">
<polyline points="109.6,26.557 107.2,30.714" fill="none" stroke="black" stroke-width="1.067"/>
</g>
<g id="s68">
<polyline points="107.2,30.714 102.4,30.714" fill="none" stroke="black" stroke-width="1.067"/>
</g>
<g id="s69">
<polyline points="102.4,30.714 100,26.557" fill="none" stroke="black" stroke-width="1.067"/>
</g>
<g id="s70">
<text x="104.8" y="26.557" text-anchor="middle" dominant-baseline="central">D_2$</text>
</g>
<g id="s71">
</g>
<g id="s72">
</g>
<g id="s73">
<polyline points="107.2,30.714 109.6,26.557" fill="none" stroke="black" stroke-width="1.067"/>
</g>
<g id="s74">
<polyline points="109.6,26.557 114.4,26.557" fill="none" stroke="black" stroke-width="1.067"/>
</g>
<g id="s75">
<polyline points="114.4,26.557 116.8,30.714" fill="none" stroke="black" stroke-width="1.067"/>
</g>
<g id="s76">
<polyline points="116.8,30.714 114.4,34.871" fill="none" stroke="black" stroke-width="1.067"/>
</g>
<g id="s77">
<polyline points="114.4,34.871 109.6,34.871" fill="none" stroke="black" stroke-width="1.067"/>
</g>
<g id="s78">
<polyline points="109.6,34.871 107.2,30.714" fill="none" stroke="black" stroke-width="1.067"/>
</g>
<g id="s79">
<text x="112" y="30.714" text-anchor="middle" dominant-baseline="central">$</text>
</g>
<g id="s80">
</g>
<g id="s81">
</g>
<g id="s82">
<polyline points="107.2,22.4 109.6,18.243" fill="none" stroke="black" stroke-width="1.067"/>
</g>
<g id="s83">
<polyline points="109.6,18.243 114.4,18.243" fill="none" stroke="black" stroke-width="1.067"/>
</g>
<g id="s84">
<polyline points="114.4,18.243 116.8,22.4" fill="none" stroke="black" stroke-width="1.067"/>
</g>
<g id="s85">
<polyline points="116.8,22.4 114.4,26.557" fill="none" stroke="black" stroke-width="1.067"/>
</g>
<g id="s86">
<polyline points="114.4,26.557 109.6,26.557" fill="none" stroke="black" stroke-width="1.067"/>
</g>
<g id="s87">
<polyline points="109.6,26.557 107.2,22.4" fill="none" stroke="black" stroke-width="1.067"/>
</g>
<g id="s88">
<text x="112" y="22.4" text-anchor="middle" dominant-baseline="central">B_3$</text>
</g>
<g id="s89">
</g>
<g id="s90">
</g>
<g id="s91">
<polyline points="114.4,26.557 116.8,22.4" fill="none" stroke="black" stroke-width="1.067"/>
</g>
<g id="s92">
<polyline points="116.8,22.4 121.6,22.4" fill="none" stroke="black" stroke-width="1.067"/>
</g>
<g id="s93">
<polyline points="121.6,22.4 124,26.557" fill="none" stroke="black" stroke-width="1.067"/>
</g>
<g id="s94">
<polyline points="124,26.557 121.6,30.714" fill="none" stroke="black" stroke-width="1.067"/>
</g>
<g id="s95">
<polyline points="121.6,30.714 116.8,30.714" fill="none" stroke="black" stroke-width="1.067"/>
</g>
<g id="s96">
<polyline points="116.8,30.714 114.4,26.557" fill="none" stroke="black" stroke-width="1.067"/>
</g>
<g id="s97">
<text x="119.2" y="26.557" text-anchor="middle" dominant-baseline="central">C_3$</text>
</g>
<g id="s98">
</g>
<g id="s99">
</g>
<g id="s100">
<polyline points="114.4,34.871 116.8,30.714" fill="none" stroke="black" stroke-width="1.067"/>
</g>
<g id="s101">
<polyline points="116.8,30.714 121.6,30.714" fill="none" stroke="black" stroke-width="1.067"/>
</g>
<g id="s102">
<polyline points="121.6,30.714 124,34.871" fill="none" stroke="black" stroke-width="1.067"/>
</g>
<g id="s103">
<polyline points="124,34.871 121.6,39.028" fill="none" stroke="black" stroke-width="1.067"/>
</g>
<g id="s104">
<polyline points="121.6,39.028 116.8,39.028" fill="none" stroke="black" stroke-width="1.067"/>
</g>
<g id="s105">
<polyline points="116.8,39.028 114.4,34.871" fill="none" stroke="black" stroke-width="1.067"/>
</g>
<g id="s106">
<text x="119.2" y="34.871" text-anchor="middle" dominant-baseline="central">D_3$</text>
</g>
<g id="s107">
</g>
<g id="s108">
</g>
<g id="s109">
<polyline points="107.2,47.342 109.6,43.185" fill="none" stroke="black" stroke-width="1.067"/>
</g>
<g id="s110">
<polyline points="109.6,43.185 114.4,43.185" fill="none" stroke="black" stroke-width="1.067"/>
</g>
<g id="s111">
<polyline points="114.4,43.185 116.8,47.342" fill="none" stroke="black" stroke-width="1.067"/>
</g>
<g id="s112">
<polyline points="116.8,47.342 114.4,51.498" fill="none" stroke="black" stroke-width="1.067"/>
</g>
<g id="s113">
<polyline points="114.4,51.498 109.6,51.498" fill="none" stroke="black" stroke-width="1.067"/>
</g>
<g id="s114">
<polyline points="109.6,51.498 107.2,47.342" fill="none" stroke="black" stroke-width="1.067"/>
</g>
<g id="s115">
<text x="112" y="47.342" text-anchor="middle" dominant-baseline="central">$</text>
</g>
<g id="s116">
</g>
<g id="s117">
</g>
<g id="s118">
<polyline points="107.2,39.028 109.6,34.871" fill="none" stroke="black" stroke-width="1.067"/>
</g>
<g id="s119">
<polyline points="109.6,34.871 114.4,34.871" fill="none" stroke="black" stroke-width="1.067"/>
</g>
<g id="s120">
<polyline points="114.4,34.871 116.8,39.028" fill="none" stroke="black" stroke-width="1.067"/>
</g>
<g id="s121">
<polyline points="116.8,39.028 114.4,43.185" fill="none" stroke="black" stroke-width="1.067"/>
</g>
<g id="s122">
<polyline points="114.4,43.185 109.6,43.185" fill="none" stroke="black" stroke-width="1.067"/>
</g>
<g id="s123">
<polyline points="109.6,43.185 107.2,39.028" fill="none" stroke="black" stroke-width="1.067"/>
</g>
<g id="s124">
<text x="112" y="39.028" text-anchor="middle" dominant-baseline="central">B_4$</text>
</g>
<g id="s125">
</g>
<g id="s126">
</g>
<g id="s127">
<polyline points="114.4,43.185 116.8,39.028" fill="none" stroke="black" stroke-width="1.067"/>
</g>
<g id="s128">
<polyline points="116.8,39.028 121.6,39.028" fill="none" stroke="black" stroke-width="1.067"/>
</g>
<g id="s129">
<polyline points="121.6,39.028 124,43.185" fill="none" stroke="black" stroke-width="1.067"/>
</g>
<g id="s130">
<polyline points="124,43.185 121.6,47.342" fill="none" stroke="black" stroke-width="1.067"/>
</g>
<g id="s131">
<polyline points="121.6,47.342 116.8,47.342" fill="none" stroke="black" stroke-width="1.067"/>
</g>
<g id="s132">
<polyline points="116.8,47.342 114.4,43.185" fill="none" stroke="black" stroke-width="1.067"/>
</g>
<g id="s133">
<text x="119.2" y="43.185" text-anchor="middle" dominant-baseline="central">C_4$</text>
</g>
<g id="s134">
</g>
<g id="s135">
</g>
<g id="s136">
<polyline points="114.4,51.498 116.8,47.342" fill="none" stroke="black" stroke-width="1.067"/>
</g>
<g id="s137">
<polyline points="116.8,47.342 121.6,47.342" fill="none" stroke="black" stroke-width="1.067"/>
</g>
<g id="s138">
<polyline points="121.6,47.342 124,51.498" fill="none" stroke="black" stroke-width="1.067"/>
</g>
<g id="s139">
<polyline points="124,51.498 121.6,55.655" fill="none" stroke="black" stroke-width="1.067"/>
</g>
<g id="s140">
<polyline points="121.6,55.655 116.8,55.655" fill="none" stroke="black" stroke-width="1.067"/>
</g>
<g id="s141">
<polyline points="116.8,55.655 114.4,51.498" fill="none" stroke="black" stroke-width="1.067"/>
</g>
<g id="s142">
<text x="119.2" y="51.498" text-anchor="middle" dominant-baseline="central">D_4$</text>
</g>
<g id="s143">
</g>
<g id="s144">
</g>
<g id="s145">
<polyline points="92.8,55.655 95.2,51.498" fill="none" stroke="black" stroke-width="1.067"/>
</g>
<g id="s146">
<polyline points="95.2,51.498 100,51.498" fill="none" stroke="black" stroke-width="1.067"/>
</g>
<g id="s147">
<polyline points="100,51.498 102.4,55.655" fill="none" stroke="black" stroke-width="1.067"/>
</g>
<g id="s148">
<polyline points="102.4,55.655 100,59.812" fill="none" stroke="black" stroke-width="1.067"/>
</g>
<g id="s149">
<polyline points="100,59.812 95.2,59.812" fill="none" stroke="black" stroke-width="1.067"/>
</g>
<g id="s150">
<polyline points="95.2,59.812 92.8,55.655" fill="none" stroke="black" stroke-width="1.067"/>
</g>
<g id="s151">
<text x="97.6" y="55.655" text-anchor="middle" dominant-baseline="central">$</text>
</g>
<g id="s152">
</g>
<g id="s153">
</g>
<g id="s154">
<polyline points="92.8,47.342 95.2,43.185" fill="none" stroke="black" stroke-width="1.067"/>
</g>
<g id="s155">
<polyline points="95.2,43.185 100,43.185" fill="none" stroke="black" stroke-width="1.067"/>
</g>
<g id="s156">
<polyline points="100,43.185 102.4,47.342" fill="none" stroke="black" stroke-width="1.067"/>
</g>
<g id="s157">
<polyline points="102.4,47.342 100,51.498" fill="none" stroke="black" stroke-width="1.067"/>
</g>
<g id="s158">
<polyline points="100,51.498 95.2,51.498" fill="none" stroke="black" stroke-width="1.067"/>
</g>
<g id="s159">
<polyline points="95.2,51.498 92.8,47.342" fill="none" stroke="black" stroke-width="1.067"/>
</g>
<g id="s160">
<text x="97.6" y="47.342" text-anchor="middle" dominant-baseline="central">B_5$</text>
</g>
<g id="s161">
</g>
<g id="s162">
</g>
<g id="s163">
<polyline points="100,51.498 102.4,47.342" fill="none" stroke="black" stroke-width="1.067"/>
</g>
<g id="s164">
<polyline points="102.4,47.342 107.2,47.342" fill="none" stroke="black" stroke-width="1.067"/>
</g>
<g id="s165">
<polyline points="107.2,47.342 109.6,51.498" fill="none" stroke="black" stroke-width="1.067"/>
</g>
<g id="s166">
<polyline points="109.6,51.498 107.2,55.655" fill="none" stroke="black" stroke-width="1.067"/>
</g>
<g id="s167">
<polyline points="107.2,55.655 102.4,55.655" fill="none" stroke="black" stroke-width="1.067"/>
</g>
<g id="s168">
<polyline points="102.4,55.655 100,51.498" fill="none" stroke="black" stroke-width="1.067"/>
</g>
<g id="s169">
<text x="104.8" y="51.498" text-anchor="middle" dominant-baseline="central">C_5$</text>
</g>
<g id="s170">
</g>
<g id="s171">
</g>
<g id="s172">
<polyline points="100,59.812 102.4,55.655" fill="none" stroke="black" stroke-width="1.067"/>
</g>
<g id="s173">
<polyline points="102.4,55.655 107.2,55.655" fill="none" stroke="black" stroke-width="1.067"/>
</g>
<g id="s174">
<polyline points="107.2,55.655 109.6,59.812" fill="none" stroke="black" stroke-width="1.067"/>
</g>
<g id="s175">
<polyline points="109.6,59.812 107.2,63.969" fill="none" stroke="black" stroke-width="1.067"/>
</g>
<g id="s176">
<polyline points="107.2,63.969 102.4,63.969" fill="none" stroke="black" stroke-width="1.067"/>
</g>
<g id="s177">
<polyline points="102.4,63.969 100,59.812" fill="none" stroke="black" stroke-width="1.067"/>
</g>
<g id="s178">
<text x="104.8" y="59.812" text-anchor="middle" dominant-baseline="central">D_5$</text>
</g>
<g id="s179">
</g>
<g id="s180">
</g>
<g id="s181">
<polyline points="78.4,47.342 80.8,43.185" fill="none" stroke="black" stroke-width="1.067"/>
</g>
<g id="s182">
<polyline points="80.8,43.185 85.6,43.185" fill="none" stroke="black" stroke-width="1.067"/>
</g>
<g id="s183">
<polyline points="85.6,43.185 88,47.342" fill="none" stroke="black" stroke-width="1.067"/>
</g>
<g id="s184">
<polyline points="88,47.342 85.6,51.498" fill="none" stroke="black" stroke-width="1.067"/>
</g>
<g id="s185">
<polyline points="85.6,51.498 80.8,51.498" fill="none" stroke="black" stroke-width="1.067"/>
</g>
<g id="s186">
<polyline points="80.8,51.498 78.4,47.342" fill="none" stroke="black" stroke-width="1.067"/>
</g>
<g id="s187">
<text x="83.2" y="47.342" text-anchor="middle" dominant-baseline="central">$</text>
</g>
<g id="s188">
</g>
<g id="s189">
</g>
<g id="s190">
<polyline points="78.4,39.028 80.8,34.871" fill="none" stroke="black" stroke-width="1.067"/>
</g>
<g id="s191">
<polyline points="80.8,34.871 85.6,34.871" fill="none" stroke="black" stroke-width="1.067"/>
</g>
<g id="s192">
<polyline points="85.6,34.871 88,39.028" fill="none" stroke="black" stroke-width="1.067"/>
</g>
<g id="s193">
<polyline points="88,39.028 85.6,43.185" fill="none" stroke="black" stroke-width="1.067"/>
</g>
<g id="s194">
<polyline points="85.6,43.185 80.8,43.185" fill="none" stroke="black" stroke-width="1.067"/>
</g>
<g id="s195">
<polyline points="80.8,43.185 78.4,39.028" fill="none" stroke="black" stroke-width="1.067"/>
</g>
<g id="s196">
<text x="83.2" y="39.028" text-anchor="middle" dominant-baseline="central">B_6$</text>
</g>
<g id="s197">
</g>
<g id="s198">
</g>
<g id="s199">
<polyline points="85.6,43.185 88,39.028" fill="none" stroke="black" stroke-width="1.067"/>
</g>
<g id="s200">
<polyline points="88,39.028 92.8,39.028" fill="none" stroke="black" stroke-width="1.067"/>
</g>
<g id="s201">
<polyline points="92.8,39.028 95.2,43.185" fill="none" stroke="black" stroke-width="1.067"/>
</g>
<g id="s202">
<polyline points="95.2,43.185 92.8,47.342" fill="none" stroke="black" stroke-width="1.067"/>
</g>
<g id="s203">
<polyline points="92.8,47.342 88,47.342" fill="none" stroke="black" stroke-width="1.067"/>
</g>
<g id="s204">
<polyline points="88,47.342 85.6,43.185" fill="none" stroke="black" stroke-width="1.067"/>
</g>
<g id="s205">
<text x="90.4" y="43.185" text-anchor="middle" dominant-baseline="central">C_6$</text>
</g>
<g id="s206">
</g>
<g id="s207">
</g>
<g id="s208">
<polyline points="85.6,51.498 88,47.342" fill="none" stroke="black" stroke-width="1.067"/>
</g>
<g id="s209">
<polyline points="88,47.342 92.8,47.342" fill="none" stroke="black" stroke-width="1.067"/>
</g>
<g id="s210">
<polyline points="92.8,47.342 95.2,51.498" fill="none" stroke="black" stroke-width="1.067"/>
</g>
<g id="s211">
<polyline points="95.2,51.498 92.8,55.655" fill="none" stroke="black" stroke-width="1.067"/>
</g>
<g id="s212">
<polyline points="92.8,55.655 88,55.655" fill="none" stroke="black" stroke-width="1.067"/>
</g>
<g id="s213">
<polyline points="88,55.655 85.6,51.498" fill="none" stroke="black" stroke-width="1.067"/>
</g>
<g id="s214">
<text x="90.4" y="51.498" text-anchor="middle" dominant-baseline="central">D_6$</text>
</g>
<g id="s215">
</g>
<g id="s216">
</g>
<g id="s217">
<polyline points="78.4,30.714 80.8,26.557" fill="none" stroke="black" stroke-width="1.067"/>
</g>
<g id="s218">
<polyline points="80.8,26.557 85.6,26.557" fill="none" stroke="black" stroke-width="1.067"/>
</g>
<g id="s219">
<polyline points="85.6,26.557 88,30.714" fill="none" stroke="black" stroke-width="1.067"/>
</g>
<g id="s220">
<polyline points="88,30.714 85.6,34.871" fill="none" stroke="black" stroke-width="1.067"/>
</g>
<g id="s221">
<polyline points="85.6,34.871 80.8,34.871" fill="none" stroke="black" stroke-width="1.067"/>
</g>
<g id="s222">
<polyline points="80.8,34.871 78.4,30.714" fill="none" stroke="black" stroke-width="1.067"/>
</g>
<g id="s223">
<text x="83.2" y="30.714" text-anchor="middle" dominant-baseline="central">$</text>
</g>
<g id="s224">
</g>
<g id="s225">
</g>
<g id="s226">
<polyline points="78.4,22.4 80.8,18.243" fill="none" stroke="black" stroke-width="1.067"/>
</g>
<g id="s227">
<polyline points="80.8,18.243 85.6,18.243" fill="none" stroke="black" stroke-width="1.067"/>
</g>
<g id="s228">
<polyline points="85.6,18.243 88,22.4" fill="none" stroke="black" stroke-width="1.067"/>
</g>
<g id="s229">
<polyline points="88,22.4 85.6,26.557" fill="none" stroke="black" stroke-width="1.067"/>
</g>
<g id="s230">
<polyline points="85.6,26.557 80.8,26.557" fill="none" stroke="black" stroke-width="1.067"/>
</g>
<g id="s231">
<polyline points="80.8,26.557 78.4,22.4" fill="none" stroke="black" stroke-width="1.067"/>
</g>
<g id="s232">
<text x="83.2" y="22.4" text-anchor="middle" dominant-baseline="central">B_7$</text>
</g>
<g id="s233">
</g>
<g id="s234">
</g>
<g id="s235">
<polyline points="85.6,34.871 88,30.714" fill="none" stroke="black" stroke-width="1.067"/>
</g>
<g id="s236">
<polyline points="88,30.714 92.8,30.714" fill="none" stroke="black" stroke-width="1.067"/>
</g>
<g id="s237">
<polyline points="92.8,30.714 95.2,34.871" fill="none" stroke="black" stroke-width="1.067"/>
</g>
<g id="s238">
<polyline points="95.2,34.871 92.8,39.028" fill="none" stroke="black" stroke-width="1.067"/>
</g>
<g id="s239">
<polyline points="92.8,39.028 88,39.028" fill="none" stroke="black" stroke-width="1.067"/>
</g>
<g id="s240">
<polyline points="88,39.028 85.6,34.871" fill="none" stroke="black" stroke-width="1.067"/>
</g>
<g id="s241">
<text x="90.4" y="34.871" text-anchor="middle" dominant-baseline="central">C_7$</text>
</g>
<g id="s242">
</g>
<g id="s243">
</g>
<g id="s244">
<polyline points="85.6,26.557 88,22.4" fill="none" stroke="black" stroke-width="1.067"/>
</g>
<g id="s245">
<polyline points="88,22.4 92.8,22.4" fill="none" stroke="black" stroke-width="1.067"/>
</g>
<g id="s246">
<polyline points="92.8,22.4 95.2,26.557" fill="none" stroke="black" stroke-width="1.067"/>
</g>
<g id="s247">
<polyline points="95.2,26.557 92.8,30.714" fill="none" stroke="black" stroke-width="1.067"/>
</g>
<g id="s248">
<polyline points="92.8,30.714 88,30.714" fill="none" stroke="black" stroke-width="1.067"/>
</g>
<g id="s249">
<polyline points="88,30.714 85.6,26.557" fill="none" stroke="black" stroke-width="1.067"/>
</g>
<g id="s250">
<text x="90.4" y="26.557" text-anchor="middle" dominant-baseline="central">D_7$</text>
</g>
<g id="s251">
</g>
<g id="s252">
<polyline points="97.6,39.028 97.6,22.4" fill="none" stroke="black" stroke-width="1.067" stroke-dasharray="1,3" stroke-linecap="round"/>
</g>
<g id="s253">
<text x="97.6" y="39.028" text-anchor="middle" dominant-baseline="central">\blue{$_{_{A_1}}$}</text>
</g>
<g id="s254">
<polyline points="97.6,39.028 112,30.714" fill="none" stroke="black" stroke-width="1.067" stroke-dasharray="1,3" stroke-linecap="round"/>
</g>
<g id="s255">
<text x="97.6" y="12.8" text-anchor="middle" dominant-baseline="central">\blue{$_{_{A_2}}$}</text>
</g>
<g id="s256">
<polyline points="97.6,39.028 112,47.342" fill="none" stroke="black" stroke-width="1.067" stroke-dasharray="1,3" stroke-linecap="round"/>
</g>
<g id="s257">
<text x="112" y="30.714" text-anchor="middle" dominant-baseline="central">\blue{$_{_{A_3}}$}</text>
</g>
<g id="s258">
<polyline points="97.6,39.028 97.6,55.655" fill="none" stroke="black" stroke-width="1.067" stroke-dasharray="1,3" stroke-linecap="round"/>
</g>
<g id="s259">
<text x="112" y="47.342" text-anchor="middle" dominant-baseline="central">\blue{$_{_{A_4}}$}</text>
</g>
<g id="s260">
<polyline points="97.6,39.028 83.2,47.342" fill="none" stroke="black" stroke-width="1.067" stroke-dasharray="1,3" stroke-linecap="round"/>
</g>
<g id="s261">
<text x="97.6" y="65.255" text-anchor="middle" dominant-baseline="central">\blue{$_{_{A_5}}$}</text>
</g>
<g id="s262">
<polyline points="97.6,39.028 83.2,30.714" fill="none" stroke="black" stroke-width="1.067" stroke-dasharray="1,3" stroke-linecap="round"/>
</g>
<g id="s263">
<text x="83.2" y="47.342" text-anchor="middle" dominant-baseline="central">\blue{$_{_{A_6}}$}</text>
</g>
<g id="s264">
<polyline points="97.6,39.028 83.2,30.714" fill="none" stroke="black" stroke-width="1.067" stroke-dasharray="1,3" stroke-linecap="round"/>
</g>
<g id="s265">
<text x="83.2" y="30.714" text-anchor="middle" dominant-baseline="central">\blue{$_{_{A_7}}$}</text>
</g>
<g id="s266">
<text x="83.2" y="30.714" text-anchor="middle" dominant-baseline="central">\blue{$_{_{A_7}}$}</text>
</g>
</svg>
