<svg xmlns="http://www.w3.org/2000/svg" width="48" height="64.535376" viewBox="0 0 48 64.535376" font-family="sans-serif" font-size="14.666667" fill="none">
<g id="s0">
</g>
<g id="s1">
<line x1="15.2" y1="31.467688" x2="17.6" y2="27.310766" stroke="black" stroke-width="1.6"/>
</g>
<g id="s2">
<line x1="17.6" y1="27.310766" x2="22.4" y2="27.310766" stroke="black" stroke-width="1.6"/>
</g>
<g id="s3">
<line x1="22.4" y1="27.310766" x2="24.8" y2="31.467688" stroke="black" stroke-width="1.6"/>
</g>
<g id="s4">
<line x1="24.8" y1="31.467688" x2="22.4" y2="35.62461" stroke="black" stroke-width="1.6"/>
</g>
<g id="s5">
<line x1="22.4" y1="35.62461" x2="17.6" y2="35.62461" stroke="black" stroke-width="1.6"/>
</g>
<g id="s6">
<line x1="17.6" y1="35.62461" x2="15.2" y2="31.467688" stroke="black" stroke-width="1.6"/>
</g>
<g id="s7">
<text font-size="11pt" stroke-width="0.266667" fill="black" x="20" y="36.307688" text-anchor="middle">$</text>
</g>
<g id="s8">
</g>
<g id="s9">
</g>
<g id="s10">
<line x1="15.2" y1="23.153844" x2="17.6" y2="18.996922" stroke="black" stroke-width="1.6"/>
</g>
<g id="s11">
<line x1="17.6" y1="18.996922" x2="22.4" y2="18.996922" stroke="black" stroke-width="1.6"/>
</g>
<g id="s12">
<line x1="22.4" y1="18.996922" x2="24.8" y2="23.153844" stroke="black" stroke-width="1.6"/>
</g>
<g id="s13">
<line x1="24.8" y1="23.153844" x2="22.4" y2="27.310766" stroke="black" stroke-width="1.6"/>
</g>
<g id="s14">
<line x1="22.4" y1="27.310766" x2="17.6" y2="27.310766" stroke="black" stroke-width="1.6"/>
</g>
<g id="s15">
<line x1="17.6" y1="27.310766" x2="15.2" y2="23.153844" stroke="black" stroke-width="1.6"/>
</g>
<g id="s16">
<text font-size="11pt" stroke-width="0.266667" fill="black" x="20" y="27.993844" text-anchor="middle">B_1$</text>
</g>
<g id="s17">
</g>
<g id="s18">
</g>
<g id="s19">
<line x1="22.4" y1="27.310766" x2="24.8" y2="23.153844" stroke="black" stroke-width="1.6"/>
</g>
<g id="s20">
<line x1="24.8" y1="23.153844" x2="29.6" y2="23.153844" stroke="black" stroke-width="1.6"/>
</g>
<g id="s21">
<line x1="29.6" y1="23.153844" x2="32" y2="27.310766" stroke="black" stroke-width="1.6"/>
</g>
<g id="s22">
<line x1="32" y1="27.310766" x2="29.6" y2="31.467688" stroke="black" stroke-width="1.6"/>
</g>
<g id="s23">
<line x1="29.6" y1="31.467688" x2="24.8" y2="31.467688" stroke="black" stroke-width="1.6"/>
</g>
<g id="s24">
<line x1="24.8" y1="31.467688" x2="22.4" y2="27.310766" stroke="black" stroke-width="1.6"/>
</g>
<g id="s25">
<text font-size="11pt" stroke-width="0.266667" fill="black" x="27.2" y="32.150766" text-anchor="middle">C_1$</text>
</g>
<g id="s26">
</g>
<g id="s27">
</g>
<g id="s28">
<line x1="22.4" y1="35.62461" x2="24.8" y2="31.467688" stroke="black" stroke-width="1.6"/>
</g>
<g id="s29">
<line x1="24.8" y1="31.467688" x2="29.6" y2="31.467688" stroke="black" stroke-width="1.6"/>
</g>
<g id="s30">
<line x1="29.6" y1="31.467688" x2="32" y2="35.62461" stroke="black" stroke-width="1.6"/>
</g>
<g id="s31">
<line x1="32" y1="35.62461" x2="29.6" y2="39.781532" stroke="black" stroke-width="1.6"/>
</g>
<g id="s32">
<line x1="29.6" y1="39.781532" x2="24.8" y2="39.781532" stroke="black" stroke-width="1.6"/>
</g>
<g id="s33">
<line x1="24.8" y1="39.781532" x2="22.4" y2="35.62461" stroke="black" stroke-width="1.6"/>
</g>
<g id="s34">
<text font-size="11pt" stroke-width="0.266667" fill="black" x="27.2" y="40.46461" text-anchor="middle">D_1$</text>
</g>
<g id="s35">
</g>
<g id="s36">
</g>
<g id="s37">
<line x1="15.2" y1="14.84" x2="17.6" y2="10.683078" stroke="black" stroke-width="1.6"/>
</g>
<g id="s38">
<line x1="17.6" y1="10.683078" x2="22.4" y2="10.683078" stroke="black" stroke-width="1.6"/>
</g>
<g id="s39">
<line x1="22.4" y1="10.683078" x2="24.8" y2="14.84" stroke="black" stroke-width="1.6"/>
</g>
<g id="s40">
<line x1="24.8" y1="14.84" x2="22.4" y2="18.996922" stroke="black" stroke-width="1.6"/>
</g>
<g id="s41">
<line x1="22.4" y1="18.996922" x2="17.6" y2="18.996922" stroke="black" stroke-width="1.6"/>
</g>
<g id="s42">
<line x1="17.6" y1="18.996922" x2="15.2" y2="14.84" stroke="black" stroke-width="1.6"/>
</g>
<g id="s43">
<text font-size="11pt" stroke-width="0.266667" fill="black" x="20" y="19.68" text-anchor="middle">$</text>
</g>
<g id="s44">
</g>
<g id="s45">
</g>
<g id="s46">
<line x1="15.2" y1="6.526156" x2="17.6" y2="2.369234" stroke="black" stroke-width="1.6"/>
</g>
<g id="s47">
<line x1="17.6" y1="2.369234" x2="22.4" y2="2.369234" stroke="black" stroke-width="1.6"/>
</g>
<g id="s48">
<line x1="22.4" y1="2.369234" x2="24.8" y2="6.526156" stroke="black" stroke-width="1.6"/>
</g>
<g id="s49">
<line x1="24.8" y1="6.526156" x2="22.4" y2="10.683078" stroke="black" stroke-width="1.6"/>
</g>
<g id="s50">
<line x1="22.4" y1="10.683078" x2="17.6" y2="10.683078" stroke="black" stroke-width="1.6"/>
</g>
<g id="s51">
<line x1="17.6" y1="10.683078" x2="15.2" y2="6.526156" stroke="black" stroke-width="1.6"/>
</g>
<g id="s52">
<text font-size="11pt" stroke-width="0.266667" fill="black" x="20" y="11.366156" text-anchor="middle">B_2$</text>
</g>
<g id="s53">
</g>
<g id="s54">
</g>
<g id="s55">
<line x1="22.4" y1="10.683078" x2="24.8" y2="6.526156" stroke="black" stroke-width="1.6"/>
</g>
<g id="s56">
<line x1="24.8" y1="6.526156" x2="29.6" y2="6.526156" stroke="black" stroke-width="1.6"/>
</g>
<g id="s57">
<line x1="29.6" y1="6.526156" x2="32" y2="10.683078" stroke="black" stroke-width="1.6"/>
</g>
<g id="s58">
<line x1="32" y1="10.683078" x2="29.6" y2="14.84" stroke="black" stroke-width="1.6"/>
</g>
<g id="s59">
<line x1="29.6" y1="14.84" x2="24.8" y2="14.84" stroke="black" stroke-width="1.6"/>
</g>
<g id="s60">
<line x1="24.8" y1="14.84" x2="22.4" y2="10.683078" stroke="black" stroke-width="1.6"/>
</g>
<g id="s61">
<text font-size="11pt" stroke-width="0.266667" fill="black" x="27.2" y="15.523078" text-anchor="middle">C_2$</text>
</g>
<g id="s62">
</g>
<g id="s63">
</g>
<g id="s64">
<line x1="22.4" y1="18.996922" x2="24.8" y2="14.84" stroke="black" stroke-width="1.6"/>
</g>
<g id="s65">
<line x1="24.8" y1="14.84" x2="29.6" y2="14.84" stroke="black" stroke-width="1.6"/>
</g>
<g id="s66">
<line x1="29.6" y1="14.84" x2="32" y2="18.996922" stroke="black" stroke-width="1.6"/>
</g>
<g id="s67">
<line x1="32" y1="18.996922" x2="29.6" y2="23.153844" stroke="black" stroke-width="1.6"/>
</g>
<g id="s68">
<line x1="29.6" y1="23.153844" x2="24.8" y2="23.153844" stroke="black" stroke-width="1.6"/>
</g>
<g id="s69">
<line x1="24.8" y1="23.153844" x2="22.4" y2="18.996922" stroke="black" stroke-width="1.6"/>
</g>
<g id="s70">
<text font-size="11pt" stroke-width="0.266667" fill="black" x="27.2" y="23.836922" text-anchor="middle">D_2$</text>
</g>
<g id="s71">
</g>
<g id="s72">
</g>
<g id="s73">
<line x1="29.6" y1="23.153844" x2="32" y2="18.996922" stroke="black" stroke-width="1.6"/>
</g>
<g id="s74">
<line x1="32" y1="18.996922" x2="36.8" y2="18.996922" stroke="black" stroke-width="1.6"/>
</g>
<g id="s75">
<line x1="36.8" y1="18.996922" x2="39.2" y2="23.153844" stroke="black" stroke-width="1.6"/>
</g>
<g id="s76">
<line x1="39.2" y1="23.153844" x2="36.8" y2="27.310766" stroke="black" stroke-width="1.6"/>
</g>
<g id="s77">
<line x1="36.8" y1="27.310766" x2="32" y2="27.310766" stroke="black" stroke-width="1.6"/>
</g>
<g id="s78">
<line x1="32" y1="27.310766" x2="29.6" y2="23.153844" stroke="black" stroke-width="1.6"/>
</g>
<g id="s79">
<text font-size="11pt" stroke-width="0.266667" fill="black" x="34.4" y="27.993844" text-anchor="middle">$</text>
</g>
<g id="s80">
</g>
<g id="s81">
</g>
<g id="s82">
<line x1="29.6" y1="14.84" x2="32" y2="10.683078" stroke="black" stroke-width="1.6"/>
</g>
<g id="s83">
<line x1="32" y1="10.683078" x2="36.8" y2="10.683078" stroke="black" stroke-width="1.6"/>
</g>
<g id="s84">
<line x1="36.8" y1="10.683078" x2="39.2" y2="14.84" stroke="black" stroke-width="1.6"/>
</g>
<g id="s85">
<line x1="39.2" y1="14.84" x2="36.8" y2="18.996922" stroke="black" stroke-width="1.6"/>
</g>
<g id="s86">
<line x1="36.8" y1="18.996922" x2="32" y2="18.996922" stroke="black" stroke-width="1.6"/>
</g>
<g id="s87">
<line x1="32" y1="18.996922" x2="29.6" y2="14.84" stroke="black" stroke-width="1.6"/>
</g>
<g id="s88">
<text font-size="11pt" stroke-width="0.266667" fill="black" x="34.4" y="19.68" text-anchor="middle">B_3$</text>
</g>
<g id="s89">
</g>
<g id="s90">
</g>
<g id="s91">
<line x1="36.8" y1="18.996922" x2="39.2" y2="14.84" stroke="black" stroke-width="1.6"/>
</g>
<g id="s92">
<line x1="39.2" y1="14.84" x2="44" y2="14.84" stroke="black" stroke-width="1.6"/>
</g>
<g id="s93">
<line x1="44" y1="14.84" x2="46.4" y2="18.996922" stroke="black" stroke-width="1.6"/>
</g>
<g id="s94">
<line x1="46.4" y1="18.996922" x2="44" y2="23.153844" stroke="black" stroke-width="1.6"/>
</g>
<g id="s95">
<line x1="44" y1="23.153844" x2="39.2" y2="23.153844" stroke="black" stroke-width="1.6"/>
</g>
<g id="s96">
<line x1="39.2" y1="23.153844" x2="36.8" y2="18.996922" stroke="black" stroke-width="1.6"/>
</g>
<g id="s97">
<text font-size="11pt" stroke-width="0.266667" fill="black" x="41.6" y="23.836922" text-anchor="middle">C_3$</text>
</g>
<g id="s98">
</g>
<g id="s99">
</g>
<g id="s100">
<line x1="36.8" y1="27.310766" x2="39.2" y2="23.153844" stroke="black" stroke-width="1.6"/>
</g>
<g id="s101">
<line x1="39.2" y1="23.153844" x2="44" y2="23.153844" stroke="black" stroke-width="1.6"/>
</g>
<g id="s102">
<line x1="44" y1="23.153844" x2="46.4" y2="27.310766" stroke="black" stroke-width="1.6"/>
</g>
<g id="s103">
<line x1="46.4" y1="27.310766" x2="44" y2="31.467688" stroke="black" stroke-width="1.6"/>
</g>
<g id="s104">
<line x1="44" y1="31.467688" x2="39.2" y2="31.467688" stroke="black" stroke-width="1.6"/>
</g>
<g id="s105">
<line x1="39.2" y1="31.467688" x2="36.8" y2="27.310766" stroke="black" stroke-width="1.6"/>
</g>
<g id="s106">
<text font-size="11pt" stroke-width="0.266667" fill="black" x="41.6" y="32.150766" text-anchor="middle">D_3$</text>
</g>
<g id="s107">
</g>
<g id="s108">
</g>
<g id="s109">
<line x1="29.6" y1="39.781532" x2="32" y2="35.62461" stroke="black" stroke-width="1.6"/>
</g>
<g id="s110">
<line x1="32" y1="35.62461" x2="36.8" y2="35.62461" stroke="black" stroke-width="1.6"/>
</g>
<g id="s111">
<line x1="36.8" y1="35.62461" x2="39.2" y2="39.781532" stroke="black" stroke-width="1.6"/>
</g>
<g id="s112">
<line x1="39.2" y1="39.781532" x2="36.8" y2="43.938454" stroke="black" stroke-width="1.6"/>
</g>
<g id="s113">
<line x1="36.8" y1="43.938454" x2="32" y2="43.938454" stroke="black" stroke-width="1.6"/>
</g>
<g id="s114">
<line x1="32" y1="43.938454" x2="29.6" y2="39.781532" stroke="black" stroke-width="1.6"/>
</g>
<g id="s115">
<text font-size="11pt" stroke-width="0.266667" fill="black" x="34.4" y="44.621532" text-anchor="middle">$</text>
</g>
<g id="s116">
</g>
<g id="s117">
</g>
<g id="s118">
<line x1="29.6" y1="31.467688" x2="32" y2="27.310766" stroke="black" stroke-width="1.6"/>
</g>
<g id="s119">
<line x1="32" y1="27.310766" x2="36.8" y2="27.310766" stroke="black" stroke-width="1.6"/>
</g>
<g id="s120">
<line x1="36.8" y1="27.310766" x2="39.2" y2="31.467688" stroke="black" stroke-width="1.6"/>
</g>
<g id="s121">
<line x1="39.2" y1="31.467688" x2="36.8" y2="35.62461" stroke="black" stroke-width="1.6"/>
</g>
<g id="s122">
<line x1="36.8" y1="35.62461" x2="32" y2="35.62461" stroke="black" stroke-width="1.6"/>
</g>
<g id="s123">
<line x1="32" y1="35.62461" x2="29.6" y2="31.467688" stroke="black" stroke-width="1.6"/>
</g>
<g id="s124">
<text font-size="11pt" stroke-width="0.266667" fill="black" x="34.4" y="36.307688" text-anchor="middle">B_4$</text>
</g>
<g id="s125">
</g>
<g id="s126">
</g>
<g id="s127">
<line x1="36.8" y1="35.62461" x2="39.2" y2="31.467688" stroke="black" stroke-width="1.6"/>
</g>
<g id="s128">
<line x1="39.2" y1="31.467688" x2="44" y2="31.467688" stroke="black" stroke-width="1.6"/>
</g>
<g id="s129">
<line x1="44" y1="31.467688" x2="46.4" y2="35.62461" stroke="black" stroke-width="1.6"/>
</g>
<g id="s130">
<line x1="46.4" y1="35.62461" x2="44" y2="39.781532" stroke="black" stroke-width="1.6"/>
</g>
<g id="s131">
<line x1="44" y1="39.781532" x2="39.2" y2="39.781532" stroke="black" stroke-width="1.6"/>
</g>
<g id="s132">
<line x1="39.2" y1="39.781532" x2="36.8" y2="35.62461" stroke="black" stroke-width="1.6"/>
</g>
<g id="s133">
<text font-size="11pt" stroke-width="0.266667" fill="black" x="41.6" y="40.46461" text-anchor="middle">C_4$</text>
</g>
<g id="s134">
</g>
<g id="s135">
</g>
<g id="s136">
<line x1="36.8" y1="43.938454" x2="39.2" y2="39.781532" stroke="black" stroke-width="1.6"/>
</g>
<g id="s137">
<line x1="39.2" y1="39.781532" x2="44" y2="39.781532" stroke="black" stroke-width="1.6"/>
</g>
<g id="s138">
<line x1="44" y1="39.781532" x2="46.4" y2="43.938454" stroke="black" stroke-width="1.6"/>
</g>
<g id="s139">
<line x1="46.4" y1="43.938454" x2="44" y2="48.095376" stroke="black" stroke-width="1.6"/>
</g>
<g id="s140">
<line x1="44" y1="48.095376" x2="39.2" y2="48.095376" stroke="black" stroke-width="1.6"/>
</g>
<g id="s141">
<line x1="39.2" y1="48.095376" x2="36.8" y2="43.938454" stroke="black" stroke-width="1.6"/>
</g>
<g id="s142">
<text font-size="11pt" stroke-width="0.266667" fill="black" x="41.6" y="48.778454" text-anchor="middle">D_4$</text>
</g>
<g id="s143">
</g>
<g id="s144">
</g>
<g id="s145">
<line x1="15.2" y1="48.095376" x2="17.6" y2="43.938454" stroke="black" stroke-width="1.6"/>
</g>
<g id="s146">
<line x1="17.6" y1="43.938454" x2="22.4" y2="43.938454" stroke="black" stroke-width="1.6"/>
</g>
<g id="s147">
<line x1="22.4" y1="43.938454" x2="24.8" y2="48.095376" stroke="black" stroke-width="1.6"/>
</g>
<g id="s148">
<line x1="24.8" y1="48.095376" x2="22.4" y2="52.252297" stroke="black" stroke-width="1.6"/>
</g>
<g id="s149">
<line x1="22.4" y1="52.252297" x2="17.6" y2="52.252297" stroke="black" stroke-width="1.6"/>
</g>
<g id="s150">
<line x1="17.6" y1="52.252297" x2="15.2" y2="48.095376" stroke="black" stroke-width="1.6"/>
</g>
<g id="s151">
<text font-size="11pt" stroke-width="0.266667" fill="black" x="20" y="52.935376" text-anchor="middle">$</text>
</g>
<g id="s152">
</g>
<g id="s153">
</g>
<g id="s154">
<line x1="15.2" y1="39.781532" x2="17.6" y2="35.62461" stroke="black" stroke-width="1.6"/>
</g>
<g id="s155">
<line x1="17.6" y1="35.62461" x2="22.4" y2="35.62461" stroke="black" stroke-width="1.6"/>
</g>
<g id="s156">
<line x1="22.4" y1="35.62461" x2="24.8" y2="39.781532" stroke="black" stroke-width="1.6"/>
</g>
<g id="s157">
<line x1="24.8" y1="39.781532" x2="22.4" y2="43.938454" stroke="black" stroke-width="1.6"/>
</g>
<g id="s158">
<line x1="22.4" y1="43.938454" x2="17.6" y2="43.938454" stroke="black" stroke-width="1.6"/>
</g>
<g id="s159">
<line x1="17.6" y1="43.938454" x2="15.2" y2="39.781532" stroke="black" stroke-width="1.6"/>
</g>
<g id="s160">
<text font-size="11pt" stroke-width="0.266667" fill="black" x="20" y="44.621532" text-anchor="middle">B_5$</text>
</g>
<g id="s161">
</g>
<g id="s162">
</g>
<g id="s163">
<line x1="22.4" y1="43.938454" x2="24.8" y2="39.781532" stroke="black" stroke-width="1.6"/>
</g>
<g id="s164">
<line x1="24.8" y1="39.781532" x2="29.6" y2="39.781532" stroke="black" stroke-width="1.6"/>
</g>
<g id="s165">
<line x1="29.6" y1="39.781532" x2="32" y2="43.938454" stroke="black" stroke-width="1.6"/>
</g>
<g id="s166">
<line x1="32" y1="43.938454" x2="29.6" y2="48.095376" stroke="black" stroke-width="1.6"/>
</g>
<g id="s167">
<line x1="29.6" y1="48.095376" x2="24.8" y2="48.095376" stroke="black" stroke-width="1.6"/>
</g>
<g id="s168">
<line x1="24.8" y1="48.095376" x2="22.4" y2="43.938454" stroke="black" stroke-width="1.6"/>
</g>
<g id="s169">
<text font-size="11pt" stroke-width="0.266667" fill="black" x="27.2" y="48.778454" text-anchor="middle">C_5$</text>
</g>
<g id="s170">
</g>
<g id="s171">
</g>
<g id="s172">
<line x1="22.4" y1="52.252297" x2="24.8" y2="48.095376" stroke="black" stroke-width="1.6"/>
</g>
<g id="s173">
<line x1="24.8" y1="48.095376" x2="29.6" y2="48.095376" stroke="black" stroke-width="1.6"/>
</g>
<g id="s174">
<line x1="29.6" y1="48.095376" x2="32" y2="52.252297" stroke="black" stroke-width="1.6"/>
</g>
<g id="s175">
<line x1="32" y1="52.252297" x2="29.6" y2="56.409219" stroke="black" stroke-width="1.6"/>
</g>
<g id="s176">
<line x1="29.6" y1="56.409219" x2="24.8" y2="56.409219" stroke="black" stroke-width="1.6"/>
</g>
<g id="s177">
<line x1="24.8" y1="56.409219" x2="22.4" y2="52.252297" stroke="black" stroke-width="1.6"/>
</g>
<g id="s178">
<text font-size="11pt" stroke-width="0.266667" fill="black" x="27.2" y="57.092297" text-anchor="middle">D_5$</text>
</g>
<g id="s179">
</g>
<g id="s180">
</g>
<g id="s181">
<line x1="0.8" y1="39.781532" x2="3.2" y2="35.62461" stroke="black" stroke-width="1.6"/>
</g>
<g id="s182">
<line x1="3.2" y1="35.62461" x2="8" y2="35.62461" stroke="black" stroke-width="1.6"/>
</g>
<g id="s183">
<line x1="8" y1="35.62461" x2="10.4" y2="39.781532" stroke="black" stroke-width="1.6"/>
</g>
<g id="s184">
<line x1="10.4" y1="39.781532" x2="8" y2="43.938454" stroke="black" stroke-width="1.6"/>
</g>
<g id="s185">
<line x1="8" y1="43.938454" x2="3.2" y2="43.938454" stroke="black" stroke-width="1.6"/>
</g>
<g id="s186">
<line x1="3.2" y1="43.938454" x2="0.8" y2="39.781532" stroke="black" stroke-width="1.6"/>
</g>
<g id="s187">
<text font-size="11pt" stroke-width="0.266667" fill="black" x="5.6" y="44.621532" text-anchor="middle">$</text>
</g>
<g id="s188">
</g>
<g id="s189">
</g>
<g id="s190">
<line x1="0.8" y1="31.467688" x2="3.2" y2="27.310766" stroke="black" stroke-width="1.6"/>
</g>
<g id="s191">
<line x1="3.2" y1="27.310766" x2="8" y2="27.310766" stroke="black" stroke-width="1.6"/>
</g>
<g id="s192">
<line x1="8" y1="27.310766" x2="10.4" y2="31.467688" stroke="black" stroke-width="1.6"/>
</g>
<g id="s193">
<line x1="10.4" y1="31.467688" x2="8" y2="35.62461" stroke="black" stroke-width="1.6"/>
</g>
<g id="s194">
<line x1="8" y1="35.62461" x2="3.2" y2="35.62461" stroke="black" stroke-width="1.6"/>
</g>
<g id="s195">
<line x1="3.2" y1="35.62461" x2="0.8" y2="31.467688" stroke="black" stroke-width="1.6"/>
</g>
<g id="s196">
<text font-size="11pt" stroke-width="0.266667" fill="black" x="5.6" y="36.307688" text-anchor="middle">B_6$</text>
</g>
<g id="s197">
</g>
<g id="s198">
</g>
<g id="s199">
<line x1="8" y1="35.62461" x2="10.4" y2="31.467688" stroke="black" stroke-width="1.6"/>
</g>
<g id="s200">
<line x1="10.4" y1="31.467688" x2="15.2" y2="31.467688" stroke="black" stroke-width="1.6"/>
</g>
<g id="s201">
<line x1="15.2" y1="31.467688" x2="17.6" y2="35.62461" stroke="black" stroke-width="1.6"/>
</g>
<g id="s202">
<line x1="17.6" y1="35.62461" x2="15.2" y2="39.781532" stroke="black" stroke-width="1.6"/>
</g>
<g id="s203">
<line x1="15.2" y1="39.781532" x2="10.4" y2="39.781532" stroke="black" stroke-width="1.6"/>
</g>
<g id="s204">
<line x1="10.4" y1="39.781532" x2="8" y2="35.62461" stroke="black" stroke-width="1.6"/>
</g>
<g id="s205">
<text font-size="11pt" stroke-width="0.266667" fill="black" x="12.8" y="40.46461" text-anchor="middle">C_6$</text>
</g>
<g id="s206">
</g>
<g id="s207">
</g>
<g id="s208">
<line x1="8" y1="43.938454" x2="10.4" y2="39.781532" stroke="black" stroke-width="1.6"/>
</g>
<g id="s209">
<line x1="10.4" y1="39.781532" x2="15.2" y2="39.781532" stroke="black" stroke-width="1.6"/>
</g>
<g id="s210">
<line x1="15.2" y1="39.781532" x2="17.6" y2="43.938454" stroke="black" stroke-width="1.6"/>
</g>
<g id="s211">
<line x1="17.6" y1="43.938454" x2="15.2" y2="48.095376" stroke="black" stroke-width="1.6"/>
</g>
<g id="s212">
<line x1="15.2" y1="48.095376" x2="10.4" y2="48.095376" stroke="black" stroke-width="1.6"/>
</g>
<g id="s213">
<line x1="10.4" y1="48.095376" x2="8" y2="43.938454" stroke="black" stroke-width="1.6"/>
</g>
<g id="s214">
<text font-size="11pt" stroke-width="0.266667" fill="black" x="12.8" y="48.778454" text-anchor="middle">D_6$</text>
</g>
<g id="s215">
</g>
<g id="s216">
</g>
<g id="s217">
<line x1="0.8" y1="23.153844" x2="3.2" y2="18.996922" stroke="black" stroke-width="1.6"/>
</g>
<g id="s218">
<line x1="3.2" y1="18.996922" x2="8" y2="18.996922" stroke="black" stroke-width="1.6"/>
</g>
<g id="s219">
<line x1="8" y1="18.996922" x2="10.4" y2="23.153844" stroke="black" stroke-width="1.6"/>
</g>
<g id="s220">
<line x1="10.4" y1="23.153844" x2="8" y2="27.310766" stroke="black" stroke-width="1.6"/>
</g>
<g id="s221">
<line x1="8" y1="27.310766" x2="3.2" y2="27.310766" stroke="black" stroke-width="1.6"/>
</g>
<g id="s222">
<line x1="3.2" y1="27.310766" x2="0.8" y2="23.153844" stroke="black" stroke-width="1.6"/>
</g>
<g id="s223">
<text font-size="11pt" stroke-width="0.266667" fill="black" x="5.6" y="27.993844" text-anchor="middle">$</text>
</g>
<g id="s224">
</g>
<g id="s225">
</g>
<g id="s226">
<line x1="0.8" y1="14.84" x2="3.2" y2="10.683078" stroke="black" stroke-width="1.6"/>
</g>
<g id="s227">
<line x1="3.2" y1="10.683078" x2="8" y2="10.683078" stroke="black" stroke-width="1.6"/>
</g>
<g id="s228">
<line x1="8" y1="10.683078" x2="10.4" y2="14.84" stroke="black" stroke-width="1.6"/>
</g>
<g id="s229">
<line x1="10.4" y1="14.84" x2="8" y2="18.996922" stroke="black" stroke-width="1.6"/>
</g>
<g id="s230">
<line x1="8" y1="18.996922" x2="3.2" y2="18.996922" stroke="black" stroke-width="1.6"/>
</g>
<g id="s231">
<line x1="3.2" y1="18.996922" x2="0.8" y2="14.84" stroke="black" stroke-width="1.6"/>
</g>
<g id="s232">
<text font-size="11pt" stroke-width="0.266667" fill="black" x="5.6" y="19.68" text-anchor="middle">B_7$</text>
</g>
<g id="s233">
</g>
<g id="s234">
</g>
<g id="s235">
<line x1="8" y1="27.310766" x2="10.4" y2="23.153844" stroke="black" stroke-width="1.6"/>
</g>
<g id="s236">
<line x1="10.4" y1="23.153844" x2="15.2" y2="23.153844" stroke="black" stroke-width="1.6"/>
</g>
<g id="s237">
<line x1="15.2" y1="23.153844" x2="17.6" y2="27.310766" stroke="black" stroke-width="1.6"/>
</g>
<g id="s238">
<line x1="17.6" y1="27.310766" x2="15.2" y2="31.467688" stroke="black" stroke-width="1.6"/>
</g>
<g id="s239">
<line x1="15.2" y1="31.467688" x2="10.4" y2="31.467688" stroke="black" stroke-width="1.6"/>
</g>
<g id="s240">
<line x1="10.4" y1="31.467688" x2="8" y2="27.310766" stroke="black" stroke-width="1.6"/>
</g>
<g id="s241">
<text font-size="11pt" stroke-width="0.266667" fill="black" x="12.8" y="32.150766" text-anchor="middle">C_7$</text>
</g>
<g id="s242">
</g>
<g id="s243">
</g>
<g id="s244">
<line x1="8" y1="18.996922" x2="10.4" y2="14.84" stroke="black" stroke-width="1.6"/>
</g>
<g id="s245">
<line x1="10.4" y1="14.84" x2="15.2" y2="14.84" stroke="black" stroke-width="1.6"/>
</g>
<g id="s246">
<line x1="15.2" y1="14.84" x2="17.6" y2="18.996922" stroke="black" stroke-width="1.6"/>
</g>
<g id="s247">
<line x1="17.6" y1="18.996922" x2="15.2" y2="23.153844" stroke="black" stroke-width="1.6"/>
</g>
<g id="s248">
<line x1="15.2" y1="23.153844" x2="10.4" y2="23.153844" stroke="black" stroke-width="1.6"/>
</g>
<g id="s249">
<line x1="10.4" y1="23.153844" x2="8" y2="18.996922" stroke="black" stroke-width="1.6"/>
</g>
<g id="s250">
<text font-size="11pt" stroke-width="0.266667" fill="black" x="12.8" y="23.836922" text-anchor="middle">D_7$</text>
</g>
<g id="s251">
</g>
<g id="s252">
<line x1="20" y1="31.467688" x2="20" y2="14.84" stroke="black" stroke-width="0.8" stroke-dasharray="0.5,4" stroke-linecap="round"/>
</g>
<g id="s253">
<text font-size="11pt" stroke-width="0.266667" fill="black" x="17.333333" y="36.307688" text-anchor="end">\blue{$_{_{A_1}}$}</text>
</g>
<g id="s254">
<line x1="20" y1="31.467688" x2="34.4" y2="23.153844" stroke="black" stroke-width="0.8" stroke-dasharray="0.5,4" stroke-linecap="round"/>
</g>
<g id="s255">
<text font-size="11pt" stroke-width="0.266667" fill="black" x="20" y="10.08" text-anchor="middle">\blue{$_{_{A_2}}$}</text>
</g>
<g id="s256">
<line x1="20" y1="31.467688" x2="34.4" y2="39.781532" stroke="black" stroke-width="0.8" stroke-dasharray="0.5,4" stroke-linecap="round"/>
</g>
<g id="s257">
<text font-size="11pt" stroke-width="0.266667" fill="black" x="37.066667" y="27.993844" text-anchor="start">\blue{$_{_{A_3}}$}</text>
</g>
<g id="s258">
<line x1="20" y1="31.467688" x2="20" y2="48.095376" stroke="black" stroke-width="0.8" stroke-dasharray="0.5,4" stroke-linecap="round"/>
</g>
<g id="s259">
<text font-size="11pt" stroke-width="0.266667" fill="black" x="37.066667" y="44.621532" text-anchor="start">\blue{$_{_{A_4}}$}</text>
</g>
<g id="s260">
<line x1="20" y1="31.467688" x2="5.6" y2="39.781532" stroke="black" stroke-width="0.8" stroke-dasharray="0.5,4" stroke-linecap="round"/>
</g>
<g id="s261">
<text font-size="11pt" stroke-width="0.266667" fill="black" x="20" y="62.535376" text-anchor="middle">\blue{$_{_{A_5}}$}</text>
</g>
<g id="s262">
<line x1="20" y1="31.467688" x2="5.6" y2="23.153844" stroke="black" stroke-width="0.8" stroke-dasharray="0.5,4" stroke-linecap="round"/>
</g>
<g id="s263">
<text font-size="11pt" stroke-width="0.266667" fill="black" x="2.933333" y="44.621532" text-anchor="end">\blue{$_{_{A_6}}$}</text>
</g>
<g id="s264">
<line x1="20" y1="31.467688" x2="5.6" y2="23.153844" stroke="black" stroke-width="0.8" stroke-dasharray="0.5,4" stroke-linecap="round"/>
</g>
<g id="s265">
<text font-size="11pt" stroke-width="0.266667" fill="black" x="2.933333" y="27.993844" text-anchor="end">\blue{$_{_{A_7}}$}</text>
</g>
<g id="s266">
<text font-size="11pt" stroke-width="0.266667" fill="black" x="2.933333" y="27.993844" text-anchor="end">\blue{$_{_{A_7}}$}</text>
</g>
</svg>
