<svg xmlns="http://www.w3.org/2000/svg" width="301.6" height="55.963" viewBox="0 0 301.6 55.963" font-family="sans-serif" font-size="14.667">
<g id="s0">
<polyline points="126.8,28 174.8,28" fill="none" stroke="black" stroke-width="1.067"/>
<polygon points="174.8,28 165.2,30.4 165.2,25.6" fill="black"/>
</g>
<g id="s1">
<text x="174.8" y="28" text-anchor="middle" dominant-baseline="central">$t$</text>
</g>
<g id="s2">
<polyline points="150.8,32.8 150.8,13.6" fill="none" stroke="black" stroke-width="1.067"/>
<polygon points="150.8,13.6 153.2,23.2 148.4,23.2" fill="black"/>
</g>
<g id="s3">
<text x="150.8" y="13.6" text-anchor="middle" dominant-baseline="central">$f(t)=A\cos(20t)$</text>
</g>
<g id="s4">
<text x="150.8" y="28" text-anchor="middle" dominant-baseline="central">${\scriptsize 0}$</text>
</g>
<g id="s5">
<polyline points="131.6,43.76 132.56,47.039" fill="none" stroke="black" stroke-width="1.067"/>
</g>
<g id="s6">
<polyline points="132.56,47.039 133.52,49.56" fill="none" stroke="black" stroke-width="1.067"/>
</g>
<g id="s7">
<polyline points="133.52,49.56 134.48,51.224" fill="none" stroke="black" stroke-width="1.067"/>
</g>
<g id="s8">
<polyline points="134.48,51.224 135.44,51.963" fill="none" stroke="black" stroke-width="1.067"/>
</g>
<g id="s9">
<polyline points="135.44,51.963 136.4,51.75" fill="none" stroke="black" stroke-width="1.067"/>
</g>
<g id="s10">
<polyline points="136.4,51.75 137.36,50.591" fill="none" stroke="black" stroke-width="1.067"/>
</g>
<g id="s11">
<polyline points="137.36,50.591 138.32,48.533" fill="none" stroke="black" stroke-width="1.067"/>
</g>
<g id="s12">
<polyline points="138.32,48.533 139.28,45.658" fill="none" stroke="black" stroke-width="1.067"/>
</g>
<g id="s13">
<polyline points="139.28,45.658 140.24,42.081" fill="none" stroke="black" stroke-width="1.067"/>
</g>
<g id="s14">
<polyline points="140.24,42.081 141.2,37.944" fill="none" stroke="black" stroke-width="1.067"/>
</g>
<g id="s15">
<polyline points="141.2,37.944 142.16,33.411" fill="none" stroke="black" stroke-width="1.067"/>
</g>
<g id="s16">
<polyline points="142.16,33.411 143.12,28.662" fill="none" stroke="black" stroke-width="1.067"/>
</g>
<g id="s17">
<polyline points="143.12,28.662 144.08,23.888" fill="none" stroke="black" stroke-width="1.067"/>
</g>
<g id="s18">
<polyline points="144.08,23.888 145.04,19.276" fill="none" stroke="black" stroke-width="1.067"/>
</g>
<g id="s19">
<polyline points="145.04,19.276 146,15.012" fill="none" stroke="black" stroke-width="1.067"/>
</g>
<g id="s20">
<polyline points="146,15.012 146.96,11.265" fill="none" stroke="black" stroke-width="1.067"/>
</g>
<g id="s21">
<polyline points="146.96,11.265 147.92,8.184" fill="none" stroke="black" stroke-width="1.067"/>
</g>
<g id="s22">
<polyline points="147.92,8.184 148.88,5.891" fill="none" stroke="black" stroke-width="1.067"/>
</g>
<g id="s23">
<polyline points="148.88,5.891 149.84,4.477" fill="none" stroke="black" stroke-width="1.067"/>
</g>
<g id="s24">
<polyline points="149.84,4.477 150.8,4" fill="none" stroke="black" stroke-width="1.067"/>
</g>
<g id="s25">
<polyline points="150.8,4 151.76,4.477" fill="none" stroke="black" stroke-width="1.067"/>
</g>
<g id="s26">
<polyline points="151.76,4.477 152.72,5.891" fill="none" stroke="black" stroke-width="1.067"/>
</g>
<g id="s27">
<polyline points="152.72,5.891 153.68,8.184" fill="none" stroke="black" stroke-width="1.067"/>
</g>
<g id="s28">
<polyline points="153.68,8.184 154.64,11.265" fill="none" stroke="black" stroke-width="1.067"/>
</g>
<g id="s29">
<polyline points="154.64,11.265 155.6,15.012" fill="none" stroke="black" stroke-width="1.067"/>
</g>
<g id="s30">
<polyline points="155.6,15.012 156.56,19.276" fill="none" stroke="black" stroke-width="1.067"/>
</g>
<g id="s31">
<polyline points="156.56,19.276 157.52,23.888" fill="none" stroke="black" stroke-width="1.067"/>
</g>
<g id="s32">
<polyline points="157.52,23.888 158.48,28.662" fill="none" stroke="black" stroke-width="1.067"/>
</g>
<g id="s33">
<polyline points="158.48,28.662 159.44,33.411" fill="none" stroke="black" stroke-width="1.067"/>
</g>
<g id="s34">
<polyline points="159.44,33.411 160.4,37.944" fill="none" stroke="black" stroke-width="1.067"/>
</g>
<g id="s35">
<polyline points="160.4,37.944 161.36,42.081" fill="none" stroke="black" stroke-width="1.067"/>
</g>
<g id="s36">
<polyline points="161.36,42.081 162.32,45.658" fill="none" stroke="black" stroke-width="1.067"/>
</g>
<g id="s37">
<polyline points="162.32,45.658 163.28,48.533" fill="none" stroke="black" stroke-width="1.067"/>
</g>
<g id="s38">
<polyline points="163.28,48.533 164.24,50.591" fill="none" stroke="black" stroke-width="1.067"/>
</g>
<g id="s39">
<polyline points="164.24,50.591 165.2,51.75" fill="none" stroke="black" stroke-width="1.067"/>
</g>
<g id="s40">
<polyline points="165.2,51.75 166.16,51.963" fill="none" stroke="black" stroke-width="1.067"/>
</g>
<g id="s41">
<polyline points="166.16,51.963 167.12,51.224" fill="none" stroke="black" stroke-width="1.067"/>
</g>
<g id="s42">
<polyline points="167.12,51.224 168.08,49.56" fill="none" stroke="black" stroke-width="1.067"/>
</g>
<g id="s43">
<polyline points="168.08,49.56 169.04,47.039" fill="none" stroke="black" stroke-width="1.067"/>
</g>
<g id="s44">
<polyline points="169.04,47.039 170,43.76" fill="none" stroke="black" stroke-width="1.067"/>
</g>
<g id="s45">
<text x="170" y="28" text-anchor="middle" dominant-baseline="central">${\scriptsize \frac{\pi}{5}}$</text>
</g>
<g id="s46">
<text x="131.6" y="28" text-anchor="middle" dominant-baseline="central">${\scriptsize \frac{\pi}{5}}$</text>
</g>
</svg>
