<svg xmlns="http://www.w3.org/2000/svg" width="24" height="22.793844" viewBox="0 0 24 22.793844" font-family="sans-serif" font-size="14.666667" fill="none">
<g id="s0">
</g>
<g id="s1">
<line x1="1.6" y1="9.796922" x2="6.4" y2="1.483078" stroke="black" stroke-width="1.6"/>
</g>
<g id="s2">
<line x1="6.4" y1="1.483078" x2="16" y2="1.483078" stroke="black" stroke-width="1.6"/>
</g>
<g id="s3">
<line x1="16" y1="1.483078" x2="20.8" y2="9.796922" stroke="black" stroke-width="1.6"/>
</g>
<g id="s4">
<line x1="20.8" y1="9.796922" x2="16" y2="18.110766" stroke="black" stroke-width="1.6"/>
</g>
<g id="s5">
<line x1="16" y1="18.110766" x2="6.4" y2="18.110766" stroke="black" stroke-width="1.6"/>
</g>
<g id="s6">
<line x1="6.4" y1="18.110766" x2="1.6" y2="9.796922" stroke="black" stroke-width="1.6"/>
</g>
<g id="s7">
<text font-size="11pt" stroke-width="0.266667" fill="black" x="11.2" y="14.636922" text-anchor="middle">$</text>
</g>
<g id="s8">
</g>
<g id="s9">
</g>
<g id="s10">
<line x1="1.6" y1="9.796922" x2="4" y2="5.64" stroke="black" stroke-width="1.6"/>
</g>
<g id="s11">
<line x1="4" y1="5.64" x2="8.8" y2="5.64" stroke="black" stroke-width="1.6"/>
</g>
<g id="s12">
<line x1="8.8" y1="5.64" x2="11.2" y2="9.796922" stroke="black" stroke-width="1.6"/>
</g>
<g id="s13">
<line x1="11.2" y1="9.796922" x2="8.8" y2="13.953844" stroke="black" stroke-width="1.6"/>
</g>
<g id="s14">
<line x1="8.8" y1="13.953844" x2="4" y2="13.953844" stroke="black" stroke-width="1.6"/>
</g>
<g id="s15">
<line x1="4" y1="13.953844" x2="1.6" y2="9.796922" stroke="black" stroke-width="1.6"/>
</g>
<g id="s16">
<text font-size="11pt" stroke-width="0.266667" fill="black" x="6.4" y="14.636922" text-anchor="middle">$</text>
</g>
<g id="s17">
</g>
<g id="s18">
</g>
<g id="s19">
<line x1="8.8" y1="5.64" x2="11.2" y2="1.483078" stroke="black" stroke-width="1.6"/>
</g>
<g id="s20">
<line x1="11.2" y1="1.483078" x2="16" y2="1.483078" stroke="black" stroke-width="1.6"/>
</g>
<g id="s21">
<line x1="16" y1="1.483078" x2="18.4" y2="5.64" stroke="black" stroke-width="1.6"/>
</g>
<g id="s22">
<line x1="18.4" y1="5.64" x2="16" y2="9.796922" stroke="black" stroke-width="1.6"/>
</g>
<g id="s23">
<line x1="16" y1="9.796922" x2="11.2" y2="9.796922" stroke="black" stroke-width="1.6"/>
</g>
<g id="s24">
<line x1="11.2" y1="9.796922" x2="8.8" y2="5.64" stroke="black" stroke-width="1.6"/>
</g>
<g id="s25">
<text font-size="11pt" stroke-width="0.266667" fill="black" x="13.6" y="10.48" text-anchor="middle">$</text>
</g>
<g id="s26">
</g>
<g id="s27">
</g>
<g id="s28">
<line x1="8.8" y1="13.953844" x2="11.2" y2="9.796922" stroke="black" stroke-width="1.6"/>
</g>
<g id="s29">
<line x1="11.2" y1="9.796922" x2="16" y2="9.796922" stroke="black" stroke-width="1.6"/>
</g>
<g id="s30">
<line x1="16" y1="9.796922" x2="18.4" y2="13.953844" stroke="black" stroke-width="1.6"/>
</g>
<g id="s31">
<line x1="18.4" y1="13.953844" x2="16" y2="18.110766" stroke="black" stroke-width="1.6"/>
</g>
<g id="s32">
<line x1="16" y1="18.110766" x2="11.2" y2="18.110766" stroke="black" stroke-width="1.6"/>
</g>
<g id="s33">
<line x1="11.2" y1="18.110766" x2="8.8" y2="13.953844" stroke="black" stroke-width="1.6"/>
</g>
<g id="s34">
<text font-size="11pt" stroke-width="0.266667" fill="black" x="13.6" y="18.793844" text-anchor="middle">$</text>
</g>
<g id="s35">
</g>
</svg>
