<svg xmlns="http://www.w3.org/2000/svg" width="233.76" height="129.64" viewBox="0 0 233.76 129.64" font-family="sans-serif" font-size="14.666667" fill="none">
<g id="s0">
</g>
<g id="s1">
<line x1="13.92" y1="75.64" x2="13.92" y2="80.44" stroke="black" stroke-width="2.4"/>
</g>
<g id="s2">
<polyline points="25.44,80.44 25.44,80.44 25.44,118.84 25.44,118.84 2.4,118.84 2.4,118.84 2.4,80.44 2.4,80.44 25.44,80.44" fill="none" stroke="black" stroke-width="2.4"/>
</g>
<g id="s3">
<line x1="13.92" y1="118.84" x2="13.92" y2="123.64" stroke="black" stroke-width="2.4"/>
</g>
<g id="s4">
<text font-size="11pt" stroke-width="0.266667" fill="black" x="32.586667" y="104.48" text-anchor="start">-g_m/2</text>
</g>
<g id="s5">
<line x1="13.92" y1="75.64" x2="61.92" y2="75.64" stroke="black" stroke-width="2.4"/>
</g>
<g id="s6">
</g>
<g id="s7">
<line x1="73.44" y1="51.64" x2="73.44" y2="56.44" stroke="black" stroke-width="2.4"/>
</g>
<g id="s8">
<polyline points="84.96,56.44 84.96,56.44 84.96,94.84 84.96,94.84 61.92,94.84 61.92,94.84 61.92,56.44 61.92,56.44 84.96,56.44" fill="none" stroke="black" stroke-width="2.4"/>
</g>
<g id="s9">
<line x1="73.44" y1="94.84" x2="73.44" y2="99.64" stroke="black" stroke-width="2.4"/>
</g>
<g id="s10">
<text font-size="11pt" stroke-width="0.266667" fill="black" x="92.106667" y="80.48" text-anchor="start">{g_{LC}}</text>
</g>
<g id="s11">
<line x1="73.44" y1="51.64" x2="121.44" y2="51.64" stroke="black" stroke-width="2.4"/>
</g>
<g id="s12">
</g>
<g id="s13">
<line x1="121.44" y1="51.64" x2="121.44" y2="46.84" stroke="black" stroke-width="2.4"/>
</g>
<g id="s14">
<circle cx="121.44" cy="27.64" r="19.2" fill="none" stroke="black" stroke-width="2.4"/>
</g>
<g id="s15">
<line x1="121.44" y1="38.2" x2="121.44" y2="22.027727" stroke="black" stroke-width="2.4"/>
<polygon stroke-width="0" points="119.04,26.68 121.44,17.08 123.84,26.68" fill="black"/>
</g>
<g id="s16">
<line x1="121.44" y1="8.44" x2="121.44" y2="3.64" stroke="black" stroke-width="2.4"/>
</g>
<g id="s17">
<text font-size="11pt" stroke-width="0.266667" fill="black" x="102.773333" y="10.88" text-anchor="end">i_s</text>
</g>
<g id="s18">
<line x1="121.44" y1="3.64" x2="169.44" y2="3.64" stroke="black" stroke-width="2.4"/>
</g>
<g id="s19">
</g>
<g id="s20">
<line x1="169.44" y1="3.64" x2="169.44" y2="24.28" stroke="black" stroke-width="2.4"/>
</g>
<g id="s21">
<line x1="181.92" y1="24.28" x2="156.96" y2="24.28" stroke="black" stroke-width="2.4"/>
</g>
<g id="s22">
<line x1="181.92" y1="31" x2="156.96" y2="31" stroke="black" stroke-width="2.4"/>
</g>
<g id="s23">
<line x1="169.44" y1="31" x2="169.44" y2="51.64" stroke="black" stroke-width="2.4"/>
</g>
<g id="s24">
<text font-size="11pt" stroke-width="0.266667" fill="black" x="150.773333" y="46.16" text-anchor="end">C</text>
</g>
<g id="s25">
<line x1="169.44" y1="3.64" x2="217.44" y2="3.64" stroke="black" stroke-width="2.4"/>
</g>
<g id="s26">
</g>
<g id="s27">
<line x1="217.44" y1="3.64" x2="217.44" y2="3.64" stroke="black" stroke-width="2.4"/>
</g>
<g id="s28">
<path d="M 217.44 3.64 C 219.36 4.64 221.28 5.64 223.2 6.64 227.04 8.64 227.04 10.64 223.2 12.64 219.36 14.64 219.36 16.64 223.2 18.64 227.04 20.64 227.04 22.64 223.2 24.64 219.36 26.64 219.36 28.64 223.2 30.64 227.04 32.64 227.04 34.64 223.2 36.64 219.36 38.64 219.36 40.64 223.2 42.64 227.04 44.64 227.04 46.64 223.2 48.64 221.28 49.64 219.36 50.64 217.44 51.64" fill="none" stroke="black" stroke-width="2.4"/>
</g>
<g id="s29">
<line x1="217.44" y1="51.64" x2="217.44" y2="51.64" stroke="black" stroke-width="2.4"/>
</g>
<g id="s30">
<text font-size="11pt" stroke-width="0.266667" fill="black" x="198.773333" y="56.48" text-anchor="end">2L</text>
</g>
<g id="s31">
<line x1="201.44" y1="56.48" x2="13.92" y2="123.64" stroke="black" stroke-width="2.4"/>
</g>
</svg>
