<svg xmlns="http://www.w3.org/2000/svg" width="309.333333" height="52.843448" viewBox="0 0 309.333333 52.843448" font-family="sans-serif" font-size="14.666667" fill="none">
<g id="s0">
<line x1="129.866667" y1="24.88" x2="174.568182" y2="24.88" stroke="black" stroke-width="1.6"/>
<polygon stroke-width="0" points="168.266667,22.48 177.866667,24.88 168.266667,27.28" fill="black"/>
</g>
<g id="s1">
<text font-size="11pt" stroke-width="0.266667" fill="black" x="177.866667" y="37.226667" text-anchor="middle">$t$</text>
</g>
<g id="s2">
<line x1="153.866667" y1="29.68" x2="153.866667" y2="13.778485" stroke="black" stroke-width="1.6"/>
<polygon stroke-width="0" points="151.466667,20.08 153.866667,10.48 156.266667,20.08" fill="black"/>
</g>
<g id="s3">
<text font-size="11pt" stroke-width="0.266667" fill="black" x="156.533333" y="10.48" text-anchor="start">$f(t)=A\cos(20t)$</text>
</g>
<g id="s4">
<text font-size="11pt" stroke-width="0.266667" fill="black" x="151.2" y="37.226667" text-anchor="end">${\scriptsize 0}$</text>
</g>
<g id="s5">
<line x1="134.666667" y1="40.640191" x2="135.626667" y2="43.919056" stroke="black" stroke-width="1.6"/>
</g>
<g id="s6">
<line x1="135.626667" y1="43.919056" x2="136.586667" y2="46.44041" stroke="black" stroke-width="1.6"/>
</g>
<g id="s7">
<line x1="136.586667" y1="46.44041" x2="137.546667" y2="48.103936" stroke="black" stroke-width="1.6"/>
</g>
<g id="s8">
<line x1="137.546667" y1="48.103936" x2="138.506667" y2="48.843448" stroke="black" stroke-width="1.6"/>
</g>
<g id="s9">
<line x1="138.506667" y1="48.843448" x2="139.466667" y2="48.629521" stroke="black" stroke-width="1.6"/>
</g>
<g id="s10">
<line x1="139.466667" y1="48.629521" x2="140.426667" y2="47.470668" stroke="black" stroke-width="1.6"/>
</g>
<g id="s11">
<line x1="140.426667" y1="47.470668" x2="141.386667" y2="45.412996" stroke="black" stroke-width="1.6"/>
</g>
<g id="s12">
<line x1="141.386667" y1="45.412996" x2="142.346667" y2="42.538375" stroke="black" stroke-width="1.6"/>
</g>
<g id="s13">
<line x1="142.346667" y1="42.538375" x2="143.306667" y2="38.961176" stroke="black" stroke-width="1.6"/>
</g>
<g id="s14">
<line x1="143.306667" y1="38.961176" x2="144.266667" y2="34.823727" stroke="black" stroke-width="1.6"/>
</g>
<g id="s15">
<line x1="144.266667" y1="34.823727" x2="145.226667" y2="30.290645" stroke="black" stroke-width="1.6"/>
</g>
<g id="s16">
<line x1="145.226667" y1="30.290645" x2="146.186667" y2="25.542289" stroke="black" stroke-width="1.6"/>
</g>
<g id="s17">
<line x1="146.186667" y1="25.542289" x2="147.146667" y2="20.767582" stroke="black" stroke-width="1.6"/>
</g>
<g id="s18">
<line x1="147.146667" y1="20.767582" x2="148.106667" y2="16.156497" stroke="black" stroke-width="1.6"/>
</g>
<g id="s19">
<line x1="148.106667" y1="16.156497" x2="149.066667" y2="11.892495" stroke="black" stroke-width="1.6"/>
</g>
<g id="s20">
<line x1="149.066667" y1="11.892495" x2="150.026667" y2="8.14523" stroke="black" stroke-width="1.6"/>
</g>
<g id="s21">
<line x1="150.026667" y1="8.14523" x2="150.986667" y2="5.063794" stroke="black" stroke-width="1.6"/>
</g>
<g id="s22">
<line x1="150.986667" y1="5.063794" x2="151.946667" y2="2.770788" stroke="black" stroke-width="1.6"/>
</g>
<g id="s23">
<line x1="151.946667" y1="2.770788" x2="152.906667" y2="1.357446" stroke="black" stroke-width="1.6"/>
</g>
<g id="s24">
<line x1="152.906667" y1="1.357446" x2="153.866667" y2="0.88" stroke="black" stroke-width="1.6"/>
</g>
<g id="s25">
<line x1="153.866667" y1="0.88" x2="154.826667" y2="1.357446" stroke="black" stroke-width="1.6"/>
</g>
<g id="s26">
<line x1="154.826667" y1="1.357446" x2="155.786667" y2="2.770788" stroke="black" stroke-width="1.6"/>
</g>
<g id="s27">
<line x1="155.786667" y1="2.770788" x2="156.746667" y2="5.063794" stroke="black" stroke-width="1.6"/>
</g>
<g id="s28">
<line x1="156.746667" y1="5.063794" x2="157.706667" y2="8.14523" stroke="black" stroke-width="1.6"/>
</g>
<g id="s29">
<line x1="157.706667" y1="8.14523" x2="158.666667" y2="11.892495" stroke="black" stroke-width="1.6"/>
</g>
<g id="s30">
<line x1="158.666667" y1="11.892495" x2="159.626667" y2="16.156497" stroke="black" stroke-width="1.6"/>
</g>
<g id="s31">
<line x1="159.626667" y1="16.156497" x2="160.586667" y2="20.767582" stroke="black" stroke-width="1.6"/>
</g>
<g id="s32">
<line x1="160.586667" y1="20.767582" x2="161.546667" y2="25.542289" stroke="black" stroke-width="1.6"/>
</g>
<g id="s33">
<line x1="161.546667" y1="25.542289" x2="162.506667" y2="30.290645" stroke="black" stroke-width="1.6"/>
</g>
<g id="s34">
<line x1="162.506667" y1="30.290645" x2="163.466667" y2="34.823727" stroke="black" stroke-width="1.6"/>
</g>
<g id="s35">
<line x1="163.466667" y1="34.823727" x2="164.426667" y2="38.961176" stroke="black" stroke-width="1.6"/>
</g>
<g id="s36">
<line x1="164.426667" y1="38.961176" x2="165.386667" y2="42.538375" stroke="black" stroke-width="1.6"/>
</g>
<g id="s37">
<line x1="165.386667" y1="42.538375" x2="166.346667" y2="45.412996" stroke="black" stroke-width="1.6"/>
</g>
<g id="s38">
<line x1="166.346667" y1="45.412996" x2="167.306667" y2="47.470668" stroke="black" stroke-width="1.6"/>
</g>
<g id="s39">
<line x1="167.306667" y1="47.470668" x2="168.266667" y2="48.629521" stroke="black" stroke-width="1.6"/>
</g>
<g id="s40">
<line x1="168.266667" y1="48.629521" x2="169.226667" y2="48.843448" stroke="black" stroke-width="1.6"/>
</g>
<g id="s41">
<line x1="169.226667" y1="48.843448" x2="170.186667" y2="48.103936" stroke="black" stroke-width="1.6"/>
</g>
<g id="s42">
<line x1="170.186667" y1="48.103936" x2="171.146667" y2="46.44041" stroke="black" stroke-width="1.6"/>
</g>
<g id="s43">
<line x1="171.146667" y1="46.44041" x2="172.106667" y2="43.919056" stroke="black" stroke-width="1.6"/>
</g>
<g id="s44">
<line x1="172.106667" y1="43.919056" x2="173.066667" y2="40.640191" stroke="black" stroke-width="1.6"/>
</g>
<g id="s45">
<text font-size="11pt" stroke-width="0.266667" fill="black" x="173.066667" y="37.226667" text-anchor="middle">${\scriptsize \frac{\pi}{5}}$</text>
</g>
<g id="s46">
<text font-size="11pt" stroke-width="0.266667" fill="black" x="134.666667" y="37.226667" text-anchor="middle">${\scriptsize \frac{\pi}{5}}$</text>
</g>
</svg>
