<svg xmlns="http://www.w3.org/2000/svg" width="27.2" height="33.914" viewBox="0 0 27.2 33.914" font-family="sans-serif" font-size="14.667">
<g id="s0">
</g>
<g id="s1">
<polyline points="4,16.957 8.8,8.643" fill="none" stroke="black" stroke-width="1.067"/>
</g>
<g id="s2">
<polyline points="8.8,8.643 18.4,8.643" fill="none" stroke="black" stroke-width="1.067"/>
</g>
<g id="s3">
<polyline points="18.4,8.643 23.2,16.957" fill="none" stroke="black" stroke-width="1.067"/>
</g>
<g id="s4">
<polyline points="23.2,16.957 18.4,25.271" fill="none" stroke="black" stroke-width="1.067"/>
</g>
<g id="s5">
<polyline points="18.4,25.271 8.8,25.271" fill="none" stroke="black" stroke-width="1.067"/>
</g>
<g id="s6">
<polyline points="8.8,25.271 4,16.957" fill="none" stroke="black" stroke-width="1.067"/>
</g>
<g id="s7">
<text x="13.6" y="16.957" text-anchor="middle" dominant-baseline="central">$</text>
</g>
<g id="s8">
</g>
<g id="s9">
</g>
<g id="s10">
<polyline points="4,16.957 6.4,12.8" fill="none" stroke="black" stroke-width="1.067"/>
</g>
<g id="s11">
<polyline points="6.4,12.8 11.2,12.8" fill="none" stroke="black" stroke-width="1.067"/>
</g>
<g id="s12">
<polyline points="11.2,12.8 13.6,16.957" fill="none" stroke="black" stroke-width="1.067"/>
</g>
<g id="s13">
<polyline points="13.6,16.957 11.2,21.114" fill="none" stroke="black" stroke-width="1.067"/>
</g>
<g id="s14">
<polyline points="11.2,21.114 6.4,21.114" fill="none" stroke="black" stroke-width="1.067"/>
</g>
<g id="s15">
<polyline points="6.4,21.114 4,16.957" fill="none" stroke="black" stroke-width="1.067"/>
</g>
<g id="s16">
<text x="8.8" y="16.957" text-anchor="middle" dominant-baseline="central">$</text>
</g>
<g id="s17">
</g>
<g id="s18">
</g>
<g id="s19">
<polyline points="11.2,12.8 13.6,8.643" fill="none" stroke="black" stroke-width="1.067"/>
</g>
<g id="s20">
<polyline points="13.6,8.643 18.4,8.643" fill="none" stroke="black" stroke-width="1.067"/>
</g>
<g id="s21">
<polyline points="18.4,8.643 20.8,12.8" fill="none" stroke="black" stroke-width="1.067"/>
</g>
<g id="s22">
<polyline points="20.8,12.8 18.4,16.957" fill="none" stroke="black" stroke-width="1.067"/>
</g>
<g id="s23">
<polyline points="18.4,16.957 13.6,16.957" fill="none" stroke="black" stroke-width="1.067"/>
</g>
<g id="s24">
<polyline points="13.6,16.957 11.2,12.8" fill="none" stroke="black" stroke-width="1.067"/>
</g>
<g id="s25">
<text x="16" y="12.8" text-anchor="middle" dominant-baseline="central">$</text>
</g>
<g id="s26">
</g>
<g id="s27">
</g>
<g id="s28">
<polyline points="11.2,21.114 13.6,16.957" fill="none" stroke="black" stroke-width="1.067"/>
</g>
<g id="s29">
<polyline points="13.6,16.957 18.4,16.957" fill="none" stroke="black" stroke-width="1.067"/>
</g>
<g id="s30">
<polyline points="18.4,16.957 20.8,21.114" fill="none" stroke="black" stroke-width="1.067"/>
</g>
<g id="s31">
<polyline points="20.8,21.114 18.4,25.271" fill="none" stroke="black" stroke-width="1.067"/>
</g>
<g id="s32">
<polyline points="18.4,25.271 13.6,25.271" fill="none" stroke="black" stroke-width="1.067"/>
</g>
<g id="s33">
<polyline points="13.6,25.271 11.2,21.114" fill="none" stroke="black" stroke-width="1.067"/>
</g>
<g id="s34">
<text x="16" y="21.114" text-anchor="middle" dominant-baseline="central">$</text>
</g>
<g id="s35">
</g>
</svg>
