<svg xmlns="http://www.w3.org/2000/svg" width="52.8" height="93.986667" viewBox="0 0 52.8 93.986667" font-family="sans-serif" font-size="14.666667" fill="none">
<g id="s0">
<line x1="1.6" y1="77.64" x2="46.301515" y2="77.64" stroke="black" stroke-width="1.6"/>
<polygon stroke-width="0" points="40,75.24 49.6,77.64 40,80.04" fill="black"/>
</g>
<g id="s1">
<text font-size="11pt" stroke-width="0.266667" fill="black" x="49.6" y="89.986667" text-anchor="middle">$t$</text>
</g>
<g id="s2">
<line x1="25.6" y1="82.44" x2="25.6" y2="56.938485" stroke="black" stroke-width="1.6"/>
<polygon stroke-width="0" points="23.2,63.24 25.6,53.64 28,63.24" fill="black"/>
</g>
<g id="s3">
<text font-size="11pt" stroke-width="0.266667" fill="black" x="22.933333" y="53.64" text-anchor="end">$f(t)$</text>
</g>
<g id="s4">
<text font-size="11pt" stroke-width="0.266667" fill="black" x="22.933333" y="89.986667" text-anchor="end">$0$</text>
</g>
<g id="s5">
<text font-size="11pt" stroke-width="0.266667" fill="black" x="44.8" y="89.986667" text-anchor="middle">$\frac{T}{2}$</text>
</g>
<g id="s6">
<text font-size="11pt" stroke-width="0.266667" fill="black" x="22.933333" y="10.48" text-anchor="end">$A$</text>
</g>
<g id="s7">
<line x1="25.6" y1="77.64" x2="26.56" y2="66.377048" stroke="black" stroke-width="1.6"/>
</g>
<g id="s8">
<line x1="26.56" y1="66.377048" x2="27.52" y2="55.391411" stroke="black" stroke-width="1.6"/>
</g>
<g id="s9">
<line x1="27.52" y1="55.391411" x2="28.48" y2="44.953576" stroke="black" stroke-width="1.6"/>
</g>
<g id="s10">
<line x1="28.48" y1="44.953576" x2="29.44" y2="35.320541" stroke="black" stroke-width="1.6"/>
</g>
<g id="s11">
<line x1="29.44" y1="35.320541" x2="30.4" y2="26.729491" stroke="black" stroke-width="1.6"/>
</g>
<g id="s12">
<line x1="30.4" y1="26.729491" x2="31.36" y2="19.391953" stroke="black" stroke-width="1.6"/>
</g>
<g id="s13">
<line x1="31.36" y1="19.391953" x2="32.32" y2="13.48859" stroke="black" stroke-width="1.6"/>
</g>
<g id="s14">
<line x1="32.32" y1="13.48859" x2="33.28" y2="9.164755" stroke="black" stroke-width="1.6"/>
</g>
<g id="s15">
<line x1="33.28" y1="9.164755" x2="34.24" y2="6.526909" stroke="black" stroke-width="1.6"/>
</g>
<g id="s16">
<line x1="34.24" y1="6.526909" x2="35.2" y2="5.64" stroke="black" stroke-width="1.6"/>
</g>
<g id="s17">
<line x1="35.2" y1="5.64" x2="36.16" y2="6.525866" stroke="black" stroke-width="1.6"/>
</g>
<g id="s18">
<line x1="36.16" y1="6.525866" x2="37.12" y2="9.162694" stroke="black" stroke-width="1.6"/>
</g>
<g id="s19">
<line x1="37.12" y1="9.162694" x2="38.08" y2="13.485562" stroke="black" stroke-width="1.6"/>
</g>
<g id="s20">
<line x1="38.08" y1="13.485562" x2="39.04" y2="19.388032" stroke="black" stroke-width="1.6"/>
</g>
<g id="s21">
<line x1="39.04" y1="19.388032" x2="40" y2="26.724774" stroke="black" stroke-width="1.6"/>
</g>
<g id="s22">
<line x1="40" y1="26.724774" x2="40.96" y2="35.315144" stroke="black" stroke-width="1.6"/>
</g>
<g id="s23">
<line x1="40.96" y1="35.315144" x2="41.92" y2="44.947632" stroke="black" stroke-width="1.6"/>
</g>
<g id="s24">
<line x1="41.92" y1="44.947632" x2="42.88" y2="55.385066" stroke="black" stroke-width="1.6"/>
</g>
<g id="s25">
<line x1="42.88" y1="55.385066" x2="43.84" y2="66.370459" stroke="black" stroke-width="1.6"/>
</g>
<g id="s26">
<line x1="43.84" y1="66.370459" x2="44.8" y2="77.633329" stroke="black" stroke-width="1.6"/>
</g>
<g id="s27">
<line x1="6.4" y1="77.64" x2="25.6" y2="77.64" stroke="black" stroke-width="1.6"/>
</g>
</svg>
