<svg xmlns="http://www.w3.org/2000/svg" width="206" height="52" viewBox="0 0 206 52" font-family="sans-serif" font-size="14.667">
<g id="s0">
<text x="78.8" y="39.2" text-anchor="middle" dominant-baseline="central">${\scriptsize 0}$</text>
</g>
<g id="s1">
<polyline points="30.8,39.2 126.8,39.2" fill="none" stroke="black" stroke-width="1.067"/>
<polygon points="126.8,39.2 117.2,41.6 117.2,36.8" fill="black"/>
</g>
<g id="s2">
<text x="126.8" y="39.2" text-anchor="middle" dominant-baseline="central">$t$</text>
</g>
<g id="s3">
<polyline points="78.8,41.6 78.8,12.8" fill="none" stroke="black" stroke-width="1.067"/>
<polygon points="78.8,12.8 81.2,22.4 76.4,22.4" fill="black"/>
</g>
<g id="s4">
<text x="78.8" y="12.8" text-anchor="middle" dominant-baseline="central">$\Lambda(t)$</text>
</g>
<g id="s5">
<polyline points="83.6,20 78.8,20" fill="none" stroke="black" stroke-width="1.067" stroke-dasharray="1,3" stroke-linecap="round"/>
</g>
<g id="s6">
<text x="78.8" y="20" text-anchor="middle" dominant-baseline="central">${\scriptsize 1}$</text>
</g>
<g id="s7">
<polyline points="74,39.2 83.6,20 83.6,20 93.2,39.2" fill="none" stroke="black" stroke-width="1.067"/>
</g>
<g id="s8">
<text x="93.2" y="39.2" text-anchor="middle" dominant-baseline="central">${\scriptsize n=1}$</text>
</g>
<g id="s9">
<polyline points="64.4,39.2 81.2,20 81.2,20 100.4,39.2" fill="none" stroke="black" stroke-width="1.067"/>
</g>
<g id="s10">
<text x="100.4" y="39.2" text-anchor="middle" dominant-baseline="central">${\scriptsize n=2}$</text>
</g>
<g id="s11">
<polyline points="41.6,39.2 80,20 80,20 118.4,39.2" fill="none" stroke="black" stroke-width="1.067"/>
</g>
<g id="s12">
<text x="118.4" y="39.2" text-anchor="middle" dominant-baseline="central">${\scriptsize n=3}$</text>
</g>
</svg>
