<svg xmlns="http://www.w3.org/2000/svg" width="280.266667" height="53.226667" viewBox="0 0 280.266667 53.226667" font-family="sans-serif" font-size="14.666667" fill="none">
<g id="s0">
<text font-size="11pt" stroke-width="0.266667" fill="black" x="151.2" y="49.226667" text-anchor="end">${\scriptsize 0}$</text>
</g>
<g id="s1">
<line x1="105.866667" y1="36.88" x2="198.568182" y2="36.88" stroke="black" stroke-width="1.6"/>
<polygon stroke-width="0" points="192.266667,34.48 201.866667,36.88 192.266667,39.28" fill="black"/>
</g>
<g id="s2">
<text font-size="11pt" stroke-width="0.266667" fill="black" x="201.866667" y="49.226667" text-anchor="middle">$t$</text>
</g>
<g id="s3">
<line x1="153.866667" y1="39.28" x2="153.866667" y2="13.778485" stroke="black" stroke-width="1.6"/>
<polygon stroke-width="0" points="151.466667,20.08 153.866667,10.48 156.266667,20.08" fill="black"/>
</g>
<g id="s4">
<text font-size="11pt" stroke-width="0.266667" fill="black" x="151.2" y="10.48" text-anchor="end">$\Lambda(t)$</text>
</g>
<g id="s5">
<line x1="158.666667" y1="17.68" x2="153.866667" y2="17.68" stroke="black" stroke-width="1.6" stroke-dasharray="0.5,8" stroke-linecap="round"/>
</g>
<g id="s6">
<text font-size="11pt" stroke-width="0.266667" fill="black" x="151.2" y="22.52" text-anchor="end">${\scriptsize 1}$</text>
</g>
<g id="s7">
<polyline points="149.066667,36.88 158.666667,17.68 158.666667,17.68 168.266667,36.88" fill="none" stroke="black" stroke-width="1.6"/>
</g>
<g id="s8">
<text font-size="11pt" stroke-width="0.266667" fill="black" x="168.266667" y="49.226667" text-anchor="middle">${\scriptsize n=1}$</text>
</g>
<g id="s9">
<polyline points="139.466667,36.88 156.266667,17.68 156.266667,17.68 175.466667,36.88" fill="none" stroke="black" stroke-width="1.6"/>
</g>
<g id="s10">
<text font-size="11pt" stroke-width="0.266667" fill="black" x="175.466667" y="49.226667" text-anchor="middle">${\scriptsize n=2}$</text>
</g>
<g id="s11">
<polyline points="116.666667,36.88 155.066667,17.68 155.066667,17.68 193.466667,36.88" fill="none" stroke="black" stroke-width="1.6"/>
</g>
<g id="s12">
<text font-size="11pt" stroke-width="0.266667" fill="black" x="193.466667" y="49.226667" text-anchor="middle">${\scriptsize n=3}$</text>
</g>
</svg>
