<svg xmlns="http://www.w3.org/2000/svg" width="71.6" height="97.6" viewBox="0 0 71.6 97.6" font-family="sans-serif" font-size="14.667">
<g id="s0">
<polyline points="6.4,84.8 54.4,84.8" fill="none" stroke="black" stroke-width="1.067"/>
<polygon points="54.4,84.8 44.8,87.2 44.8,82.4" fill="black"/>
</g>
<g id="s1">
<text x="54.4" y="84.8" text-anchor="middle" dominant-baseline="central">$t$</text>
</g>
<g id="s2">
<polyline points="30.4,89.6 30.4,60.8" fill="none" stroke="black" stroke-width="1.067"/>
<polygon points="30.4,60.8 32.8,70.4 28,70.4" fill="black"/>
</g>
<g id="s3">
<text x="30.4" y="60.8" text-anchor="middle" dominant-baseline="central">$f(t)$</text>
</g>
<g id="s4">
<text x="30.4" y="84.8" text-anchor="middle" dominant-baseline="central">$0$</text>
</g>
<g id="s5">
<text x="49.6" y="84.8" text-anchor="middle" dominant-baseline="central">$T’$</text>
</g>
<g id="s6">
<text x="30.4" y="12.8" text-anchor="middle" dominant-baseline="central">$A$</text>
</g>
<g id="s7">
<polyline points="11.2,84.793 12.16,73.53" fill="none" stroke="black" stroke-width="1.067"/>
</g>
<g id="s8">
<polyline points="12.16,73.53 13.12,62.545" fill="none" stroke="black" stroke-width="1.067"/>
</g>
<g id="s9">
<polyline points="13.12,62.545 14.08,52.108" fill="none" stroke="black" stroke-width="1.067"/>
</g>
<g id="s10">
<polyline points="14.08,52.108 15.04,42.475" fill="none" stroke="black" stroke-width="1.067"/>
</g>
<g id="s11">
<polyline points="15.04,42.475 16,33.885" fill="none" stroke="black" stroke-width="1.067"/>
</g>
<g id="s12">
<polyline points="16,33.885 16.96,26.548" fill="none" stroke="black" stroke-width="1.067"/>
</g>
<g id="s13">
<polyline points="16.96,26.548 17.92,20.646" fill="none" stroke="black" stroke-width="1.067"/>
</g>
<g id="s14">
<polyline points="17.92,20.646 18.88,16.323" fill="none" stroke="black" stroke-width="1.067"/>
</g>
<g id="s15">
<polyline points="18.88,16.323 19.84,13.686" fill="none" stroke="black" stroke-width="1.067"/>
</g>
<g id="s16">
<polyline points="19.84,13.686 20.8,12.8" fill="none" stroke="black" stroke-width="1.067"/>
</g>
<g id="s17">
<polyline points="20.8,12.8 21.76,13.687" fill="none" stroke="black" stroke-width="1.067"/>
</g>
<g id="s18">
<polyline points="21.76,13.687 22.72,16.325" fill="none" stroke="black" stroke-width="1.067"/>
</g>
<g id="s19">
<polyline points="22.72,16.325 23.68,20.649" fill="none" stroke="black" stroke-width="1.067"/>
</g>
<g id="s20">
<polyline points="23.68,20.649 24.64,26.552" fill="none" stroke="black" stroke-width="1.067"/>
</g>
<g id="s21">
<polyline points="24.64,26.552 25.6,33.889" fill="none" stroke="black" stroke-width="1.067"/>
</g>
<g id="s22">
<polyline points="25.6,33.889 26.56,42.481" fill="none" stroke="black" stroke-width="1.067"/>
</g>
<g id="s23">
<polyline points="26.56,42.481 27.52,52.114" fill="none" stroke="black" stroke-width="1.067"/>
</g>
<g id="s24">
<polyline points="27.52,52.114 28.48,62.551" fill="none" stroke="black" stroke-width="1.067"/>
</g>
<g id="s25">
<polyline points="28.48,62.551 29.44,73.537" fill="none" stroke="black" stroke-width="1.067"/>
</g>
<g id="s26">
<polyline points="29.44,73.537 30.4,84.8" fill="none" stroke="black" stroke-width="1.067"/>
</g>
<g id="s27">
<polyline points="30.4,84.8 31.36,73.537" fill="none" stroke="black" stroke-width="1.067"/>
</g>
<g id="s28">
<polyline points="31.36,73.537 32.32,62.551" fill="none" stroke="black" stroke-width="1.067"/>
</g>
<g id="s29">
<polyline points="32.32,62.551 33.28,52.114" fill="none" stroke="black" stroke-width="1.067"/>
</g>
<g id="s30">
<polyline points="33.28,52.114 34.24,42.481" fill="none" stroke="black" stroke-width="1.067"/>
</g>
<g id="s31">
<polyline points="34.24,42.481 35.2,33.889" fill="none" stroke="black" stroke-width="1.067"/>
</g>
<g id="s32">
<polyline points="35.2,33.889 36.16,26.552" fill="none" stroke="black" stroke-width="1.067"/>
</g>
<g id="s33">
<polyline points="36.16,26.552 37.12,20.649" fill="none" stroke="black" stroke-width="1.067"/>
</g>
<g id="s34">
<polyline points="37.12,20.649 38.08,16.325" fill="none" stroke="black" stroke-width="1.067"/>
</g>
<g id="s35">
<polyline points="38.08,16.325 39.04,13.687" fill="none" stroke="black" stroke-width="1.067"/>
</g>
<g id="s36">
<polyline points="39.04,13.687 40,12.8" fill="none" stroke="black" stroke-width="1.067"/>
</g>
<g id="s37">
<polyline points="40,12.8 40.96,13.686" fill="none" stroke="black" stroke-width="1.067"/>
</g>
<g id="s38">
<polyline points="40.96,13.686 41.92,16.323" fill="none" stroke="black" stroke-width="1.067"/>
</g>
<g id="s39">
<polyline points="41.92,16.323 42.88,20.646" fill="none" stroke="black" stroke-width="1.067"/>
</g>
<g id="s40">
<polyline points="42.88,20.646 43.84,26.548" fill="none" stroke="black" stroke-width="1.067"/>
</g>
<g id="s41">
<polyline points="43.84,26.548 44.8,33.885" fill="none" stroke="black" stroke-width="1.067"/>
</g>
<g id="s42">
<polyline points="44.8,33.885 45.76,42.475" fill="none" stroke="black" stroke-width="1.067"/>
</g>
<g id="s43">
<polyline points="45.76,42.475 46.72,52.108" fill="none" stroke="black" stroke-width="1.067"/>
</g>
<g id="s44">
<polyline points="46.72,52.108 47.68,62.545" fill="none" stroke="black" stroke-width="1.067"/>
</g>
<g id="s45">
<polyline points="47.68,62.545 48.64,73.53" fill="none" stroke="black" stroke-width="1.067"/>
</g>
<g id="s46">
<polyline points="48.64,73.53 49.6,84.793" fill="none" stroke="black" stroke-width="1.067"/>
</g>
</svg>
