<svg xmlns="http://www.w3.org/2000/svg" width="345.2" height="100.88" viewBox="0 0 345.2 100.88" font-family="sans-serif" font-size="14.666667" fill="none">
<g id="s0">
<text font-size="11pt" stroke-width="0.266667" fill="black" x="166.533333" y="90.026667" text-anchor="end">${\scriptsize 0}$</text>
</g>
<g id="s1">
<line x1="73.2" y1="77.68" x2="300.301515" y2="77.68" stroke="black" stroke-width="1.6"/>
<polygon stroke-width="0" points="294,75.28 303.6,77.68 294,80.08" fill="black"/>
</g>
<g id="s2">
<text font-size="11pt" stroke-width="0.266667" fill="black" x="303.6" y="90.026667" text-anchor="middle">$t$</text>
</g>
<g id="s3">
<line x1="169.2" y1="96.88" x2="169.2" y2="13.778485" stroke="black" stroke-width="1.6"/>
<polygon stroke-width="0" points="166.8,20.08 169.2,10.48 171.6,20.08" fill="black"/>
</g>
<g id="s4">
<text font-size="11pt" stroke-width="0.266667" fill="black" x="166.533333" y="10.48" text-anchor="end">$g(t)$</text>
</g>
<g id="s5">
<line x1="111.6" y1="77.68" x2="111.6" y2="73.84" stroke="black" stroke-width="1.6"/>
</g>
<g id="s6">
<line x1="236.4" y1="77.68" x2="236.4" y2="73.84" stroke="black" stroke-width="1.6"/>
</g>
<g id="s7">
<line x1="130.8" y1="58.48" x2="146.701515" y2="58.48" stroke="black" stroke-width="1.6"/>
<polygon stroke-width="0" points="140.4,56.08 150,58.48 140.4,60.88" fill="black"/>
</g>
<g id="s8">
</g>
<g id="s9">
<line x1="92.4" y1="39.28" x2="92.4" y2="20.08" stroke="black" stroke-width="1.6"/>
</g>
<g id="s10">
<line x1="130.8" y1="39.28" x2="130.8" y2="20.08" stroke="black" stroke-width="1.6"/>
</g>
<g id="s11">
<line x1="95.698485" y1="29.68" x2="102.266667" y2="29.68" stroke="black" stroke-width="1.6"/>
<polygon stroke-width="0" points="102,32.08 92.4,29.68 102,27.28" fill="black"/>
</g>
<g id="s12">
<line x1="120.933333" y1="29.68" x2="127.501515" y2="29.68" stroke="black" stroke-width="1.6"/>
<polygon stroke-width="0" points="121.2,27.28 130.8,29.68 121.2,32.08" fill="black"/>
</g>
<g id="s13">
<text font-size="11pt" stroke-width="0.266667" fill="black" x="111.6" y="34.52" text-anchor="middle">${\scriptsize \alpha_2}$</text>
</g>
<g id="s14">
</g>
<g id="s15">
<line x1="207.6" y1="39.28" x2="207.6" y2="20.08" stroke="black" stroke-width="1.6"/>
</g>
<g id="s16">
<line x1="265.2" y1="39.28" x2="265.2" y2="20.08" stroke="black" stroke-width="1.6"/>
</g>
<g id="s17">
<line x1="210.898485" y1="29.68" x2="227.066667" y2="29.68" stroke="black" stroke-width="1.6"/>
<polygon stroke-width="0" points="217.2,32.08 207.6,29.68 217.2,27.28" fill="black"/>
</g>
<g id="s18">
<line x1="245.733333" y1="29.68" x2="261.901515" y2="29.68" stroke="black" stroke-width="1.6"/>
<polygon stroke-width="0" points="255.6,27.28 265.2,29.68 255.6,32.08" fill="black"/>
</g>
<g id="s19">
<text font-size="11pt" stroke-width="0.266667" fill="black" x="236.4" y="34.52" text-anchor="middle">${\scriptsize \alpha_1}$</text>
</g>
<g id="s20">
<polyline points="92.4,77.68 92.4,39.28 130.8,39.28 130.8,77.68" fill="none" stroke="black" stroke-width="1.6"/>
</g>
<g id="s21">
<polyline points="207.6,77.68 207.6,39.28 265.2,39.28 265.2,77.68" fill="none" stroke="black" stroke-width="1.6"/>
</g>
<g id="s22">
<text font-size="11pt" stroke-width="0.266667" fill="black" x="111.6" y="90.026667" text-anchor="middle">${\scriptsize t-\beta_2}$</text>
</g>
<g id="s23">
<text font-size="11pt" stroke-width="0.266667" fill="black" x="236.4" y="90.026667" text-anchor="middle">${\scriptsize \beta_1}$</text>
</g>
</svg>
