<svg xmlns="http://www.w3.org/2000/svg" width="157.6" height="121.6" viewBox="0 0 157.6 121.6" font-family="sans-serif" font-size="14.667">
<g id="s0">
<polyline points="54.8,108.8 102.8,108.8" fill="none" stroke="black" stroke-width="1.067"/>
<polygon points="102.8,108.8 93.2,111.2 93.2,106.4" fill="black"/>
</g>
<g id="s1">
<text x="102.8" y="108.8" text-anchor="middle" dominant-baseline="central">$t$</text>
</g>
<g id="s2">
<polyline points="78.8,113.6 78.8,84.8" fill="none" stroke="black" stroke-width="1.067"/>
<polygon points="78.8,84.8 81.2,94.4 76.4,94.4" fill="black"/>
</g>
<g id="s3">
<text x="78.8" y="84.8" text-anchor="middle" dominant-baseline="central">$g(t)$</text>
</g>
<g id="s4">
<text x="78.8" y="108.8" text-anchor="middle" dominant-baseline="central">${\scriptsize 0}$</text>
</g>
<g id="s5">
<text x="78.8" y="12.8" text-anchor="middle" dominant-baseline="central">${\scriptsize A}$</text>
</g>
<g id="s6">
<polyline points="59.6,48.228 60.56,46.817" fill="none" stroke="black" stroke-width="1.067"/>
</g>
<g id="s7">
<polyline points="60.56,46.817 61.52,45.373" fill="none" stroke="black" stroke-width="1.067"/>
</g>
<g id="s8">
<polyline points="61.52,45.373 62.48,43.896" fill="none" stroke="black" stroke-width="1.067"/>
</g>
<g id="s9">
<polyline points="62.48,43.896 63.44,42.384" fill="none" stroke="black" stroke-width="1.067"/>
</g>
<g id="s10">
<polyline points="63.44,42.384 64.4,40.837" fill="none" stroke="black" stroke-width="1.067"/>
</g>
<g id="s11">
<polyline points="64.4,40.837 65.36,39.254" fill="none" stroke="black" stroke-width="1.067"/>
</g>
<g id="s12">
<polyline points="65.36,39.254 66.32,37.634" fill="none" stroke="black" stroke-width="1.067"/>
</g>
<g id="s13">
<polyline points="66.32,37.634 67.28,35.977" fill="none" stroke="black" stroke-width="1.067"/>
</g>
<g id="s14">
<polyline points="67.28,35.977 68.24,34.28" fill="none" stroke="black" stroke-width="1.067"/>
</g>
<g id="s15">
<polyline points="68.24,34.28 69.2,32.544" fill="none" stroke="black" stroke-width="1.067"/>
</g>
<g id="s16">
<polyline points="69.2,32.544 70.16,30.768" fill="none" stroke="black" stroke-width="1.067"/>
</g>
<g id="s17">
<polyline points="70.16,30.768 71.12,28.951" fill="none" stroke="black" stroke-width="1.067"/>
</g>
<g id="s18">
<polyline points="71.12,28.951 72.08,27.091" fill="none" stroke="black" stroke-width="1.067"/>
</g>
<g id="s19">
<polyline points="72.08,27.091 73.04,25.187" fill="none" stroke="black" stroke-width="1.067"/>
</g>
<g id="s20">
<polyline points="73.04,25.187 74,23.24" fill="none" stroke="black" stroke-width="1.067"/>
</g>
<g id="s21">
<polyline points="74,23.24 74.96,21.247" fill="none" stroke="black" stroke-width="1.067"/>
</g>
<g id="s22">
<polyline points="74.96,21.247 75.92,19.208" fill="none" stroke="black" stroke-width="1.067"/>
</g>
<g id="s23">
<polyline points="75.92,19.208 76.88,17.121" fill="none" stroke="black" stroke-width="1.067"/>
</g>
<g id="s24">
<polyline points="76.88,17.121 77.84,14.985" fill="none" stroke="black" stroke-width="1.067"/>
</g>
<g id="s25">
<polyline points="77.84,14.985 78.8,12.8" fill="none" stroke="black" stroke-width="1.067"/>
</g>
<g id="s26">
<polyline points="78.8,12.8 79.76,14.985" fill="none" stroke="black" stroke-width="1.067"/>
</g>
<g id="s27">
<polyline points="79.76,14.985 80.72,17.121" fill="none" stroke="black" stroke-width="1.067"/>
</g>
<g id="s28">
<polyline points="80.72,17.121 81.68,19.208" fill="none" stroke="black" stroke-width="1.067"/>
</g>
<g id="s29">
<polyline points="81.68,19.208 82.64,21.247" fill="none" stroke="black" stroke-width="1.067"/>
</g>
<g id="s30">
<polyline points="82.64,21.247 83.6,23.24" fill="none" stroke="black" stroke-width="1.067"/>
</g>
<g id="s31">
<polyline points="83.6,23.24 84.56,25.187" fill="none" stroke="black" stroke-width="1.067"/>
</g>
<g id="s32">
<polyline points="84.56,25.187 85.52,27.091" fill="none" stroke="black" stroke-width="1.067"/>
</g>
<g id="s33">
<polyline points="85.52,27.091 86.48,28.951" fill="none" stroke="black" stroke-width="1.067"/>
</g>
<g id="s34">
<polyline points="86.48,28.951 87.44,30.768" fill="none" stroke="black" stroke-width="1.067"/>
</g>
<g id="s35">
<polyline points="87.44,30.768 88.4,32.544" fill="none" stroke="black" stroke-width="1.067"/>
</g>
<g id="s36">
<polyline points="88.4,32.544 89.36,34.28" fill="none" stroke="black" stroke-width="1.067"/>
</g>
<g id="s37">
<polyline points="89.36,34.28 90.32,35.977" fill="none" stroke="black" stroke-width="1.067"/>
</g>
<g id="s38">
<polyline points="90.32,35.977 91.28,37.634" fill="none" stroke="black" stroke-width="1.067"/>
</g>
<g id="s39">
<polyline points="91.28,37.634 92.24,39.254" fill="none" stroke="black" stroke-width="1.067"/>
</g>
<g id="s40">
<polyline points="92.24,39.254 93.2,40.837" fill="none" stroke="black" stroke-width="1.067"/>
</g>
<g id="s41">
<polyline points="93.2,40.837 94.16,42.384" fill="none" stroke="black" stroke-width="1.067"/>
</g>
<g id="s42">
<polyline points="94.16,42.384 95.12,43.896" fill="none" stroke="black" stroke-width="1.067"/>
</g>
<g id="s43">
<polyline points="95.12,43.896 96.08,45.373" fill="none" stroke="black" stroke-width="1.067"/>
</g>
<g id="s44">
<polyline points="96.08,45.373 97.04,46.817" fill="none" stroke="black" stroke-width="1.067"/>
</g>
<g id="s45">
<polyline points="97.04,46.817 98,48.228" fill="none" stroke="black" stroke-width="1.067"/>
</g>
</svg>
