<svg xmlns="http://www.w3.org/2000/svg" width="100.8" height="53.226667" viewBox="0 0 100.8 53.226667" font-family="sans-serif" font-size="14.666667" fill="none">
<g id="s0">
<text font-size="11pt" stroke-width="0.266667" fill="black" x="46.933333" y="49.226667" text-anchor="end">${\scriptsize 0}$</text>
</g>
<g id="s1">
<line x1="1.6" y1="36.88" x2="94.301515" y2="36.88" stroke="black" stroke-width="1.6"/>
<polygon stroke-width="0" points="88,34.48 97.6,36.88 88,39.28" fill="black"/>
</g>
<g id="s2">
<text font-size="11pt" stroke-width="0.266667" fill="black" x="97.6" y="49.226667" text-anchor="middle">$t$</text>
</g>
<g id="s3">
<line x1="49.6" y1="39.28" x2="49.6" y2="13.778485" stroke="black" stroke-width="1.6"/>
<polygon stroke-width="0" points="47.2,20.08 49.6,10.48 52,20.08" fill="black"/>
</g>
<g id="s4">
<text font-size="11pt" stroke-width="0.266667" fill="black" x="46.933333" y="10.48" text-anchor="end">$\Lambda(t)$</text>
</g>
<g id="s5">
<line x1="54.4" y1="17.68" x2="49.6" y2="17.68" stroke="black" stroke-width="1.6" stroke-dasharray="0.5,8" stroke-linecap="round"/>
</g>
<g id="s6">
<text font-size="11pt" stroke-width="0.266667" fill="black" x="46.933333" y="22.52" text-anchor="end">${\scriptsize 1}$</text>
</g>
<g id="s7">
<polyline points="44.8,36.88 54.4,17.68 54.4,17.68 64,36.88" fill="none" stroke="black" stroke-width="1.6"/>
</g>
<g id="s8">
<text font-size="11pt" stroke-width="0.266667" fill="black" x="64" y="49.226667" text-anchor="middle">${\scriptsize n=1}$</text>
</g>
<g id="s9">
<polyline points="35.2,36.88 52,17.68 52,17.68 71.2,36.88" fill="none" stroke="black" stroke-width="1.6"/>
</g>
<g id="s10">
<text font-size="11pt" stroke-width="0.266667" fill="black" x="71.2" y="49.226667" text-anchor="middle">${\scriptsize n=2}$</text>
</g>
<g id="s11">
<polyline points="12.4,36.88 50.8,17.68 50.8,17.68 89.2,36.88" fill="none" stroke="black" stroke-width="1.6"/>
</g>
<g id="s12">
<text font-size="11pt" stroke-width="0.266667" fill="black" x="89.2" y="49.226667" text-anchor="middle">${\scriptsize n=3}$</text>
</g>
</svg>
