<svg xmlns="http://www.w3.org/2000/svg" width="231.867" height="164.8" viewBox="0 0 231.867 164.8" font-family="sans-serif" font-size="14.667">
<g id="s0">
<polyline points="17.2,12.8 74.8,12.8" fill="none" stroke="black" stroke-width="1.067"/>
<polygon points="74.8,12.8 65.2,15.2 65.2,10.4" fill="black"/>
</g>
<g id="s1">
<text x="74.8" y="12.8" text-anchor="middle" dominant-baseline="central">$h$</text>
</g>
<g id="s2">
<polyline points="17.2,12.8 17.2,70.4" fill="none" stroke="black" stroke-width="1.067"/>
<polygon points="17.2,70.4 14.8,60.8 19.6,60.8" fill="black"/>
</g>
<g id="s3">
<text x="17.2" y="70.4" text-anchor="middle" dominant-baseline="central">$v$</text>
</g>
<g id="s4">
<text x="17.2" y="12.8" text-anchor="middle" dominant-baseline="central">$0$</text>
</g>
<g id="s5">
<rect x="31.6" y="27.2" width="129.6" height="86.4" fill="none" stroke="black" stroke-width="1.067"/>
</g>
<g id="s6">
<rect x="74.8" y="56" width="43.2" height="28.8" fill="none" stroke="black" stroke-width="1.067"/>
</g>
<g id="s7">
</g>
<g id="s8">
<polyline points="161.2,27.2 227.867,27.2" fill="none" stroke="black" stroke-width="1.067"/>
</g>
<g id="s9">
<polyline points="161.2,113.6 227.867,113.6" fill="none" stroke="black" stroke-width="1.067"/>
</g>
<g id="s10">
<polyline points="209.2,27.2 209.2,113.6" fill="none" stroke="black" stroke-width="1.067"/>
<polygon points="209.2,113.6 206.8,104 211.6,104" fill="black"/>
</g>
<g id="s11">
<text x="209.2" y="70.4" text-anchor="middle" dominant-baseline="central">$V$</text>
</g>
<g id="s12">
</g>
<g id="s13">
<polyline points="161.2,56 199.067,56" fill="none" stroke="black" stroke-width="1.067"/>
</g>
<g id="s14">
<polyline points="161.2,84.8 199.067,84.8" fill="none" stroke="black" stroke-width="1.067"/>
</g>
<g id="s15">
<polyline points="180.4,56 180.4,84.8" fill="none" stroke="black" stroke-width="1.067"/>
<polygon points="180.4,84.8 178,75.2 182.8,75.2" fill="black"/>
</g>
<g id="s16">
<text x="180.4" y="70.4" text-anchor="middle" dominant-baseline="central">$\betaV$</text>
</g>
<g id="s17">
</g>
<g id="s18">
<polyline points="31.6,113.6 31.6,125.333" fill="none" stroke="black" stroke-width="1.067"/>
</g>
<g id="s19">
<polyline points="161.2,113.6 161.2,125.333" fill="none" stroke="black" stroke-width="1.067"/>
</g>
<g id="s20">
<polyline points="31.6,152 161.2,152" fill="none" stroke="black" stroke-width="1.067"/>
<polygon points="161.2,152 151.6,154.4 151.6,149.6" fill="black"/>
</g>
<g id="s21">
<text x="96.4" y="152" text-anchor="middle" dominant-baseline="central">$H$</text>
</g>
<g id="s22">
</g>
<g id="s23">
<polyline points="74.8,113.6 74.8,101.333" fill="none" stroke="black" stroke-width="1.067"/>
</g>
<g id="s24">
<polyline points="118,113.6 118,101.333" fill="none" stroke="black" stroke-width="1.067"/>
</g>
<g id="s25">
<polyline points="74.8,128 118,128" fill="none" stroke="black" stroke-width="1.067"/>
<polygon points="118,128 108.4,130.4 108.4,125.6" fill="black"/>
</g>
<g id="s26">
<text x="96.4" y="128" text-anchor="middle" dominant-baseline="central">$\alphaH$</text>
</g>
</svg>
