<svg xmlns="http://www.w3.org/2000/svg" width="360.16" height="254.08" viewBox="0 0 360.16 254.08" font-family="sans-serif" font-size="14.667">
<g id="s0">
<circle cx="235.76" cy="62.72" r="28.8" fill="none" stroke="black" stroke-width="1.067"/>
</g>
<g id="s1">
<polyline points="230,47.36 230,78.08" fill="none" stroke="black" stroke-width="1.067"/>
</g>
<g id="s2">
<polyline points="189.68,62.72 230,62.72" fill="none" stroke="black" stroke-width="1.067"/>
</g>
<g id="s3">
<polyline points="230,69.44 251.12,83.84" fill="none" stroke="black" stroke-width="1.067"/>
</g>
<g id="s4">
<polyline points="251.12,83.84 251.12,103.04" fill="none" stroke="black" stroke-width="1.067"/>
</g>
<g id="s5">
<polyline points="251.12,41.6 230,56" fill="none" stroke="black" stroke-width="1.067"/>
<polygon points="230,56 236.58,48.609 239.284,52.575" fill="black"/>
</g>
<g id="s6">
<polyline points="251.12,41.6 251.12,22.4" fill="none" stroke="black" stroke-width="1.067"/>
</g>
<g id="s7">
</g>
<g id="s8">
<circle cx="124.4" cy="62.72" r="28.8" fill="none" stroke="black" stroke-width="1.067"/>
</g>
<g id="s9">
<polyline points="130.16,47.36 130.16,78.08" fill="none" stroke="black" stroke-width="1.067"/>
</g>
<g id="s10">
<polyline points="170.48,62.72 130.16,62.72" fill="none" stroke="black" stroke-width="1.067"/>
</g>
<g id="s11">
<polyline points="130.16,69.44 109.04,83.84" fill="none" stroke="black" stroke-width="1.067"/>
</g>
<g id="s12">
<polyline points="109.04,83.84 109.04,103.04" fill="none" stroke="black" stroke-width="1.067"/>
</g>
<g id="s13">
<polyline points="109.04,41.6 130.16,56" fill="none" stroke="black" stroke-width="1.067"/>
<polygon points="130.16,56 120.876,52.575 123.58,48.609" fill="black"/>
</g>
<g id="s14">
<polyline points="109.04,41.6 109.04,22.4" fill="none" stroke="black" stroke-width="1.067"/>
</g>
<g id="s15">
</g>
<g id="s16">
<circle cx="266.48" cy="162.56" r="28.8" fill="none" stroke="black" stroke-width="1.067"/>
</g>
<g id="s17">
<polyline points="272.24,177.92 272.24,147.2" fill="none" stroke="black" stroke-width="1.067"/>
</g>
<g id="s18">
<polyline points="312.56,162.56 272.24,162.56" fill="none" stroke="black" stroke-width="1.067"/>
</g>
<g id="s19">
<polyline points="272.24,155.84 251.12,141.44" fill="none" stroke="black" stroke-width="1.067"/>
</g>
<g id="s20">
<polyline points="251.12,141.44 251.12,122.24" fill="none" stroke="black" stroke-width="1.067"/>
</g>
<g id="s21">
<polyline points="272.24,169.28 251.12,183.68" fill="none" stroke="black" stroke-width="1.067"/>
<polygon points="251.12,183.68 257.7,176.289 260.404,180.255" fill="black"/>
</g>
<g id="s22">
<polyline points="251.12,183.68 251.12,202.88" fill="none" stroke="black" stroke-width="1.067"/>
</g>
<g id="s23">
</g>
<g id="s24">
<circle cx="93.68" cy="162.56" r="28.8" fill="none" stroke="black" stroke-width="1.067"/>
</g>
<g id="s25">
<polyline points="87.92,177.92 87.92,147.2" fill="none" stroke="black" stroke-width="1.067"/>
</g>
<g id="s26">
<polyline points="47.6,162.56 87.92,162.56" fill="none" stroke="black" stroke-width="1.067"/>
</g>
<g id="s27">
<polyline points="87.92,155.84 109.04,141.44" fill="none" stroke="black" stroke-width="1.067"/>
</g>
<g id="s28">
<polyline points="109.04,141.44 109.04,122.24" fill="none" stroke="black" stroke-width="1.067"/>
</g>
<g id="s29">
<polyline points="87.92,169.28 109.04,183.68" fill="none" stroke="black" stroke-width="1.067"/>
<polygon points="109.04,183.68 99.756,180.255 102.46,176.289" fill="black"/>
</g>
<g id="s30">
<polyline points="109.04,183.68 109.04,202.88" fill="none" stroke="black" stroke-width="1.067"/>
</g>
<g id="s31">
<polyline points="251.12,202.88 109.04,202.88" fill="none" stroke="black" stroke-width="1.067"/>
</g>
<g id="s32">
<polyline points="180.08,202.88 180.08,212.48" fill="none" stroke="black" stroke-width="1.067"/>
</g>
<g id="s33">
</g>
<g id="s34">
<polyline points="180.08,212.48 180.08,202.88" fill="none" stroke="black" stroke-width="1.067"/>
</g>
<g id="s35">
<circle cx="180.08" cy="222.08" r="19.2" fill="none" stroke="black" stroke-width="1.067"/>
</g>
<g id="s36">
<polyline points="180.08,211.52 180.08,232.64" fill="none" stroke="black" stroke-width="1.067"/>
<polygon points="180.08,232.64 177.68,223.04 182.48,223.04" fill="black"/>
</g>
<g id="s37">
<polyline points="180.08,241.28 180.08,231.68" fill="none" stroke="black" stroke-width="1.067"/>
</g>
<g id="s38">
<text x="167.28" y="236.48" text-anchor="middle" dominant-baseline="central">1mA</text>
</g>
<g id="s39">
<polyline points="180.08,231.68 180.08,241.28" fill="none" stroke="black" stroke-width="1.067"/>
</g>
<g id="s40">
<polyline points="109.04,122.24 109.04,103.04" fill="none" stroke="black" stroke-width="1.067"/>
</g>
<g id="s41">
<polyline points="251.12,122.24 251.12,103.04" fill="none" stroke="black" stroke-width="1.067"/>
</g>
<g id="s42">
<polyline points="189.68,62.72 170.48,62.72" fill="none" stroke="black" stroke-width="1.067"/>
</g>
<g id="s43">
<polyline points="170.48,62.72 170.48,103.04 170.48,103.04 109.04,103.04" fill="none" stroke="black" stroke-width="1.067"/>
</g>
<g id="s44">
<polyline points="251.12,22.4 251.12,12.8" fill="none" stroke="black" stroke-width="1.067"/>
</g>
<g id="s45">
<polyline points="109.04,22.4 109.04,12.8" fill="none" stroke="black" stroke-width="1.067"/>
</g>
<g id="s46">
<text x="251.12" y="41.6" text-anchor="middle" dominant-baseline="central">$Q_1$</text>
</g>
<g id="s47">
<text x="109.04" y="41.6" text-anchor="middle" dominant-baseline="central">$Q_2$</text>
</g>
<g id="s48">
<text x="251.12" y="141.44" text-anchor="middle" dominant-baseline="central">$Q_3$</text>
</g>
<g id="s49">
<text x="109.04" y="141.44" text-anchor="middle" dominant-baseline="central">$Q_4$</text>
</g>
<g id="s50">
<polyline points="89.84,12.8 270.32,12.8" fill="none" stroke="black" stroke-width="1.067"/>
<text x="180.08" y="12.8" text-anchor="middle" dominant-baseline="central">$V_{cc}$</text>
</g>
<g id="s51">
<polyline points="89.84,241.28 270.32,241.28" fill="none" stroke="black" stroke-width="1.067"/>
<text x="180.08" y="241.28" text-anchor="middle" dominant-baseline="central">$V_{ss}$</text>
</g>
<g id="s52">
</g>
<g id="s53">
<circle cx="312.56" cy="158.72" r="3.84" fill="rgb(0,0,0)" stroke="black" stroke-width="1.067"/>
</g>
<g id="s54">
<text x="325.36" y="158.72" text-anchor="middle" dominant-baseline="central">V_{en+}</text>
</g>
<g id="s55">
</g>
<g id="s56">
<circle cx="47.6" cy="158.72" r="3.84" fill="rgb(0,0,0)" stroke="black" stroke-width="1.067"/>
</g>
<g id="s57">
<text x="34.8" y="158.72" text-anchor="middle" dominant-baseline="central">V_{en-}</text>
</g>
<g id="s58">
</g>
<g id="s59">
<polyline points="251.12,103.04 270.32,103.04" fill="none" stroke="black" stroke-width="1.067"/>
</g>
<g id="s60">
<circle cx="270.32" cy="99.2" r="3.84" fill="rgb(0,0,0)" stroke="black" stroke-width="1.067"/>
</g>
<g id="s61">
<text x="283.12" y="99.2" text-anchor="middle" dominant-baseline="central">V_{sa}</text>
</g>
<g id="s62">
</g>
</svg>
