<svg xmlns="http://www.w3.org/2000/svg" width="244.16" height="163.24" viewBox="0 0 244.16 163.24" font-family="sans-serif" font-size="14.666667" fill="none">
<g id="s0">
<circle cx="6.4" cy="51.68" r="4.8" fill="none" stroke="black" stroke-width="1.6"/>
</g>
<g id="s1">
<line x1="11.2" y1="51.68" x2="20.8" y2="51.68" stroke="black" stroke-width="1.6"/>
</g>
<g id="s2">
</g>
<g id="s3">
<polyline points="20.8,51.68 18.4,51.68 18.4,51.68 21.99856,44.96 21.99856,44.96 29.2,58.4 29.2,58.4 36.40144,44.96 36.40144,44.96 43.59856,58.4 43.59856,58.4 50.8,44.96 50.8,44.96 58.00144,58.4 58.00144,58.4 61.6,51.68 61.6,51.68 59.2,51.68" fill="none" stroke="black" stroke-width="1.6"/>
</g>
<g id="s4">
<text font-size="11pt" stroke-width="0.266667" fill="black" x="24.533333" y="56.52" text-anchor="end">R</text>
</g>
<g id="s5">
<line x1="27.2" y1="51.68" x2="46.4" y2="51.68" stroke="black" stroke-width="1.6"/>
</g>
<g id="s6">
</g>
<g id="s7">
<polyline points="46.4,51.68 44,51.68 44,51.68 47.59856,44.96 47.59856,44.96 54.8,58.4 54.8,58.4 62.00144,44.96 62.00144,44.96 69.19856,58.4 69.19856,58.4 76.4,44.96 76.4,44.96 83.60144,58.4 83.60144,58.4 87.2,51.68 87.2,51.68 84.8,51.68" fill="none" stroke="black" stroke-width="1.6"/>
</g>
<g id="s8">
<text font-size="11pt" stroke-width="0.266667" fill="black" x="50.133333" y="56.52" text-anchor="end">R</text>
</g>
<g id="s9">
<line x1="52.8" y1="51.68" x2="72" y2="51.68" stroke="black" stroke-width="1.6"/>
</g>
<g id="s10">
<line x1="72" y1="51.68" x2="91.2" y2="51.68" stroke="black" stroke-width="1.6"/>
</g>
<g id="s11">
</g>
<g id="s12">
<polyline points="108.48,34.88 175.68,68.48 175.68,68.48 108.48,102.08 108.48,102.08 108.48,34.88" fill="none" stroke="black" stroke-width="1.6"/>
</g>
<g id="s13">
<line x1="91.2" y1="51.68" x2="108.48" y2="51.68" stroke="black" stroke-width="1.6"/>
</g>
<g id="s14">
<line x1="91.2" y1="85.28" x2="108.48" y2="85.28" stroke="black" stroke-width="1.6"/>
</g>
<g id="s15">
<line x1="175.68" y1="68.48" x2="192.96" y2="68.48" stroke="black" stroke-width="1.6"/>
</g>
<g id="s16">
<line x1="112.32" y1="51.68" x2="119.04" y2="51.68" stroke="black" stroke-width="1.6"/>
</g>
<g id="s17">
<line x1="112.32" y1="85.28" x2="119.04" y2="85.28" stroke="black" stroke-width="1.6"/>
</g>
<g id="s18">
<line x1="115.68" y1="81.92" x2="115.68" y2="88.64" stroke="black" stroke-width="1.6"/>
</g>
<g id="s19">
<polyline points="36.8,51.68 36.8,13.28 94.4,13.28" fill="none" stroke="black" stroke-width="1.6"/>
</g>
<g id="s20">
</g>
<g id="s21">
<line x1="94.4" y1="13.28" x2="110.24" y2="13.28" stroke="black" stroke-width="1.6"/>
</g>
<g id="s22">
<line x1="110.24" y1="0.8" x2="110.24" y2="25.76" stroke="black" stroke-width="1.6"/>
</g>
<g id="s23">
<line x1="116.96" y1="0.8" x2="116.96" y2="25.76" stroke="black" stroke-width="1.6"/>
</g>
<g id="s24">
<line x1="116.96" y1="13.28" x2="132.8" y2="13.28" stroke="black" stroke-width="1.6"/>
</g>
<g id="s25">
<text font-size="11pt" stroke-width="0.266667" fill="black" x="109.413333" y="18.12" text-anchor="end">C</text>
</g>
<g id="s26">
<line x1="112.08" y1="13.28" x2="169.68" y2="13.28" stroke="black" stroke-width="1.6"/>
</g>
<g id="s27">
<line x1="169.68" y1="13.28" x2="169.68" y2="61.28" stroke="black" stroke-width="1.6"/>
</g>
<g id="s28">
</g>
<g id="s29">
</g>
<g id="s30">
<line x1="62.4" y1="51.68" x2="62.4" y2="67.52" stroke="black" stroke-width="1.6"/>
</g>
<g id="s31">
<line x1="74.88" y1="67.52" x2="49.92" y2="67.52" stroke="black" stroke-width="1.6"/>
</g>
<g id="s32">
<line x1="74.88" y1="74.24" x2="49.92" y2="74.24" stroke="black" stroke-width="1.6"/>
</g>
<g id="s33">
<line x1="62.4" y1="74.24" x2="62.4" y2="90.08" stroke="black" stroke-width="1.6"/>
</g>
<g id="s34">
<text font-size="11pt" stroke-width="0.266667" fill="black" x="77.866667" y="87" text-anchor="start">C</text>
</g>
<g id="s35">
<line x1="75.2" y1="87" x2="75.2" y2="98.52" stroke="black" stroke-width="1.6"/>
</g>
<g id="s36">
<line x1="62.72" y1="98.52" x2="87.68" y2="98.52" stroke="black" stroke-width="1.6"/>
</g>
<g id="s37">
<line x1="67.52" y1="103.32" x2="82.88" y2="103.32" stroke="black" stroke-width="1.6"/>
</g>
<g id="s38">
<line x1="72.32" y1="108.12" x2="78.08" y2="108.12" stroke="black" stroke-width="1.6"/>
</g>
<g id="s39">
<line x1="192.96" y1="68.48" x2="231.36" y2="68.48" stroke="black" stroke-width="1.6"/>
</g>
<g id="s40">
<circle cx="236.16" cy="68.48" r="4.8" fill="none" stroke="black" stroke-width="1.6"/>
</g>
<g id="s41">
<polyline points="91.2,85.28 81.6,85.28 81.6,114.08" fill="none" stroke="black" stroke-width="1.6"/>
</g>
<g id="s42">
<line x1="81.6" y1="114.08" x2="129.6" y2="114.08" stroke="black" stroke-width="1.6"/>
</g>
<g id="s43">
</g>
<g id="s44">
<polyline points="129.6,114.08 129.6,116.48 129.6,116.48 122.88,112.88144 122.88,112.88144 136.32,105.68 136.32,105.68 122.88,98.47856 122.88,98.47856 136.32,91.28144 136.32,91.28144 122.88,84.08 122.88,84.08 136.32,76.87856 136.32,76.87856 129.6,73.28 129.6,73.28 129.6,75.68" fill="none" stroke="black" stroke-width="1.6"/>
</g>
<g id="s45">
<text font-size="11pt" stroke-width="0.266667" fill="black" x="114.133333" y="99.72" text-anchor="end">R_2</text>
</g>
<g id="s46">
<line x1="116.8" y1="90.04" x2="116.8" y2="42.04" stroke="black" stroke-width="1.6"/>
</g>
<g id="s47">
</g>
<g id="s48">
</g>
<g id="s49">
<polyline points="129.6,114.08 129.6,111.68 129.6,111.68 136.32,115.27856 136.32,115.27856 122.88,122.48 122.88,122.48 136.32,129.68144 136.32,129.68144 122.88,136.87856 122.88,136.87856 136.32,144.08 136.32,144.08 122.88,151.28144 122.88,151.28144 129.6,154.88 129.6,154.88 129.6,152.48" fill="none" stroke="black" stroke-width="1.6"/>
</g>
<g id="s50">
<text font-size="11pt" stroke-width="0.266667" fill="black" x="145.066667" y="138.12" text-anchor="start">R_1</text>
</g>
<g id="s51">
<line x1="142.4" y1="138.12" x2="142.4" y2="149.64" stroke="black" stroke-width="1.6"/>
</g>
<g id="s52">
<line x1="129.92" y1="149.64" x2="154.88" y2="149.64" stroke="black" stroke-width="1.6"/>
</g>
<g id="s53">
<line x1="134.72" y1="154.44" x2="150.08" y2="154.44" stroke="black" stroke-width="1.6"/>
</g>
<g id="s54">
<line x1="139.52" y1="159.24" x2="145.28" y2="159.24" stroke="black" stroke-width="1.6"/>
</g>
</svg>
