<svg xmlns="http://www.w3.org/2000/svg" width="154.88" height="96.32" viewBox="0 0 154.88 96.32" font-family="sans-serif" font-size="14.667">
<g id="s0">
<circle cx="6.88" cy="44.32" r="2.88" fill="none" stroke="black" stroke-width="1.067"/>
</g>
<g id="s1">
<polyline points="9.76,44.32 28.96,44.32" fill="none" stroke="black" stroke-width="1.067"/>
</g>
<g id="s2">
</g>
<g id="s3">
<polyline points="28.96,44.32 28.96,42.4" fill="none" stroke="black" stroke-width="1.067"/>
</g>
<g id="s4">
<polyline points="16.48,42.4 16.48,42.4 41.44,42.4 41.44,42.4 28.96,17.44 28.96,17.44 16.48,42.4" fill="none" stroke="black" stroke-width="1.067"/>
</g>
<g id="s5">
<polyline points="16.48,17.44 41.44,17.44" fill="none" stroke="black" stroke-width="1.067"/>
</g>
<g id="s6">
<polyline points="28.96,17.44 28.96,15.52" fill="none" stroke="black" stroke-width="1.067"/>
</g>
<g id="s7">
<polyline points="28.96,15.52 86.56,15.52" fill="none" stroke="black" stroke-width="1.067"/>
</g>
<g id="s8">
</g>
<g id="s9">
<polyline points="86.56,15.52 81.76,15.52" fill="none" stroke="black" stroke-width="1.067"/>
</g>
<g id="s10">
<path d="M 81.76 15.52 C 82.76 13.6 85.76 4 87.76 4 C 89.76 4 91.76 15.52 93.76 15.52 C 95.76 15.52 97.76 4 99.76 4 C 101.76 4 103.76 15.52 105.76 15.52 C 107.76 15.52 109.76 4 111.76 4 C 113.76 4 115.76 15.52 117.76 15.52 C 119.76 15.52 121.76 4 123.76 4 C 125.76 4 128.76 13.6 129.76 15.52" fill="none" stroke="black" stroke-width="1.067"/>
</g>
<g id="s11">
<polyline points="129.76,15.52 124.96,15.52" fill="none" stroke="black" stroke-width="1.067"/>
</g>
<g id="s12">
<text x="114.56" y="15.52" text-anchor="middle" dominant-baseline="central">L</text>
</g>
<g id="s13">
<polyline points="124.96,15.52 144.16,15.52 144.16,34.72" fill="none" stroke="black" stroke-width="1.067"/>
</g>
<g id="s14">
</g>
<g id="s15">
<polyline points="144.16,34.72 144.16,32.32 144.16,32.32 150.88,35.919 150.88,35.919 137.44,43.12 137.44,43.12 150.88,50.321 150.88,50.321 137.44,57.519 137.44,57.519 150.88,64.72 150.88,64.72 137.44,71.921 137.44,71.921 144.16,75.52 144.16,75.52 144.16,73.12" fill="none" stroke="black" stroke-width="1.067"/>
</g>
<g id="s16">
<text x="131.36" y="53.92" text-anchor="middle" dominant-baseline="central">R</text>
</g>
<g id="s17">
<polyline points="144.16,73.12 144.16,92.32 28.96,92.32" fill="none" stroke="black" stroke-width="1.067"/>
</g>
<g id="s18">
</g>
<g id="s19">
<polyline points="28.96,92.32 28.96,90.4" fill="none" stroke="black" stroke-width="1.067"/>
</g>
<g id="s20">
<polyline points="16.48,90.4 16.48,90.4 41.44,90.4 41.44,90.4 28.96,65.44 28.96,65.44 16.48,90.4" fill="none" stroke="black" stroke-width="1.067"/>
</g>
<g id="s21">
<polyline points="16.48,65.44 41.44,65.44" fill="none" stroke="black" stroke-width="1.067"/>
</g>
<g id="s22">
<polyline points="28.96,65.44 28.96,63.52" fill="none" stroke="black" stroke-width="1.067"/>
</g>
<g id="s23">
<polyline points="28.96,63.52 28.96,44.32" fill="none" stroke="black" stroke-width="1.067"/>
</g>
<g id="s24">
<circle cx="6.88" cy="63.52" r="2.88" fill="none" stroke="black" stroke-width="1.067"/>
</g>
<g id="s25">
<polyline points="9.76,63.52 57.76,63.52" fill="none" stroke="black" stroke-width="1.067"/>
</g>
<g id="s26">
</g>
<g id="s27">
</g>
<g id="s28">
<polyline points="57.76,92.32 57.76,90.4" fill="none" stroke="black" stroke-width="1.067"/>
</g>
<g id="s29">
<polyline points="45.28,90.4 45.28,90.4 70.24,90.4 70.24,90.4 57.76,65.44 57.76,65.44 45.28,90.4" fill="none" stroke="black" stroke-width="1.067"/>
</g>
<g id="s30">
<polyline points="45.28,65.44 70.24,65.44" fill="none" stroke="black" stroke-width="1.067"/>
</g>
<g id="s31">
<polyline points="57.76,65.44 57.76,63.52" fill="none" stroke="black" stroke-width="1.067"/>
</g>
<g id="s32">
<polyline points="57.76,63.52 57.76,44.32" fill="none" stroke="black" stroke-width="1.067"/>
</g>
<g id="s33">
</g>
<g id="s34">
<polyline points="57.76,44.32 57.76,42.4" fill="none" stroke="black" stroke-width="1.067"/>
</g>
<g id="s35">
<polyline points="45.28,42.4 45.28,42.4 70.24,42.4 70.24,42.4 57.76,17.44 57.76,17.44 45.28,42.4" fill="none" stroke="black" stroke-width="1.067"/>
</g>
<g id="s36">
<polyline points="45.28,17.44 70.24,17.44" fill="none" stroke="black" stroke-width="1.067"/>
</g>
<g id="s37">
<polyline points="57.76,17.44 57.76,15.52" fill="none" stroke="black" stroke-width="1.067"/>
</g>
</svg>
