<svg xmlns="http://www.w3.org/2000/svg" width="167.146667" height="143.08" viewBox="0 0 167.146667 143.08" font-family="sans-serif" font-size="14.666667" fill="none">
<g id="s0">
<circle cx="61.12" cy="50.72" r="28.8" fill="none" stroke="black" stroke-width="1.6"/>
</g>
<g id="s1">
<line x1="55.36" y1="35.36" x2="55.36" y2="66.08" stroke="black" stroke-width="1.6"/>
</g>
<g id="s2">
<line x1="15.04" y1="50.72" x2="55.36" y2="50.72" stroke="black" stroke-width="1.6"/>
</g>
<g id="s3">
<line x1="55.36" y1="57.44" x2="76.48" y2="71.84" stroke="black" stroke-width="1.6"/>
</g>
<g id="s4">
<line x1="76.48" y1="71.84" x2="76.48" y2="91.04" stroke="black" stroke-width="1.6"/>
</g>
<g id="s5">
<line x1="76.48" y1="29.6" x2="58.085298" y2="42.141842" stroke="black" stroke-width="1.6"/>
<polygon stroke-width="0" points="64.643791,40.574912 55.36,44 61.939774,36.609021" fill="black"/>
</g>
<g id="s6">
<line x1="76.48" y1="29.6" x2="76.48" y2="10.4" stroke="black" stroke-width="1.6"/>
</g>
<g id="s7">
<line x1="76.48" y1="10.4" x2="76.48" y2="0.8" stroke="black" stroke-width="1.6"/>
</g>
<g id="s8">
<line x1="57.28" y1="0.8" x2="95.68" y2="0.8" stroke="black" stroke-width="1.6"/>
<text font-size="11pt" stroke-width="0.2pt" fill="black" x="76.48" y="-1.866667" text-anchor="middle">$V_{cc}$</text>
</g>
<g id="s9">
</g>
<g id="s10">
<line x1="76.48" y1="91.04" x2="76.48" y2="100.64" stroke="black" stroke-width="1.6"/>
</g>
<g id="s11">
</g>
<g id="s12">
<line x1="76.48" y1="100.64" x2="76.48" y2="91.04" stroke="black" stroke-width="1.6"/>
</g>
<g id="s13">
<circle cx="76.48" cy="110.24" r="19.2" fill="none" stroke="black" stroke-width="1.6"/>
</g>
<g id="s14">
<line x1="76.48" y1="99.68" x2="76.48" y2="117.501515" stroke="black" stroke-width="1.6"/>
<polygon stroke-width="0" points="78.88,111.2 76.48,120.8 74.08,111.2" fill="black"/>
</g>
<g id="s15">
<line x1="76.48" y1="129.44" x2="76.48" y2="119.84" stroke="black" stroke-width="1.6"/>
</g>
<g id="s16">
<text font-size="11pt" stroke-width="0.266667" fill="black" x="61.013333" y="129.48" text-anchor="end">1mA</text>
</g>
<g id="s17">
<line x1="63.68" y1="129.48" x2="63.68" y2="139.08" stroke="black" stroke-width="1.6"/>
</g>
<g id="s18">
<line x1="44.48" y1="139.08" x2="82.88" y2="139.08" stroke="black" stroke-width="1.6"/>
<text font-size="11pt" stroke-width="0.2pt" fill="black" x="63.68" y="151.426667" text-anchor="middle">$V_{ss}$</text>
</g>
<g id="s19">
</g>
<g id="s20">
<line x1="15.04" y1="50.72" x2="5.44" y2="50.72" stroke="black" stroke-width="1.6"/>
</g>
<g id="s21">
<circle cx="5.44" cy="54.56" r="3.84" fill="rgb(0,0,0)" stroke="black" stroke-width="1.6"/>
</g>
<g id="s22">
<text font-size="11pt" stroke-width="0.266667" fill="black" x="20.906667" y="59.4" text-anchor="start">V_{en}</text>
</g>
<g id="s23">
</g>
<g id="s24">
<line x1="76.48" y1="91.04" x2="95.68" y2="91.04" stroke="black" stroke-width="1.6"/>
</g>
<g id="s25">
<circle cx="95.68" cy="87.2" r="3.84" fill="rgb(0,0,0)" stroke="black" stroke-width="1.6"/>
</g>
<g id="s26">
<text font-size="11pt" stroke-width="0.266667" fill="black" x="111.146667" y="92.04" text-anchor="start">V_{sa}</text>
</g>
<g id="s27">
</g>
</svg>
