<svg xmlns="http://www.w3.org/2000/svg" width="449.2" height="340.48" viewBox="0 0 449.2 340.48" font-family="sans-serif" font-size="14.667">
<g id="s0">
<circle cx="63.68" cy="258.56" r="28.8" fill="none" stroke="black" stroke-width="1.067"/>
</g>
<g id="s1">
<polyline points="69.44,273.92 69.44,243.2" fill="none" stroke="black" stroke-width="1.067"/>
</g>
<g id="s2">
<polyline points="109.76,258.56 69.44,258.56" fill="none" stroke="black" stroke-width="1.067"/>
</g>
<g id="s3">
<polyline points="69.44,251.84 48.32,237.44" fill="none" stroke="black" stroke-width="1.067"/>
</g>
<g id="s4">
<polyline points="48.32,237.44 48.32,218.24" fill="none" stroke="black" stroke-width="1.067"/>
</g>
<g id="s5">
<polyline points="69.44,265.28 48.32,279.68" fill="none" stroke="black" stroke-width="1.067"/>
<polygon points="48.32,279.68 54.9,272.289 57.604,276.255" fill="black"/>
</g>
<g id="s6">
<polyline points="48.32,279.68 48.32,298.88" fill="none" stroke="black" stroke-width="1.067"/>
</g>
<g id="s7">
<text x="48.32" y="237.44" text-anchor="middle" dominant-baseline="central">$Q_1$</text>
</g>
<g id="s8">
<polyline points="109.76,258.56 167.36,258.56" fill="none" stroke="black" stroke-width="1.067"/>
</g>
<g id="s9">
<circle cx="213.44" cy="258.56" r="28.8" fill="none" stroke="black" stroke-width="1.067"/>
</g>
<g id="s10">
<polyline points="207.68,273.92 207.68,243.2" fill="none" stroke="black" stroke-width="1.067"/>
</g>
<g id="s11">
<polyline points="167.36,258.56 207.68,258.56" fill="none" stroke="black" stroke-width="1.067"/>
</g>
<g id="s12">
<polyline points="207.68,251.84 228.8,237.44" fill="none" stroke="black" stroke-width="1.067"/>
</g>
<g id="s13">
<polyline points="228.8,237.44 228.8,218.24" fill="none" stroke="black" stroke-width="1.067"/>
</g>
<g id="s14">
<polyline points="207.68,265.28 228.8,279.68" fill="none" stroke="black" stroke-width="1.067"/>
<polygon points="228.8,279.68 219.516,276.255 222.22,272.289" fill="black"/>
</g>
<g id="s15">
<polyline points="228.8,279.68 228.8,298.88" fill="none" stroke="black" stroke-width="1.067"/>
</g>
<g id="s16">
<text x="167.36" y="271.36" text-anchor="middle" dominant-baseline="central">$Q_2$</text>
</g>
<g id="s17">
<polyline points="167.36,258.56 272.96,258.56" fill="none" stroke="black" stroke-width="1.067"/>
</g>
<g id="s18">
<circle cx="319.04" cy="258.56" r="28.8" fill="none" stroke="black" stroke-width="1.067"/>
</g>
<g id="s19">
<polyline points="313.28,273.92 313.28,243.2" fill="none" stroke="black" stroke-width="1.067"/>
</g>
<g id="s20">
<polyline points="272.96,258.56 313.28,258.56" fill="none" stroke="black" stroke-width="1.067"/>
</g>
<g id="s21">
<polyline points="313.28,251.84 334.4,237.44" fill="none" stroke="black" stroke-width="1.067"/>
</g>
<g id="s22">
<polyline points="334.4,237.44 334.4,218.24" fill="none" stroke="black" stroke-width="1.067"/>
</g>
<g id="s23">
<polyline points="313.28,265.28 334.4,279.68" fill="none" stroke="black" stroke-width="1.067"/>
<polygon points="334.4,279.68 325.116,276.255 327.82,272.289" fill="black"/>
</g>
<g id="s24">
<polyline points="334.4,279.68 334.4,298.88" fill="none" stroke="black" stroke-width="1.067"/>
</g>
<g id="s25">
<text x="334.4" y="237.44" text-anchor="middle" dominant-baseline="central">$Q_3$</text>
</g>
<g id="s26">
</g>
<g id="s27">
<circle cx="376.64" cy="258.56" r="28.8" fill="none" stroke="black" stroke-width="1.067"/>
</g>
<g id="s28">
<polyline points="370.88,243.2 370.88,273.92" fill="none" stroke="black" stroke-width="1.067"/>
</g>
<g id="s29">
<polyline points="330.56,258.56 370.88,258.56" fill="none" stroke="black" stroke-width="1.067"/>
</g>
<g id="s30">
<polyline points="370.88,265.28 392,279.68" fill="none" stroke="black" stroke-width="1.067"/>
</g>
<g id="s31">
<polyline points="392,279.68 392,298.88" fill="none" stroke="black" stroke-width="1.067"/>
</g>
<g id="s32">
<polyline points="392,237.44 370.88,251.84" fill="none" stroke="black" stroke-width="1.067"/>
<polygon points="370.88,251.84 377.46,244.449 380.164,248.415" fill="black"/>
</g>
<g id="s33">
<polyline points="392,237.44 392,218.24" fill="none" stroke="black" stroke-width="1.067"/>
</g>
<g id="s34">
<text x="392" y="237.44" text-anchor="middle" dominant-baseline="central">$Q_4$</text>
</g>
<g id="s35">
<polyline points="392,218.24 392,103.04" fill="none" stroke="black" stroke-width="1.067"/>
</g>
<g id="s36">
<circle cx="376.64" cy="62.72" r="28.8" fill="none" stroke="black" stroke-width="1.067"/>
</g>
<g id="s37">
<polyline points="370.88,78.08 370.88,47.36" fill="none" stroke="black" stroke-width="1.067"/>
</g>
<g id="s38">
<polyline points="330.56,62.72 370.88,62.72" fill="none" stroke="black" stroke-width="1.067"/>
</g>
<g id="s39">
<polyline points="370.88,56 392,41.6" fill="none" stroke="black" stroke-width="1.067"/>
</g>
<g id="s40">
<polyline points="392,41.6 392,22.4" fill="none" stroke="black" stroke-width="1.067"/>
</g>
<g id="s41">
<polyline points="370.88,69.44 392,83.84" fill="none" stroke="black" stroke-width="1.067"/>
<polygon points="392,83.84 382.716,80.415 385.42,76.449" fill="black"/>
</g>
<g id="s42">
<polyline points="392,83.84 392,103.04" fill="none" stroke="black" stroke-width="1.067"/>
</g>
<g id="s43">
<text x="392" y="41.6" text-anchor="middle" dominant-baseline="central">$Q_5$</text>
</g>
<g id="s44">
</g>
<g id="s45">
<circle cx="319.04" cy="62.72" r="28.8" fill="none" stroke="black" stroke-width="1.067"/>
</g>
<g id="s46">
<polyline points="313.28,47.36 313.28,78.08" fill="none" stroke="black" stroke-width="1.067"/>
</g>
<g id="s47">
<polyline points="272.96,62.72 313.28,62.72" fill="none" stroke="black" stroke-width="1.067"/>
</g>
<g id="s48">
<polyline points="313.28,69.44 334.4,83.84" fill="none" stroke="black" stroke-width="1.067"/>
</g>
<g id="s49">
<polyline points="334.4,83.84 334.4,103.04" fill="none" stroke="black" stroke-width="1.067"/>
</g>
<g id="s50">
<polyline points="334.4,41.6 313.28,56" fill="none" stroke="black" stroke-width="1.067"/>
<polygon points="313.28,56 319.86,48.609 322.564,52.575" fill="black"/>
</g>
<g id="s51">
<polyline points="334.4,41.6 334.4,22.4" fill="none" stroke="black" stroke-width="1.067"/>
</g>
<g id="s52">
<text x="334.4" y="41.6" text-anchor="middle" dominant-baseline="central">$Q_6$</text>
</g>
<g id="s53">
</g>
<g id="s54">
<circle cx="248" cy="62.72" r="28.8" fill="none" stroke="black" stroke-width="1.067"/>
</g>
<g id="s55">
<polyline points="242.24,47.36 242.24,78.08" fill="none" stroke="black" stroke-width="1.067"/>
</g>
<g id="s56">
<polyline points="201.92,62.72 242.24,62.72" fill="none" stroke="black" stroke-width="1.067"/>
</g>
<g id="s57">
<polyline points="242.24,69.44 263.36,83.84" fill="none" stroke="black" stroke-width="1.067"/>
</g>
<g id="s58">
<polyline points="263.36,83.84 263.36,103.04" fill="none" stroke="black" stroke-width="1.067"/>
</g>
<g id="s59">
<polyline points="263.36,41.6 242.24,56" fill="none" stroke="black" stroke-width="1.067"/>
<polygon points="242.24,56 248.82,48.609 251.524,52.575" fill="black"/>
</g>
<g id="s60">
<polyline points="263.36,41.6 263.36,22.4" fill="none" stroke="black" stroke-width="1.067"/>
</g>
<g id="s61">
<text x="263.36" y="41.6" text-anchor="middle" dominant-baseline="central">$Q_8$</text>
</g>
<g id="s62">
</g>
<g id="s63">
<circle cx="136.64" cy="62.72" r="28.8" fill="none" stroke="black" stroke-width="1.067"/>
</g>
<g id="s64">
<polyline points="142.4,47.36 142.4,78.08" fill="none" stroke="black" stroke-width="1.067"/>
</g>
<g id="s65">
<polyline points="182.72,62.72 142.4,62.72" fill="none" stroke="black" stroke-width="1.067"/>
</g>
<g id="s66">
<polyline points="142.4,69.44 121.28,83.84" fill="none" stroke="black" stroke-width="1.067"/>
</g>
<g id="s67">
<polyline points="121.28,83.84 121.28,103.04" fill="none" stroke="black" stroke-width="1.067"/>
</g>
<g id="s68">
<polyline points="121.28,41.6 142.4,56" fill="none" stroke="black" stroke-width="1.067"/>
<polygon points="142.4,56 133.116,52.575 135.82,48.609" fill="black"/>
</g>
<g id="s69">
<polyline points="121.28,41.6 121.28,22.4" fill="none" stroke="black" stroke-width="1.067"/>
</g>
<g id="s70">
<text x="121.28" y="41.6" text-anchor="middle" dominant-baseline="central">$Q_9$</text>
</g>
<g id="s71">
</g>
<g id="s72">
<circle cx="278.72" cy="162.56" r="28.8" fill="none" stroke="black" stroke-width="1.067"/>
</g>
<g id="s73">
<polyline points="284.48,177.92 284.48,147.2" fill="none" stroke="black" stroke-width="1.067"/>
</g>
<g id="s74">
<polyline points="324.8,162.56 284.48,162.56" fill="none" stroke="black" stroke-width="1.067"/>
</g>
<g id="s75">
<polyline points="284.48,155.84 263.36,141.44" fill="none" stroke="black" stroke-width="1.067"/>
</g>
<g id="s76">
<polyline points="263.36,141.44 263.36,122.24" fill="none" stroke="black" stroke-width="1.067"/>
</g>
<g id="s77">
<polyline points="284.48,169.28 263.36,183.68" fill="none" stroke="black" stroke-width="1.067"/>
<polygon points="263.36,183.68 269.94,176.289 272.644,180.255" fill="black"/>
</g>
<g id="s78">
<polyline points="263.36,183.68 263.36,202.88" fill="none" stroke="black" stroke-width="1.067"/>
</g>
<g id="s79">
<text x="263.36" y="141.44" text-anchor="middle" dominant-baseline="central">$Q_7$</text>
</g>
<g id="s80">
</g>
<g id="s81">
<circle cx="105.92" cy="162.56" r="28.8" fill="none" stroke="black" stroke-width="1.067"/>
</g>
<g id="s82">
<polyline points="100.16,177.92 100.16,147.2" fill="none" stroke="black" stroke-width="1.067"/>
</g>
<g id="s83">
<polyline points="59.84,162.56 100.16,162.56" fill="none" stroke="black" stroke-width="1.067"/>
</g>
<g id="s84">
<polyline points="100.16,155.84 121.28,141.44" fill="none" stroke="black" stroke-width="1.067"/>
</g>
<g id="s85">
<polyline points="121.28,141.44 121.28,122.24" fill="none" stroke="black" stroke-width="1.067"/>
</g>
<g id="s86">
<polyline points="100.16,169.28 121.28,183.68" fill="none" stroke="black" stroke-width="1.067"/>
<polygon points="121.28,183.68 111.996,180.255 114.7,176.289" fill="black"/>
</g>
<g id="s87">
<polyline points="121.28,183.68 121.28,202.88" fill="none" stroke="black" stroke-width="1.067"/>
</g>
<g id="s88">
<text x="121.28" y="141.44" text-anchor="middle" dominant-baseline="central">$Q_{10}$</text>
</g>
<g id="s89">
</g>
<g id="s90">
<polyline points="48.32,218.24 48.32,208.64" fill="none" stroke="black" stroke-width="1.067"/>
</g>
<g id="s91">
</g>
<g id="s92">
<polyline points="48.32,208.64 48.32,211.04 48.32,211.04 41.6,207.441 41.6,207.441 55.04,200.24 55.04,200.24 41.6,193.039 41.6,193.039 55.04,185.841 55.04,185.841 41.6,178.64 41.6,178.64 55.04,171.439 55.04,171.439 48.32,167.84 48.32,167.84 48.32,170.24" fill="none" stroke="black" stroke-width="1.067"/>
</g>
<g id="s93">
<text x="61.12" y="189.44" text-anchor="middle" dominant-baseline="central">R_0</text>
</g>
<g id="s94">
<polyline points="48.32,298.88 48.32,308.48" fill="none" stroke="black" stroke-width="1.067"/>
</g>
<g id="s95">
<polyline points="228.8,298.88 228.8,308.48" fill="none" stroke="black" stroke-width="1.067"/>
</g>
<g id="s96">
<polyline points="334.4,298.88 334.4,308.48" fill="none" stroke="black" stroke-width="1.067"/>
</g>
<g id="s97">
<polyline points="392,298.88 392,308.48" fill="none" stroke="black" stroke-width="1.067"/>
</g>
<g id="s98">
<polyline points="392,22.4 392,12.8" fill="none" stroke="black" stroke-width="1.067"/>
</g>
<g id="s99">
<polyline points="334.4,22.4 334.4,12.8" fill="none" stroke="black" stroke-width="1.067"/>
</g>
<g id="s100">
<polyline points="263.36,22.4 263.36,12.8" fill="none" stroke="black" stroke-width="1.067"/>
</g>
<g id="s101">
<polyline points="121.28,22.4 121.28,12.8" fill="none" stroke="black" stroke-width="1.067"/>
</g>
<g id="s102">
<polyline points="48.32,170.24 48.32,122.24 48.32,12.8" fill="none" stroke="black" stroke-width="1.067"/>
</g>
<g id="s103">
<polyline points="48.32,308.48 96.32,308.48 392,308.48" fill="none" stroke="black" stroke-width="1.067"/>
<text x="220.16" y="308.48" text-anchor="middle" dominant-baseline="central">$V_{ss}$</text>
</g>
<g id="s104">
<polyline points="48.32,12.8 96.32,12.8 392,12.8" fill="none" stroke="black" stroke-width="1.067"/>
<text x="220.16" y="12.8" text-anchor="middle" dominant-baseline="central">$V_{cc}$</text>
</g>
<g id="s105">
<polyline points="48.32,218.24 109.76,218.24 109.76,258.56" fill="none" stroke="black" stroke-width="1.067"/>
</g>
<g id="s106">
<polyline points="182.72,62.72 182.72,103.04 121.28,103.04" fill="none" stroke="black" stroke-width="1.067"/>
</g>
<g id="s107">
<polyline points="121.28,103.04 121.28,122.24" fill="none" stroke="black" stroke-width="1.067"/>
</g>
<g id="s108">
<polyline points="263.36,103.04 263.36,122.24" fill="none" stroke="black" stroke-width="1.067"/>
</g>
<g id="s109">
<polyline points="330.56,62.72 320.96,62.72" fill="none" stroke="black" stroke-width="1.067"/>
</g>
<g id="s110">
<polyline points="330.56,258.56 320.96,258.56" fill="none" stroke="black" stroke-width="1.067"/>
</g>
<g id="s111">
<polyline points="320.96,62.72 320.96,258.56" fill="none" stroke="black" stroke-width="1.067"/>
</g>
<g id="s112">
<polyline points="334.4,103.04 334.4,218.24" fill="none" stroke="black" stroke-width="1.067"/>
</g>
<g id="s113">
<polyline points="320.96,160.64 334.4,160.64" fill="none" stroke="black" stroke-width="1.067"/>
</g>
<g id="s114">
<polyline points="201.92,62.72 182.72,62.72" fill="none" stroke="black" stroke-width="1.067"/>
</g>
<g id="s115">
<polyline points="272.96,62.72 263.36,62.72 263.36,91.52" fill="none" stroke="black" stroke-width="1.067"/>
</g>
<g id="s116">
<polyline points="263.36,91.52 263.36,91.52" fill="none" stroke="black" stroke-width="1.067"/>
</g>
<g id="s117">
</g>
<g id="s118">
<polyline points="263.36,91.52 276.16,91.52" fill="none" stroke="black" stroke-width="1.067" stroke-dasharray="1,3" stroke-linecap="round"/>
</g>
<g id="s119">
</g>
<g id="s120">
<polyline points="276.16,91.52 276.64,91.52" fill="none" stroke="black" stroke-width="1.067"/>
</g>
<g id="s121">
<polyline points="276.64,79.04 276.64,104" fill="none" stroke="black" stroke-width="1.067"/>
</g>
<g id="s122">
<polyline points="283.36,79.04 283.36,104" fill="none" stroke="black" stroke-width="1.067"/>
</g>
<g id="s123">
<polyline points="283.36,91.52 283.84,91.52" fill="none" stroke="black" stroke-width="1.067"/>
</g>
<g id="s124">
<text x="296.4" y="91.52" text-anchor="middle" dominant-baseline="central">C</text>
</g>
<g id="s125">
<polyline points="283.84,91.52 296.64,91.52" fill="none" stroke="black" stroke-width="1.067" stroke-dasharray="1,3" stroke-linecap="round"/>
</g>
<g id="s126">
<polyline points="263.36,202.88 263.36,222.08" fill="none" stroke="black" stroke-width="1.067"/>
</g>
<g id="s127">
<polyline points="121.28,202.88 121.28,222.08" fill="none" stroke="black" stroke-width="1.067"/>
</g>
<g id="s128">
<polyline points="263.36,222.08 121.28,222.08" fill="none" stroke="black" stroke-width="1.067"/>
</g>
<g id="s129">
<polyline points="228.8,218.24 192.32,222.08" fill="none" stroke="black" stroke-width="1.067"/>
</g>
<g id="s130">
<polyline points="392,160.64 411.2,160.64" fill="none" stroke="black" stroke-width="1.067"/>
</g>
<g id="s131">
<circle cx="411.2" cy="164.48" r="3.84" fill="rgb(0,0,0)" stroke="black" stroke-width="1.067"/>
</g>
<g id="s132">
<text x="388.8" y="160.64" text-anchor="middle" dominant-baseline="central">V_{sa}</text>
</g>
<g id="s133">
</g>
<g id="s134">
<circle cx="324.8" cy="166.4" r="3.84" fill="rgb(0,0,0)" stroke="black" stroke-width="1.067"/>
</g>
<g id="s135">
<text x="388.8" y="160.64" text-anchor="middle" dominant-baseline="central">V_{en+}</text>
</g>
<g id="s136">
</g>
<g id="s137">
<circle cx="59.84" cy="166.4" r="3.84" fill="rgb(0,0,0)" stroke="black" stroke-width="1.067"/>
</g>
<g id="s138">
<text x="414.4" y="160.64" text-anchor="middle" dominant-baseline="central">V_{en-}</text>
</g>
<g id="s139">
</g>
<g id="s140">
<polyline points="38.72,327.68 92.48,327.68" fill="none" stroke="black" stroke-width="1.067" stroke-dasharray="1,3" stroke-linecap="round"/>
<text x="65.6" y="327.68" text-anchor="middle" dominant-baseline="central">\tiny \Gray{1}</text>
</g>
<g id="s141">
<polyline points="92.48,327.68 217.28,327.68" fill="none" stroke="black" stroke-width="1.067" stroke-dasharray="1,3" stroke-linecap="round"/>
<text x="154.88" y="327.68" text-anchor="middle" dominant-baseline="central">\tiny \Gray{2}</text>
</g>
<g id="s142">
<polyline points="217.28,327.68 274.88,327.68" fill="none" stroke="black" stroke-width="1.067" stroke-dasharray="1,3" stroke-linecap="round"/>
<text x="246.08" y="327.68" text-anchor="middle" dominant-baseline="central">\tiny \Gray{3}</text>
</g>
<g id="s143">
<polyline points="274.88,327.68 326.72,327.68" fill="none" stroke="black" stroke-width="1.067" stroke-dasharray="1,3" stroke-linecap="round"/>
<text x="300.8" y="327.68" text-anchor="middle" dominant-baseline="central">\tiny \Gray{4}</text>
</g>
<g id="s144">
<polyline points="92.48,327.68 92.48,78.08" fill="none" stroke="black" stroke-width="1.067" stroke-dasharray="1,3" stroke-linecap="round"/>
</g>
<g id="s145">
<polyline points="217.28,327.68 217.28,78.08" fill="none" stroke="black" stroke-width="1.067" stroke-dasharray="1,3" stroke-linecap="round"/>
</g>
<g id="s146">
<polyline points="274.88,327.68 274.88,78.08" fill="none" stroke="black" stroke-width="1.067" stroke-dasharray="1,3" stroke-linecap="round"/>
</g>
<g id="s147">
<polyline points="326.72,327.68 326.72,78.08" fill="none" stroke="black" stroke-width="1.067" stroke-dasharray="1,3" stroke-linecap="round"/>
</g>
<g id="s148">
<polyline points="326.72,78.08 278.72,78.08 65.6,78.08 65.6,78.08 65.6,126.08 65.6,327.68" fill="none" stroke="black" stroke-width="1.067" stroke-dasharray="1,3" stroke-linecap="round"/>
</g>
</svg>
