<svg xmlns="http://www.w3.org/2000/svg" width="167.146667" height="135.84" viewBox="0 0 167.146667 135.84" font-family="sans-serif" font-size="14.666667" fill="none">
<g id="s0">
<circle cx="61.12" cy="81.92" r="28.8" fill="none" stroke="black" stroke-width="1.6"/>
</g>
<g id="s1">
<line x1="55.36" y1="97.28" x2="55.36" y2="66.56" stroke="black" stroke-width="1.6"/>
</g>
<g id="s2">
<line x1="15.04" y1="81.92" x2="55.36" y2="81.92" stroke="black" stroke-width="1.6"/>
</g>
<g id="s3">
<line x1="55.36" y1="75.2" x2="76.48" y2="60.8" stroke="black" stroke-width="1.6"/>
</g>
<g id="s4">
<line x1="76.48" y1="60.8" x2="76.48" y2="41.6" stroke="black" stroke-width="1.6"/>
</g>
<g id="s5">
<line x1="55.36" y1="88.64" x2="73.754702" y2="101.181842" stroke="black" stroke-width="1.6"/>
<polygon stroke-width="0" points="69.900226,95.649021 76.48,103.04 67.196209,99.614912" fill="black"/>
</g>
<g id="s6">
<line x1="76.48" y1="103.04" x2="76.48" y2="122.24" stroke="black" stroke-width="1.6"/>
</g>
<g id="s7">
</g>
<g id="s8">
<line x1="76.48" y1="41.6" x2="76.48" y2="32" stroke="black" stroke-width="1.6"/>
</g>
<g id="s9">
</g>
<g id="s10">
<polyline points="76.48,32 76.48,44 76.48,44 69.76,40.40144 69.76,40.40144 83.2,33.2 83.2,33.2 69.76,25.99856 69.76,25.99856 83.2,18.80144 83.2,18.80144 69.76,11.6 69.76,11.6 83.2,4.39856 83.2,4.39856 76.48,0.8 76.48,0.8 76.48,12.8" fill="none" stroke="black" stroke-width="1.6"/>
</g>
<g id="s11">
<line x1="76.48" y1="12.8" x2="76.48" y2="3.2" stroke="black" stroke-width="1.6"/>
</g>
<g id="s12">
<line x1="57.28" y1="3.2" x2="95.68" y2="3.2" stroke="black" stroke-width="1.6"/>
<text font-size="11pt" stroke-width="0.2pt" fill="black" x="76.48" y="0.533333" text-anchor="middle">$V_{cc}$</text>
</g>
<g id="s13">
</g>
<g id="s14">
<line x1="76.48" y1="122.24" x2="76.48" y2="131.84" stroke="black" stroke-width="1.6"/>
</g>
<g id="s15">
<line x1="57.28" y1="131.84" x2="95.68" y2="131.84" stroke="black" stroke-width="1.6"/>
<text font-size="11pt" stroke-width="0.2pt" fill="black" x="76.48" y="144.186667" text-anchor="middle">$V_{ss}$</text>
</g>
<g id="s16">
</g>
<g id="s17">
<line x1="15.04" y1="81.92" x2="5.44" y2="81.92" stroke="black" stroke-width="1.6"/>
</g>
<g id="s18">
<circle cx="5.44" cy="85.76" r="3.84" fill="rgb(0,0,0)" stroke="black" stroke-width="1.6"/>
</g>
<g id="s19">
<text font-size="11pt" stroke-width="0.266667" fill="black" x="20.906667" y="90.6" text-anchor="start">V_{en}</text>
</g>
<g id="s20">
</g>
<g id="s21">
<line x1="76.48" y1="41.6" x2="95.68" y2="41.6" stroke="black" stroke-width="1.6"/>
</g>
<g id="s22">
<circle cx="95.68" cy="37.76" r="3.84" fill="rgb(0,0,0)" stroke="black" stroke-width="1.6"/>
</g>
<g id="s23">
<text font-size="11pt" stroke-width="0.266667" fill="black" x="111.146667" y="42.6" text-anchor="start">V_{sa}</text>
</g>
<g id="s24">
</g>
</svg>
