<svg xmlns="http://www.w3.org/2000/svg" width="146.88" height="242.88" viewBox="0 0 146.88 242.88" font-family="sans-serif" font-size="14.666667" fill="none">
<g id="s0">
<circle cx="105.28" cy="188.96" r="28.8" fill="none" stroke="black" stroke-width="1.6"/>
</g>
<g id="s1">
<line x1="99.52" y1="173.6" x2="99.52" y2="204.32" stroke="black" stroke-width="1.6"/>
</g>
<g id="s2">
<line x1="59.2" y1="188.96" x2="99.52" y2="188.96" stroke="black" stroke-width="1.6"/>
</g>
<g id="s3">
<line x1="99.52" y1="195.68" x2="120.64" y2="210.08" stroke="black" stroke-width="1.6"/>
</g>
<g id="s4">
<line x1="120.64" y1="210.08" x2="120.64" y2="229.28" stroke="black" stroke-width="1.6"/>
</g>
<g id="s5">
<line x1="120.64" y1="167.84" x2="102.245298" y2="180.381842" stroke="black" stroke-width="1.6"/>
<polygon stroke-width="0" points="108.803791,178.814912 99.52,182.24 106.099774,174.849021" fill="black"/>
</g>
<g id="s6">
<line x1="120.64" y1="167.84" x2="120.64" y2="148.64" stroke="black" stroke-width="1.6"/>
</g>
<g id="s7">
<line x1="120.64" y1="148.64" x2="120.64" y2="91.04" stroke="black" stroke-width="1.6"/>
</g>
<g id="s8">
<circle cx="105.28" cy="50.72" r="28.8" fill="none" stroke="black" stroke-width="1.6"/>
</g>
<g id="s9">
<line x1="99.52" y1="66.08" x2="99.52" y2="35.36" stroke="black" stroke-width="1.6"/>
</g>
<g id="s10">
<line x1="59.2" y1="50.72" x2="99.52" y2="50.72" stroke="black" stroke-width="1.6"/>
</g>
<g id="s11">
<line x1="99.52" y1="44" x2="120.64" y2="29.6" stroke="black" stroke-width="1.6"/>
</g>
<g id="s12">
<line x1="120.64" y1="29.6" x2="120.64" y2="10.4" stroke="black" stroke-width="1.6"/>
</g>
<g id="s13">
<line x1="99.52" y1="57.44" x2="117.914702" y2="69.981842" stroke="black" stroke-width="1.6"/>
<polygon stroke-width="0" points="114.060226,64.449021 120.64,71.84 111.356209,68.414912" fill="black"/>
</g>
<g id="s14">
<line x1="120.64" y1="71.84" x2="120.64" y2="91.04" stroke="black" stroke-width="1.6"/>
</g>
<g id="s15">
</g>
<g id="s16">
<line x1="120.64" y1="229.28" x2="120.64" y2="238.88" stroke="black" stroke-width="1.6"/>
</g>
<g id="s17">
<line x1="120.64" y1="10.4" x2="120.64" y2="0.8" stroke="black" stroke-width="1.6"/>
</g>
<g id="s18">
<line x1="59.2" y1="50.72" x2="49.6" y2="50.72" stroke="black" stroke-width="1.6"/>
</g>
<g id="s19">
<line x1="59.2" y1="188.96" x2="49.6" y2="188.96" stroke="black" stroke-width="1.6"/>
</g>
<g id="s20">
<line x1="49.6" y1="50.72" x2="49.6" y2="188.96" stroke="black" stroke-width="1.6"/>
</g>
<g id="s21">
<line x1="101.44" y1="238.88" x2="139.84" y2="238.88" stroke="black" stroke-width="1.6"/>
<text font-size="11pt" stroke-width="0.2pt" fill="black" x="120.64" y="251.226667" text-anchor="middle">$V_{ss}$</text>
</g>
<g id="s22">
<line x1="101.44" y1="0.8" x2="139.84" y2="0.8" stroke="black" stroke-width="1.6"/>
<text font-size="11pt" stroke-width="0.2pt" fill="black" x="120.64" y="-1.866667" text-anchor="middle">$V_{cc}$</text>
</g>
<g id="s23">
<line x1="120.64" y1="119.84" x2="139.84" y2="119.84" stroke="black" stroke-width="1.6"/>
</g>
<g id="s24">
<circle cx="139.84" cy="123.68" r="3.84" fill="rgb(0,0,0)" stroke="black" stroke-width="1.6"/>
</g>
<g id="s25">
<text font-size="11pt" stroke-width="0.266667" fill="black" x="124.373333" y="128.52" text-anchor="end">V_{sa}</text>
</g>
<g id="s26">
<line x1="49.6" y1="119.84" x2="40" y2="119.84" stroke="black" stroke-width="1.6"/>
</g>
<g id="s27">
<circle cx="40" cy="116" r="3.84" fill="rgb(0,0,0)" stroke="black" stroke-width="1.6"/>
</g>
<g id="s28">
<text font-size="11pt" stroke-width="0.266667" fill="black" x="24.533333" y="120.84" text-anchor="end">V_{en}</text>
</g>
<g id="s29">
</g>
</svg>
