<svg xmlns="http://www.w3.org/2000/svg" width="311.36" height="180.8" viewBox="0 0 311.36 180.8" font-family="sans-serif" font-size="14.667">
<g id="s0">
<circle cx="8.8" cy="54.88" r="4.8" fill="none" stroke="black" stroke-width="1.067"/>
</g>
<g id="s1">
<polyline points="13.6,54.88 23.2,54.88" fill="none" stroke="black" stroke-width="1.067"/>
</g>
<g id="s2">
</g>
<g id="s3">
<polyline points="23.2,54.88 20.8,54.88 20.8,54.88 24.399,48.16 24.399,48.16 31.6,61.6 31.6,61.6 38.801,48.16 38.801,48.16 45.999,61.6 45.999,61.6 53.2,48.16 53.2,48.16 60.401,61.6 60.401,61.6 64,54.88 64,54.88 61.6,54.88" fill="none" stroke="black" stroke-width="1.067"/>
</g>
<g id="s4">
<text x="29.6" y="54.88" text-anchor="middle" dominant-baseline="central">R</text>
</g>
<g id="s5">
<polyline points="61.6,54.88 80.8,54.88" fill="none" stroke="black" stroke-width="1.067"/>
</g>
<g id="s6">
</g>
<g id="s7">
<polyline points="80.8,54.88 78.4,54.88 78.4,54.88 81.999,48.16 81.999,48.16 89.2,61.6 89.2,61.6 96.401,48.16 96.401,48.16 103.599,61.6 103.599,61.6 110.8,48.16 110.8,48.16 118.001,61.6 118.001,61.6 121.6,54.88 121.6,54.88 119.2,54.88" fill="none" stroke="black" stroke-width="1.067"/>
</g>
<g id="s8">
<text x="87.2" y="54.88" text-anchor="middle" dominant-baseline="central">R</text>
</g>
<g id="s9">
<polyline points="119.2,54.88 138.4,54.88" fill="none" stroke="black" stroke-width="1.067"/>
</g>
<g id="s10">
<polyline points="138.4,54.88 157.6,54.88" fill="none" stroke="black" stroke-width="1.067"/>
</g>
<g id="s11">
</g>
<g id="s12">
<polyline points="174.88,38.08 242.08,71.68 242.08,71.68 174.88,105.28 174.88,105.28 174.88,38.08" fill="none" stroke="black" stroke-width="1.067"/>
</g>
<g id="s13">
<polyline points="157.6,54.88 174.88,54.88" fill="none" stroke="black" stroke-width="1.067"/>
</g>
<g id="s14">
<polyline points="157.6,88.48 174.88,88.48" fill="none" stroke="black" stroke-width="1.067"/>
</g>
<g id="s15">
<polyline points="242.08,71.68 259.36,71.68" fill="none" stroke="black" stroke-width="1.067"/>
</g>
<g id="s16">
<polyline points="178.72,54.88 185.44,54.88" fill="none" stroke="black" stroke-width="1.067"/>
</g>
<g id="s17">
<polyline points="178.72,88.48 185.44,88.48" fill="none" stroke="black" stroke-width="1.067"/>
</g>
<g id="s18">
<polyline points="182.08,85.12 182.08,91.84" fill="none" stroke="black" stroke-width="1.067"/>
</g>
<g id="s19">
<polyline points="71.2,54.88 71.2,16.48 128.8,16.48" fill="none" stroke="black" stroke-width="1.067"/>
</g>
<g id="s20">
</g>
<g id="s21">
<polyline points="128.8,16.48 144.64,16.48" fill="none" stroke="black" stroke-width="1.067"/>
</g>
<g id="s22">
<polyline points="144.64,4 144.64,28.96" fill="none" stroke="black" stroke-width="1.067"/>
</g>
<g id="s23">
<polyline points="151.36,4 151.36,28.96" fill="none" stroke="black" stroke-width="1.067"/>
</g>
<g id="s24">
<polyline points="151.36,16.48 167.2,16.48" fill="none" stroke="black" stroke-width="1.067"/>
</g>
<g id="s25">
<text x="146.48" y="16.48" text-anchor="middle" dominant-baseline="central">C</text>
</g>
<g id="s26">
<polyline points="167.2,16.48 224.8,16.48" fill="none" stroke="black" stroke-width="1.067"/>
</g>
<g id="s27">
<polyline points="224.8,16.48 224.8,64.48" fill="none" stroke="black" stroke-width="1.067"/>
</g>
<g id="s28">
</g>
<g id="s29">
</g>
<g id="s30">
<polyline points="128.8,54.88 128.8,70.72" fill="none" stroke="black" stroke-width="1.067"/>
</g>
<g id="s31">
<polyline points="141.28,70.72 116.32,70.72" fill="none" stroke="black" stroke-width="1.067"/>
</g>
<g id="s32">
<polyline points="141.28,77.44 116.32,77.44" fill="none" stroke="black" stroke-width="1.067"/>
</g>
<g id="s33">
<polyline points="128.8,77.44 128.8,93.28" fill="none" stroke="black" stroke-width="1.067"/>
</g>
<g id="s34">
<text x="141.6" y="85.36" text-anchor="middle" dominant-baseline="central">C</text>
</g>
<g id="s35">
<polyline points="128.8,93.28 128.8,104.8" fill="none" stroke="black" stroke-width="1.067"/>
</g>
<g id="s36">
<polyline points="116.32,104.8 141.28,104.8" fill="none" stroke="black" stroke-width="1.067"/>
</g>
<g id="s37">
<polyline points="121.12,109.6 136.48,109.6" fill="none" stroke="black" stroke-width="1.067"/>
</g>
<g id="s38">
<polyline points="125.92,114.4 131.68,114.4" fill="none" stroke="black" stroke-width="1.067"/>
</g>
<g id="s39">
<polyline points="259.36,71.68 297.76,71.68" fill="none" stroke="black" stroke-width="1.067"/>
</g>
<g id="s40">
<circle cx="302.56" cy="71.68" r="4.8" fill="none" stroke="black" stroke-width="1.067"/>
</g>
<g id="s41">
<polyline points="157.6,88.48 148,88.48 148,117.28" fill="none" stroke="black" stroke-width="1.067"/>
</g>
<g id="s42">
<polyline points="148,117.28 196,117.28" fill="none" stroke="black" stroke-width="1.067"/>
</g>
<g id="s43">
</g>
<g id="s44">
<polyline points="196,117.28 196,119.68 196,119.68 189.28,116.081 189.28,116.081 202.72,108.88 202.72,108.88 189.28,101.679 189.28,101.679 202.72,94.481 202.72,94.481 189.28,87.28 189.28,87.28 202.72,80.079 202.72,80.079 196,76.48 196,76.48 196,78.88" fill="none" stroke="black" stroke-width="1.067"/>
</g>
<g id="s45">
<text x="183.2" y="98.08" text-anchor="middle" dominant-baseline="central">R_2</text>
</g>
<g id="s46">
<polyline points="196,78.88 196,30.88" fill="none" stroke="black" stroke-width="1.067"/>
</g>
<g id="s47">
</g>
<g id="s48">
</g>
<g id="s49">
<polyline points="196,117.28 196,114.88 196,114.88 202.72,118.479 202.72,118.479 189.28,125.68 189.28,125.68 202.72,132.881 202.72,132.881 189.28,140.079 189.28,140.079 202.72,147.28 202.72,147.28 189.28,154.481 189.28,154.481 196,158.08 196,158.08 196,155.68" fill="none" stroke="black" stroke-width="1.067"/>
</g>
<g id="s50">
<text x="208.8" y="136.48" text-anchor="middle" dominant-baseline="central">R_1</text>
</g>
<g id="s51">
<polyline points="196,155.68 196,167.2" fill="none" stroke="black" stroke-width="1.067"/>
</g>
<g id="s52">
<polyline points="183.52,167.2 208.48,167.2" fill="none" stroke="black" stroke-width="1.067"/>
</g>
<g id="s53">
<polyline points="188.32,172 203.68,172" fill="none" stroke="black" stroke-width="1.067"/>
</g>
<g id="s54">
<polyline points="193.12,176.8 198.88,176.8" fill="none" stroke="black" stroke-width="1.067"/>
</g>
</svg>
