<svg xmlns="http://www.w3.org/2000/svg" width="225.92" height="128.28" viewBox="0 0 225.92 128.28" font-family="sans-serif" font-size="14.666667" fill="none">
<g id="s0">
<circle cx="5.44" cy="5.64" r="3.84" fill="rgb(0,0,0)" stroke="black" stroke-width="1.6"/>
</g>
<g id="s1">
<text font-size="11pt" stroke-width="0.266667" fill="black" x="20.906667" y="10.48" text-anchor="start">+</text>
</g>
<g id="s2">
<line x1="18.24" y1="10.48" x2="27.84" y2="10.48" stroke="black" stroke-width="1.6"/>
</g>
<g id="s3">
</g>
<g id="s4">
<polyline points="27.84,10.48 25.44,10.48 25.44,10.48 29.03856,3.76 29.03856,3.76 36.24,17.2 36.24,17.2 43.44144,3.76 43.44144,3.76 50.63856,17.2 50.63856,17.2 57.84,3.76 57.84,3.76 65.04144,17.2 65.04144,17.2 68.64,10.48 68.64,10.48 66.24,10.48" fill="none" stroke="black" stroke-width="1.6"/>
</g>
<g id="s5">
<text font-size="11pt" stroke-width="0.266667" fill="black" x="31.573333" y="15.32" text-anchor="end">R_1</text>
</g>
<g id="s6">
<line x1="34.24" y1="10.48" x2="53.44" y2="10.48" stroke="black" stroke-width="1.6"/>
</g>
<g id="s7">
</g>
<g id="s8">
<polyline points="53.44,10.48 51.04,10.48 51.04,10.48 54.63856,3.76 54.63856,3.76 61.84,17.2 61.84,17.2 69.04144,3.76 69.04144,3.76 76.23856,17.2 76.23856,17.2 83.44,3.76 83.44,3.76 90.64144,17.2 90.64144,17.2 94.24,10.48 94.24,10.48 91.84,10.48" fill="none" stroke="black" stroke-width="1.6"/>
</g>
<g id="s9">
<text font-size="11pt" stroke-width="0.266667" fill="black" x="57.173333" y="15.32" text-anchor="end">R_2</text>
</g>
<g id="s10">
<polyline points="43.84,10.48 43.84,39.28 53.44,39.28" fill="none" stroke="black" stroke-width="1.6"/>
</g>
<g id="s11">
</g>
<g id="s12">
<polyline points="70.72,22.48 137.92,56.08 137.92,56.08 70.72,89.68 70.72,89.68 70.72,22.48" fill="none" stroke="black" stroke-width="1.6"/>
</g>
<g id="s13">
<line x1="53.44" y1="39.28" x2="70.72" y2="39.28" stroke="black" stroke-width="1.6"/>
</g>
<g id="s14">
<line x1="53.44" y1="72.88" x2="70.72" y2="72.88" stroke="black" stroke-width="1.6"/>
</g>
<g id="s15">
<line x1="137.92" y1="56.08" x2="155.2" y2="56.08" stroke="black" stroke-width="1.6"/>
</g>
<g id="s16">
<line x1="74.56" y1="39.28" x2="81.28" y2="39.28" stroke="black" stroke-width="1.6"/>
</g>
<g id="s17">
<line x1="74.56" y1="72.88" x2="81.28" y2="72.88" stroke="black" stroke-width="1.6"/>
</g>
<g id="s18">
<line x1="77.92" y1="69.52" x2="77.92" y2="76.24" stroke="black" stroke-width="1.6"/>
</g>
<g id="s19">
<polyline points="91.84,10.48 101.44,10.48 101.44,48.88" fill="none" stroke="black" stroke-width="1.6"/>
</g>
<g id="s20">
<line x1="155.2" y1="56.08" x2="193.6" y2="56.08" stroke="black" stroke-width="1.6"/>
</g>
<g id="s21">
<circle cx="197.44" cy="56.08" r="3.84" fill="rgb(0,0,0)" stroke="black" stroke-width="1.6"/>
</g>
<g id="s22">
<text font-size="11pt" stroke-width="0.266667" fill="black" x="181.973333" y="60.92" text-anchor="end">+</text>
</g>
<g id="s23">
</g>
<g id="s24">
<text font-size="11pt" stroke-width="0.2pt" fill="black" x="5.44" y="29.68" text-anchor="middle">$V_{en}$</text>
</g>
<g id="s25">
<circle cx="5.44" cy="47.88" r="3.84" fill="rgb(0,0,0)" stroke="black" stroke-width="1.6"/>
</g>
<g id="s26">
<text font-size="11pt" stroke-width="0.266667" fill="black" x="20.906667" y="52.72" text-anchor="start">-</text>
</g>
<g id="s27">
<line x1="18.24" y1="52.72" x2="18.24" y2="64.24" stroke="black" stroke-width="1.6"/>
</g>
<g id="s28">
<line x1="5.76" y1="64.24" x2="30.72" y2="64.24" stroke="black" stroke-width="1.6"/>
</g>
<g id="s29">
<line x1="10.56" y1="69.04" x2="25.92" y2="69.04" stroke="black" stroke-width="1.6"/>
</g>
<g id="s30">
<line x1="15.36" y1="73.84" x2="21.12" y2="73.84" stroke="black" stroke-width="1.6"/>
</g>
<g id="s31">
</g>
<g id="s32">
<text font-size="11pt" stroke-width="0.2pt" fill="black" x="197.44" y="80.12" text-anchor="middle">$V_{sa}$</text>
</g>
<g id="s33">
<circle cx="197.44" cy="98.32" r="3.84" fill="rgb(0,0,0)" stroke="black" stroke-width="1.6"/>
</g>
<g id="s34">
<text font-size="11pt" stroke-width="0.266667" fill="black" x="212.906667" y="103.16" text-anchor="start">-</text>
</g>
<g id="s35">
<line x1="210.24" y1="103.16" x2="210.24" y2="114.68" stroke="black" stroke-width="1.6"/>
</g>
<g id="s36">
<line x1="197.76" y1="114.68" x2="222.72" y2="114.68" stroke="black" stroke-width="1.6"/>
</g>
<g id="s37">
<line x1="202.56" y1="119.48" x2="217.92" y2="119.48" stroke="black" stroke-width="1.6"/>
</g>
<g id="s38">
<line x1="207.36" y1="124.28" x2="213.12" y2="124.28" stroke="black" stroke-width="1.6"/>
</g>
<g id="s39">
<polyline points="53.44,72.88 43.84,72.88 43.84,82.48" fill="none" stroke="black" stroke-width="1.6"/>
</g>
<g id="s40">
<line x1="43.84" y1="82.48" x2="43.84" y2="94" stroke="black" stroke-width="1.6"/>
</g>
<g id="s41">
<line x1="31.36" y1="94" x2="56.32" y2="94" stroke="black" stroke-width="1.6"/>
</g>
<g id="s42">
<line x1="36.16" y1="98.8" x2="51.52" y2="98.8" stroke="black" stroke-width="1.6"/>
</g>
<g id="s43">
<line x1="40.96" y1="103.6" x2="46.72" y2="103.6" stroke="black" stroke-width="1.6"/>
</g>
</svg>
