<svg xmlns="http://www.w3.org/2000/svg" width="131.466667" height="46.026667" viewBox="0 0 131.466667 46.026667" font-family="sans-serif" font-size="14.666667" fill="none">
<g id="s0">
<line x1="52.266667" y1="29.68" x2="77.768182" y2="29.68" stroke="black" stroke-width="1.6"/>
<polygon stroke-width="0" points="71.466667,27.28 81.066667,29.68 71.466667,32.08" fill="black"/>
</g>
<g id="s1">
<text font-size="11pt" stroke-width="0.266667" fill="black" x="81.066667" y="42.026667" text-anchor="middle">$t$</text>
</g>
<g id="s2">
<line x1="57.066667" y1="34.48" x2="57.066667" y2="13.778485" stroke="black" stroke-width="1.6"/>
<polygon stroke-width="0" points="54.666667,20.08 57.066667,10.48 59.466667,20.08" fill="black"/>
</g>
<g id="s3">
<text font-size="11pt" stroke-width="0.266667" fill="black" x="54.4" y="10.48" text-anchor="end">$f(t)$</text>
</g>
<g id="s4">
<text font-size="11pt" stroke-width="0.266667" fill="black" x="54.4" y="42.026667" text-anchor="end">$0$</text>
</g>
<g id="s5">
<polyline points="57.066667,29.68 57.066667,24.88 61.866667,24.88 61.866667,20.08 66.666667,20.08 66.666667,15.28 71.466667,15.28 71.466667,29.68" fill="none" stroke="black" stroke-width="1.6"/>
</g>
<g id="s6">
<text font-size="11pt" stroke-width="0.266667" fill="black" x="71.466667" y="42.026667" text-anchor="middle">${T}$</text>
</g>
<g id="s7">
<text font-size="11pt" stroke-width="0.266667" fill="black" x="66.666667" y="42.026667" text-anchor="middle">$\frac{2T}{3}$</text>
</g>
<g id="s8">
<text font-size="11pt" stroke-width="0.266667" fill="black" x="61.866667" y="42.026667" text-anchor="middle">$\frac{T}{3}$</text>
</g>
<g id="s9">
<text font-size="11pt" stroke-width="0.266667" fill="black" x="54.4" y="29.72" text-anchor="end">$1$</text>
</g>
<g id="s10">
<text font-size="11pt" stroke-width="0.266667" fill="black" x="54.4" y="24.92" text-anchor="end">$2$</text>
</g>
<g id="s11">
<text font-size="11pt" stroke-width="0.266667" fill="black" x="54.4" y="20.12" text-anchor="end">$3$</text>
</g>
<g id="s12">
<text font-size="11pt" stroke-width="0.266667" fill="black" x="47.466667" y="24.92" text-anchor="middle">$\dots$</text>
</g>
<g id="s13">
<text font-size="11pt" stroke-width="0.266667" fill="black" x="76.266667" y="24.92" text-anchor="middle">$\dots$</text>
</g>
</svg>
