<svg xmlns="http://www.w3.org/2000/svg" width="227.52" height="224.24" viewBox="0 0 227.52 224.24" font-family="sans-serif" font-size="14.666667" fill="none">
<g id="s0">
<circle cx="30.4" cy="125.16" r="28.8" fill="none" stroke="black" stroke-width="1.6"/>
</g>
<g id="s1">
<line x1="36.16" y1="140.52" x2="36.16" y2="109.8" stroke="black" stroke-width="1.6"/>
</g>
<g id="s2">
<line x1="76.48" y1="125.16" x2="36.16" y2="125.16" stroke="black" stroke-width="1.6"/>
</g>
<g id="s3">
<line x1="36.16" y1="118.44" x2="15.04" y2="104.04" stroke="black" stroke-width="1.6"/>
</g>
<g id="s4">
<line x1="15.04" y1="104.04" x2="15.04" y2="84.84" stroke="black" stroke-width="1.6"/>
</g>
<g id="s5">
<line x1="36.16" y1="131.88" x2="17.765298" y2="144.421842" stroke="black" stroke-width="1.6"/>
<polygon stroke-width="0" points="24.323791,142.854912 15.04,146.28 21.619774,138.889021" fill="black"/>
</g>
<g id="s6">
<line x1="15.04" y1="146.28" x2="15.04" y2="165.48" stroke="black" stroke-width="1.6"/>
</g>
<g id="s7">
</g>
<g id="s8">
<circle cx="160.96" cy="125.16" r="28.8" fill="none" stroke="black" stroke-width="1.6"/>
</g>
<g id="s9">
<line x1="155.2" y1="140.52" x2="155.2" y2="109.8" stroke="black" stroke-width="1.6"/>
</g>
<g id="s10">
<line x1="114.88" y1="125.16" x2="155.2" y2="125.16" stroke="black" stroke-width="1.6"/>
</g>
<g id="s11">
<line x1="155.2" y1="118.44" x2="176.32" y2="104.04" stroke="black" stroke-width="1.6"/>
</g>
<g id="s12">
<line x1="176.32" y1="104.04" x2="176.32" y2="84.84" stroke="black" stroke-width="1.6"/>
</g>
<g id="s13">
<line x1="155.2" y1="131.88" x2="173.594702" y2="144.421842" stroke="black" stroke-width="1.6"/>
<polygon stroke-width="0" points="169.740226,138.889021 176.32,146.28 167.036209,142.854912" fill="black"/>
</g>
<g id="s14">
<line x1="176.32" y1="146.28" x2="176.32" y2="165.48" stroke="black" stroke-width="1.6"/>
</g>
<g id="s15">
<line x1="15.04" y1="165.48" x2="15.04" y2="175.08" stroke="black" stroke-width="1.6"/>
</g>
<g id="s16">
<line x1="176.32" y1="165.48" x2="176.32" y2="175.08" stroke="black" stroke-width="1.6"/>
</g>
<g id="s17">
<line x1="15.04" y1="175.08" x2="176.32" y2="175.08" stroke="black" stroke-width="1.6"/>
</g>
<g id="s18">
</g>
<g id="s19">
</g>
<g id="s20">
<polyline points="95.68,175.08 95.68,172.68 95.68,172.68 102.4,176.27856 102.4,176.27856 88.96,183.48 88.96,183.48 102.4,190.68144 102.4,190.68144 88.96,197.87856 88.96,197.87856 102.4,205.08 102.4,205.08 88.96,212.28144 88.96,212.28144 95.68,215.88 95.68,215.88 95.68,213.48" fill="none" stroke="black" stroke-width="1.6"/>
</g>
<g id="s21">
<text font-size="11pt" stroke-width="0.266667" fill="black" x="80.213333" y="199.12" text-anchor="end">R_{ee}</text>
</g>
<g id="s22">
<line x1="82.88" y1="199.12" x2="82.88" y2="210.64" stroke="black" stroke-width="1.6"/>
</g>
<g id="s23">
<line x1="70.4" y1="210.64" x2="95.36" y2="210.64" stroke="black" stroke-width="1.6"/>
</g>
<g id="s24">
<line x1="75.2" y1="215.44" x2="90.56" y2="215.44" stroke="black" stroke-width="1.6"/>
</g>
<g id="s25">
<line x1="80" y1="220.24" x2="85.76" y2="220.24" stroke="black" stroke-width="1.6"/>
</g>
<g id="s26">
<line x1="176.32" y1="84.84" x2="176.32" y2="46.44" stroke="black" stroke-width="1.6"/>
</g>
<g id="s27">
</g>
<g id="s28">
<line x1="176.32" y1="46.44" x2="176.32" y2="51.24" stroke="black" stroke-width="1.6"/>
</g>
<g id="s29">
<path d="M 176.32 51.24 C 174.4 50.24 172.48 49.24 170.56 48.24 166.72 46.24 166.72 44.24 170.56 42.24 174.4 40.24 174.4 38.24 170.56 36.24 166.72 34.24 166.72 32.24 170.56 30.24 174.4 28.24 174.4 26.24 170.56 24.24 166.72 22.24 166.72 20.24 170.56 18.24 174.4 16.24 174.4 14.24 170.56 12.24 166.72 10.24 166.72 8.24 170.56 6.24 172.48 5.24 174.4 4.24 176.32 3.24" fill="none" stroke="black" stroke-width="1.6"/>
</g>
<g id="s30">
<line x1="176.32" y1="3.24" x2="176.32" y2="8.04" stroke="black" stroke-width="1.6"/>
</g>
<g id="s31">
<text font-size="11pt" stroke-width="0.266667" fill="black" x="160.853333" y="10.48" text-anchor="end">L</text>
</g>
<g id="s32">
<line x1="176.32" y1="46.44" x2="147.52" y2="46.44" stroke="black" stroke-width="1.6"/>
</g>
<g id="s33">
</g>
<g id="s34">
<polyline points="147.52,46.44 147.52,48.84 147.52,48.84 140.8,45.24144 140.8,45.24144 154.24,38.04 154.24,38.04 140.8,30.83856 140.8,30.83856 154.24,23.64144 154.24,23.64144 140.8,16.44 140.8,16.44 154.24,9.23856 154.24,9.23856 147.52,5.64 147.52,5.64 147.52,8.04" fill="none" stroke="black" stroke-width="1.6"/>
</g>
<g id="s35">
<text font-size="11pt" stroke-width="0.266667" fill="black" x="132.053333" y="32.08" text-anchor="end">R</text>
</g>
<g id="s36">
<line x1="176.32" y1="46.44" x2="205.12" y2="46.44" stroke="black" stroke-width="1.6"/>
</g>
<g id="s37">
</g>
<g id="s38">
<line x1="205.12" y1="46.44" x2="205.12" y2="30.6" stroke="black" stroke-width="1.6"/>
</g>
<g id="s39">
<line x1="192.64" y1="30.6" x2="217.6" y2="30.6" stroke="black" stroke-width="1.6"/>
</g>
<g id="s40">
<line x1="192.64" y1="23.88" x2="217.6" y2="23.88" stroke="black" stroke-width="1.6"/>
</g>
<g id="s41">
<line x1="205.12" y1="23.88" x2="205.12" y2="8.04" stroke="black" stroke-width="1.6"/>
</g>
<g id="s42">
<text font-size="11pt" stroke-width="0.266667" fill="black" x="189.653333" y="20.8" text-anchor="end">C</text>
</g>
<g id="s43">
<line x1="192.32" y1="11.12" x2="144.32" y2="11.12" stroke="black" stroke-width="1.6"/>
<text font-size="11pt" stroke-width="0.2pt" fill="black" x="168.32" y="8.453333" text-anchor="middle">$V_{cc}$</text>
</g>
<g id="s44">
<polyline points="144.32,11.12 144.32,59.12 15.04,84.84" fill="none" stroke="black" stroke-width="1.6"/>
</g>
<g id="s45">
<line x1="15.04" y1="75.24" x2="43.84" y2="75.24" stroke="black" stroke-width="1.6"/>
</g>
<g id="s46">
<line x1="43.84" y1="75.24" x2="114.88" y2="125.16" stroke="black" stroke-width="1.6"/>
</g>
<g id="s47">
<line x1="176.32" y1="75.24" x2="147.52" y2="75.24" stroke="black" stroke-width="1.6"/>
</g>
<g id="s48">
<line x1="147.52" y1="75.24" x2="76.48" y2="125.16" stroke="black" stroke-width="1.6"/>
</g>
<g id="s49">
<line x1="176.32" y1="46.44" x2="214.72" y2="46.44" stroke="black" stroke-width="1.6"/>
</g>
<g id="s50">
<circle cx="219.52" cy="46.44" r="4.8" fill="none" stroke="black" stroke-width="1.6"/>
</g>
<g id="s51">
<text font-size="11pt" stroke-width="0.266667" fill="black" x="224.32" y="51.28" text-anchor="middle">$V_{sa}$</text>
</g>
<g id="s52">
</g>
<g id="s53">
<text font-size="11pt" stroke-width="0.266667" fill="black" x="39.04" y="130" text-anchor="middle">$Q_1$</text>
</g>
<g id="s54">
</g>
<g id="s55">
<text font-size="11pt" stroke-width="0.266667" fill="black" x="152.32" y="130" text-anchor="middle">$Q_2$</text>
</g>
</svg>
