<svg xmlns="http://www.w3.org/2000/svg" width="365.76" height="319.24" viewBox="0 0 365.76 319.24" font-family="sans-serif" font-size="14.666667" fill="none">
<g id="s0">
<circle cx="6.4" cy="101.12" r="4.8" fill="none" stroke="black" stroke-width="1.6"/>
</g>
<g id="s1">
<line x1="11.2" y1="101.12" x2="20.8" y2="101.12" stroke="black" stroke-width="1.6"/>
</g>
<g id="s2">
<circle cx="66.88" cy="101.12" r="28.8" fill="none" stroke="black" stroke-width="1.6"/>
</g>
<g id="s3">
<line x1="61.12" y1="116.48" x2="61.12" y2="85.76" stroke="black" stroke-width="1.6"/>
</g>
<g id="s4">
<line x1="20.8" y1="101.12" x2="61.12" y2="101.12" stroke="black" stroke-width="1.6"/>
</g>
<g id="s5">
<line x1="61.12" y1="94.4" x2="82.24" y2="80" stroke="black" stroke-width="1.6"/>
</g>
<g id="s6">
<line x1="82.24" y1="80" x2="82.24" y2="60.8" stroke="black" stroke-width="1.6"/>
</g>
<g id="s7">
<line x1="61.12" y1="107.84" x2="79.514702" y2="120.381842" stroke="black" stroke-width="1.6"/>
<polygon stroke-width="0" points="75.660226,114.849021 82.24,122.24 72.956209,118.814912" fill="black"/>
</g>
<g id="s8">
<line x1="82.24" y1="122.24" x2="82.24" y2="141.44" stroke="black" stroke-width="1.6"/>
</g>
<g id="s9">
<line x1="82.24" y1="141.44" x2="82.24" y2="151.04" stroke="black" stroke-width="1.6"/>
</g>
<g id="s10">
<line x1="82.24" y1="151.04" x2="120.64" y2="151.04" stroke="black" stroke-width="1.6"/>
</g>
<g id="s11">
<line x1="120.64" y1="151.04" x2="120.64" y2="141.44" stroke="black" stroke-width="1.6"/>
</g>
<g id="s12">
<circle cx="136" cy="101.12" r="28.8" fill="none" stroke="black" stroke-width="1.6"/>
</g>
<g id="s13">
<line x1="141.76" y1="116.48" x2="141.76" y2="85.76" stroke="black" stroke-width="1.6"/>
</g>
<g id="s14">
<line x1="182.08" y1="101.12" x2="141.76" y2="101.12" stroke="black" stroke-width="1.6"/>
</g>
<g id="s15">
<line x1="141.76" y1="94.4" x2="120.64" y2="80" stroke="black" stroke-width="1.6"/>
</g>
<g id="s16">
<line x1="120.64" y1="80" x2="120.64" y2="60.8" stroke="black" stroke-width="1.6"/>
</g>
<g id="s17">
<line x1="141.76" y1="107.84" x2="123.365298" y2="120.381842" stroke="black" stroke-width="1.6"/>
<polygon stroke-width="0" points="129.923791,118.814912 120.64,122.24 127.219774,114.849021" fill="black"/>
</g>
<g id="s18">
<line x1="120.64" y1="122.24" x2="120.64" y2="141.44" stroke="black" stroke-width="1.6"/>
</g>
<g id="s19">
<line x1="182.08" y1="101.12" x2="191.68" y2="101.12" stroke="black" stroke-width="1.6"/>
</g>
<g id="s20">
<circle cx="237.76" cy="101.12" r="28.8" fill="none" stroke="black" stroke-width="1.6"/>
</g>
<g id="s21">
<line x1="232" y1="116.48" x2="232" y2="85.76" stroke="black" stroke-width="1.6"/>
</g>
<g id="s22">
<line x1="191.68" y1="101.12" x2="232" y2="101.12" stroke="black" stroke-width="1.6"/>
</g>
<g id="s23">
<line x1="232" y1="94.4" x2="253.12" y2="80" stroke="black" stroke-width="1.6"/>
</g>
<g id="s24">
<line x1="253.12" y1="80" x2="253.12" y2="60.8" stroke="black" stroke-width="1.6"/>
</g>
<g id="s25">
<line x1="232" y1="107.84" x2="250.394702" y2="120.381842" stroke="black" stroke-width="1.6"/>
<polygon stroke-width="0" points="246.540226,114.849021 253.12,122.24 243.836209,118.814912" fill="black"/>
</g>
<g id="s26">
<line x1="253.12" y1="122.24" x2="253.12" y2="141.44" stroke="black" stroke-width="1.6"/>
</g>
<g id="s27">
<line x1="253.12" y1="141.44" x2="253.12" y2="151.04" stroke="black" stroke-width="1.6"/>
</g>
<g id="s28">
<line x1="253.12" y1="151.04" x2="291.52" y2="151.04" stroke="black" stroke-width="1.6"/>
</g>
<g id="s29">
<line x1="291.52" y1="151.04" x2="291.52" y2="141.44" stroke="black" stroke-width="1.6"/>
</g>
<g id="s30">
<circle cx="306.88" cy="101.12" r="28.8" fill="none" stroke="black" stroke-width="1.6"/>
</g>
<g id="s31">
<line x1="312.64" y1="116.48" x2="312.64" y2="85.76" stroke="black" stroke-width="1.6"/>
</g>
<g id="s32">
<line x1="352.96" y1="101.12" x2="312.64" y2="101.12" stroke="black" stroke-width="1.6"/>
</g>
<g id="s33">
<line x1="312.64" y1="94.4" x2="291.52" y2="80" stroke="black" stroke-width="1.6"/>
</g>
<g id="s34">
<line x1="291.52" y1="80" x2="291.52" y2="60.8" stroke="black" stroke-width="1.6"/>
</g>
<g id="s35">
<line x1="312.64" y1="107.84" x2="294.245298" y2="120.381842" stroke="black" stroke-width="1.6"/>
<polygon stroke-width="0" points="300.803791,118.814912 291.52,122.24 298.099774,114.849021" fill="black"/>
</g>
<g id="s36">
<line x1="291.52" y1="122.24" x2="291.52" y2="141.44" stroke="black" stroke-width="1.6"/>
</g>
<g id="s37">
<line x1="101.44" y1="151.04" x2="101.44" y2="170.24" stroke="black" stroke-width="1.6"/>
</g>
<g id="s38">
<circle cx="86.08" cy="210.56" r="28.8" fill="none" stroke="black" stroke-width="1.6"/>
</g>
<g id="s39">
<line x1="80.32" y1="225.92" x2="80.32" y2="195.2" stroke="black" stroke-width="1.6"/>
</g>
<g id="s40">
<line x1="40" y1="210.56" x2="80.32" y2="210.56" stroke="black" stroke-width="1.6"/>
</g>
<g id="s41">
<line x1="80.32" y1="203.84" x2="101.44" y2="189.44" stroke="black" stroke-width="1.6"/>
</g>
<g id="s42">
<line x1="101.44" y1="189.44" x2="101.44" y2="170.24" stroke="black" stroke-width="1.6"/>
</g>
<g id="s43">
<line x1="80.32" y1="217.28" x2="98.714702" y2="229.821842" stroke="black" stroke-width="1.6"/>
<polygon stroke-width="0" points="94.860226,224.289021 101.44,231.68 92.156209,228.254912" fill="black"/>
</g>
<g id="s44">
<line x1="101.44" y1="231.68" x2="101.44" y2="250.88" stroke="black" stroke-width="1.6"/>
</g>
<g id="s45">
<line x1="101.44" y1="250.88" x2="101.44" y2="260.48" stroke="black" stroke-width="1.6"/>
</g>
<g id="s46">
<polyline points="101.44,260.48 149.44,260.48 272.32,260.48" fill="none" stroke="black" stroke-width="1.6"/>
</g>
<g id="s47">
<line x1="272.32" y1="260.48" x2="272.32" y2="250.88" stroke="black" stroke-width="1.6"/>
</g>
<g id="s48">
<circle cx="287.68" cy="210.56" r="28.8" fill="none" stroke="black" stroke-width="1.6"/>
</g>
<g id="s49">
<line x1="293.44" y1="225.92" x2="293.44" y2="195.2" stroke="black" stroke-width="1.6"/>
</g>
<g id="s50">
<line x1="333.76" y1="210.56" x2="293.44" y2="210.56" stroke="black" stroke-width="1.6"/>
</g>
<g id="s51">
<line x1="293.44" y1="203.84" x2="272.32" y2="189.44" stroke="black" stroke-width="1.6"/>
</g>
<g id="s52">
<line x1="272.32" y1="189.44" x2="272.32" y2="170.24" stroke="black" stroke-width="1.6"/>
</g>
<g id="s53">
<line x1="293.44" y1="217.28" x2="275.045298" y2="229.821842" stroke="black" stroke-width="1.6"/>
<polygon stroke-width="0" points="281.603791,228.254912 272.32,231.68 278.899774,224.289021" fill="black"/>
</g>
<g id="s54">
<line x1="272.32" y1="231.68" x2="272.32" y2="250.88" stroke="black" stroke-width="1.6"/>
</g>
<g id="s55">
<line x1="272.32" y1="170.24" x2="272.32" y2="151.04" stroke="black" stroke-width="1.6"/>
</g>
<g id="s56">
<line x1="186.88" y1="260.48" x2="186.88" y2="270.08" stroke="black" stroke-width="1.6"/>
</g>
<g id="s57">
</g>
<g id="s58">
<polyline points="186.88,270.08 186.88,267.68 186.88,267.68 193.6,271.27856 193.6,271.27856 180.16,278.48 180.16,278.48 193.6,285.68144 193.6,285.68144 180.16,292.87856 180.16,292.87856 193.6,300.08 193.6,300.08 180.16,307.28144 180.16,307.28144 186.88,310.88 186.88,310.88 186.88,308.48" fill="none" stroke="black" stroke-width="1.6"/>
</g>
<g id="s59">
<text font-size="11pt" stroke-width="0.266667" fill="black" x="171.413333" y="294.12" text-anchor="end">R_{ee}</text>
</g>
<g id="s60">
<line x1="174.08" y1="294.12" x2="174.08" y2="305.64" stroke="black" stroke-width="1.6"/>
</g>
<g id="s61">
<line x1="161.6" y1="305.64" x2="186.56" y2="305.64" stroke="black" stroke-width="1.6"/>
</g>
<g id="s62">
<line x1="166.4" y1="310.44" x2="181.76" y2="310.44" stroke="black" stroke-width="1.6"/>
</g>
<g id="s63">
<line x1="171.2" y1="315.24" x2="176.96" y2="315.24" stroke="black" stroke-width="1.6"/>
</g>
<g id="s64">
<line x1="40" y1="210.56" x2="30.4" y2="210.56" stroke="black" stroke-width="1.6"/>
</g>
<g id="s65">
<circle cx="25.6" cy="210.56" r="4.8" fill="none" stroke="black" stroke-width="1.6"/>
</g>
<g id="s66">
<line x1="333.76" y1="210.56" x2="343.36" y2="210.56" stroke="black" stroke-width="1.6"/>
</g>
<g id="s67">
<line x1="343.36" y1="210.56" x2="343.36" y2="248.96" stroke="black" stroke-width="1.6"/>
</g>
<g id="s68">
<polyline points="343.36,248.96 295.36,248.96 30.4,248.96" fill="none" stroke="black" stroke-width="1.6"/>
</g>
<g id="s69">
<circle cx="25.6" cy="248.96" r="4.8" fill="none" stroke="black" stroke-width="1.6"/>
</g>
<g id="s70">
<line x1="352.96" y1="101.12" x2="362.56" y2="101.12" stroke="black" stroke-width="1.6"/>
</g>
<g id="s71">
<line x1="362.56" y1="101.12" x2="362.56" y2="139.52" stroke="black" stroke-width="1.6"/>
</g>
<g id="s72">
<polyline points="362.56,139.52 314.56,139.52 191.68,139.52" fill="none" stroke="black" stroke-width="1.6"/>
</g>
<g id="s73">
<polyline points="191.68,139.52 143.68,139.52 20.8,139.52" fill="none" stroke="black" stroke-width="1.6"/>
</g>
<g id="s74">
<polyline points="20.8,139.52 20.8,91.52 20.8,101.12" fill="none" stroke="black" stroke-width="1.6"/>
</g>
<g id="s75">
<line x1="186.88" y1="101.12" x2="186.88" y2="149.12" stroke="black" stroke-width="1.6"/>
</g>
<g id="s76">
<line x1="186.88" y1="149.12" x2="11.2" y2="149.12" stroke="black" stroke-width="1.6"/>
</g>
<g id="s77">
<circle cx="6.4" cy="149.12" r="4.8" fill="none" stroke="black" stroke-width="1.6"/>
</g>
<g id="s78">
<line x1="291.52" y1="60.8" x2="291.52" y2="41.6" stroke="black" stroke-width="1.6"/>
</g>
<g id="s79">
</g>
<g id="s80">
<polyline points="291.52,41.6 291.52,44 291.52,44 284.8,40.40144 284.8,40.40144 298.24,33.2 298.24,33.2 284.8,25.99856 284.8,25.99856 298.24,18.80144 298.24,18.80144 284.8,11.6 284.8,11.6 298.24,4.39856 298.24,4.39856 291.52,0.8 291.52,0.8 291.52,3.2" fill="none" stroke="black" stroke-width="1.6"/>
</g>
<g id="s81">
<text font-size="11pt" stroke-width="0.266667" fill="black" x="306.986667" y="27.24" text-anchor="start">R_c</text>
</g>
<g id="s82">
<line x1="253.12" y1="60.8" x2="253.12" y2="41.6" stroke="black" stroke-width="1.6"/>
</g>
<g id="s83">
</g>
<g id="s84">
<polyline points="253.12,41.6 253.12,44 253.12,44 246.4,40.40144 246.4,40.40144 259.84,33.2 259.84,33.2 246.4,25.99856 246.4,25.99856 259.84,18.80144 259.84,18.80144 246.4,11.6 246.4,11.6 259.84,4.39856 259.84,4.39856 253.12,0.8 253.12,0.8 253.12,3.2" fill="none" stroke="black" stroke-width="1.6"/>
</g>
<g id="s85">
<text font-size="11pt" stroke-width="0.266667" fill="black" x="237.653333" y="27.24" text-anchor="end">R_c</text>
</g>
<g id="s86">
<polyline points="230.72,17.56 278.72,17.56 301.12,3.2" fill="none" stroke="black" stroke-width="1.6"/>
<text font-size="11pt" stroke-width="0.2pt" fill="black" x="265.92" y="7.713333" text-anchor="middle">$V_{cc}$</text>
</g>
<g id="s87">
<line x1="120.64" y1="60.8" x2="120.64" y2="51.2" stroke="black" stroke-width="1.6"/>
</g>
<g id="s88">
<polyline points="120.64,51.2 168.64,51.2 291.52,51.2" fill="none" stroke="black" stroke-width="1.6"/>
</g>
<g id="s89">
<polyline points="82.24,60.8 82.24,41.6 253.12,41.6" fill="none" stroke="black" stroke-width="1.6"/>
</g>
<g id="s90">
<line x1="291.52" y1="41.6" x2="329.92" y2="41.6" stroke="black" stroke-width="1.6"/>
</g>
<g id="s91">
<circle cx="334.72" cy="41.6" r="4.8" fill="none" stroke="black" stroke-width="1.6"/>
</g>
<g id="s92">
<polyline points="253.12,60.8 301.12,60.8 329.92,60.8" fill="none" stroke="black" stroke-width="1.6"/>
</g>
<g id="s93">
<circle cx="334.72" cy="60.8" r="4.8" fill="none" stroke="black" stroke-width="1.6"/>
</g>
<g id="s94">
<text font-size="11pt" stroke-width="0.266667" fill="black" x="49.6" y="105.96" text-anchor="middle">$Q_1$</text>
</g>
<g id="s95">
<text font-size="11pt" stroke-width="0.266667" fill="black" x="153.28" y="105.96" text-anchor="middle">$Q_2$</text>
</g>
<g id="s96">
<text font-size="11pt" stroke-width="0.266667" fill="black" x="220.48" y="105.96" text-anchor="middle">$Q_3$</text>
</g>
<g id="s97">
<text font-size="11pt" stroke-width="0.266667" fill="black" x="324.16" y="105.96" text-anchor="middle">$Q_4$</text>
</g>
<g id="s98">
<text font-size="11pt" stroke-width="0.266667" fill="black" x="68.8" y="215.4" text-anchor="middle">$Q_5$</text>
</g>
<g id="s99">
<text font-size="11pt" stroke-width="0.266667" fill="black" x="304.96" y="215.4" text-anchor="middle">$Q_6$</text>
</g>
<g id="s100">
<text font-size="11pt" stroke-width="0.266667" fill="black" x="6.4" y="129.96" text-anchor="middle">$V_{{en}_1}$</text>
</g>
<g id="s101">
<text font-size="11pt" stroke-width="0.266667" fill="black" x="25.6" y="234.6" text-anchor="middle">$V_{{en}_2}$</text>
</g>
<g id="s102">
<text font-size="11pt" stroke-width="0.266667" fill="black" x="353.92" y="56.04" text-anchor="middle">$V_{sa}$</text>
</g>
</svg>
