<svg xmlns="http://www.w3.org/2000/svg" width="278.186667" height="272.24" viewBox="0 0 278.186667 272.24" font-family="sans-serif" font-size="14.666667" fill="none">
<g id="s0">
<circle cx="54.4" cy="149.16" r="28.8" fill="none" stroke="black" stroke-width="1.6"/>
</g>
<g id="s1">
<line x1="60.16" y1="164.52" x2="60.16" y2="133.8" stroke="black" stroke-width="1.6"/>
</g>
<g id="s2">
<line x1="100.48" y1="149.16" x2="60.16" y2="149.16" stroke="black" stroke-width="1.6"/>
</g>
<g id="s3">
<line x1="60.16" y1="142.44" x2="39.04" y2="128.04" stroke="black" stroke-width="1.6"/>
</g>
<g id="s4">
<line x1="39.04" y1="128.04" x2="39.04" y2="108.84" stroke="black" stroke-width="1.6"/>
</g>
<g id="s5">
<line x1="60.16" y1="155.88" x2="41.765298" y2="168.421842" stroke="black" stroke-width="1.6"/>
<polygon stroke-width="0" points="48.323791,166.854912 39.04,170.28 45.619774,162.889021" fill="black"/>
</g>
<g id="s6">
<line x1="39.04" y1="170.28" x2="39.04" y2="189.48" stroke="black" stroke-width="1.6"/>
</g>
<g id="s7">
</g>
<g id="s8">
<circle cx="184.96" cy="149.16" r="28.8" fill="none" stroke="black" stroke-width="1.6"/>
</g>
<g id="s9">
<line x1="179.2" y1="164.52" x2="179.2" y2="133.8" stroke="black" stroke-width="1.6"/>
</g>
<g id="s10">
<line x1="138.88" y1="149.16" x2="179.2" y2="149.16" stroke="black" stroke-width="1.6"/>
</g>
<g id="s11">
<line x1="179.2" y1="142.44" x2="200.32" y2="128.04" stroke="black" stroke-width="1.6"/>
</g>
<g id="s12">
<line x1="200.32" y1="128.04" x2="200.32" y2="108.84" stroke="black" stroke-width="1.6"/>
</g>
<g id="s13">
<line x1="179.2" y1="155.88" x2="197.594702" y2="168.421842" stroke="black" stroke-width="1.6"/>
<polygon stroke-width="0" points="193.740226,162.889021 200.32,170.28 191.036209,166.854912" fill="black"/>
</g>
<g id="s14">
<line x1="200.32" y1="170.28" x2="200.32" y2="189.48" stroke="black" stroke-width="1.6"/>
</g>
<g id="s15">
<line x1="39.04" y1="189.48" x2="39.04" y2="199.08" stroke="black" stroke-width="1.6"/>
</g>
<g id="s16">
<line x1="200.32" y1="189.48" x2="200.32" y2="199.08" stroke="black" stroke-width="1.6"/>
</g>
<g id="s17">
<line x1="39.04" y1="199.08" x2="200.32" y2="199.08" stroke="black" stroke-width="1.6"/>
</g>
<g id="s18">
</g>
<g id="s19">
</g>
<g id="s20">
<polyline points="119.68,199.08 119.68,196.68 119.68,196.68 126.4,200.27856 126.4,200.27856 112.96,207.48 112.96,207.48 126.4,214.68144 126.4,214.68144 112.96,221.87856 112.96,221.87856 126.4,229.08 126.4,229.08 112.96,236.28144 112.96,236.28144 119.68,239.88 119.68,239.88 119.68,237.48" fill="none" stroke="black" stroke-width="1.6"/>
</g>
<g id="s21">
<text font-size="11pt" stroke-width="0.266667" fill="black" x="104.213333" y="223.12" text-anchor="end">R_{ee}</text>
</g>
<g id="s22">
<line x1="106.88" y1="223.12" x2="106.88" y2="234.64" stroke="black" stroke-width="1.6"/>
</g>
<g id="s23">
<line x1="94.4" y1="234.64" x2="119.36" y2="234.64" stroke="black" stroke-width="1.6"/>
</g>
<g id="s24">
<line x1="99.2" y1="239.44" x2="114.56" y2="239.44" stroke="black" stroke-width="1.6"/>
</g>
<g id="s25">
<line x1="104" y1="244.24" x2="109.76" y2="244.24" stroke="black" stroke-width="1.6"/>
</g>
<g id="s26">
<line x1="200.32" y1="108.84" x2="200.32" y2="70.44" stroke="black" stroke-width="1.6"/>
</g>
<g id="s27">
</g>
<g id="s28">
<line x1="200.32" y1="70.44" x2="200.32" y2="75.24" stroke="black" stroke-width="1.6"/>
</g>
<g id="s29">
<path d="M 200.32 75.24 C 198.4 74.24 196.48 73.24 194.56 72.24 190.72 70.24 190.72 68.24 194.56 66.24 198.4 64.24 198.4 62.24 194.56 60.24 190.72 58.24 190.72 56.24 194.56 54.24 198.4 52.24 198.4 50.24 194.56 48.24 190.72 46.24 190.72 44.24 194.56 42.24 198.4 40.24 198.4 38.24 194.56 36.24 190.72 34.24 190.72 32.24 194.56 30.24 196.48 29.24 198.4 28.24 200.32 27.24" fill="none" stroke="black" stroke-width="1.6"/>
</g>
<g id="s30">
<line x1="200.32" y1="27.24" x2="200.32" y2="32.04" stroke="black" stroke-width="1.6"/>
</g>
<g id="s31">
<text font-size="11pt" stroke-width="0.266667" fill="black" x="184.853333" y="34.48" text-anchor="end">L</text>
</g>
<g id="s32">
<line x1="200.32" y1="70.44" x2="171.52" y2="70.44" stroke="black" stroke-width="1.6"/>
</g>
<g id="s33">
</g>
<g id="s34">
<polyline points="171.52,70.44 171.52,72.84 171.52,72.84 164.8,69.24144 164.8,69.24144 178.24,62.04 178.24,62.04 164.8,54.83856 164.8,54.83856 178.24,47.64144 178.24,47.64144 164.8,40.44 164.8,40.44 178.24,33.23856 178.24,33.23856 171.52,29.64 171.52,29.64 171.52,32.04" fill="none" stroke="black" stroke-width="1.6"/>
</g>
<g id="s35">
<text font-size="11pt" stroke-width="0.266667" fill="black" x="156.053333" y="56.08" text-anchor="end">R</text>
</g>
<g id="s36">
<line x1="200.32" y1="70.44" x2="229.12" y2="70.44" stroke="black" stroke-width="1.6"/>
</g>
<g id="s37">
</g>
<g id="s38">
<line x1="229.12" y1="70.44" x2="229.12" y2="54.6" stroke="black" stroke-width="1.6"/>
</g>
<g id="s39">
<line x1="216.64" y1="54.6" x2="241.6" y2="54.6" stroke="black" stroke-width="1.6"/>
</g>
<g id="s40">
<line x1="216.64" y1="47.88" x2="241.6" y2="47.88" stroke="black" stroke-width="1.6"/>
</g>
<g id="s41">
<line x1="229.12" y1="47.88" x2="229.12" y2="32.04" stroke="black" stroke-width="1.6"/>
</g>
<g id="s42">
<text font-size="11pt" stroke-width="0.266667" fill="black" x="213.653333" y="44.8" text-anchor="end">C</text>
</g>
<g id="s43">
<line x1="216.32" y1="35.12" x2="168.32" y2="35.12" stroke="black" stroke-width="1.6"/>
<text font-size="11pt" stroke-width="0.2pt" fill="black" x="192.32" y="32.453333" text-anchor="middle">$V_{cc}$</text>
</g>
<g id="s44">
<polyline points="168.32,35.12 168.32,83.12 39.04,108.84" fill="none" stroke="black" stroke-width="1.6"/>
</g>
<g id="s45">
<line x1="39.04" y1="99.24" x2="67.84" y2="99.24" stroke="black" stroke-width="1.6"/>
</g>
<g id="s46">
<line x1="67.84" y1="99.24" x2="138.88" y2="149.16" stroke="black" stroke-width="1.6"/>
</g>
<g id="s47">
<line x1="200.32" y1="99.24" x2="171.52" y2="99.24" stroke="black" stroke-width="1.6"/>
</g>
<g id="s48">
<line x1="171.52" y1="99.24" x2="100.48" y2="149.16" stroke="black" stroke-width="1.6"/>
</g>
<g id="s49">
<line x1="200.32" y1="70.44" x2="238.72" y2="70.44" stroke="black" stroke-width="1.6"/>
</g>
<g id="s50">
<circle cx="243.52" cy="70.44" r="4.8" fill="none" stroke="black" stroke-width="1.6"/>
</g>
<g id="s51">
<text font-size="11pt" stroke-width="0.266667" fill="black" x="250.986667" y="75.28" text-anchor="start">$V_{sa}$</text>
</g>
<g id="s52">
</g>
<g id="s53">
<text font-size="11pt" stroke-width="0.266667" fill="black" x="60.373333" y="154" text-anchor="end">$Q_1$</text>
</g>
<g id="s54">
</g>
<g id="s55">
<text font-size="11pt" stroke-width="0.266667" fill="black" x="178.986667" y="154" text-anchor="start">$Q_2$</text>
</g>
</svg>
