<svg xmlns="http://www.w3.org/2000/svg" width="134.4" height="59.24" viewBox="0 0 134.4 59.24" font-family="sans-serif" font-size="14.666667" fill="none">
<g id="s0">
<circle cx="49.6" cy="34.44" r="1.6" fill="none" stroke="black" stroke-width="1.6"/>
</g>
<g id="s1">
<circle cx="49.6" cy="44.04" r="1.6" fill="none" stroke="black" stroke-width="1.6"/>
</g>
<g id="s2">
<circle cx="64" cy="24.84" r="1.6" fill="none" stroke="black" stroke-width="1.6"/>
</g>
<g id="s3">
<circle cx="64" cy="34.44" r="1.6" fill="none" stroke="black" stroke-width="1.6"/>
</g>
<g id="s4">
<circle cx="64" cy="44.04" r="1.6" fill="none" stroke="black" stroke-width="1.6"/>
</g>
<g id="s5">
<circle cx="64" cy="53.64" r="1.6" fill="none" stroke="black" stroke-width="1.6"/>
</g>
<g id="s6">
<circle cx="78.4" cy="24.84" r="1.6" fill="none" stroke="black" stroke-width="1.6"/>
</g>
<g id="s7">
<circle cx="78.4" cy="34.44" r="1.6" fill="none" stroke="black" stroke-width="1.6"/>
</g>
<g id="s8">
<circle cx="78.4" cy="44.04" r="1.6" fill="none" stroke="black" stroke-width="1.6"/>
</g>
<g id="s9">
<circle cx="78.4" cy="53.64" r="1.6" fill="none" stroke="black" stroke-width="1.6"/>
</g>
<g id="s10">
<circle cx="92.8" cy="34.44" r="1.6" fill="none" stroke="black" stroke-width="1.6"/>
</g>
<g id="s11">
<circle cx="92.8" cy="44.04" r="1.6" fill="none" stroke="black" stroke-width="1.6"/>
</g>
<g id="s12">
<line x1="50.731371" y1="33.308629" x2="62.868629" y2="25.971371" stroke="black" stroke-width="1.6"/>
</g>
<g id="s13">
<line x1="51.2" y1="34.44" x2="62.4" y2="34.44" stroke="black" stroke-width="1.6"/>
</g>
<g id="s14">
<line x1="50.731371" y1="35.571371" x2="62.868629" y2="42.908629" stroke="black" stroke-width="1.6"/>
</g>
<g id="s15">
<line x1="50.731371" y1="35.571371" x2="62.868629" y2="52.508629" stroke="black" stroke-width="1.6"/>
</g>
<g id="s16">
<line x1="50.731371" y1="42.908629" x2="62.868629" y2="25.971371" stroke="black" stroke-width="1.6"/>
</g>
<g id="s17">
<line x1="50.731371" y1="42.908629" x2="62.4" y2="34.44" stroke="black" stroke-width="1.6"/>
</g>
<g id="s18">
<line x1="51.2" y1="44.04" x2="62.4" y2="44.04" stroke="black" stroke-width="1.6"/>
</g>
<g id="s19">
<line x1="50.731371" y1="45.171371" x2="62.4" y2="53.64" stroke="black" stroke-width="1.6"/>
</g>
<g id="s20">
<line x1="65.6" y1="24.84" x2="76.8" y2="24.84" stroke="black" stroke-width="1.6"/>
</g>
<g id="s21">
<line x1="65.131371" y1="25.971371" x2="77.268629" y2="33.308629" stroke="black" stroke-width="1.6"/>
</g>
<g id="s22">
<line x1="65.131371" y1="25.971371" x2="77.268629" y2="42.908629" stroke="black" stroke-width="1.6"/>
</g>
<g id="s23">
<line x1="65.131371" y1="25.971371" x2="77.268629" y2="52.508629" stroke="black" stroke-width="1.6"/>
</g>
<g id="s24">
<line x1="65.131371" y1="33.308629" x2="77.268629" y2="25.971371" stroke="black" stroke-width="1.6"/>
</g>
<g id="s25">
<line x1="65.6" y1="34.44" x2="76.8" y2="34.44" stroke="black" stroke-width="1.6"/>
</g>
<g id="s26">
<line x1="65.131371" y1="35.571371" x2="77.268629" y2="42.908629" stroke="black" stroke-width="1.6"/>
</g>
<g id="s27">
<line x1="65.131371" y1="35.571371" x2="77.268629" y2="52.508629" stroke="black" stroke-width="1.6"/>
</g>
<g id="s28">
<line x1="65.131371" y1="42.908629" x2="77.268629" y2="25.971371" stroke="black" stroke-width="1.6"/>
</g>
<g id="s29">
<line x1="65.131371" y1="42.908629" x2="77.268629" y2="35.571371" stroke="black" stroke-width="1.6"/>
</g>
<g id="s30">
<line x1="65.6" y1="44.04" x2="76.8" y2="44.04" stroke="black" stroke-width="1.6"/>
</g>
<g id="s31">
<line x1="65.131371" y1="45.171371" x2="77.268629" y2="52.508629" stroke="black" stroke-width="1.6"/>
</g>
<g id="s32">
<line x1="65.131371" y1="52.508629" x2="77.268629" y2="25.971371" stroke="black" stroke-width="1.6"/>
</g>
<g id="s33">
<line x1="65.131371" y1="52.508629" x2="77.268629" y2="35.571371" stroke="black" stroke-width="1.6"/>
</g>
<g id="s34">
<line x1="65.131371" y1="52.508629" x2="77.268629" y2="45.171371" stroke="black" stroke-width="1.6"/>
</g>
<g id="s35">
<line x1="65.6" y1="53.64" x2="76.8" y2="53.64" stroke="black" stroke-width="1.6"/>
</g>
<g id="s36">
<line x1="79.531371" y1="25.971371" x2="91.668629" y2="33.308629" stroke="black" stroke-width="1.6"/>
</g>
<g id="s37">
<line x1="79.531371" y1="25.971371" x2="91.668629" y2="42.908629" stroke="black" stroke-width="1.6"/>
</g>
<g id="s38">
<line x1="80" y1="34.44" x2="91.2" y2="34.44" stroke="black" stroke-width="1.6"/>
</g>
<g id="s39">
<line x1="79.531371" y1="35.571371" x2="91.668629" y2="42.908629" stroke="black" stroke-width="1.6"/>
</g>
<g id="s40">
<line x1="79.531371" y1="42.908629" x2="91.668629" y2="35.571371" stroke="black" stroke-width="1.6"/>
</g>
<g id="s41">
<line x1="80" y1="44.04" x2="91.2" y2="44.04" stroke="black" stroke-width="1.6"/>
</g>
<g id="s42">
<line x1="79.531371" y1="52.508629" x2="91.668629" y2="35.571371" stroke="black" stroke-width="1.6"/>
</g>
<g id="s43">
<line x1="79.531371" y1="52.508629" x2="91.668629" y2="45.171371" stroke="black" stroke-width="1.6"/>
</g>
<g id="s44">
<text font-size="11pt" stroke-width="0.266667" fill="black" x="97.6" y="10.48" text-anchor="middle">{\tiny Camadas Intermediárias}</text>
</g>
<g id="s45">
<text font-size="11pt" stroke-width="0.266667" fill="black" x="1.6" y="44.08" text-anchor="middle">{\tiny Camada de Entrada}</text>
</g>
<g id="s46">
<text font-size="11pt" stroke-width="0.266667" fill="black" x="131.2" y="44.08" text-anchor="middle">{\tiny Camada de Saída}</text>
</g>
</svg>
