<svg xmlns="http://www.w3.org/2000/svg" width="388" height="361.6" viewBox="0 0 388 361.6" font-family="sans-serif" font-size="14.667">
<g id="s0">
<polyline points="26,348.8 362,348.8" fill="none" stroke="black" stroke-width="1.067"/>
<polygon points="362,348.8 352.4,351.2 352.4,346.4" fill="black"/>
</g>
<g id="s1">
<text x="362" y="348.8" text-anchor="middle" dominant-baseline="central">$a_1$</text>
</g>
<g id="s2">
<polyline points="26,348.8 26,12.8" fill="none" stroke="black" stroke-width="1.067"/>
<polygon points="26,12.8 28.4,22.4 23.6,22.4" fill="black"/>
</g>
<g id="s3">
<text x="26" y="12.8" text-anchor="middle" dominant-baseline="central">$a_2$</text>
</g>
<g id="s4">
<polyline points="6.8,252.8 362,132.8" fill="none" stroke="black" stroke-width="1.067" stroke-dasharray="4,3"/>
</g>
<g id="s5">
<circle cx="122" cy="252.8" r="9.6" fill="none" stroke="black" stroke-width="1.067"/>
</g>
<g id="s6">
<circle cx="170" cy="300.8" r="9.6" fill="none" stroke="black" stroke-width="1.067"/>
</g>
<g id="s7">
<circle cx="218" cy="252.8" r="9.6" fill="none" stroke="black" stroke-width="1.067"/>
</g>
<g id="s8">
<circle cx="266" cy="204.8" r="9.6" fill="none" stroke="black" stroke-width="1.067"/>
</g>
<g id="s9">
<circle cx="314" cy="272" r="9.6" fill="none" stroke="black" stroke-width="1.067"/>
</g>
<g id="s10">
<circle cx="26" cy="156.8" r="9.6" fill="none" stroke="black" stroke-width="1.067"/>
</g>
<g id="s11">
<circle cx="122" cy="108.8" r="9.6" fill="none" stroke="black" stroke-width="1.067"/>
</g>
<g id="s12">
<circle cx="170" cy="132.8" r="9.6" fill="none" stroke="black" stroke-width="1.067"/>
</g>
<g id="s13">
<circle cx="146" cy="166.4" r="9.6" fill="none" stroke="black" stroke-width="1.067"/>
</g>
<g id="s14">
<circle cx="218" cy="99.2" r="9.6" fill="none" stroke="black" stroke-width="1.067"/>
</g>
</svg>
