<svg xmlns="http://www.w3.org/2000/svg" width="357.813333" height="272.24" viewBox="0 0 357.813333 272.24" font-family="sans-serif" font-size="14.666667" fill="none">
<g id="s0">
<circle cx="63.626667" cy="149.16" r="28.8" fill="none" stroke="black" stroke-width="1.6"/>
</g>
<g id="s1">
<line x1="69.386667" y1="164.52" x2="69.386667" y2="133.8" stroke="black" stroke-width="1.6"/>
</g>
<g id="s2">
<line x1="109.706667" y1="149.16" x2="69.386667" y2="149.16" stroke="black" stroke-width="1.6"/>
</g>
<g id="s3">
<line x1="69.386667" y1="142.44" x2="48.266667" y2="128.04" stroke="black" stroke-width="1.6"/>
</g>
<g id="s4">
<line x1="48.266667" y1="128.04" x2="48.266667" y2="108.84" stroke="black" stroke-width="1.6"/>
</g>
<g id="s5">
<line x1="69.386667" y1="155.88" x2="50.991965" y2="168.421842" stroke="black" stroke-width="1.6"/>
<polygon stroke-width="0" points="57.550458,166.854912 48.266667,170.28 54.846441,162.889021" fill="black"/>
</g>
<g id="s6">
<line x1="48.266667" y1="170.28" x2="48.266667" y2="189.48" stroke="black" stroke-width="1.6"/>
</g>
<g id="s7">
</g>
<g id="s8">
<circle cx="194.186667" cy="149.16" r="28.8" fill="none" stroke="black" stroke-width="1.6"/>
</g>
<g id="s9">
<line x1="188.426667" y1="164.52" x2="188.426667" y2="133.8" stroke="black" stroke-width="1.6"/>
</g>
<g id="s10">
<line x1="148.106667" y1="149.16" x2="188.426667" y2="149.16" stroke="black" stroke-width="1.6"/>
</g>
<g id="s11">
<line x1="188.426667" y1="142.44" x2="209.546667" y2="128.04" stroke="black" stroke-width="1.6"/>
</g>
<g id="s12">
<line x1="209.546667" y1="128.04" x2="209.546667" y2="108.84" stroke="black" stroke-width="1.6"/>
</g>
<g id="s13">
<line x1="188.426667" y1="155.88" x2="206.821369" y2="168.421842" stroke="black" stroke-width="1.6"/>
<polygon stroke-width="0" points="202.966893,162.889021 209.546667,170.28 200.262876,166.854912" fill="black"/>
</g>
<g id="s14">
<line x1="209.546667" y1="170.28" x2="209.546667" y2="189.48" stroke="black" stroke-width="1.6"/>
</g>
<g id="s15">
<line x1="48.266667" y1="189.48" x2="48.266667" y2="199.08" stroke="black" stroke-width="1.6"/>
</g>
<g id="s16">
<line x1="209.546667" y1="189.48" x2="209.546667" y2="199.08" stroke="black" stroke-width="1.6"/>
</g>
<g id="s17">
<line x1="48.266667" y1="199.08" x2="209.546667" y2="199.08" stroke="black" stroke-width="1.6"/>
</g>
<g id="s18">
</g>
<g id="s19">
</g>
<g id="s20">
<polyline points="128.906667,199.08 128.906667,196.68 128.906667,196.68 135.626667,200.27856 135.626667,200.27856 122.186667,207.48 122.186667,207.48 135.626667,214.68144 135.626667,214.68144 122.186667,221.87856 122.186667,221.87856 135.626667,229.08 135.626667,229.08 122.186667,236.28144 122.186667,236.28144 128.906667,239.88 128.906667,239.88 128.906667,237.48" fill="none" stroke="black" stroke-width="1.6"/>
</g>
<g id="s21">
<text font-size="11pt" stroke-width="0.266667" fill="black" x="113.44" y="223.12" text-anchor="end">R_{ee}</text>
</g>
<g id="s22">
<line x1="116.106667" y1="223.12" x2="116.106667" y2="234.64" stroke="black" stroke-width="1.6"/>
</g>
<g id="s23">
<line x1="103.626667" y1="234.64" x2="128.586667" y2="234.64" stroke="black" stroke-width="1.6"/>
</g>
<g id="s24">
<line x1="108.426667" y1="239.44" x2="123.786667" y2="239.44" stroke="black" stroke-width="1.6"/>
</g>
<g id="s25">
<line x1="113.226667" y1="244.24" x2="118.986667" y2="244.24" stroke="black" stroke-width="1.6"/>
</g>
<g id="s26">
<line x1="209.546667" y1="108.84" x2="209.546667" y2="70.44" stroke="black" stroke-width="1.6"/>
</g>
<g id="s27">
</g>
<g id="s28">
<line x1="209.546667" y1="70.44" x2="209.546667" y2="75.24" stroke="black" stroke-width="1.6"/>
</g>
<g id="s29">
<path d="M 209.546667 75.24 C 207.626667 74.24 205.706667 73.24 203.786667 72.24 199.946667 70.24 199.946667 68.24 203.786667 66.24 207.626667 64.24 207.626667 62.24 203.786667 60.24 199.946667 58.24 199.946667 56.24 203.786667 54.24 207.626667 52.24 207.626667 50.24 203.786667 48.24 199.946667 46.24 199.946667 44.24 203.786667 42.24 207.626667 40.24 207.626667 38.24 203.786667 36.24 199.946667 34.24 199.946667 32.24 203.786667 30.24 205.706667 29.24 207.626667 28.24 209.546667 27.24" fill="none" stroke="black" stroke-width="1.6"/>
</g>
<g id="s30">
<line x1="209.546667" y1="27.24" x2="209.546667" y2="32.04" stroke="black" stroke-width="1.6"/>
</g>
<g id="s31">
<text font-size="11pt" stroke-width="0.266667" fill="black" x="194.08" y="34.48" text-anchor="end">L</text>
</g>
<g id="s32">
<line x1="209.546667" y1="70.44" x2="180.746667" y2="70.44" stroke="black" stroke-width="1.6"/>
</g>
<g id="s33">
</g>
<g id="s34">
<polyline points="180.746667,70.44 180.746667,72.84 180.746667,72.84 174.026667,69.24144 174.026667,69.24144 187.466667,62.04 187.466667,62.04 174.026667,54.83856 174.026667,54.83856 187.466667,47.64144 187.466667,47.64144 174.026667,40.44 174.026667,40.44 187.466667,33.23856 187.466667,33.23856 180.746667,29.64 180.746667,29.64 180.746667,32.04" fill="none" stroke="black" stroke-width="1.6"/>
</g>
<g id="s35">
<text font-size="11pt" stroke-width="0.266667" fill="black" x="165.28" y="56.08" text-anchor="end">R</text>
</g>
<g id="s36">
<line x1="209.546667" y1="70.44" x2="238.346667" y2="70.44" stroke="black" stroke-width="1.6"/>
</g>
<g id="s37">
</g>
<g id="s38">
<line x1="238.346667" y1="70.44" x2="238.346667" y2="54.6" stroke="black" stroke-width="1.6"/>
</g>
<g id="s39">
<line x1="225.866667" y1="54.6" x2="250.826667" y2="54.6" stroke="black" stroke-width="1.6"/>
</g>
<g id="s40">
<line x1="225.866667" y1="47.88" x2="250.826667" y2="47.88" stroke="black" stroke-width="1.6"/>
</g>
<g id="s41">
<line x1="238.346667" y1="47.88" x2="238.346667" y2="32.04" stroke="black" stroke-width="1.6"/>
</g>
<g id="s42">
<text font-size="11pt" stroke-width="0.266667" fill="black" x="222.88" y="44.8" text-anchor="end">C</text>
</g>
<g id="s43">
<line x1="225.546667" y1="35.12" x2="177.546667" y2="35.12" stroke="black" stroke-width="1.6"/>
<text font-size="11pt" stroke-width="0.2pt" fill="black" x="201.546667" y="32.453333" text-anchor="middle">$V_{cc}$</text>
</g>
<g id="s44">
<polyline points="177.546667,35.12 177.546667,83.12 48.266667,108.84" fill="none" stroke="black" stroke-width="1.6"/>
</g>
<g id="s45">
<line x1="48.266667" y1="99.24" x2="77.066667" y2="99.24" stroke="black" stroke-width="1.6"/>
</g>
<g id="s46">
<line x1="77.066667" y1="99.24" x2="148.106667" y2="149.16" stroke="black" stroke-width="1.6"/>
</g>
<g id="s47">
<line x1="209.546667" y1="99.24" x2="180.746667" y2="99.24" stroke="black" stroke-width="1.6"/>
</g>
<g id="s48">
<line x1="180.746667" y1="99.24" x2="109.706667" y2="149.16" stroke="black" stroke-width="1.6"/>
</g>
<g id="s49">
<line x1="209.546667" y1="70.44" x2="247.946667" y2="70.44" stroke="black" stroke-width="1.6"/>
</g>
<g id="s50">
<circle cx="252.746667" cy="70.44" r="4.8" fill="none" stroke="black" stroke-width="1.6"/>
</g>
<g id="s51">
<text font-size="11pt" stroke-width="0.266667" fill="black" x="260.213333" y="75.28" text-anchor="start">$V_{sa}$</text>
</g>
<g id="s52">
</g>
<g id="s53">
<text font-size="11pt" stroke-width="0.266667" fill="black" x="69.6" y="154" text-anchor="end">$Q_1$</text>
</g>
<g id="s54">
</g>
<g id="s55">
<text font-size="11pt" stroke-width="0.266667" fill="black" x="188.213333" y="154" text-anchor="start">$Q_2$</text>
</g>
</svg>
