<svg xmlns="http://www.w3.org/2000/svg" width="107.2" height="83.2" viewBox="0 0 107.2 83.2" font-family="sans-serif" font-size="14.667">
<g id="s0">
<circle cx="26" cy="51.2" r="1.6" fill="none" stroke="black" stroke-width="1.067"/>
</g>
<g id="s1">
<circle cx="40.4" cy="51.2" r="1.6" fill="none" stroke="black" stroke-width="1.067"/>
</g>
<g id="s2">
<circle cx="54.8" cy="51.2" r="1.6" fill="none" stroke="black" stroke-width="1.067"/>
</g>
<g id="s3">
<circle cx="26" cy="32" r="1.6" fill="none" stroke="black" stroke-width="1.067"/>
</g>
<g id="s4">
<circle cx="40.4" cy="32" r="1.6" fill="none" stroke="black" stroke-width="1.067"/>
</g>
<g id="s5">
<circle cx="54.8" cy="32" r="1.6" fill="none" stroke="black" stroke-width="1.067"/>
</g>
<g id="s6">
<polyline points="26,49.6 26,33.6" fill="none" stroke="black" stroke-width="1.067"/>
</g>
<g id="s7">
<polyline points="38.8,49.6 27.6,33.6" fill="none" stroke="black" stroke-width="1.067"/>
</g>
<g id="s8">
<polyline points="53.2,49.6 27.6,33.6" fill="none" stroke="black" stroke-width="1.067"/>
</g>
<g id="s9">
<polyline points="27.6,49.6 38.8,33.6" fill="none" stroke="black" stroke-width="1.067"/>
</g>
<g id="s10">
<polyline points="40.4,49.6 40.4,33.6" fill="none" stroke="black" stroke-width="1.067"/>
</g>
<g id="s11">
<polyline points="53.2,49.6 42,33.6" fill="none" stroke="black" stroke-width="1.067"/>
</g>
<g id="s12">
<polyline points="27.6,49.6 53.2,33.6" fill="none" stroke="black" stroke-width="1.067"/>
</g>
<g id="s13">
<polyline points="42,49.6 53.2,33.6" fill="none" stroke="black" stroke-width="1.067"/>
</g>
<g id="s14">
<polyline points="54.8,49.6 54.8,33.6" fill="none" stroke="black" stroke-width="1.067"/>
</g>
<g id="s15">
<text x="26" y="70.4" text-anchor="middle" dominant-baseline="central">$x_0$</text>
</g>
<g id="s16">
<text x="40.4" y="70.4" text-anchor="middle" dominant-baseline="central">$x_1$</text>
</g>
<g id="s17">
<text x="54.8" y="70.4" text-anchor="middle" dominant-baseline="central">Polarização</text>
</g>
<g id="s18">
<text x="26" y="12.8" text-anchor="middle" dominant-baseline="central">$y_0$</text>
</g>
<g id="s19">
<text x="40.4" y="12.8" text-anchor="middle" dominant-baseline="central">$y_1$</text>
</g>
<g id="s20">
<text x="54.8" y="12.8" text-anchor="middle" dominant-baseline="central">$y_2$</text>
</g>
</svg>
