<svg xmlns="http://www.w3.org/2000/svg" width="90.4" height="44.8" viewBox="0 0 90.4 44.8" font-family="sans-serif" font-size="14.667">
<g id="s0">
<polyline points="26,22.4 35.6,22.4" fill="none" stroke="black" stroke-width="1.067"/>
<text x="30.8" y="22.4" text-anchor="middle" dominant-baseline="central">$w_2$</text>
</g>
<g id="s1">
<polyline points="35.6,22.4 40.4,22.4" fill="none" stroke="black" stroke-width="1.067"/>
<polygon points="40.4,22.4 30.8,24.8 30.8,20" fill="black"/>
</g>
<g id="s2">
</g>
<g id="s3">
<text x="26" y="22.4" text-anchor="middle" dominant-baseline="central">$x_2$</text>
</g>
<g id="s4">
<circle cx="45.2" cy="22.4" r="4.8" fill="none" stroke="black" stroke-width="1.067"/>
</g>
<g id="s5">
<text x="45.2" y="22.4" text-anchor="middle" dominant-baseline="central">$T$</text>
</g>
<g id="s6">
<polyline points="26,12.8 35.6,12.8" fill="none" stroke="black" stroke-width="1.067"/>
<text x="30.8" y="12.8" text-anchor="middle" dominant-baseline="central">$w_1$</text>
</g>
<g id="s7">
<polyline points="35.6,12.8 40.4,17.6" fill="none" stroke="black" stroke-width="1.067"/>
<polygon points="40.4,17.6 31.915,12.509 35.309,9.115" fill="black"/>
</g>
<g id="s8">
</g>
<g id="s9">
<text x="26" y="12.8" text-anchor="middle" dominant-baseline="central">$x_1$</text>
</g>
<g id="s10">
<polyline points="26,32 35.6,32" fill="none" stroke="black" stroke-width="1.067"/>
<text x="30.8" y="32" text-anchor="middle" dominant-baseline="central">$w_3$</text>
</g>
<g id="s11">
<polyline points="35.6,32 40.4,27.2" fill="none" stroke="black" stroke-width="1.067"/>
<polygon points="40.4,27.2 35.309,35.685 31.915,32.291" fill="black"/>
</g>
<g id="s12">
</g>
<g id="s13">
<text x="26" y="32" text-anchor="middle" dominant-baseline="central">$x_3$</text>
</g>
<g id="s14">
<polyline points="50,22.4 64.4,22.4" fill="none" stroke="black" stroke-width="1.067"/>
<polygon points="64.4,22.4 54.8,24.8 54.8,20" fill="black"/>
</g>
<g id="s15">
<text x="64.4" y="22.4" text-anchor="middle" dominant-baseline="central">saída</text>
</g>
</svg>
