<svg xmlns="http://www.w3.org/2000/svg" width="404.24" height="343.68" viewBox="0 0 404.24 343.68" font-family="sans-serif" font-size="14.666667" fill="none">
<g id="s0">
<circle cx="44.88" cy="101.12" r="4.8" fill="none" stroke="black" stroke-width="1.6"/>
</g>
<g id="s1">
<line x1="49.68" y1="101.12" x2="59.28" y2="101.12" stroke="black" stroke-width="1.6"/>
</g>
<g id="s2">
<circle cx="105.36" cy="101.12" r="28.8" fill="none" stroke="black" stroke-width="1.6"/>
</g>
<g id="s3">
<line x1="99.6" y1="116.48" x2="99.6" y2="85.76" stroke="black" stroke-width="1.6"/>
</g>
<g id="s4">
<line x1="59.28" y1="101.12" x2="99.6" y2="101.12" stroke="black" stroke-width="1.6"/>
</g>
<g id="s5">
<line x1="99.6" y1="94.4" x2="120.72" y2="80" stroke="black" stroke-width="1.6"/>
</g>
<g id="s6">
<line x1="120.72" y1="80" x2="120.72" y2="60.8" stroke="black" stroke-width="1.6"/>
</g>
<g id="s7">
<line x1="99.6" y1="107.84" x2="117.994702" y2="120.381842" stroke="black" stroke-width="1.6"/>
<polygon stroke-width="0" points="114.140226,114.849021 120.72,122.24 111.436209,118.814912" fill="black"/>
</g>
<g id="s8">
<line x1="120.72" y1="122.24" x2="120.72" y2="141.44" stroke="black" stroke-width="1.6"/>
</g>
<g id="s9">
<line x1="120.72" y1="141.44" x2="120.72" y2="151.04" stroke="black" stroke-width="1.6"/>
</g>
<g id="s10">
<line x1="120.72" y1="151.04" x2="159.12" y2="151.04" stroke="black" stroke-width="1.6"/>
</g>
<g id="s11">
<line x1="159.12" y1="151.04" x2="159.12" y2="141.44" stroke="black" stroke-width="1.6"/>
</g>
<g id="s12">
<circle cx="174.48" cy="101.12" r="28.8" fill="none" stroke="black" stroke-width="1.6"/>
</g>
<g id="s13">
<line x1="180.24" y1="116.48" x2="180.24" y2="85.76" stroke="black" stroke-width="1.6"/>
</g>
<g id="s14">
<line x1="220.56" y1="101.12" x2="180.24" y2="101.12" stroke="black" stroke-width="1.6"/>
</g>
<g id="s15">
<line x1="180.24" y1="94.4" x2="159.12" y2="80" stroke="black" stroke-width="1.6"/>
</g>
<g id="s16">
<line x1="159.12" y1="80" x2="159.12" y2="60.8" stroke="black" stroke-width="1.6"/>
</g>
<g id="s17">
<line x1="180.24" y1="107.84" x2="161.845298" y2="120.381842" stroke="black" stroke-width="1.6"/>
<polygon stroke-width="0" points="168.403791,118.814912 159.12,122.24 165.699774,114.849021" fill="black"/>
</g>
<g id="s18">
<line x1="159.12" y1="122.24" x2="159.12" y2="141.44" stroke="black" stroke-width="1.6"/>
</g>
<g id="s19">
<line x1="220.56" y1="101.12" x2="230.16" y2="101.12" stroke="black" stroke-width="1.6"/>
</g>
<g id="s20">
<circle cx="276.24" cy="101.12" r="28.8" fill="none" stroke="black" stroke-width="1.6"/>
</g>
<g id="s21">
<line x1="270.48" y1="116.48" x2="270.48" y2="85.76" stroke="black" stroke-width="1.6"/>
</g>
<g id="s22">
<line x1="230.16" y1="101.12" x2="270.48" y2="101.12" stroke="black" stroke-width="1.6"/>
</g>
<g id="s23">
<line x1="270.48" y1="94.4" x2="291.6" y2="80" stroke="black" stroke-width="1.6"/>
</g>
<g id="s24">
<line x1="291.6" y1="80" x2="291.6" y2="60.8" stroke="black" stroke-width="1.6"/>
</g>
<g id="s25">
<line x1="270.48" y1="107.84" x2="288.874702" y2="120.381842" stroke="black" stroke-width="1.6"/>
<polygon stroke-width="0" points="285.020226,114.849021 291.6,122.24 282.316209,118.814912" fill="black"/>
</g>
<g id="s26">
<line x1="291.6" y1="122.24" x2="291.6" y2="141.44" stroke="black" stroke-width="1.6"/>
</g>
<g id="s27">
<line x1="291.6" y1="141.44" x2="291.6" y2="151.04" stroke="black" stroke-width="1.6"/>
</g>
<g id="s28">
<line x1="291.6" y1="151.04" x2="330" y2="151.04" stroke="black" stroke-width="1.6"/>
</g>
<g id="s29">
<line x1="330" y1="151.04" x2="330" y2="141.44" stroke="black" stroke-width="1.6"/>
</g>
<g id="s30">
<circle cx="345.36" cy="101.12" r="28.8" fill="none" stroke="black" stroke-width="1.6"/>
</g>
<g id="s31">
<line x1="351.12" y1="116.48" x2="351.12" y2="85.76" stroke="black" stroke-width="1.6"/>
</g>
<g id="s32">
<line x1="391.44" y1="101.12" x2="351.12" y2="101.12" stroke="black" stroke-width="1.6"/>
</g>
<g id="s33">
<line x1="351.12" y1="94.4" x2="330" y2="80" stroke="black" stroke-width="1.6"/>
</g>
<g id="s34">
<line x1="330" y1="80" x2="330" y2="60.8" stroke="black" stroke-width="1.6"/>
</g>
<g id="s35">
<line x1="351.12" y1="107.84" x2="332.725298" y2="120.381842" stroke="black" stroke-width="1.6"/>
<polygon stroke-width="0" points="339.283791,118.814912 330,122.24 336.579774,114.849021" fill="black"/>
</g>
<g id="s36">
<line x1="330" y1="122.24" x2="330" y2="141.44" stroke="black" stroke-width="1.6"/>
</g>
<g id="s37">
<line x1="139.92" y1="151.04" x2="139.92" y2="208.64" stroke="black" stroke-width="1.6"/>
</g>
<g id="s38">
<circle cx="124.56" cy="248.96" r="28.8" fill="none" stroke="black" stroke-width="1.6"/>
</g>
<g id="s39">
<line x1="118.8" y1="264.32" x2="118.8" y2="233.6" stroke="black" stroke-width="1.6"/>
</g>
<g id="s40">
<line x1="78.48" y1="248.96" x2="118.8" y2="248.96" stroke="black" stroke-width="1.6"/>
</g>
<g id="s41">
<line x1="118.8" y1="242.24" x2="139.92" y2="227.84" stroke="black" stroke-width="1.6"/>
</g>
<g id="s42">
<line x1="139.92" y1="227.84" x2="139.92" y2="208.64" stroke="black" stroke-width="1.6"/>
</g>
<g id="s43">
<line x1="118.8" y1="255.68" x2="137.194702" y2="268.221842" stroke="black" stroke-width="1.6"/>
<polygon stroke-width="0" points="133.340226,262.689021 139.92,270.08 130.636209,266.654912" fill="black"/>
</g>
<g id="s44">
<line x1="139.92" y1="270.08" x2="139.92" y2="289.28" stroke="black" stroke-width="1.6"/>
</g>
<g id="s45">
<line x1="139.92" y1="289.28" x2="139.92" y2="298.88" stroke="black" stroke-width="1.6"/>
</g>
<g id="s46">
<polyline points="139.92,298.88 187.92,298.88 310.8,298.88" fill="none" stroke="black" stroke-width="1.6"/>
</g>
<g id="s47">
<line x1="310.8" y1="298.88" x2="310.8" y2="289.28" stroke="black" stroke-width="1.6"/>
</g>
<g id="s48">
<circle cx="326.16" cy="248.96" r="28.8" fill="none" stroke="black" stroke-width="1.6"/>
</g>
<g id="s49">
<line x1="331.92" y1="264.32" x2="331.92" y2="233.6" stroke="black" stroke-width="1.6"/>
</g>
<g id="s50">
<line x1="372.24" y1="248.96" x2="331.92" y2="248.96" stroke="black" stroke-width="1.6"/>
</g>
<g id="s51">
<line x1="331.92" y1="242.24" x2="310.8" y2="227.84" stroke="black" stroke-width="1.6"/>
</g>
<g id="s52">
<line x1="310.8" y1="227.84" x2="310.8" y2="208.64" stroke="black" stroke-width="1.6"/>
</g>
<g id="s53">
<line x1="331.92" y1="255.68" x2="313.525298" y2="268.221842" stroke="black" stroke-width="1.6"/>
<polygon stroke-width="0" points="320.083791,266.654912 310.8,270.08 317.379774,262.689021" fill="black"/>
</g>
<g id="s54">
<line x1="310.8" y1="270.08" x2="310.8" y2="289.28" stroke="black" stroke-width="1.6"/>
</g>
<g id="s55">
<polyline points="310.8,208.64 310.8,160.64 310.8,151.04" fill="none" stroke="black" stroke-width="1.6"/>
</g>
<g id="s56">
</g>
<g id="s57">
</g>
<g id="s58">
<polyline points="225.36,298.88 225.36,296.48 225.36,296.48 232.08,300.07856 232.08,300.07856 218.64,307.28 218.64,307.28 232.08,314.48144 232.08,314.48144 218.64,321.67856 218.64,321.67856 232.08,328.88 232.08,328.88 218.64,336.08144 218.64,336.08144 225.36,339.68 225.36,339.68 225.36,337.28" fill="none" stroke="black" stroke-width="1.6"/>
</g>
<g id="s59">
<text font-size="11pt" stroke-width="0.266667" fill="black" x="209.893333" y="322.92" text-anchor="end">R_{ee}</text>
</g>
<g id="s60">
<line x1="217.68" y1="337.28" x2="233.04" y2="337.28" stroke="black" stroke-width="1.6"/>
<text font-size="11pt" stroke-width="0.2pt" fill="black" x="225.36" y="349.626667" text-anchor="middle">$V_{ss}$</text>
</g>
<g id="s61">
<line x1="78.48" y1="248.96" x2="68.88" y2="248.96" stroke="black" stroke-width="1.6"/>
</g>
<g id="s62">
</g>
<g id="s63">
<polyline points="68.88,248.96 68.88,251.36 68.88,251.36 62.16,247.76144 62.16,247.76144 75.6,240.56 75.6,240.56 62.16,233.35856 62.16,233.35856 75.6,226.16144 75.6,226.16144 62.16,218.96 62.16,218.96 75.6,211.75856 75.6,211.75856 68.88,208.16 68.88,208.16 68.88,210.56" fill="none" stroke="black" stroke-width="1.6"/>
</g>
<g id="s64">
<text font-size="11pt" stroke-width="0.266667" fill="black" x="84.346667" y="234.6" text-anchor="start">R_b</text>
</g>
<g id="s65">
<line x1="62.48" y1="210.56" x2="75.28" y2="210.56" stroke="black" stroke-width="1.6"/>
<text font-size="11pt" stroke-width="0.2pt" fill="black" x="68.88" y="207.893333" text-anchor="middle">$V_{ss}$</text>
</g>
<g id="s66">
</g>
<g id="s67">
</g>
<g id="s68">
<polyline points="68.88,248.96 68.88,246.56 68.88,246.56 75.6,250.15856 75.6,250.15856 62.16,257.36 62.16,257.36 75.6,264.56144 75.6,264.56144 62.16,271.75856 62.16,271.75856 75.6,278.96 75.6,278.96 62.16,286.16144 62.16,286.16144 68.88,289.76 68.88,289.76 68.88,287.36" fill="none" stroke="black" stroke-width="1.6"/>
</g>
<g id="s69">
<text font-size="11pt" stroke-width="0.266667" fill="black" x="53.413333" y="273" text-anchor="end">R_a</text>
</g>
<g id="s70">
<line x1="56.08" y1="273" x2="56.08" y2="284.52" stroke="black" stroke-width="1.6"/>
</g>
<g id="s71">
<line x1="43.6" y1="284.52" x2="68.56" y2="284.52" stroke="black" stroke-width="1.6"/>
</g>
<g id="s72">
<line x1="48.4" y1="289.32" x2="63.76" y2="289.32" stroke="black" stroke-width="1.6"/>
</g>
<g id="s73">
<line x1="53.2" y1="294.12" x2="58.96" y2="294.12" stroke="black" stroke-width="1.6"/>
</g>
<g id="s74">
<line x1="372.24" y1="248.96" x2="381.84" y2="248.96" stroke="black" stroke-width="1.6"/>
</g>
<g id="s75">
</g>
<g id="s76">
<polyline points="381.84,248.96 381.84,251.36 381.84,251.36 375.12,247.76144 375.12,247.76144 388.56,240.56 388.56,240.56 375.12,233.35856 375.12,233.35856 388.56,226.16144 388.56,226.16144 375.12,218.96 375.12,218.96 388.56,211.75856 388.56,211.75856 381.84,208.16 381.84,208.16 381.84,210.56" fill="none" stroke="black" stroke-width="1.6"/>
</g>
<g id="s77">
<text font-size="11pt" stroke-width="0.266667" fill="black" x="397.306667" y="234.6" text-anchor="start">R_b</text>
</g>
<g id="s78">
<line x1="375.44" y1="210.56" x2="388.24" y2="210.56" stroke="black" stroke-width="1.6"/>
<text font-size="11pt" stroke-width="0.2pt" fill="black" x="381.84" y="207.893333" text-anchor="middle">$V_{ss}$</text>
</g>
<g id="s79">
</g>
<g id="s80">
</g>
<g id="s81">
<polyline points="381.84,248.96 381.84,246.56 381.84,246.56 388.56,250.15856 388.56,250.15856 375.12,257.36 375.12,257.36 388.56,264.56144 388.56,264.56144 375.12,271.75856 375.12,271.75856 388.56,278.96 388.56,278.96 375.12,286.16144 375.12,286.16144 381.84,289.76 381.84,289.76 381.84,287.36" fill="none" stroke="black" stroke-width="1.6"/>
</g>
<g id="s82">
<text font-size="11pt" stroke-width="0.266667" fill="black" x="366.373333" y="273" text-anchor="end">R_a</text>
</g>
<g id="s83">
<line x1="369.04" y1="273" x2="369.04" y2="284.52" stroke="black" stroke-width="1.6"/>
</g>
<g id="s84">
<line x1="356.56" y1="284.52" x2="381.52" y2="284.52" stroke="black" stroke-width="1.6"/>
</g>
<g id="s85">
<line x1="361.36" y1="289.32" x2="376.72" y2="289.32" stroke="black" stroke-width="1.6"/>
</g>
<g id="s86">
<line x1="366.16" y1="294.12" x2="371.92" y2="294.12" stroke="black" stroke-width="1.6"/>
</g>
<g id="s87">
</g>
<g id="s88">
<line x1="68.88" y1="248.96" x2="53.04" y2="248.96" stroke="black" stroke-width="1.6"/>
</g>
<g id="s89">
<line x1="53.04" y1="261.44" x2="53.04" y2="236.48" stroke="black" stroke-width="1.6"/>
</g>
<g id="s90">
<line x1="46.32" y1="261.44" x2="46.32" y2="236.48" stroke="black" stroke-width="1.6"/>
</g>
<g id="s91">
<line x1="46.32" y1="248.96" x2="30.48" y2="248.96" stroke="black" stroke-width="1.6"/>
</g>
<g id="s92">
<text font-size="11pt" stroke-width="0.266667" fill="black" x="22.933333" y="253.8" text-anchor="end">C</text>
</g>
<g id="s93">
<circle cx="20.8" cy="248.96" r="4.8" fill="none" stroke="black" stroke-width="1.6"/>
</g>
<g id="s94">
<line x1="391.44" y1="101.12" x2="401.04" y2="101.12" stroke="black" stroke-width="1.6"/>
</g>
<g id="s95">
<line x1="401.04" y1="101.12" x2="401.04" y2="139.52" stroke="black" stroke-width="1.6"/>
</g>
<g id="s96">
<polyline points="401.04,139.52 353.04,139.52 230.16,139.52" fill="none" stroke="black" stroke-width="1.6"/>
</g>
<g id="s97">
<polyline points="230.16,139.52 182.16,139.52 59.28,139.52" fill="none" stroke="black" stroke-width="1.6"/>
</g>
<g id="s98">
<polyline points="59.28,139.52 59.28,91.52 59.28,101.12" fill="none" stroke="black" stroke-width="1.6"/>
</g>
<g id="s99">
<line x1="225.36" y1="101.12" x2="225.36" y2="120.32" stroke="black" stroke-width="1.6"/>
</g>
<g id="s100">
<line x1="225.36" y1="120.32" x2="225.36" y2="131.84" stroke="black" stroke-width="1.6"/>
</g>
<g id="s101">
<line x1="212.88" y1="131.84" x2="237.84" y2="131.84" stroke="black" stroke-width="1.6"/>
</g>
<g id="s102">
<line x1="217.68" y1="136.64" x2="233.04" y2="136.64" stroke="black" stroke-width="1.6"/>
</g>
<g id="s103">
<line x1="222.48" y1="141.44" x2="228.24" y2="141.44" stroke="black" stroke-width="1.6"/>
</g>
<g id="s104">
<line x1="330" y1="60.8" x2="330" y2="41.6" stroke="black" stroke-width="1.6"/>
</g>
<g id="s105">
</g>
<g id="s106">
<polyline points="330,41.6 330,44 330,44 323.28,40.40144 323.28,40.40144 336.72,33.2 336.72,33.2 323.28,25.99856 323.28,25.99856 336.72,18.80144 336.72,18.80144 323.28,11.6 323.28,11.6 336.72,4.39856 336.72,4.39856 330,0.8 330,0.8 330,3.2" fill="none" stroke="black" stroke-width="1.6"/>
</g>
<g id="s107">
<text font-size="11pt" stroke-width="0.266667" fill="black" x="345.466667" y="27.24" text-anchor="start">R_c</text>
</g>
<g id="s108">
<line x1="291.6" y1="60.8" x2="291.6" y2="41.6" stroke="black" stroke-width="1.6"/>
</g>
<g id="s109">
</g>
<g id="s110">
<polyline points="291.6,41.6 291.6,44 291.6,44 284.88,40.40144 284.88,40.40144 298.32,33.2 298.32,33.2 284.88,25.99856 284.88,25.99856 298.32,18.80144 298.32,18.80144 284.88,11.6 284.88,11.6 298.32,4.39856 298.32,4.39856 291.6,0.8 291.6,0.8 291.6,3.2" fill="none" stroke="black" stroke-width="1.6"/>
</g>
<g id="s111">
<text font-size="11pt" stroke-width="0.266667" fill="black" x="276.133333" y="27.24" text-anchor="end">R_c</text>
</g>
<g id="s112">
<polyline points="269.2,17.56 317.2,17.56 339.6,3.2" fill="none" stroke="black" stroke-width="1.6"/>
<text font-size="11pt" stroke-width="0.2pt" fill="black" x="304.4" y="7.713333" text-anchor="middle">$V_{cc}$</text>
</g>
<g id="s113">
<line x1="159.12" y1="60.8" x2="159.12" y2="51.2" stroke="black" stroke-width="1.6"/>
</g>
<g id="s114">
<polyline points="159.12,51.2 207.12,51.2 330,51.2" fill="none" stroke="black" stroke-width="1.6"/>
</g>
<g id="s115">
<polyline points="120.72,60.8 120.72,41.6 291.6,41.6" fill="none" stroke="black" stroke-width="1.6"/>
</g>
<g id="s116">
<line x1="330" y1="41.6" x2="368.4" y2="41.6" stroke="black" stroke-width="1.6"/>
</g>
<g id="s117">
<circle cx="373.2" cy="41.6" r="4.8" fill="none" stroke="black" stroke-width="1.6"/>
</g>
<g id="s118">
<polyline points="291.6,60.8 339.6,60.8 368.4,60.8" fill="none" stroke="black" stroke-width="1.6"/>
</g>
<g id="s119">
<circle cx="373.2" cy="60.8" r="4.8" fill="none" stroke="black" stroke-width="1.6"/>
</g>
<g id="s120">
<text font-size="11pt" stroke-width="0.266667" fill="black" x="88.08" y="105.96" text-anchor="middle">$Q_1$</text>
</g>
<g id="s121">
<text font-size="11pt" stroke-width="0.266667" fill="black" x="191.76" y="105.96" text-anchor="middle">$Q_2$</text>
</g>
<g id="s122">
<text font-size="11pt" stroke-width="0.266667" fill="black" x="258.96" y="105.96" text-anchor="middle">$Q_3$</text>
</g>
<g id="s123">
<text font-size="11pt" stroke-width="0.266667" fill="black" x="362.64" y="105.96" text-anchor="middle">$Q_4$</text>
</g>
<g id="s124">
<text font-size="11pt" stroke-width="0.266667" fill="black" x="107.28" y="253.8" text-anchor="middle">$Q_5$</text>
</g>
<g id="s125">
<text font-size="11pt" stroke-width="0.266667" fill="black" x="343.44" y="253.8" text-anchor="middle">$Q_6$</text>
</g>
<g id="s126">
<text font-size="11pt" stroke-width="0.266667" fill="black" x="25.68" y="105.96" text-anchor="middle">$V_{{en}_1}$</text>
</g>
<g id="s127">
<text font-size="11pt" stroke-width="0.266667" fill="black" x="1.6" y="253.8" text-anchor="middle">$V_{{en}_2}$</text>
</g>
<g id="s128">
<text font-size="11pt" stroke-width="0.266667" fill="black" x="392.4" y="56.04" text-anchor="middle">$V_{sa}$</text>
</g>
</svg>
