<svg xmlns="http://www.w3.org/2000/svg" width="483.6" height="343.68" viewBox="0 0 483.6 343.68" font-family="sans-serif" font-size="14.666667" fill="none">
<g id="s0">
<circle cx="97.68" cy="101.12" r="4.8" fill="none" stroke="black" stroke-width="1.6"/>
</g>
<g id="s1">
<line x1="102.48" y1="101.12" x2="112.08" y2="101.12" stroke="black" stroke-width="1.6"/>
</g>
<g id="s2">
<circle cx="158.16" cy="101.12" r="28.8" fill="none" stroke="black" stroke-width="1.6"/>
</g>
<g id="s3">
<line x1="152.4" y1="116.48" x2="152.4" y2="85.76" stroke="black" stroke-width="1.6"/>
</g>
<g id="s4">
<line x1="112.08" y1="101.12" x2="152.4" y2="101.12" stroke="black" stroke-width="1.6"/>
</g>
<g id="s5">
<line x1="152.4" y1="94.4" x2="173.52" y2="80" stroke="black" stroke-width="1.6"/>
</g>
<g id="s6">
<line x1="173.52" y1="80" x2="173.52" y2="60.8" stroke="black" stroke-width="1.6"/>
</g>
<g id="s7">
<line x1="152.4" y1="107.84" x2="170.794702" y2="120.381842" stroke="black" stroke-width="1.6"/>
<polygon stroke-width="0" points="166.940226,114.849021 173.52,122.24 164.236209,118.814912" fill="black"/>
</g>
<g id="s8">
<line x1="173.52" y1="122.24" x2="173.52" y2="141.44" stroke="black" stroke-width="1.6"/>
</g>
<g id="s9">
<line x1="173.52" y1="141.44" x2="173.52" y2="151.04" stroke="black" stroke-width="1.6"/>
</g>
<g id="s10">
<line x1="173.52" y1="151.04" x2="211.92" y2="151.04" stroke="black" stroke-width="1.6"/>
</g>
<g id="s11">
<line x1="211.92" y1="151.04" x2="211.92" y2="141.44" stroke="black" stroke-width="1.6"/>
</g>
<g id="s12">
<circle cx="227.28" cy="101.12" r="28.8" fill="none" stroke="black" stroke-width="1.6"/>
</g>
<g id="s13">
<line x1="233.04" y1="116.48" x2="233.04" y2="85.76" stroke="black" stroke-width="1.6"/>
</g>
<g id="s14">
<line x1="273.36" y1="101.12" x2="233.04" y2="101.12" stroke="black" stroke-width="1.6"/>
</g>
<g id="s15">
<line x1="233.04" y1="94.4" x2="211.92" y2="80" stroke="black" stroke-width="1.6"/>
</g>
<g id="s16">
<line x1="211.92" y1="80" x2="211.92" y2="60.8" stroke="black" stroke-width="1.6"/>
</g>
<g id="s17">
<line x1="233.04" y1="107.84" x2="214.645298" y2="120.381842" stroke="black" stroke-width="1.6"/>
<polygon stroke-width="0" points="221.203791,118.814912 211.92,122.24 218.499774,114.849021" fill="black"/>
</g>
<g id="s18">
<line x1="211.92" y1="122.24" x2="211.92" y2="141.44" stroke="black" stroke-width="1.6"/>
</g>
<g id="s19">
<line x1="273.36" y1="101.12" x2="282.96" y2="101.12" stroke="black" stroke-width="1.6"/>
</g>
<g id="s20">
<circle cx="329.04" cy="101.12" r="28.8" fill="none" stroke="black" stroke-width="1.6"/>
</g>
<g id="s21">
<line x1="323.28" y1="116.48" x2="323.28" y2="85.76" stroke="black" stroke-width="1.6"/>
</g>
<g id="s22">
<line x1="282.96" y1="101.12" x2="323.28" y2="101.12" stroke="black" stroke-width="1.6"/>
</g>
<g id="s23">
<line x1="323.28" y1="94.4" x2="344.4" y2="80" stroke="black" stroke-width="1.6"/>
</g>
<g id="s24">
<line x1="344.4" y1="80" x2="344.4" y2="60.8" stroke="black" stroke-width="1.6"/>
</g>
<g id="s25">
<line x1="323.28" y1="107.84" x2="341.674702" y2="120.381842" stroke="black" stroke-width="1.6"/>
<polygon stroke-width="0" points="337.820226,114.849021 344.4,122.24 335.116209,118.814912" fill="black"/>
</g>
<g id="s26">
<line x1="344.4" y1="122.24" x2="344.4" y2="141.44" stroke="black" stroke-width="1.6"/>
</g>
<g id="s27">
<line x1="344.4" y1="141.44" x2="344.4" y2="151.04" stroke="black" stroke-width="1.6"/>
</g>
<g id="s28">
<line x1="344.4" y1="151.04" x2="382.8" y2="151.04" stroke="black" stroke-width="1.6"/>
</g>
<g id="s29">
<line x1="382.8" y1="151.04" x2="382.8" y2="141.44" stroke="black" stroke-width="1.6"/>
</g>
<g id="s30">
<circle cx="398.16" cy="101.12" r="28.8" fill="none" stroke="black" stroke-width="1.6"/>
</g>
<g id="s31">
<line x1="403.92" y1="116.48" x2="403.92" y2="85.76" stroke="black" stroke-width="1.6"/>
</g>
<g id="s32">
<line x1="444.24" y1="101.12" x2="403.92" y2="101.12" stroke="black" stroke-width="1.6"/>
</g>
<g id="s33">
<line x1="403.92" y1="94.4" x2="382.8" y2="80" stroke="black" stroke-width="1.6"/>
</g>
<g id="s34">
<line x1="382.8" y1="80" x2="382.8" y2="60.8" stroke="black" stroke-width="1.6"/>
</g>
<g id="s35">
<line x1="403.92" y1="107.84" x2="385.525298" y2="120.381842" stroke="black" stroke-width="1.6"/>
<polygon stroke-width="0" points="392.083791,118.814912 382.8,122.24 389.379774,114.849021" fill="black"/>
</g>
<g id="s36">
<line x1="382.8" y1="122.24" x2="382.8" y2="141.44" stroke="black" stroke-width="1.6"/>
</g>
<g id="s37">
<line x1="192.72" y1="151.04" x2="192.72" y2="208.64" stroke="black" stroke-width="1.6"/>
</g>
<g id="s38">
<circle cx="177.36" cy="248.96" r="28.8" fill="none" stroke="black" stroke-width="1.6"/>
</g>
<g id="s39">
<line x1="171.6" y1="264.32" x2="171.6" y2="233.6" stroke="black" stroke-width="1.6"/>
</g>
<g id="s40">
<line x1="131.28" y1="248.96" x2="171.6" y2="248.96" stroke="black" stroke-width="1.6"/>
</g>
<g id="s41">
<line x1="171.6" y1="242.24" x2="192.72" y2="227.84" stroke="black" stroke-width="1.6"/>
</g>
<g id="s42">
<line x1="192.72" y1="227.84" x2="192.72" y2="208.64" stroke="black" stroke-width="1.6"/>
</g>
<g id="s43">
<line x1="171.6" y1="255.68" x2="189.994702" y2="268.221842" stroke="black" stroke-width="1.6"/>
<polygon stroke-width="0" points="186.140226,262.689021 192.72,270.08 183.436209,266.654912" fill="black"/>
</g>
<g id="s44">
<line x1="192.72" y1="270.08" x2="192.72" y2="289.28" stroke="black" stroke-width="1.6"/>
</g>
<g id="s45">
<line x1="192.72" y1="289.28" x2="192.72" y2="298.88" stroke="black" stroke-width="1.6"/>
</g>
<g id="s46">
<polyline points="192.72,298.88 240.72,298.88 363.6,298.88" fill="none" stroke="black" stroke-width="1.6"/>
</g>
<g id="s47">
<line x1="363.6" y1="298.88" x2="363.6" y2="289.28" stroke="black" stroke-width="1.6"/>
</g>
<g id="s48">
<circle cx="378.96" cy="248.96" r="28.8" fill="none" stroke="black" stroke-width="1.6"/>
</g>
<g id="s49">
<line x1="384.72" y1="264.32" x2="384.72" y2="233.6" stroke="black" stroke-width="1.6"/>
</g>
<g id="s50">
<line x1="425.04" y1="248.96" x2="384.72" y2="248.96" stroke="black" stroke-width="1.6"/>
</g>
<g id="s51">
<line x1="384.72" y1="242.24" x2="363.6" y2="227.84" stroke="black" stroke-width="1.6"/>
</g>
<g id="s52">
<line x1="363.6" y1="227.84" x2="363.6" y2="208.64" stroke="black" stroke-width="1.6"/>
</g>
<g id="s53">
<line x1="384.72" y1="255.68" x2="366.325298" y2="268.221842" stroke="black" stroke-width="1.6"/>
<polygon stroke-width="0" points="372.883791,266.654912 363.6,270.08 370.179774,262.689021" fill="black"/>
</g>
<g id="s54">
<line x1="363.6" y1="270.08" x2="363.6" y2="289.28" stroke="black" stroke-width="1.6"/>
</g>
<g id="s55">
<polyline points="363.6,208.64 363.6,160.64 363.6,151.04" fill="none" stroke="black" stroke-width="1.6"/>
</g>
<g id="s56">
</g>
<g id="s57">
</g>
<g id="s58">
<polyline points="278.16,298.88 278.16,296.48 278.16,296.48 284.88,300.07856 284.88,300.07856 271.44,307.28 271.44,307.28 284.88,314.48144 284.88,314.48144 271.44,321.67856 271.44,321.67856 284.88,328.88 284.88,328.88 271.44,336.08144 271.44,336.08144 278.16,339.68 278.16,339.68 278.16,337.28" fill="none" stroke="black" stroke-width="1.6"/>
</g>
<g id="s59">
<text font-size="11pt" stroke-width="0.266667" fill="black" x="262.693333" y="322.92" text-anchor="end">R_{ee}</text>
</g>
<g id="s60">
<line x1="270.48" y1="337.28" x2="285.84" y2="337.28" stroke="black" stroke-width="1.6"/>
<text font-size="11pt" stroke-width="0.2pt" fill="black" x="278.16" y="349.626667" text-anchor="middle">$V_{ss}$</text>
</g>
<g id="s61">
<line x1="131.28" y1="248.96" x2="121.68" y2="248.96" stroke="black" stroke-width="1.6"/>
</g>
<g id="s62">
</g>
<g id="s63">
<polyline points="121.68,248.96 121.68,251.36 121.68,251.36 114.96,247.76144 114.96,247.76144 128.4,240.56 128.4,240.56 114.96,233.35856 114.96,233.35856 128.4,226.16144 128.4,226.16144 114.96,218.96 114.96,218.96 128.4,211.75856 128.4,211.75856 121.68,208.16 121.68,208.16 121.68,210.56" fill="none" stroke="black" stroke-width="1.6"/>
</g>
<g id="s64">
<text font-size="11pt" stroke-width="0.266667" fill="black" x="137.146667" y="234.6" text-anchor="start">R_b</text>
</g>
<g id="s65">
<line x1="115.28" y1="210.56" x2="128.08" y2="210.56" stroke="black" stroke-width="1.6"/>
<text font-size="11pt" stroke-width="0.2pt" fill="black" x="121.68" y="207.893333" text-anchor="middle">$V_{ss}$</text>
</g>
<g id="s66">
</g>
<g id="s67">
</g>
<g id="s68">
<polyline points="121.68,248.96 121.68,246.56 121.68,246.56 128.4,250.15856 128.4,250.15856 114.96,257.36 114.96,257.36 128.4,264.56144 128.4,264.56144 114.96,271.75856 114.96,271.75856 128.4,278.96 128.4,278.96 114.96,286.16144 114.96,286.16144 121.68,289.76 121.68,289.76 121.68,287.36" fill="none" stroke="black" stroke-width="1.6"/>
</g>
<g id="s69">
<text font-size="11pt" stroke-width="0.266667" fill="black" x="106.213333" y="273" text-anchor="end">R_a</text>
</g>
<g id="s70">
<line x1="108.88" y1="273" x2="108.88" y2="284.52" stroke="black" stroke-width="1.6"/>
</g>
<g id="s71">
<line x1="96.4" y1="284.52" x2="121.36" y2="284.52" stroke="black" stroke-width="1.6"/>
</g>
<g id="s72">
<line x1="101.2" y1="289.32" x2="116.56" y2="289.32" stroke="black" stroke-width="1.6"/>
</g>
<g id="s73">
<line x1="106" y1="294.12" x2="111.76" y2="294.12" stroke="black" stroke-width="1.6"/>
</g>
<g id="s74">
<line x1="425.04" y1="248.96" x2="434.64" y2="248.96" stroke="black" stroke-width="1.6"/>
</g>
<g id="s75">
</g>
<g id="s76">
<polyline points="434.64,248.96 434.64,251.36 434.64,251.36 427.92,247.76144 427.92,247.76144 441.36,240.56 441.36,240.56 427.92,233.35856 427.92,233.35856 441.36,226.16144 441.36,226.16144 427.92,218.96 427.92,218.96 441.36,211.75856 441.36,211.75856 434.64,208.16 434.64,208.16 434.64,210.56" fill="none" stroke="black" stroke-width="1.6"/>
</g>
<g id="s77">
<text font-size="11pt" stroke-width="0.266667" fill="black" x="450.106667" y="234.6" text-anchor="start">R_b</text>
</g>
<g id="s78">
<line x1="428.24" y1="210.56" x2="441.04" y2="210.56" stroke="black" stroke-width="1.6"/>
<text font-size="11pt" stroke-width="0.2pt" fill="black" x="434.64" y="207.893333" text-anchor="middle">$V_{ss}$</text>
</g>
<g id="s79">
</g>
<g id="s80">
</g>
<g id="s81">
<polyline points="434.64,248.96 434.64,246.56 434.64,246.56 441.36,250.15856 441.36,250.15856 427.92,257.36 427.92,257.36 441.36,264.56144 441.36,264.56144 427.92,271.75856 427.92,271.75856 441.36,278.96 441.36,278.96 427.92,286.16144 427.92,286.16144 434.64,289.76 434.64,289.76 434.64,287.36" fill="none" stroke="black" stroke-width="1.6"/>
</g>
<g id="s82">
<text font-size="11pt" stroke-width="0.266667" fill="black" x="419.173333" y="273" text-anchor="end">R_a</text>
</g>
<g id="s83">
<line x1="421.84" y1="273" x2="421.84" y2="284.52" stroke="black" stroke-width="1.6"/>
</g>
<g id="s84">
<line x1="409.36" y1="284.52" x2="434.32" y2="284.52" stroke="black" stroke-width="1.6"/>
</g>
<g id="s85">
<line x1="414.16" y1="289.32" x2="429.52" y2="289.32" stroke="black" stroke-width="1.6"/>
</g>
<g id="s86">
<line x1="418.96" y1="294.12" x2="424.72" y2="294.12" stroke="black" stroke-width="1.6"/>
</g>
<g id="s87">
</g>
<g id="s88">
<line x1="121.68" y1="248.96" x2="105.84" y2="248.96" stroke="black" stroke-width="1.6"/>
</g>
<g id="s89">
<line x1="105.84" y1="261.44" x2="105.84" y2="236.48" stroke="black" stroke-width="1.6"/>
</g>
<g id="s90">
<line x1="99.12" y1="261.44" x2="99.12" y2="236.48" stroke="black" stroke-width="1.6"/>
</g>
<g id="s91">
<line x1="99.12" y1="248.96" x2="83.28" y2="248.96" stroke="black" stroke-width="1.6"/>
</g>
<g id="s92">
<text font-size="11pt" stroke-width="0.266667" fill="black" x="75.733333" y="253.8" text-anchor="end">C</text>
</g>
<g id="s93">
<circle cx="73.6" cy="248.96" r="4.8" fill="none" stroke="black" stroke-width="1.6"/>
</g>
<g id="s94">
<line x1="444.24" y1="101.12" x2="453.84" y2="101.12" stroke="black" stroke-width="1.6"/>
</g>
<g id="s95">
<line x1="453.84" y1="101.12" x2="453.84" y2="139.52" stroke="black" stroke-width="1.6"/>
</g>
<g id="s96">
<polyline points="453.84,139.52 405.84,139.52 282.96,139.52" fill="none" stroke="black" stroke-width="1.6"/>
</g>
<g id="s97">
<polyline points="282.96,139.52 234.96,139.52 112.08,139.52" fill="none" stroke="black" stroke-width="1.6"/>
</g>
<g id="s98">
<polyline points="112.08,139.52 112.08,91.52 112.08,101.12" fill="none" stroke="black" stroke-width="1.6"/>
</g>
<g id="s99">
<line x1="278.16" y1="101.12" x2="278.16" y2="120.32" stroke="black" stroke-width="1.6"/>
</g>
<g id="s100">
<line x1="278.16" y1="120.32" x2="278.16" y2="131.84" stroke="black" stroke-width="1.6"/>
</g>
<g id="s101">
<line x1="265.68" y1="131.84" x2="290.64" y2="131.84" stroke="black" stroke-width="1.6"/>
</g>
<g id="s102">
<line x1="270.48" y1="136.64" x2="285.84" y2="136.64" stroke="black" stroke-width="1.6"/>
</g>
<g id="s103">
<line x1="275.28" y1="141.44" x2="281.04" y2="141.44" stroke="black" stroke-width="1.6"/>
</g>
<g id="s104">
<line x1="382.8" y1="60.8" x2="382.8" y2="41.6" stroke="black" stroke-width="1.6"/>
</g>
<g id="s105">
</g>
<g id="s106">
<polyline points="382.8,41.6 382.8,44 382.8,44 376.08,40.40144 376.08,40.40144 389.52,33.2 389.52,33.2 376.08,25.99856 376.08,25.99856 389.52,18.80144 389.52,18.80144 376.08,11.6 376.08,11.6 389.52,4.39856 389.52,4.39856 382.8,0.8 382.8,0.8 382.8,3.2" fill="none" stroke="black" stroke-width="1.6"/>
</g>
<g id="s107">
<text font-size="11pt" stroke-width="0.266667" fill="black" x="398.266667" y="27.24" text-anchor="start">R_c</text>
</g>
<g id="s108">
<line x1="344.4" y1="60.8" x2="344.4" y2="41.6" stroke="black" stroke-width="1.6"/>
</g>
<g id="s109">
</g>
<g id="s110">
<polyline points="344.4,41.6 344.4,44 344.4,44 337.68,40.40144 337.68,40.40144 351.12,33.2 351.12,33.2 337.68,25.99856 337.68,25.99856 351.12,18.80144 351.12,18.80144 337.68,11.6 337.68,11.6 351.12,4.39856 351.12,4.39856 344.4,0.8 344.4,0.8 344.4,3.2" fill="none" stroke="black" stroke-width="1.6"/>
</g>
<g id="s111">
<text font-size="11pt" stroke-width="0.266667" fill="black" x="328.933333" y="27.24" text-anchor="end">R_c</text>
</g>
<g id="s112">
<polyline points="322,17.56 370,17.56 392.4,3.2" fill="none" stroke="black" stroke-width="1.6"/>
<text font-size="11pt" stroke-width="0.2pt" fill="black" x="357.2" y="7.713333" text-anchor="middle">$V_{cc}$</text>
</g>
<g id="s113">
<line x1="211.92" y1="60.8" x2="211.92" y2="51.2" stroke="black" stroke-width="1.6"/>
</g>
<g id="s114">
<polyline points="211.92,51.2 259.92,51.2 382.8,51.2" fill="none" stroke="black" stroke-width="1.6"/>
</g>
<g id="s115">
<polyline points="173.52,60.8 173.52,41.6 344.4,41.6" fill="none" stroke="black" stroke-width="1.6"/>
</g>
<g id="s116">
<line x1="382.8" y1="41.6" x2="421.2" y2="41.6" stroke="black" stroke-width="1.6"/>
</g>
<g id="s117">
<circle cx="426" cy="41.6" r="4.8" fill="none" stroke="black" stroke-width="1.6"/>
</g>
<g id="s118">
<polyline points="344.4,60.8 392.4,60.8 421.2,60.8" fill="none" stroke="black" stroke-width="1.6"/>
</g>
<g id="s119">
<circle cx="426" cy="60.8" r="4.8" fill="none" stroke="black" stroke-width="1.6"/>
</g>
<g id="s120">
<text font-size="11pt" stroke-width="0.266667" fill="black" x="140.88" y="105.96" text-anchor="middle">$Q_1$</text>
</g>
<g id="s121">
<text font-size="11pt" stroke-width="0.266667" fill="black" x="244.56" y="105.96" text-anchor="middle">$Q_2$</text>
</g>
<g id="s122">
<text font-size="11pt" stroke-width="0.266667" fill="black" x="311.76" y="105.96" text-anchor="middle">$Q_3$</text>
</g>
<g id="s123">
<text font-size="11pt" stroke-width="0.266667" fill="black" x="415.44" y="105.96" text-anchor="middle">$Q_4$</text>
</g>
<g id="s124">
<text font-size="11pt" stroke-width="0.266667" fill="black" x="160.08" y="253.8" text-anchor="middle">$Q_5$</text>
</g>
<g id="s125">
<text font-size="11pt" stroke-width="0.266667" fill="black" x="396.24" y="253.8" text-anchor="middle">$Q_6$</text>
</g>
<g id="s126">
<text font-size="11pt" stroke-width="0.266667" fill="black" x="78.48" y="105.96" text-anchor="middle">$V_{{en}_1}$</text>
</g>
<g id="s127">
<text font-size="11pt" stroke-width="0.266667" fill="black" x="54.4" y="253.8" text-anchor="middle">$V_{{en}_2}$</text>
</g>
<g id="s128">
<text font-size="11pt" stroke-width="0.266667" fill="black" x="445.2" y="56.04" text-anchor="middle">$V_{sa}$</text>
</g>
</svg>
