<svg xmlns="http://www.w3.org/2000/svg" width="440.32" height="319.24" viewBox="0 0 440.32 319.24" font-family="sans-serif" font-size="14.666667" fill="none">
<g id="s0">
<circle cx="54.4" cy="101.12" r="4.8" fill="none" stroke="black" stroke-width="1.6"/>
</g>
<g id="s1">
<line x1="59.2" y1="101.12" x2="68.8" y2="101.12" stroke="black" stroke-width="1.6"/>
</g>
<g id="s2">
<circle cx="114.88" cy="101.12" r="28.8" fill="none" stroke="black" stroke-width="1.6"/>
</g>
<g id="s3">
<line x1="109.12" y1="116.48" x2="109.12" y2="85.76" stroke="black" stroke-width="1.6"/>
</g>
<g id="s4">
<line x1="68.8" y1="101.12" x2="109.12" y2="101.12" stroke="black" stroke-width="1.6"/>
</g>
<g id="s5">
<line x1="109.12" y1="94.4" x2="130.24" y2="80" stroke="black" stroke-width="1.6"/>
</g>
<g id="s6">
<line x1="130.24" y1="80" x2="130.24" y2="60.8" stroke="black" stroke-width="1.6"/>
</g>
<g id="s7">
<line x1="109.12" y1="107.84" x2="127.514702" y2="120.381842" stroke="black" stroke-width="1.6"/>
<polygon stroke-width="0" points="123.660226,114.849021 130.24,122.24 120.956209,118.814912" fill="black"/>
</g>
<g id="s8">
<line x1="130.24" y1="122.24" x2="130.24" y2="141.44" stroke="black" stroke-width="1.6"/>
</g>
<g id="s9">
<line x1="130.24" y1="141.44" x2="130.24" y2="151.04" stroke="black" stroke-width="1.6"/>
</g>
<g id="s10">
<line x1="130.24" y1="151.04" x2="168.64" y2="151.04" stroke="black" stroke-width="1.6"/>
</g>
<g id="s11">
<line x1="168.64" y1="151.04" x2="168.64" y2="141.44" stroke="black" stroke-width="1.6"/>
</g>
<g id="s12">
<circle cx="184" cy="101.12" r="28.8" fill="none" stroke="black" stroke-width="1.6"/>
</g>
<g id="s13">
<line x1="189.76" y1="116.48" x2="189.76" y2="85.76" stroke="black" stroke-width="1.6"/>
</g>
<g id="s14">
<line x1="230.08" y1="101.12" x2="189.76" y2="101.12" stroke="black" stroke-width="1.6"/>
</g>
<g id="s15">
<line x1="189.76" y1="94.4" x2="168.64" y2="80" stroke="black" stroke-width="1.6"/>
</g>
<g id="s16">
<line x1="168.64" y1="80" x2="168.64" y2="60.8" stroke="black" stroke-width="1.6"/>
</g>
<g id="s17">
<line x1="189.76" y1="107.84" x2="171.365298" y2="120.381842" stroke="black" stroke-width="1.6"/>
<polygon stroke-width="0" points="177.923791,118.814912 168.64,122.24 175.219774,114.849021" fill="black"/>
</g>
<g id="s18">
<line x1="168.64" y1="122.24" x2="168.64" y2="141.44" stroke="black" stroke-width="1.6"/>
</g>
<g id="s19">
<line x1="230.08" y1="101.12" x2="239.68" y2="101.12" stroke="black" stroke-width="1.6"/>
</g>
<g id="s20">
<circle cx="285.76" cy="101.12" r="28.8" fill="none" stroke="black" stroke-width="1.6"/>
</g>
<g id="s21">
<line x1="280" y1="116.48" x2="280" y2="85.76" stroke="black" stroke-width="1.6"/>
</g>
<g id="s22">
<line x1="239.68" y1="101.12" x2="280" y2="101.12" stroke="black" stroke-width="1.6"/>
</g>
<g id="s23">
<line x1="280" y1="94.4" x2="301.12" y2="80" stroke="black" stroke-width="1.6"/>
</g>
<g id="s24">
<line x1="301.12" y1="80" x2="301.12" y2="60.8" stroke="black" stroke-width="1.6"/>
</g>
<g id="s25">
<line x1="280" y1="107.84" x2="298.394702" y2="120.381842" stroke="black" stroke-width="1.6"/>
<polygon stroke-width="0" points="294.540226,114.849021 301.12,122.24 291.836209,118.814912" fill="black"/>
</g>
<g id="s26">
<line x1="301.12" y1="122.24" x2="301.12" y2="141.44" stroke="black" stroke-width="1.6"/>
</g>
<g id="s27">
<line x1="301.12" y1="141.44" x2="301.12" y2="151.04" stroke="black" stroke-width="1.6"/>
</g>
<g id="s28">
<line x1="301.12" y1="151.04" x2="339.52" y2="151.04" stroke="black" stroke-width="1.6"/>
</g>
<g id="s29">
<line x1="339.52" y1="151.04" x2="339.52" y2="141.44" stroke="black" stroke-width="1.6"/>
</g>
<g id="s30">
<circle cx="354.88" cy="101.12" r="28.8" fill="none" stroke="black" stroke-width="1.6"/>
</g>
<g id="s31">
<line x1="360.64" y1="116.48" x2="360.64" y2="85.76" stroke="black" stroke-width="1.6"/>
</g>
<g id="s32">
<line x1="400.96" y1="101.12" x2="360.64" y2="101.12" stroke="black" stroke-width="1.6"/>
</g>
<g id="s33">
<line x1="360.64" y1="94.4" x2="339.52" y2="80" stroke="black" stroke-width="1.6"/>
</g>
<g id="s34">
<line x1="339.52" y1="80" x2="339.52" y2="60.8" stroke="black" stroke-width="1.6"/>
</g>
<g id="s35">
<line x1="360.64" y1="107.84" x2="342.245298" y2="120.381842" stroke="black" stroke-width="1.6"/>
<polygon stroke-width="0" points="348.803791,118.814912 339.52,122.24 346.099774,114.849021" fill="black"/>
</g>
<g id="s36">
<line x1="339.52" y1="122.24" x2="339.52" y2="141.44" stroke="black" stroke-width="1.6"/>
</g>
<g id="s37">
<line x1="149.44" y1="151.04" x2="149.44" y2="170.24" stroke="black" stroke-width="1.6"/>
</g>
<g id="s38">
<circle cx="134.08" cy="210.56" r="28.8" fill="none" stroke="black" stroke-width="1.6"/>
</g>
<g id="s39">
<line x1="128.32" y1="225.92" x2="128.32" y2="195.2" stroke="black" stroke-width="1.6"/>
</g>
<g id="s40">
<line x1="88" y1="210.56" x2="128.32" y2="210.56" stroke="black" stroke-width="1.6"/>
</g>
<g id="s41">
<line x1="128.32" y1="203.84" x2="149.44" y2="189.44" stroke="black" stroke-width="1.6"/>
</g>
<g id="s42">
<line x1="149.44" y1="189.44" x2="149.44" y2="170.24" stroke="black" stroke-width="1.6"/>
</g>
<g id="s43">
<line x1="128.32" y1="217.28" x2="146.714702" y2="229.821842" stroke="black" stroke-width="1.6"/>
<polygon stroke-width="0" points="142.860226,224.289021 149.44,231.68 140.156209,228.254912" fill="black"/>
</g>
<g id="s44">
<line x1="149.44" y1="231.68" x2="149.44" y2="250.88" stroke="black" stroke-width="1.6"/>
</g>
<g id="s45">
<line x1="149.44" y1="250.88" x2="149.44" y2="260.48" stroke="black" stroke-width="1.6"/>
</g>
<g id="s46">
<polyline points="149.44,260.48 197.44,260.48 320.32,260.48" fill="none" stroke="black" stroke-width="1.6"/>
</g>
<g id="s47">
<line x1="320.32" y1="260.48" x2="320.32" y2="250.88" stroke="black" stroke-width="1.6"/>
</g>
<g id="s48">
<circle cx="335.68" cy="210.56" r="28.8" fill="none" stroke="black" stroke-width="1.6"/>
</g>
<g id="s49">
<line x1="341.44" y1="225.92" x2="341.44" y2="195.2" stroke="black" stroke-width="1.6"/>
</g>
<g id="s50">
<line x1="381.76" y1="210.56" x2="341.44" y2="210.56" stroke="black" stroke-width="1.6"/>
</g>
<g id="s51">
<line x1="341.44" y1="203.84" x2="320.32" y2="189.44" stroke="black" stroke-width="1.6"/>
</g>
<g id="s52">
<line x1="320.32" y1="189.44" x2="320.32" y2="170.24" stroke="black" stroke-width="1.6"/>
</g>
<g id="s53">
<line x1="341.44" y1="217.28" x2="323.045298" y2="229.821842" stroke="black" stroke-width="1.6"/>
<polygon stroke-width="0" points="329.603791,228.254912 320.32,231.68 326.899774,224.289021" fill="black"/>
</g>
<g id="s54">
<line x1="320.32" y1="231.68" x2="320.32" y2="250.88" stroke="black" stroke-width="1.6"/>
</g>
<g id="s55">
<line x1="320.32" y1="170.24" x2="320.32" y2="151.04" stroke="black" stroke-width="1.6"/>
</g>
<g id="s56">
<line x1="234.88" y1="260.48" x2="234.88" y2="270.08" stroke="black" stroke-width="1.6"/>
</g>
<g id="s57">
</g>
<g id="s58">
<polyline points="234.88,270.08 234.88,267.68 234.88,267.68 241.6,271.27856 241.6,271.27856 228.16,278.48 228.16,278.48 241.6,285.68144 241.6,285.68144 228.16,292.87856 228.16,292.87856 241.6,300.08 241.6,300.08 228.16,307.28144 228.16,307.28144 234.88,310.88 234.88,310.88 234.88,308.48" fill="none" stroke="black" stroke-width="1.6"/>
</g>
<g id="s59">
<text font-size="11pt" stroke-width="0.266667" fill="black" x="219.413333" y="294.12" text-anchor="end">R_{ee}</text>
</g>
<g id="s60">
<line x1="222.08" y1="294.12" x2="222.08" y2="305.64" stroke="black" stroke-width="1.6"/>
</g>
<g id="s61">
<line x1="209.6" y1="305.64" x2="234.56" y2="305.64" stroke="black" stroke-width="1.6"/>
</g>
<g id="s62">
<line x1="214.4" y1="310.44" x2="229.76" y2="310.44" stroke="black" stroke-width="1.6"/>
</g>
<g id="s63">
<line x1="219.2" y1="315.24" x2="224.96" y2="315.24" stroke="black" stroke-width="1.6"/>
</g>
<g id="s64">
<line x1="88" y1="210.56" x2="78.4" y2="210.56" stroke="black" stroke-width="1.6"/>
</g>
<g id="s65">
<circle cx="73.6" cy="210.56" r="4.8" fill="none" stroke="black" stroke-width="1.6"/>
</g>
<g id="s66">
<line x1="381.76" y1="210.56" x2="391.36" y2="210.56" stroke="black" stroke-width="1.6"/>
</g>
<g id="s67">
<line x1="391.36" y1="210.56" x2="391.36" y2="248.96" stroke="black" stroke-width="1.6"/>
</g>
<g id="s68">
<polyline points="391.36,248.96 343.36,248.96 78.4,248.96" fill="none" stroke="black" stroke-width="1.6"/>
</g>
<g id="s69">
<circle cx="73.6" cy="248.96" r="4.8" fill="none" stroke="black" stroke-width="1.6"/>
</g>
<g id="s70">
<line x1="400.96" y1="101.12" x2="410.56" y2="101.12" stroke="black" stroke-width="1.6"/>
</g>
<g id="s71">
<line x1="410.56" y1="101.12" x2="410.56" y2="139.52" stroke="black" stroke-width="1.6"/>
</g>
<g id="s72">
<polyline points="410.56,139.52 362.56,139.52 239.68,139.52" fill="none" stroke="black" stroke-width="1.6"/>
</g>
<g id="s73">
<polyline points="239.68,139.52 191.68,139.52 68.8,139.52" fill="none" stroke="black" stroke-width="1.6"/>
</g>
<g id="s74">
<polyline points="68.8,139.52 68.8,91.52 68.8,101.12" fill="none" stroke="black" stroke-width="1.6"/>
</g>
<g id="s75">
<line x1="234.88" y1="101.12" x2="234.88" y2="149.12" stroke="black" stroke-width="1.6"/>
</g>
<g id="s76">
<line x1="234.88" y1="149.12" x2="59.2" y2="149.12" stroke="black" stroke-width="1.6"/>
</g>
<g id="s77">
<circle cx="54.4" cy="149.12" r="4.8" fill="none" stroke="black" stroke-width="1.6"/>
</g>
<g id="s78">
<line x1="339.52" y1="60.8" x2="339.52" y2="41.6" stroke="black" stroke-width="1.6"/>
</g>
<g id="s79">
</g>
<g id="s80">
<polyline points="339.52,41.6 339.52,44 339.52,44 332.8,40.40144 332.8,40.40144 346.24,33.2 346.24,33.2 332.8,25.99856 332.8,25.99856 346.24,18.80144 346.24,18.80144 332.8,11.6 332.8,11.6 346.24,4.39856 346.24,4.39856 339.52,0.8 339.52,0.8 339.52,3.2" fill="none" stroke="black" stroke-width="1.6"/>
</g>
<g id="s81">
<text font-size="11pt" stroke-width="0.266667" fill="black" x="354.986667" y="27.24" text-anchor="start">R_c</text>
</g>
<g id="s82">
<line x1="301.12" y1="60.8" x2="301.12" y2="41.6" stroke="black" stroke-width="1.6"/>
</g>
<g id="s83">
</g>
<g id="s84">
<polyline points="301.12,41.6 301.12,44 301.12,44 294.4,40.40144 294.4,40.40144 307.84,33.2 307.84,33.2 294.4,25.99856 294.4,25.99856 307.84,18.80144 307.84,18.80144 294.4,11.6 294.4,11.6 307.84,4.39856 307.84,4.39856 301.12,0.8 301.12,0.8 301.12,3.2" fill="none" stroke="black" stroke-width="1.6"/>
</g>
<g id="s85">
<text font-size="11pt" stroke-width="0.266667" fill="black" x="285.653333" y="27.24" text-anchor="end">R_c</text>
</g>
<g id="s86">
<polyline points="278.72,17.56 326.72,17.56 349.12,3.2" fill="none" stroke="black" stroke-width="1.6"/>
<text font-size="11pt" stroke-width="0.2pt" fill="black" x="313.92" y="7.713333" text-anchor="middle">$V_{cc}$</text>
</g>
<g id="s87">
<line x1="168.64" y1="60.8" x2="168.64" y2="51.2" stroke="black" stroke-width="1.6"/>
</g>
<g id="s88">
<polyline points="168.64,51.2 216.64,51.2 339.52,51.2" fill="none" stroke="black" stroke-width="1.6"/>
</g>
<g id="s89">
<polyline points="130.24,60.8 130.24,41.6 301.12,41.6" fill="none" stroke="black" stroke-width="1.6"/>
</g>
<g id="s90">
<line x1="339.52" y1="41.6" x2="377.92" y2="41.6" stroke="black" stroke-width="1.6"/>
</g>
<g id="s91">
<circle cx="382.72" cy="41.6" r="4.8" fill="none" stroke="black" stroke-width="1.6"/>
</g>
<g id="s92">
<polyline points="301.12,60.8 349.12,60.8 377.92,60.8" fill="none" stroke="black" stroke-width="1.6"/>
</g>
<g id="s93">
<circle cx="382.72" cy="60.8" r="4.8" fill="none" stroke="black" stroke-width="1.6"/>
</g>
<g id="s94">
<text font-size="11pt" stroke-width="0.266667" fill="black" x="97.6" y="105.96" text-anchor="middle">$Q_1$</text>
</g>
<g id="s95">
<text font-size="11pt" stroke-width="0.266667" fill="black" x="201.28" y="105.96" text-anchor="middle">$Q_2$</text>
</g>
<g id="s96">
<text font-size="11pt" stroke-width="0.266667" fill="black" x="268.48" y="105.96" text-anchor="middle">$Q_3$</text>
</g>
<g id="s97">
<text font-size="11pt" stroke-width="0.266667" fill="black" x="372.16" y="105.96" text-anchor="middle">$Q_4$</text>
</g>
<g id="s98">
<text font-size="11pt" stroke-width="0.266667" fill="black" x="116.8" y="215.4" text-anchor="middle">$Q_5$</text>
</g>
<g id="s99">
<text font-size="11pt" stroke-width="0.266667" fill="black" x="352.96" y="215.4" text-anchor="middle">$Q_6$</text>
</g>
<g id="s100">
<text font-size="11pt" stroke-width="0.266667" fill="black" x="54.4" y="129.96" text-anchor="middle">$V_{{en}_1}$</text>
</g>
<g id="s101">
<text font-size="11pt" stroke-width="0.266667" fill="black" x="73.6" y="234.6" text-anchor="middle">$V_{{en}_2}$</text>
</g>
<g id="s102">
<text font-size="11pt" stroke-width="0.266667" fill="black" x="401.92" y="56.04" text-anchor="middle">$V_{sa}$</text>
</g>
</svg>
