<svg xmlns="http://www.w3.org/2000/svg" width="255.68" height="231.84" viewBox="0 0 255.68 231.84" font-family="sans-serif" font-size="14.666667" fill="none">
<g id="s0">
<circle cx="87.36" cy="137.12" r="28.8" fill="none" stroke="black" stroke-width="1.6"/>
</g>
<g id="s1">
<line x1="81.6" y1="152.48" x2="81.6" y2="121.76" stroke="black" stroke-width="1.6"/>
</g>
<g id="s2">
<line x1="41.28" y1="137.12" x2="81.6" y2="137.12" stroke="black" stroke-width="1.6"/>
</g>
<g id="s3">
<line x1="81.6" y1="130.4" x2="102.72" y2="116" stroke="black" stroke-width="1.6"/>
</g>
<g id="s4">
<line x1="102.72" y1="116" x2="102.72" y2="96.8" stroke="black" stroke-width="1.6"/>
</g>
<g id="s5">
<line x1="81.6" y1="143.84" x2="99.994702" y2="156.381842" stroke="black" stroke-width="1.6"/>
<polygon stroke-width="0" points="96.140226,150.849021 102.72,158.24 93.436209,154.814912" fill="black"/>
</g>
<g id="s6">
<line x1="102.72" y1="158.24" x2="102.72" y2="177.44" stroke="black" stroke-width="1.6"/>
</g>
<g id="s7">
</g>
<g id="s8">
<circle cx="185.28" cy="137.12" r="28.8" fill="none" stroke="black" stroke-width="1.6"/>
</g>
<g id="s9">
<line x1="191.04" y1="152.48" x2="191.04" y2="121.76" stroke="black" stroke-width="1.6"/>
</g>
<g id="s10">
<line x1="231.36" y1="137.12" x2="191.04" y2="137.12" stroke="black" stroke-width="1.6"/>
</g>
<g id="s11">
<line x1="191.04" y1="130.4" x2="169.92" y2="116" stroke="black" stroke-width="1.6"/>
</g>
<g id="s12">
<line x1="169.92" y1="116" x2="169.92" y2="96.8" stroke="black" stroke-width="1.6"/>
</g>
<g id="s13">
<line x1="191.04" y1="143.84" x2="172.645298" y2="156.381842" stroke="black" stroke-width="1.6"/>
<polygon stroke-width="0" points="179.203791,154.814912 169.92,158.24 176.499774,150.849021" fill="black"/>
</g>
<g id="s14">
<line x1="169.92" y1="158.24" x2="169.92" y2="177.44" stroke="black" stroke-width="1.6"/>
</g>
<g id="s15">
<line x1="102.72" y1="177.44" x2="102.72" y2="187.04" stroke="black" stroke-width="1.6"/>
</g>
<g id="s16">
<line x1="169.92" y1="177.44" x2="169.92" y2="187.04" stroke="black" stroke-width="1.6"/>
</g>
<g id="s17">
<line x1="102.72" y1="187.04" x2="169.92" y2="187.04" stroke="black" stroke-width="1.6"/>
</g>
<g id="s18">
</g>
<g id="s19">
</g>
<g id="s20">
<polyline points="136.32,187.04 136.32,184.64 136.32,184.64 143.04,188.23856 143.04,188.23856 129.6,195.44 129.6,195.44 143.04,202.64144 143.04,202.64144 129.6,209.83856 129.6,209.83856 143.04,217.04 143.04,217.04 129.6,224.24144 129.6,224.24144 136.32,227.84 136.32,227.84 136.32,225.44" fill="none" stroke="black" stroke-width="1.6"/>
</g>
<g id="s21">
<text font-size="11pt" stroke-width="0.266667" fill="black" x="120.853333" y="211.08" text-anchor="end">R_{ee}</text>
</g>
<g id="s22">
</g>
<g id="s23">
<line x1="145.92" y1="225.44" x2="126.72" y2="225.44" stroke="black" stroke-width="1.6"/>
<text font-size="11pt" stroke-width="0.2pt" fill="black" x="136.32" y="237.786667" text-anchor="middle">$V_{ee}$</text>
</g>
<g id="s24">
<line x1="41.28" y1="137.12" x2="31.68" y2="137.12" stroke="black" stroke-width="1.6"/>
</g>
<g id="s25">
<circle cx="26.88" cy="137.12" r="4.8" fill="none" stroke="black" stroke-width="1.6"/>
</g>
<g id="s26">
</g>
<g id="s27">
</g>
<g id="s28">
<polyline points="26.88,141.92 26.88,139.52 26.88,139.52 33.6,143.11856 33.6,143.11856 20.16,150.32 20.16,150.32 33.6,157.52144 33.6,157.52144 20.16,164.71856 20.16,164.71856 33.6,171.92 33.6,171.92 20.16,179.12144 20.16,179.12144 26.88,182.72 26.88,182.72 26.88,180.32" fill="none" stroke="black" stroke-width="1.6"/>
</g>
<g id="s29">
<text font-size="11pt" stroke-width="0.266667" fill="black" x="11.413333" y="165.96" text-anchor="end">R</text>
</g>
<g id="s30">
<line x1="14.08" y1="165.96" x2="14.08" y2="177.48" stroke="black" stroke-width="1.6"/>
</g>
<g id="s31">
<line x1="1.6" y1="177.48" x2="26.56" y2="177.48" stroke="black" stroke-width="1.6"/>
</g>
<g id="s32">
<line x1="6.4" y1="182.28" x2="21.76" y2="182.28" stroke="black" stroke-width="1.6"/>
</g>
<g id="s33">
<line x1="11.2" y1="187.08" x2="16.96" y2="187.08" stroke="black" stroke-width="1.6"/>
</g>
<g id="s34">
<line x1="231.36" y1="137.12" x2="240.96" y2="137.12" stroke="black" stroke-width="1.6"/>
</g>
<g id="s35">
<circle cx="245.76" cy="137.12" r="4.8" fill="none" stroke="black" stroke-width="1.6"/>
</g>
<g id="s36">
</g>
<g id="s37">
</g>
<g id="s38">
<polyline points="245.76,141.92 245.76,139.52 245.76,139.52 252.48,143.11856 252.48,143.11856 239.04,150.32 239.04,150.32 252.48,157.52144 252.48,157.52144 239.04,164.71856 239.04,164.71856 252.48,171.92 252.48,171.92 239.04,179.12144 239.04,179.12144 245.76,182.72 245.76,182.72 245.76,180.32" fill="none" stroke="black" stroke-width="1.6"/>
</g>
<g id="s39">
<text font-size="11pt" stroke-width="0.266667" fill="black" x="230.293333" y="165.96" text-anchor="end">R</text>
</g>
<g id="s40">
<line x1="232.96" y1="165.96" x2="232.96" y2="177.48" stroke="black" stroke-width="1.6"/>
</g>
<g id="s41">
<line x1="220.48" y1="177.48" x2="245.44" y2="177.48" stroke="black" stroke-width="1.6"/>
</g>
<g id="s42">
<line x1="225.28" y1="182.28" x2="240.64" y2="182.28" stroke="black" stroke-width="1.6"/>
</g>
<g id="s43">
<line x1="230.08" y1="187.08" x2="235.84" y2="187.08" stroke="black" stroke-width="1.6"/>
</g>
<g id="s44">
<line x1="169.92" y1="96.8" x2="169.92" y2="58.4" stroke="black" stroke-width="1.6"/>
</g>
<g id="s45">
</g>
<g id="s46">
<line x1="169.92" y1="58.4" x2="169.92" y2="63.2" stroke="black" stroke-width="1.6"/>
</g>
<g id="s47">
<path d="M 169.92 63.2 C 168 62.2 166.08 61.2 164.16 60.2 160.32 58.2 160.32 56.2 164.16 54.2 168 52.2 168 50.2 164.16 48.2 160.32 46.2 160.32 44.2 164.16 42.2 168 40.2 168 38.2 164.16 36.2 160.32 34.2 160.32 32.2 164.16 30.2 168 28.2 168 26.2 164.16 24.2 160.32 22.2 160.32 20.2 164.16 18.2 166.08 17.2 168 16.2 169.92 15.2" fill="none" stroke="black" stroke-width="1.6"/>
</g>
<g id="s48">
<line x1="169.92" y1="15.2" x2="169.92" y2="20" stroke="black" stroke-width="1.6"/>
</g>
<g id="s49">
<text font-size="11pt" stroke-width="0.266667" fill="black" x="154.453333" y="22.44" text-anchor="end">L</text>
</g>
<g id="s50">
<line x1="169.92" y1="58.4" x2="141.12" y2="58.4" stroke="black" stroke-width="1.6"/>
</g>
<g id="s51">
</g>
<g id="s52">
<polyline points="141.12,58.4 141.12,60.8 141.12,60.8 134.4,57.20144 134.4,57.20144 147.84,50 147.84,50 134.4,42.79856 134.4,42.79856 147.84,35.60144 147.84,35.60144 134.4,28.4 134.4,28.4 147.84,21.19856 147.84,21.19856 141.12,17.6 141.12,17.6 141.12,20" fill="none" stroke="black" stroke-width="1.6"/>
</g>
<g id="s53">
<text font-size="11pt" stroke-width="0.266667" fill="black" x="125.653333" y="44.04" text-anchor="end">R</text>
</g>
<g id="s54">
<line x1="169.92" y1="58.4" x2="198.72" y2="58.4" stroke="black" stroke-width="1.6"/>
</g>
<g id="s55">
</g>
<g id="s56">
<line x1="198.72" y1="58.4" x2="198.72" y2="52.16" stroke="black" stroke-width="1.6"/>
</g>
<g id="s57">
<line x1="186.24" y1="52.16" x2="211.2" y2="52.16" stroke="black" stroke-width="1.6"/>
</g>
<g id="s58">
<line x1="186.24" y1="45.44" x2="211.2" y2="45.44" stroke="black" stroke-width="1.6"/>
</g>
<g id="s59">
<line x1="198.72" y1="45.44" x2="198.72" y2="39.2" stroke="black" stroke-width="1.6"/>
</g>
<g id="s60">
<text font-size="11pt" stroke-width="0.266667" fill="black" x="183.253333" y="47.16" text-anchor="end">_{C_1}</text>
</g>
<g id="s61">
</g>
<g id="s62">
<line x1="185.92" y1="37.48" x2="185.92" y2="31.24" stroke="black" stroke-width="1.6"/>
</g>
<g id="s63">
<line x1="173.44" y1="31.24" x2="198.4" y2="31.24" stroke="black" stroke-width="1.6"/>
</g>
<g id="s64">
<line x1="173.44" y1="24.52" x2="198.4" y2="24.52" stroke="black" stroke-width="1.6"/>
</g>
<g id="s65">
<line x1="185.92" y1="24.52" x2="185.92" y2="18.28" stroke="black" stroke-width="1.6"/>
</g>
<g id="s66">
<text font-size="11pt" stroke-width="0.266667" fill="black" x="170.453333" y="26.24" text-anchor="end">_{C_2}</text>
</g>
<g id="s67">
<line x1="173.12" y1="16.56" x2="125.12" y2="16.56" stroke="black" stroke-width="1.6"/>
<text font-size="11pt" stroke-width="0.2pt" fill="black" x="149.12" y="13.893333" text-anchor="middle">$V_{cc}$</text>
</g>
<g id="s68">
<polyline points="125.12,16.56 125.12,64.56 102.72,96.8" fill="none" stroke="black" stroke-width="1.6"/>
</g>
<g id="s69">
<line x1="169.92" y1="58.4" x2="227.52" y2="58.4" stroke="black" stroke-width="1.6"/>
</g>
<g id="s70">
<circle cx="232.32" cy="58.4" r="4.8" fill="none" stroke="black" stroke-width="1.6"/>
</g>
<g id="s71">
<text font-size="11pt" stroke-width="0.266667" fill="black" x="239.786667" y="63.24" text-anchor="start">$V_{sa}$</text>
</g>
<g id="s72">
<polyline points="198.72,39.2 217.92,39.2 217.92,0.8" fill="none" stroke="black" stroke-width="1.6"/>
</g>
<g id="s73">
<polyline points="217.92,0.8 169.92,0.8 169.92,48.8 26.88,132.32" fill="none" stroke="black" stroke-width="1.6"/>
</g>
<g id="s74">
<text font-size="11pt" stroke-width="0.266667" fill="black" x="102.72" y="141.96" text-anchor="middle">$Q_1$</text>
</g>
<g id="s75">
<text font-size="11pt" stroke-width="0.266667" fill="black" x="169.92" y="141.96" text-anchor="middle">$Q_2$</text>
</g>
</svg>
