<svg xmlns="http://www.w3.org/2000/svg" width="348.8" height="66.4" viewBox="0 0 348.8 66.4" font-family="sans-serif" font-size="14.667">
<g id="s0">
<circle cx="162" cy="41.6" r="1.6" fill="none" stroke="black" stroke-width="1.067"/>
</g>
<g id="s1">
<circle cx="162" cy="51.2" r="1.6" fill="none" stroke="black" stroke-width="1.067"/>
</g>
<g id="s2">
<circle cx="176.4" cy="32" r="1.6" fill="none" stroke="black" stroke-width="1.067"/>
</g>
<g id="s3">
<circle cx="176.4" cy="41.6" r="1.6" fill="none" stroke="black" stroke-width="1.067"/>
</g>
<g id="s4">
<circle cx="176.4" cy="51.2" r="1.6" fill="none" stroke="black" stroke-width="1.067"/>
</g>
<g id="s5">
<circle cx="176.4" cy="60.8" r="1.6" fill="none" stroke="black" stroke-width="1.067"/>
</g>
<g id="s6">
<circle cx="190.8" cy="32" r="1.6" fill="none" stroke="black" stroke-width="1.067"/>
</g>
<g id="s7">
<circle cx="190.8" cy="41.6" r="1.6" fill="none" stroke="black" stroke-width="1.067"/>
</g>
<g id="s8">
<circle cx="190.8" cy="51.2" r="1.6" fill="none" stroke="black" stroke-width="1.067"/>
</g>
<g id="s9">
<circle cx="190.8" cy="60.8" r="1.6" fill="none" stroke="black" stroke-width="1.067"/>
</g>
<g id="s10">
<circle cx="205.2" cy="41.6" r="1.6" fill="none" stroke="black" stroke-width="1.067"/>
</g>
<g id="s11">
<circle cx="205.2" cy="51.2" r="1.6" fill="none" stroke="black" stroke-width="1.067"/>
</g>
<g id="s12">
<polyline points="163.6,40 174.8,33.6" fill="none" stroke="black" stroke-width="1.067"/>
</g>
<g id="s13">
<polyline points="163.6,41.6 174.8,41.6" fill="none" stroke="black" stroke-width="1.067"/>
</g>
<g id="s14">
<polyline points="163.6,43.2 174.8,49.6" fill="none" stroke="black" stroke-width="1.067"/>
</g>
<g id="s15">
<polyline points="163.6,43.2 174.8,59.2" fill="none" stroke="black" stroke-width="1.067"/>
</g>
<g id="s16">
<polyline points="163.6,49.6 174.8,33.6" fill="none" stroke="black" stroke-width="1.067"/>
</g>
<g id="s17">
<polyline points="163.6,49.6 174.8,41.6" fill="none" stroke="black" stroke-width="1.067"/>
</g>
<g id="s18">
<polyline points="163.6,51.2 174.8,51.2" fill="none" stroke="black" stroke-width="1.067"/>
</g>
<g id="s19">
<polyline points="163.6,52.8 174.8,60.8" fill="none" stroke="black" stroke-width="1.067"/>
</g>
<g id="s20">
<polyline points="178,32 189.2,32" fill="none" stroke="black" stroke-width="1.067"/>
</g>
<g id="s21">
<polyline points="178,33.6 189.2,40" fill="none" stroke="black" stroke-width="1.067"/>
</g>
<g id="s22">
<polyline points="178,33.6 189.2,49.6" fill="none" stroke="black" stroke-width="1.067"/>
</g>
<g id="s23">
<polyline points="178,33.6 189.2,59.2" fill="none" stroke="black" stroke-width="1.067"/>
</g>
<g id="s24">
<polyline points="178,40 189.2,33.6" fill="none" stroke="black" stroke-width="1.067"/>
</g>
<g id="s25">
<polyline points="178,41.6 189.2,41.6" fill="none" stroke="black" stroke-width="1.067"/>
</g>
<g id="s26">
<polyline points="178,43.2 189.2,49.6" fill="none" stroke="black" stroke-width="1.067"/>
</g>
<g id="s27">
<polyline points="178,43.2 189.2,59.2" fill="none" stroke="black" stroke-width="1.067"/>
</g>
<g id="s28">
<polyline points="178,49.6 189.2,33.6" fill="none" stroke="black" stroke-width="1.067"/>
</g>
<g id="s29">
<polyline points="178,49.6 189.2,43.2" fill="none" stroke="black" stroke-width="1.067"/>
</g>
<g id="s30">
<polyline points="178,51.2 189.2,51.2" fill="none" stroke="black" stroke-width="1.067"/>
</g>
<g id="s31">
<polyline points="178,52.8 189.2,59.2" fill="none" stroke="black" stroke-width="1.067"/>
</g>
<g id="s32">
<polyline points="178,59.2 189.2,33.6" fill="none" stroke="black" stroke-width="1.067"/>
</g>
<g id="s33">
<polyline points="178,59.2 189.2,43.2" fill="none" stroke="black" stroke-width="1.067"/>
</g>
<g id="s34">
<polyline points="178,59.2 189.2,52.8" fill="none" stroke="black" stroke-width="1.067"/>
</g>
<g id="s35">
<polyline points="178,60.8 189.2,60.8" fill="none" stroke="black" stroke-width="1.067"/>
</g>
<g id="s36">
<polyline points="192.4,33.6 203.6,40" fill="none" stroke="black" stroke-width="1.067"/>
</g>
<g id="s37">
<polyline points="192.4,33.6 203.6,49.6" fill="none" stroke="black" stroke-width="1.067"/>
</g>
<g id="s38">
<polyline points="192.4,41.6 203.6,41.6" fill="none" stroke="black" stroke-width="1.067"/>
</g>
<g id="s39">
<polyline points="192.4,43.2 203.6,49.6" fill="none" stroke="black" stroke-width="1.067"/>
</g>
<g id="s40">
<polyline points="192.4,49.6 203.6,43.2" fill="none" stroke="black" stroke-width="1.067"/>
</g>
<g id="s41">
<polyline points="192.4,51.2 203.6,51.2" fill="none" stroke="black" stroke-width="1.067"/>
</g>
<g id="s42">
<polyline points="192.4,59.2 203.6,43.2" fill="none" stroke="black" stroke-width="1.067"/>
</g>
<g id="s43">
<polyline points="192.4,59.2 203.6,52.8" fill="none" stroke="black" stroke-width="1.067"/>
</g>
<g id="s44">
<text x="210" y="12.8" text-anchor="middle" dominant-baseline="central">{\tiny Camadas Intermediárias}</text>
</g>
<g id="s45">
<text x="114" y="46.4" text-anchor="middle" dominant-baseline="central">{\tiny Camada de Entrada}</text>
</g>
<g id="s46">
<text x="243.6" y="46.4" text-anchor="middle" dominant-baseline="central">{\tiny Camada de Saída}</text>
</g>
</svg>
