<svg xmlns="http://www.w3.org/2000/svg" width="75.2" height="52.8" viewBox="0 0 75.2 52.8" font-family="sans-serif" font-size="14.666667" fill="none">
<g id="s0">
<circle cx="16" cy="24.8" r="14.4" fill="none" stroke="black" stroke-width="1.6"/>
</g>
<g id="s1">
<text font-size="11pt" stroke-width="0.266667" fill="black" x="16" y="29.64" text-anchor="middle">$a_1$</text>
</g>
<g id="s2">
<line x1="30.4" y1="24.8" x2="41.501515" y2="24.8" stroke="black" stroke-width="1.6"/>
<polygon stroke-width="0" points="35.2,22.4 44.8,24.8 35.2,27.2" fill="black"/>
<text font-size="11pt" stroke-width="0.2pt" fill="black" x="37.6" y="22.133333" text-anchor="middle">$w_{1}$</text>
</g>
<g id="s3">
<circle cx="51.2" cy="24.8" r="6.4" fill="none" stroke="black" stroke-width="1.6"/>
</g>
<g id="s4">
<text font-size="11pt" stroke-width="0.266667" fill="black" x="51.2" y="29.64" text-anchor="middle">$\sum + \int$</text>
</g>
<g id="s5">
<circle cx="16" cy="15.2" r="14.4" fill="none" stroke="black" stroke-width="1.6"/>
</g>
<g id="s6">
<text font-size="11pt" stroke-width="0.266667" fill="black" x="16" y="20.04" text-anchor="middle">$a_0$</text>
</g>
<g id="s7">
<line x1="30.4" y1="15.2" x2="43.525559" y2="19.292648" stroke="black" stroke-width="1.6"/>
<polygon stroke-width="0" points="38.224118,15.125656 46.674517,20.274517 36.795289,19.708062" fill="black"/>
<text font-size="11pt" stroke-width="0.2pt" fill="black" x="38.537258" y="15.070592" text-anchor="middle">$w_{0}$</text>
</g>
<g id="s8">
<circle cx="16" cy="34.4" r="14.4" fill="none" stroke="black" stroke-width="1.6"/>
</g>
<g id="s9">
<text font-size="11pt" stroke-width="0.266667" fill="black" x="16" y="39.24" text-anchor="middle">$a_2$</text>
</g>
<g id="s10">
<line x1="30.4" y1="34.4" x2="43.525559" y2="30.307352" stroke="black" stroke-width="1.6"/>
<polygon stroke-width="0" points="36.795289,29.891938 46.674517,29.325483 38.224118,34.474344" fill="black"/>
<text font-size="11pt" stroke-width="0.2pt" fill="black" x="38.537258" y="29.196075" text-anchor="middle">$w_{2}$</text>
</g>
<g id="s11">
<line x1="57.6" y1="24.8" x2="68.701515" y2="24.8" stroke="black" stroke-width="1.6"/>
<polygon stroke-width="0" points="62.4,22.4 72,24.8 62.4,27.2" fill="black"/>
<text font-size="11pt" stroke-width="0.2pt" fill="black" x="64.8" y="22.133333" text-anchor="middle">$x_j$</text>
</g>
</svg>
