<svg xmlns="http://www.w3.org/2000/svg" width="434.133333" height="355.32" viewBox="0 0 434.133333 355.32" font-family="sans-serif" font-size="14.666667" fill="none">
<g id="s0">
<line x1="48.266667" y1="346.48" x2="380.968182" y2="346.48" stroke="black" stroke-width="1.6"/>
<polygon stroke-width="0" points="374.666667,344.08 384.266667,346.48 374.666667,348.88" fill="black"/>
</g>
<g id="s1">
<text font-size="11pt" stroke-width="0.266667" fill="black" x="386.933333" y="351.32" text-anchor="start">$a_1$</text>
</g>
<g id="s2">
<line x1="48.266667" y1="346.48" x2="48.266667" y2="13.778485" stroke="black" stroke-width="1.6"/>
<polygon stroke-width="0" points="45.866667,20.08 48.266667,10.48 50.666667,20.08" fill="black"/>
</g>
<g id="s3">
<text font-size="11pt" stroke-width="0.266667" fill="black" x="45.6" y="10.48" text-anchor="end">$a_2$</text>
</g>
<g id="s4">
<line x1="29.066667" y1="250.48" x2="384.266667" y2="130.48" stroke="black" stroke-width="1.6" stroke-dasharray="5.6,4"/>
</g>
<g id="s5">
<circle cx="144.266667" cy="250.48" r="9.6" fill="none" stroke="black" stroke-width="1.6"/>
</g>
<g id="s6">
<circle cx="192.266667" cy="298.48" r="9.6" fill="none" stroke="black" stroke-width="1.6"/>
</g>
<g id="s7">
<circle cx="240.266667" cy="250.48" r="9.6" fill="none" stroke="black" stroke-width="1.6"/>
</g>
<g id="s8">
<circle cx="288.266667" cy="202.48" r="9.6" fill="none" stroke="black" stroke-width="1.6"/>
</g>
<g id="s9">
<circle cx="336.266667" cy="269.68" r="9.6" fill="none" stroke="black" stroke-width="1.6"/>
</g>
<g id="s10">
<circle cx="48.266667" cy="154.48" r="9.6" fill="none" stroke="black" stroke-width="1.6"/>
</g>
<g id="s11">
<circle cx="144.266667" cy="106.48" r="9.6" fill="none" stroke="black" stroke-width="1.6"/>
</g>
<g id="s12">
<circle cx="192.266667" cy="130.48" r="9.6" fill="none" stroke="black" stroke-width="1.6"/>
</g>
<g id="s13">
<circle cx="168.266667" cy="164.08" r="9.6" fill="none" stroke="black" stroke-width="1.6"/>
</g>
<g id="s14">
<circle cx="240.266667" cy="96.88" r="9.6" fill="none" stroke="black" stroke-width="1.6"/>
</g>
</svg>
