<svg xmlns="http://www.w3.org/2000/svg" width="551.813333" height="227.52" viewBox="0 0 551.813333 227.52" font-family="sans-serif" font-size="14.666667" fill="none">
<g id="s0">
<circle cx="79.466667" cy="132.8" r="4.8" fill="none" stroke="black" stroke-width="1.6"/>
</g>
<g id="s1">
</g>
<g id="s2">
<text font-size="11pt" stroke-width="0.266667" fill="black" x="72" y="137.64" text-anchor="end">$V_{en}$</text>
</g>
<g id="s3">
<line x1="84.266667" y1="132.8" x2="103.466667" y2="132.8" stroke="black" stroke-width="1.6"/>
</g>
<g id="s4">
</g>
<g id="s5">
<polyline points="103.466667,132.8 101.066667,132.8 101.066667,132.8 104.665227,126.08 104.665227,126.08 111.866667,139.52 111.866667,139.52 119.068107,126.08 119.068107,126.08 126.265227,139.52 126.265227,139.52 133.466667,126.08 133.466667,126.08 140.668107,139.52 140.668107,139.52 144.266667,132.8 144.266667,132.8 141.866667,132.8" fill="none" stroke="black" stroke-width="1.6"/>
</g>
<g id="s6">
<text font-size="11pt" stroke-width="0.266667" fill="black" x="138.133333" y="137.64" text-anchor="start">R_1</text>
</g>
<g id="s7">
<line x1="135.466667" y1="132.8" x2="145.066667" y2="132.8" stroke="black" stroke-width="1.6"/>
</g>
<g id="s8">
</g>
<g id="s9">
<polyline points="162.346667,116 229.546667,149.6 229.546667,149.6 162.346667,183.2 162.346667,183.2 162.346667,116" fill="none" stroke="black" stroke-width="1.6"/>
</g>
<g id="s10">
<line x1="145.066667" y1="132.8" x2="162.346667" y2="132.8" stroke="black" stroke-width="1.6"/>
</g>
<g id="s11">
<line x1="145.066667" y1="166.4" x2="162.346667" y2="166.4" stroke="black" stroke-width="1.6"/>
</g>
<g id="s12">
<line x1="229.546667" y1="149.6" x2="246.826667" y2="149.6" stroke="black" stroke-width="1.6"/>
</g>
<g id="s13">
<line x1="166.186667" y1="132.8" x2="172.906667" y2="132.8" stroke="black" stroke-width="1.6"/>
</g>
<g id="s14">
<line x1="166.186667" y1="166.4" x2="172.906667" y2="166.4" stroke="black" stroke-width="1.6"/>
</g>
<g id="s15">
<line x1="169.546667" y1="163.04" x2="169.546667" y2="169.76" stroke="black" stroke-width="1.6"/>
</g>
<g id="s16">
<polyline points="145.066667,166.4 135.466667,166.4 135.466667,185.6" fill="none" stroke="black" stroke-width="1.6"/>
</g>
<g id="s17">
<line x1="135.466667" y1="185.6" x2="135.466667" y2="197.12" stroke="black" stroke-width="1.6"/>
</g>
<g id="s18">
<line x1="122.986667" y1="197.12" x2="147.946667" y2="197.12" stroke="black" stroke-width="1.6"/>
</g>
<g id="s19">
<line x1="127.786667" y1="201.92" x2="143.146667" y2="201.92" stroke="black" stroke-width="1.6"/>
</g>
<g id="s20">
<line x1="132.586667" y1="206.72" x2="138.346667" y2="206.72" stroke="black" stroke-width="1.6"/>
</g>
<g id="s21">
<line x1="246.826667" y1="149.6" x2="256.426667" y2="149.6" stroke="black" stroke-width="1.6"/>
</g>
<g id="s22">
<line x1="256.426667" y1="149.6" x2="256.426667" y2="111.2" stroke="black" stroke-width="1.6"/>
</g>
<g id="s23">
<line x1="256.426667" y1="111.2" x2="246.826667" y2="111.2" stroke="black" stroke-width="1.6"/>
</g>
<g id="s24">
</g>
<g id="s25">
<line x1="246.826667" y1="111.2" x2="230.986667" y2="111.2" stroke="black" stroke-width="1.6"/>
</g>
<g id="s26">
<line x1="230.986667" y1="123.68" x2="230.986667" y2="98.72" stroke="black" stroke-width="1.6"/>
</g>
<g id="s27">
<line x1="224.266667" y1="123.68" x2="224.266667" y2="98.72" stroke="black" stroke-width="1.6"/>
</g>
<g id="s28">
<line x1="224.266667" y1="111.2" x2="208.426667" y2="111.2" stroke="black" stroke-width="1.6"/>
</g>
<g id="s29">
<text font-size="11pt" stroke-width="0.266667" fill="black" x="231.813333" y="116.04" text-anchor="start">C_1</text>
</g>
<g id="s30">
<polyline points="208.426667,111.2 198.826667,111.2 198.826667,159.2 141.866667,132.8" fill="none" stroke="black" stroke-width="1.6"/>
</g>
<g id="s31">
<polyline points="256.426667,111.2 256.426667,72.8 246.826667,72.8" fill="none" stroke="black" stroke-width="1.6"/>
</g>
<g id="s32">
</g>
<g id="s33">
<polyline points="246.826667,72.8 249.226667,72.8 249.226667,72.8 245.628107,79.52 245.628107,79.52 238.426667,66.08 238.426667,66.08 231.225227,79.52 231.225227,79.52 224.028107,66.08 224.028107,66.08 216.826667,79.52 216.826667,79.52 209.625227,66.08 209.625227,66.08 206.026667,72.8 206.026667,72.8 208.426667,72.8" fill="none" stroke="black" stroke-width="1.6"/>
</g>
<g id="s34">
<text font-size="11pt" stroke-width="0.266667" fill="black" x="243.093333" y="77.64" text-anchor="start">R_2</text>
</g>
<g id="s35">
<line x1="240.426667" y1="72.8" x2="230.826667" y2="72.8" stroke="black" stroke-width="1.6"/>
</g>
<g id="s36">
<line x1="230.826667" y1="72.8" x2="230.826667" y2="111.2" stroke="black" stroke-width="1.6"/>
</g>
<g id="s37">
<polyline points="230.826667,72.8 230.826667,34.4 240.426667,34.4" fill="none" stroke="black" stroke-width="1.6"/>
</g>
<g id="s38">
</g>
<g id="s39">
<polyline points="240.426667,34.4 238.026667,34.4 238.026667,34.4 241.625227,27.68 241.625227,27.68 248.826667,41.12 248.826667,41.12 256.028107,27.68 256.028107,27.68 263.225227,41.12 263.225227,41.12 270.426667,27.68 270.426667,27.68 277.628107,41.12 277.628107,41.12 281.226667,34.4 281.226667,34.4 278.826667,34.4" fill="none" stroke="black" stroke-width="1.6"/>
</g>
<g id="s40">
<text font-size="11pt" stroke-width="0.266667" fill="black" x="244.16" y="39.24" text-anchor="end">R_3</text>
</g>
<g id="s41">
<line x1="246.826667" y1="34.4" x2="256.426667" y2="34.4" stroke="black" stroke-width="1.6"/>
</g>
<g id="s42">
</g>
<g id="s43">
<polyline points="340.906667,0.8 273.706667,34.4 273.706667,34.4 340.906667,68 340.906667,68 340.906667,0.8" fill="none" stroke="black" stroke-width="1.6"/>
</g>
<g id="s44">
<line x1="358.186667" y1="17.6" x2="340.906667" y2="17.6" stroke="black" stroke-width="1.6"/>
</g>
<g id="s45">
<line x1="358.186667" y1="51.2" x2="340.906667" y2="51.2" stroke="black" stroke-width="1.6"/>
</g>
<g id="s46">
<line x1="273.706667" y1="34.4" x2="256.426667" y2="34.4" stroke="black" stroke-width="1.6"/>
</g>
<g id="s47">
<line x1="337.066667" y1="17.6" x2="330.346667" y2="17.6" stroke="black" stroke-width="1.6"/>
</g>
<g id="s48">
<line x1="337.066667" y1="51.2" x2="330.346667" y2="51.2" stroke="black" stroke-width="1.6"/>
</g>
<g id="s49">
<line x1="333.706667" y1="47.84" x2="333.706667" y2="54.56" stroke="black" stroke-width="1.6"/>
</g>
<g id="s50">
<polyline points="358.186667,17.6 367.786667,17.6 367.786667,36.8" fill="none" stroke="black" stroke-width="1.6"/>
</g>
<g id="s51">
<line x1="367.786667" y1="36.8" x2="367.786667" y2="48.32" stroke="black" stroke-width="1.6"/>
</g>
<g id="s52">
<line x1="355.306667" y1="48.32" x2="380.266667" y2="48.32" stroke="black" stroke-width="1.6"/>
</g>
<g id="s53">
<line x1="360.106667" y1="53.12" x2="375.466667" y2="53.12" stroke="black" stroke-width="1.6"/>
</g>
<g id="s54">
<line x1="364.906667" y1="57.92" x2="370.666667" y2="57.92" stroke="black" stroke-width="1.6"/>
</g>
<g id="s55">
<line x1="358.186667" y1="51.2" x2="367.786667" y2="51.2" stroke="black" stroke-width="1.6"/>
</g>
<g id="s56">
<polyline points="367.786667,51.2 367.786667,22.4 358.186667,22.4" fill="none" stroke="black" stroke-width="1.6"/>
</g>
<g id="s57">
</g>
<g id="s58">
<line x1="358.186667" y1="22.4" x2="342.346667" y2="22.4" stroke="black" stroke-width="1.6"/>
</g>
<g id="s59">
<line x1="342.346667" y1="34.88" x2="342.346667" y2="9.92" stroke="black" stroke-width="1.6"/>
</g>
<g id="s60">
<line x1="335.626667" y1="34.88" x2="335.626667" y2="9.92" stroke="black" stroke-width="1.6"/>
</g>
<g id="s61">
<line x1="335.626667" y1="22.4" x2="319.786667" y2="22.4" stroke="black" stroke-width="1.6"/>
</g>
<g id="s62">
<text font-size="11pt" stroke-width="0.266667" fill="black" x="343.173333" y="27.24" text-anchor="start">C_2</text>
</g>
<g id="s63">
<polyline points="319.786667,22.4 310.186667,22.4 310.186667,70.4 278.826667,34.4" fill="none" stroke="black" stroke-width="1.6"/>
</g>
<g id="s64">
<line x1="256.426667" y1="149.6" x2="266.026667" y2="149.6" stroke="black" stroke-width="1.6"/>
</g>
<g id="s65">
</g>
<g id="s66">
<polyline points="266.026667,149.6 263.626667,149.6 263.626667,149.6 267.225227,142.88 267.225227,142.88 274.426667,156.32 274.426667,156.32 281.628107,142.88 281.628107,142.88 288.825227,156.32 288.825227,156.32 296.026667,142.88 296.026667,142.88 303.228107,156.32 303.228107,156.32 306.826667,149.6 306.826667,149.6 304.426667,149.6" fill="none" stroke="black" stroke-width="1.6"/>
</g>
<g id="s67">
<text font-size="11pt" stroke-width="0.266667" fill="black" x="300.693333" y="154.44" text-anchor="start">R_4</text>
</g>
<g id="s68">
<line x1="298.026667" y1="149.6" x2="307.626667" y2="149.6" stroke="black" stroke-width="1.6"/>
</g>
<g id="s69">
</g>
<g id="s70">
<polyline points="324.906667,132.8 392.106667,166.4 392.106667,166.4 324.906667,200 324.906667,200 324.906667,132.8" fill="none" stroke="black" stroke-width="1.6"/>
</g>
<g id="s71">
<line x1="307.626667" y1="149.6" x2="324.906667" y2="149.6" stroke="black" stroke-width="1.6"/>
</g>
<g id="s72">
<line x1="307.626667" y1="183.2" x2="324.906667" y2="183.2" stroke="black" stroke-width="1.6"/>
</g>
<g id="s73">
<line x1="392.106667" y1="166.4" x2="409.386667" y2="166.4" stroke="black" stroke-width="1.6"/>
</g>
<g id="s74">
<line x1="328.746667" y1="149.6" x2="335.466667" y2="149.6" stroke="black" stroke-width="1.6"/>
</g>
<g id="s75">
<line x1="328.746667" y1="183.2" x2="335.466667" y2="183.2" stroke="black" stroke-width="1.6"/>
</g>
<g id="s76">
<line x1="332.106667" y1="179.84" x2="332.106667" y2="186.56" stroke="black" stroke-width="1.6"/>
</g>
<g id="s77">
<polyline points="307.626667,183.2 298.026667,183.2 298.026667,202.4" fill="none" stroke="black" stroke-width="1.6"/>
</g>
<g id="s78">
<line x1="298.026667" y1="202.4" x2="298.026667" y2="213.92" stroke="black" stroke-width="1.6"/>
</g>
<g id="s79">
<line x1="285.546667" y1="213.92" x2="310.506667" y2="213.92" stroke="black" stroke-width="1.6"/>
</g>
<g id="s80">
<line x1="290.346667" y1="218.72" x2="305.706667" y2="218.72" stroke="black" stroke-width="1.6"/>
</g>
<g id="s81">
<line x1="295.146667" y1="223.52" x2="300.906667" y2="223.52" stroke="black" stroke-width="1.6"/>
</g>
<g id="s82">
<polyline points="304.426667,149.6 304.426667,120.8 314.026667,120.8" fill="none" stroke="black" stroke-width="1.6"/>
</g>
<g id="s83">
</g>
<g id="s84">
<polyline points="314.026667,120.8 311.626667,120.8 311.626667,120.8 315.225227,114.08 315.225227,114.08 322.426667,127.52 322.426667,127.52 329.628107,114.08 329.628107,114.08 336.825227,127.52 336.825227,127.52 344.026667,114.08 344.026667,114.08 351.228107,127.52 351.228107,127.52 354.826667,120.8 354.826667,120.8 352.426667,120.8" fill="none" stroke="black" stroke-width="1.6"/>
</g>
<g id="s85">
<text font-size="11pt" stroke-width="0.266667" fill="black" x="317.76" y="125.64" text-anchor="end">R_5</text>
</g>
<g id="s86">
<line x1="320.426667" y1="120.8" x2="330.026667" y2="120.8" stroke="black" stroke-width="1.6"/>
</g>
<g id="s87">
<line x1="330.026667" y1="120.8" x2="330.026667" y2="159.2" stroke="black" stroke-width="1.6"/>
</g>
<g id="s88">
<line x1="330.026667" y1="159.2" x2="320.426667" y2="159.2" stroke="black" stroke-width="1.6"/>
</g>
<g id="s89">
<polyline points="330.026667,120.8 330.026667,72.8 330.026667,51.2 330.026667,51.2 320.426667,51.2" fill="none" stroke="black" stroke-width="1.6"/>
</g>
<g id="s90">
</g>
<g id="s91">
<polyline points="320.426667,51.2 322.826667,51.2 322.826667,51.2 319.228107,57.92 319.228107,57.92 312.026667,44.48 312.026667,44.48 304.825227,57.92 304.825227,57.92 297.628107,44.48 297.628107,44.48 290.426667,57.92 290.426667,57.92 283.225227,44.48 283.225227,44.48 279.626667,51.2 279.626667,51.2 282.026667,51.2" fill="none" stroke="black" stroke-width="1.6"/>
</g>
<g id="s92">
<text font-size="11pt" stroke-width="0.266667" fill="black" x="316.693333" y="56.04" text-anchor="start">R_6</text>
</g>
<g id="s93">
<line x1="314.026667" y1="51.2" x2="304.426667" y2="51.2" stroke="black" stroke-width="1.6"/>
</g>
<g id="s94">
<line x1="330.026667" y1="159.2" x2="339.626667" y2="159.2" stroke="black" stroke-width="1.6"/>
</g>
<g id="s95">
</g>
<g id="s96">
<line x1="339.626667" y1="159.2" x2="355.466667" y2="159.2" stroke="black" stroke-width="1.6"/>
</g>
<g id="s97">
<line x1="355.466667" y1="146.72" x2="355.466667" y2="171.68" stroke="black" stroke-width="1.6"/>
</g>
<g id="s98">
<line x1="362.186667" y1="146.72" x2="362.186667" y2="171.68" stroke="black" stroke-width="1.6"/>
</g>
<g id="s99">
<line x1="362.186667" y1="159.2" x2="378.026667" y2="159.2" stroke="black" stroke-width="1.6"/>
</g>
<g id="s100">
<text font-size="11pt" stroke-width="0.266667" fill="black" x="354.64" y="164.04" text-anchor="end">C_3</text>
</g>
<g id="s101">
<line x1="357.306667" y1="159.2" x2="366.906667" y2="159.2" stroke="black" stroke-width="1.6"/>
</g>
<g id="s102">
</g>
<g id="s103">
<polyline points="366.906667,159.2 366.906667,161.6 366.906667,161.6 360.186667,158.00144 360.186667,158.00144 373.626667,150.8 373.626667,150.8 360.186667,143.59856 360.186667,143.59856 373.626667,136.40144 373.626667,136.40144 360.186667,129.2 360.186667,129.2 373.626667,121.99856 373.626667,121.99856 366.906667,118.4 366.906667,118.4 366.906667,120.8" fill="none" stroke="black" stroke-width="1.6"/>
</g>
<g id="s104">
<text font-size="11pt" stroke-width="0.266667" fill="black" x="382.373333" y="144.84" text-anchor="start">R_7</text>
</g>
<g id="s105">
<circle cx="366.906667" cy="116" r="4.8" fill="none" stroke="black" stroke-width="1.6"/>
</g>
<g id="s106">
</g>
<g id="s107">
<text font-size="11pt" stroke-width="0.266667" fill="black" x="374.373333" y="116" text-anchor="start">$+10V$</text>
</g>
<g id="s108">
</g>
<g id="s109">
</g>
<g id="s110">
<polyline points="366.906667,159.2 366.906667,156.8 366.906667,156.8 373.626667,160.39856 373.626667,160.39856 360.186667,167.6 360.186667,167.6 373.626667,174.80144 373.626667,174.80144 360.186667,181.99856 360.186667,181.99856 373.626667,189.2 373.626667,189.2 360.186667,196.40144 360.186667,196.40144 366.906667,200 366.906667,200 366.906667,197.6" fill="none" stroke="black" stroke-width="1.6"/>
</g>
<g id="s111">
<text font-size="11pt" stroke-width="0.266667" fill="black" x="351.44" y="183.24" text-anchor="end">R_8</text>
</g>
<g id="s112">
<line x1="354.106667" y1="183.24" x2="354.106667" y2="194.76" stroke="black" stroke-width="1.6"/>
</g>
<g id="s113">
<line x1="341.626667" y1="194.76" x2="366.586667" y2="194.76" stroke="black" stroke-width="1.6"/>
</g>
<g id="s114">
<line x1="346.426667" y1="199.56" x2="361.786667" y2="199.56" stroke="black" stroke-width="1.6"/>
</g>
<g id="s115">
<line x1="351.226667" y1="204.36" x2="356.986667" y2="204.36" stroke="black" stroke-width="1.6"/>
</g>
<g id="s116">
</g>
<g id="s117">
<line x1="366.906667" y1="159.2" x2="386.106667" y2="159.2" stroke="black" stroke-width="1.6"/>
</g>
<g id="s118">
</g>
<g id="s119">
<line x1="386.106667" y1="159.2" x2="392.826667" y2="159.2" stroke="black" stroke-width="1.6"/>
</g>
<g id="s120">
<polyline points="392.826667,146.72 392.826667,146.72 392.826667,171.68 392.826667,171.68 417.786667,159.2 417.786667,159.2 392.826667,146.72" fill="none" stroke="black" stroke-width="1.6"/>
</g>
<g id="s121">
<line x1="417.786667" y1="146.72" x2="417.786667" y2="171.68" stroke="black" stroke-width="1.6"/>
</g>
<g id="s122">
<line x1="417.786667" y1="159.2" x2="424.506667" y2="159.2" stroke="black" stroke-width="1.6"/>
</g>
<g id="s123">
<text font-size="11pt" stroke-width="0.266667" fill="black" x="405.68" y="164.04" text-anchor="end">D_1</text>
</g>
<g id="s124">
<line x1="408.346667" y1="159.2" x2="427.546667" y2="159.2" stroke="black" stroke-width="1.6"/>
</g>
<g id="s125">
</g>
<g id="s126">
<line x1="427.546667" y1="159.2" x2="427.546667" y2="175.04" stroke="black" stroke-width="1.6"/>
</g>
<g id="s127">
<line x1="440.026667" y1="175.04" x2="415.066667" y2="175.04" stroke="black" stroke-width="1.6"/>
</g>
<g id="s128">
<line x1="440.026667" y1="181.76" x2="415.066667" y2="181.76" stroke="black" stroke-width="1.6"/>
</g>
<g id="s129">
<line x1="427.546667" y1="181.76" x2="427.546667" y2="197.6" stroke="black" stroke-width="1.6"/>
</g>
<g id="s130">
<text font-size="11pt" stroke-width="0.266667" fill="black" x="443.013333" y="194.52" text-anchor="start">C_4</text>
</g>
<g id="s131">
<line x1="440.346667" y1="194.52" x2="440.346667" y2="206.04" stroke="black" stroke-width="1.6"/>
</g>
<g id="s132">
<line x1="427.866667" y1="206.04" x2="452.826667" y2="206.04" stroke="black" stroke-width="1.6"/>
</g>
<g id="s133">
<line x1="432.666667" y1="210.84" x2="448.026667" y2="210.84" stroke="black" stroke-width="1.6"/>
</g>
<g id="s134">
<line x1="437.466667" y1="215.64" x2="443.226667" y2="215.64" stroke="black" stroke-width="1.6"/>
</g>
<g id="s135">
</g>
<g id="s136">
<line x1="417.946667" y1="159.2" x2="456.346667" y2="159.2" stroke="black" stroke-width="1.6"/>
</g>
<g id="s137">
</g>
<g id="s138">
<polyline points="456.346667,159.2 456.346667,156.8 456.346667,156.8 463.066667,160.39856 463.066667,160.39856 449.626667,167.6 449.626667,167.6 463.066667,174.80144 463.066667,174.80144 449.626667,181.99856 449.626667,181.99856 463.066667,189.2 463.066667,189.2 449.626667,196.40144 449.626667,196.40144 456.346667,200 456.346667,200 456.346667,197.6" fill="none" stroke="black" stroke-width="1.6"/>
</g>
<g id="s139">
<text font-size="11pt" stroke-width="0.266667" fill="black" x="440.88" y="183.24" text-anchor="end">R_9</text>
</g>
<g id="s140">
<line x1="443.546667" y1="183.24" x2="443.546667" y2="194.76" stroke="black" stroke-width="1.6"/>
</g>
<g id="s141">
<line x1="431.066667" y1="194.76" x2="456.026667" y2="194.76" stroke="black" stroke-width="1.6"/>
</g>
<g id="s142">
<line x1="435.866667" y1="199.56" x2="451.226667" y2="199.56" stroke="black" stroke-width="1.6"/>
</g>
<g id="s143">
<line x1="440.666667" y1="204.36" x2="446.426667" y2="204.36" stroke="black" stroke-width="1.6"/>
</g>
<g id="s144">
</g>
<g id="s145">
<line x1="456.346667" y1="159.2" x2="465.946667" y2="159.2" stroke="black" stroke-width="1.6"/>
</g>
<g id="s146">
<circle cx="470.746667" cy="159.2" r="4.8" fill="none" stroke="black" stroke-width="1.6"/>
</g>
<g id="s147">
</g>
<g id="s148">
<text font-size="11pt" stroke-width="0.266667" fill="black" x="478.213333" y="164.04" text-anchor="start">$V_{sa}$</text>
</g>
</svg>
