<svg xmlns="http://www.w3.org/2000/svg" width="460.32" height="141.12" viewBox="0 0 460.32 141.12" font-family="sans-serif" font-size="14.667">
<g id="s0">
<circle cx="39.6" cy="39.2" r="4.8" fill="none" stroke="black" stroke-width="1.067"/>
</g>
<g id="s1">
</g>
<g id="s2">
<text x="34.8" y="39.2" text-anchor="middle" dominant-baseline="central">$V_{1}$</text>
</g>
<g id="s3">
<circle cx="39.6" cy="77.6" r="4.8" fill="none" stroke="black" stroke-width="1.067"/>
</g>
<g id="s4">
</g>
<g id="s5">
<text x="34.8" y="77.6" text-anchor="middle" dominant-baseline="central">$V_{2}$</text>
</g>
<g id="s6">
<circle cx="39.6" cy="116" r="4.8" fill="none" stroke="black" stroke-width="1.067"/>
</g>
<g id="s7">
</g>
<g id="s8">
<text x="34.8" y="116" text-anchor="middle" dominant-baseline="central">$V_{p}$</text>
</g>
<g id="s9">
<polyline points="44.4,39.2 63.6,39.2" fill="none" stroke="black" stroke-width="1.067"/>
</g>
<g id="s10">
</g>
<g id="s11">
<polyline points="63.6,39.2 61.2,39.2 61.2,39.2 64.799,32.48 64.799,32.48 72,45.92 72,45.92 79.201,32.48 79.201,32.48 86.399,45.92 86.399,45.92 93.6,32.48 93.6,32.48 100.801,45.92 100.801,45.92 104.4,39.2 104.4,39.2 102,39.2" fill="none" stroke="black" stroke-width="1.067"/>
</g>
<g id="s12">
<text x="95.6" y="39.2" text-anchor="middle" dominant-baseline="central">R_1</text>
</g>
<g id="s13">
<polyline points="44.4,77.6 63.6,77.6" fill="none" stroke="black" stroke-width="1.067"/>
</g>
<g id="s14">
</g>
<g id="s15">
<polyline points="63.6,77.6 61.2,77.6 61.2,77.6 64.799,70.88 64.799,70.88 72,84.32 72,84.32 79.201,70.88 79.201,70.88 86.399,84.32 86.399,84.32 93.6,70.88 93.6,70.88 100.801,84.32 100.801,84.32 104.4,77.6 104.4,77.6 102,77.6" fill="none" stroke="black" stroke-width="1.067"/>
</g>
<g id="s16">
<text x="95.6" y="77.6" text-anchor="middle" dominant-baseline="central">R_2</text>
</g>
<g id="s17">
<polyline points="44.4,116 63.6,116" fill="none" stroke="black" stroke-width="1.067"/>
</g>
<g id="s18">
</g>
<g id="s19">
<polyline points="63.6,116 61.2,116 61.2,116 64.799,109.28 64.799,109.28 72,122.72 72,122.72 79.201,109.28 79.201,109.28 86.399,122.72 86.399,122.72 93.6,109.28 93.6,109.28 100.801,122.72 100.801,122.72 104.4,116 104.4,116 102,116" fill="none" stroke="black" stroke-width="1.067"/>
</g>
<g id="s20">
<text x="95.6" y="116" text-anchor="middle" dominant-baseline="central">R_p</text>
</g>
<g id="s21">
<polyline points="102,39.2 121.2,39.2" fill="none" stroke="black" stroke-width="1.067"/>
</g>
<g id="s22">
<polyline points="102,77.6 121.2,77.6" fill="none" stroke="black" stroke-width="1.067"/>
</g>
<g id="s23">
<polyline points="102,116 121.2,116" fill="none" stroke="black" stroke-width="1.067"/>
</g>
<g id="s24">
<polyline points="121.2,116 121.2,20 130.8,20" fill="none" stroke="black" stroke-width="1.067"/>
</g>
<g id="s25">
</g>
<g id="s26">
<polyline points="148.08,17.6 215.28,51.2 215.28,51.2 148.08,84.8 148.08,84.8 148.08,17.6" fill="none" stroke="black" stroke-width="1.067"/>
</g>
<g id="s27">
<polyline points="130.8,34.4 148.08,34.4" fill="none" stroke="black" stroke-width="1.067"/>
</g>
<g id="s28">
<polyline points="130.8,68 148.08,68" fill="none" stroke="black" stroke-width="1.067"/>
</g>
<g id="s29">
<polyline points="215.28,51.2 232.56,51.2" fill="none" stroke="black" stroke-width="1.067"/>
</g>
<g id="s30">
<polyline points="151.92,34.4 158.64,34.4" fill="none" stroke="black" stroke-width="1.067"/>
</g>
<g id="s31">
<polyline points="151.92,68 158.64,68" fill="none" stroke="black" stroke-width="1.067"/>
</g>
<g id="s32">
<polyline points="155.28,64.64 155.28,71.36" fill="none" stroke="black" stroke-width="1.067"/>
</g>
<g id="s33">
<polyline points="232.56,51.2 242.16,51.2 242.16,12.8 232.56,12.8" fill="none" stroke="black" stroke-width="1.067"/>
</g>
<g id="s34">
</g>
<g id="s35">
<polyline points="232.56,12.8 234.96,12.8 234.96,12.8 231.361,19.52 231.361,19.52 224.16,6.08 224.16,6.08 216.959,19.52 216.959,19.52 209.761,6.08 209.761,6.08 202.56,19.52 202.56,19.52 195.359,6.08 195.359,6.08 191.76,12.8 191.76,12.8 194.16,12.8" fill="none" stroke="black" stroke-width="1.067"/>
</g>
<g id="s36">
<text x="226.16" y="12.8" text-anchor="middle" dominant-baseline="central">R_3</text>
</g>
<g id="s37">
<polyline points="194.16,12.8 184.56,12.8 184.56,41.6 194.16,41.6" fill="none" stroke="black" stroke-width="1.067"/>
</g>
<g id="s38">
<polyline points="130.8,34.4 111.6,34.4" fill="none" stroke="black" stroke-width="1.067"/>
</g>
<g id="s39">
</g>
<g id="s40">
<polyline points="111.6,34.4 114,34.4 114,34.4 110.401,41.12 110.401,41.12 103.2,27.68 103.2,27.68 95.999,41.12 95.999,41.12 88.801,27.68 88.801,27.68 81.6,41.12 81.6,41.12 74.399,27.68 74.399,27.68 70.8,34.4 70.8,34.4 73.2,34.4" fill="none" stroke="black" stroke-width="1.067"/>
</g>
<g id="s41">
<text x="79.6" y="34.4" text-anchor="middle" dominant-baseline="central">R_4</text>
</g>
<g id="s42">
<polyline points="73.2,34.4 63.6,34.4 63.6,44" fill="none" stroke="black" stroke-width="1.067"/>
</g>
<g id="s43">
<polyline points="63.6,44 63.6,55.52" fill="none" stroke="black" stroke-width="1.067"/>
</g>
<g id="s44">
<polyline points="51.12,55.52 76.08,55.52" fill="none" stroke="black" stroke-width="1.067"/>
</g>
<g id="s45">
<polyline points="55.92,60.32 71.28,60.32" fill="none" stroke="black" stroke-width="1.067"/>
</g>
<g id="s46">
<polyline points="60.72,65.12 66.48,65.12" fill="none" stroke="black" stroke-width="1.067"/>
</g>
<g id="s47">
<polyline points="232.56,51.2 270.96,51.2" fill="none" stroke="black" stroke-width="1.067"/>
</g>
<g id="s48">
</g>
<g id="s49">
<polyline points="288.24,34.4 355.44,68 355.44,68 288.24,101.6 288.24,101.6 288.24,34.4" fill="none" stroke="black" stroke-width="1.067"/>
</g>
<g id="s50">
<polyline points="270.96,51.2 288.24,51.2" fill="none" stroke="black" stroke-width="1.067"/>
</g>
<g id="s51">
<polyline points="270.96,84.8 288.24,84.8" fill="none" stroke="black" stroke-width="1.067"/>
</g>
<g id="s52">
<polyline points="355.44,68 372.72,68" fill="none" stroke="black" stroke-width="1.067"/>
</g>
<g id="s53">
<polyline points="292.08,51.2 298.8,51.2" fill="none" stroke="black" stroke-width="1.067"/>
</g>
<g id="s54">
<polyline points="292.08,84.8 298.8,84.8" fill="none" stroke="black" stroke-width="1.067"/>
</g>
<g id="s55">
<polyline points="295.44,81.44 295.44,88.16" fill="none" stroke="black" stroke-width="1.067"/>
</g>
<g id="s56">
<polyline points="270.96,84.8 251.76,84.8 251.76,94.4" fill="none" stroke="black" stroke-width="1.067"/>
</g>
<g id="s57">
<polyline points="251.76,94.4 251.76,105.92" fill="none" stroke="black" stroke-width="1.067"/>
</g>
<g id="s58">
<polyline points="239.28,105.92 264.24,105.92" fill="none" stroke="black" stroke-width="1.067"/>
</g>
<g id="s59">
<polyline points="244.08,110.72 259.44,110.72" fill="none" stroke="black" stroke-width="1.067"/>
</g>
<g id="s60">
<polyline points="248.88,115.52 254.64,115.52" fill="none" stroke="black" stroke-width="1.067"/>
</g>
<g id="s61">
<polyline points="372.72,68 382.32,68" fill="none" stroke="black" stroke-width="1.067"/>
</g>
<g id="s62">
</g>
<g id="s63">
<polyline points="382.32,68 379.92,68 379.92,68 383.519,61.28 383.519,61.28 390.72,74.72 390.72,74.72 397.921,61.28 397.921,61.28 405.119,74.72 405.119,74.72 412.32,61.28 412.32,61.28 419.521,74.72 419.521,74.72 423.12,68 423.12,68 420.72,68" fill="none" stroke="black" stroke-width="1.067"/>
</g>
<g id="s64">
<text x="388.72" y="68" text-anchor="middle" dominant-baseline="central">R_5</text>
</g>
<g id="s65">
<polyline points="420.72,68 430.32,68" fill="none" stroke="black" stroke-width="1.067"/>
</g>
<g id="s66">
<polyline points="430.32,68 430.32,77.6" fill="none" stroke="black" stroke-width="1.067"/>
</g>
<g id="s67">
</g>
<g id="s68">
<polyline points="430.32,77.6 430.32,84.32" fill="none" stroke="black" stroke-width="1.067"/>
</g>
<g id="s69">
<polyline points="442.8,84.32 442.8,84.32 417.84,84.32 417.84,84.32 430.32,109.28 430.32,109.28 442.8,84.32" fill="none" stroke="black" stroke-width="1.067"/>
</g>
<g id="s70">
<polyline points="442.8,109.28 417.84,109.28" fill="none" stroke="black" stroke-width="1.067"/>
</g>
<g id="s71">
<polyline points="430.32,109.28 430.32,116" fill="none" stroke="black" stroke-width="1.067"/>
</g>
<g id="s72">
<text x="443.12" y="112.64" text-anchor="middle" dominant-baseline="central">D_1</text>
</g>
<g id="s73">
<polyline points="430.32,116 430.32,127.52" fill="none" stroke="black" stroke-width="1.067"/>
</g>
<g id="s74">
<polyline points="417.84,127.52 442.8,127.52" fill="none" stroke="black" stroke-width="1.067"/>
</g>
<g id="s75">
<polyline points="422.64,132.32 438,132.32" fill="none" stroke="black" stroke-width="1.067"/>
</g>
<g id="s76">
<polyline points="427.44,137.12 433.2,137.12" fill="none" stroke="black" stroke-width="1.067"/>
</g>
</svg>
