<svg xmlns="http://www.w3.org/2000/svg" width="292" height="275.2" viewBox="0 0 292 275.2" font-family="sans-serif" font-size="14.667">
<g id="s0">
<polyline points="26,252.8 266,252.8" fill="none" stroke="black" stroke-width="1.067"/>
<polygon points="266,252.8 256.4,255.2 256.4,250.4" fill="black"/>
</g>
<g id="s1">
<text x="266" y="252.8" text-anchor="middle" dominant-baseline="central">$V_1$</text>
</g>
<g id="s2">
<polyline points="26,252.8 26,12.8" fill="none" stroke="black" stroke-width="1.067"/>
<polygon points="26,12.8 28.4,22.4 23.6,22.4" fill="black"/>
</g>
<g id="s3">
<text x="26" y="12.8" text-anchor="middle" dominant-baseline="central">$V_2$</text>
</g>
<g id="s4">
</g>
<g id="s5">
<text x="26" y="156.8" text-anchor="middle" dominant-baseline="central">$2.8$</text>
</g>
<g id="s6">
</g>
<g id="s7">
<text x="26" y="137.6" text-anchor="middle" dominant-baseline="central">$3$</text>
</g>
<g id="s8">
<text x="87.44" y="262.4" text-anchor="middle" dominant-baseline="central">$0.8$</text>
</g>
<g id="s9">
<text x="102.8" y="262.4" text-anchor="middle" dominant-baseline="central">$1$</text>
</g>
<g id="s10">
<polyline points="102.8,252.8 102.8,137.6" fill="none" stroke="black" stroke-width="1.067" stroke-dasharray="4,3"/>
</g>
<g id="s11">
<polyline points="26,137.6 102.8,137.6" fill="none" stroke="black" stroke-width="1.067" stroke-dasharray="4,3"/>
</g>
<g id="s12">
<circle cx="102.8" cy="137.6" r="4.8" fill="none" stroke="black" stroke-width="1.067"/>
</g>
<g id="s13">
<polyline points="26,156.8 102.8,156.8" fill="none" stroke="black" stroke-width="1.067" stroke-dasharray="4,3"/>
</g>
<g id="s14">
<circle cx="102.8" cy="156.8" r="4.8" fill="none" stroke="black" stroke-width="1.067"/>
</g>
<g id="s15">
<polyline points="87.44,252.8 87.44,137.6" fill="none" stroke="black" stroke-width="1.067" stroke-dasharray="4,3"/>
</g>
<g id="s16">
<circle cx="87.44" cy="137.6" r="4.8" fill="none" stroke="black" stroke-width="1.067"/>
</g>
<g id="s17">
</g>
<g id="s18">
<polyline points="102.8,156.8 112.4,156.8" fill="none" stroke="black" stroke-width="1.067"/>
</g>
<g id="s19">
<polyline points="102.8,137.6 112.4,137.6" fill="none" stroke="black" stroke-width="1.067"/>
</g>
<g id="s20">
<polyline points="122,156.8 122,137.6" fill="none" stroke="black" stroke-width="1.067"/>
<polygon points="122,137.6 124.4,147.2 119.6,147.2" fill="black"/>
</g>
<g id="s21">
<text x="122" y="147.2" text-anchor="middle" dominant-baseline="central">$^{0.2}$</text>
</g>
<g id="s22">
</g>
<g id="s23">
<polyline points="87.44,137.6 87.44,108.8" fill="none" stroke="black" stroke-width="1.067"/>
</g>
<g id="s24">
<polyline points="102.8,137.6 102.8,108.8" fill="none" stroke="black" stroke-width="1.067"/>
</g>
<g id="s25">
<polyline points="87.44,118.4 102.8,118.4" fill="none" stroke="black" stroke-width="1.067"/>
<polygon points="102.8,118.4 93.2,120.8 93.2,116" fill="black"/>
</g>
<g id="s26">
<text x="95.12" y="118.4" text-anchor="middle" dominant-baseline="central">$^{0.2}$</text>
</g>
<g id="s27">
<polyline points="64.4,110.72 133.52,193.28" fill="none" stroke="black" stroke-width="1.067"/>
</g>
<g id="s28">
<circle cx="87.44" cy="156.8" r="4.8" fill="none" stroke="black" stroke-width="1.067"/>
</g>
<g id="s29">
<text x="218" y="60.8" text-anchor="middle" dominant-baseline="central">classe $1$</text>
</g>
<g id="s30">
<text x="64.4" y="204.8" text-anchor="middle" dominant-baseline="central">classe $2$</text>
</g>
</svg>
