<svg xmlns="http://www.w3.org/2000/svg" width="411.013333" height="227.52" viewBox="0 0 411.013333 227.52" font-family="sans-serif" font-size="14.666667" fill="none">
<g id="s0">
<circle cx="9.066667" cy="132.8" r="4.8" fill="none" stroke="black" stroke-width="1.6"/>
</g>
<g id="s1">
</g>
<g id="s2">
<text font-size="11pt" stroke-width="0.266667" fill="black" x="1.6" y="137.64" text-anchor="end">$V_{en}$</text>
</g>
<g id="s3">
<line x1="13.866667" y1="132.8" x2="33.066667" y2="132.8" stroke="black" stroke-width="1.6"/>
</g>
<g id="s4">
</g>
<g id="s5">
<polyline points="33.066667,132.8 30.666667,132.8 30.666667,132.8 34.265227,126.08 34.265227,126.08 41.466667,139.52 41.466667,139.52 48.668107,126.08 48.668107,126.08 55.865227,139.52 55.865227,139.52 63.066667,126.08 63.066667,126.08 70.268107,139.52 70.268107,139.52 73.866667,132.8 73.866667,132.8 71.466667,132.8" fill="none" stroke="black" stroke-width="1.6"/>
</g>
<g id="s6">
<text font-size="11pt" stroke-width="0.266667" fill="black" x="67.733333" y="137.64" text-anchor="start">R_1</text>
</g>
<g id="s7">
<line x1="65.066667" y1="132.8" x2="74.666667" y2="132.8" stroke="black" stroke-width="1.6"/>
</g>
<g id="s8">
</g>
<g id="s9">
<polyline points="91.946667,116 159.146667,149.6 159.146667,149.6 91.946667,183.2 91.946667,183.2 91.946667,116" fill="none" stroke="black" stroke-width="1.6"/>
</g>
<g id="s10">
<line x1="74.666667" y1="132.8" x2="91.946667" y2="132.8" stroke="black" stroke-width="1.6"/>
</g>
<g id="s11">
<line x1="74.666667" y1="166.4" x2="91.946667" y2="166.4" stroke="black" stroke-width="1.6"/>
</g>
<g id="s12">
<line x1="159.146667" y1="149.6" x2="176.426667" y2="149.6" stroke="black" stroke-width="1.6"/>
</g>
<g id="s13">
<line x1="95.786667" y1="132.8" x2="102.506667" y2="132.8" stroke="black" stroke-width="1.6"/>
</g>
<g id="s14">
<line x1="95.786667" y1="166.4" x2="102.506667" y2="166.4" stroke="black" stroke-width="1.6"/>
</g>
<g id="s15">
<line x1="99.146667" y1="163.04" x2="99.146667" y2="169.76" stroke="black" stroke-width="1.6"/>
</g>
<g id="s16">
<polyline points="74.666667,166.4 65.066667,166.4 65.066667,185.6" fill="none" stroke="black" stroke-width="1.6"/>
</g>
<g id="s17">
<line x1="65.066667" y1="185.6" x2="65.066667" y2="197.12" stroke="black" stroke-width="1.6"/>
</g>
<g id="s18">
<line x1="52.586667" y1="197.12" x2="77.546667" y2="197.12" stroke="black" stroke-width="1.6"/>
</g>
<g id="s19">
<line x1="57.386667" y1="201.92" x2="72.746667" y2="201.92" stroke="black" stroke-width="1.6"/>
</g>
<g id="s20">
<line x1="62.186667" y1="206.72" x2="67.946667" y2="206.72" stroke="black" stroke-width="1.6"/>
</g>
<g id="s21">
<line x1="176.426667" y1="149.6" x2="186.026667" y2="149.6" stroke="black" stroke-width="1.6"/>
</g>
<g id="s22">
<line x1="186.026667" y1="149.6" x2="186.026667" y2="111.2" stroke="black" stroke-width="1.6"/>
</g>
<g id="s23">
<line x1="186.026667" y1="111.2" x2="176.426667" y2="111.2" stroke="black" stroke-width="1.6"/>
</g>
<g id="s24">
</g>
<g id="s25">
<line x1="176.426667" y1="111.2" x2="160.586667" y2="111.2" stroke="black" stroke-width="1.6"/>
</g>
<g id="s26">
<line x1="160.586667" y1="123.68" x2="160.586667" y2="98.72" stroke="black" stroke-width="1.6"/>
</g>
<g id="s27">
<line x1="153.866667" y1="123.68" x2="153.866667" y2="98.72" stroke="black" stroke-width="1.6"/>
</g>
<g id="s28">
<line x1="153.866667" y1="111.2" x2="138.026667" y2="111.2" stroke="black" stroke-width="1.6"/>
</g>
<g id="s29">
<text font-size="11pt" stroke-width="0.266667" fill="black" x="161.413333" y="116.04" text-anchor="start">C_1</text>
</g>
<g id="s30">
<polyline points="138.026667,111.2 128.426667,111.2 128.426667,159.2 71.466667,132.8" fill="none" stroke="black" stroke-width="1.6"/>
</g>
<g id="s31">
<polyline points="186.026667,111.2 186.026667,72.8 176.426667,72.8" fill="none" stroke="black" stroke-width="1.6"/>
</g>
<g id="s32">
</g>
<g id="s33">
<polyline points="176.426667,72.8 178.826667,72.8 178.826667,72.8 175.228107,79.52 175.228107,79.52 168.026667,66.08 168.026667,66.08 160.825227,79.52 160.825227,79.52 153.628107,66.08 153.628107,66.08 146.426667,79.52 146.426667,79.52 139.225227,66.08 139.225227,66.08 135.626667,72.8 135.626667,72.8 138.026667,72.8" fill="none" stroke="black" stroke-width="1.6"/>
</g>
<g id="s34">
<text font-size="11pt" stroke-width="0.266667" fill="black" x="172.693333" y="77.64" text-anchor="start">R_2</text>
</g>
<g id="s35">
<line x1="170.026667" y1="72.8" x2="160.426667" y2="72.8" stroke="black" stroke-width="1.6"/>
</g>
<g id="s36">
<line x1="160.426667" y1="72.8" x2="160.426667" y2="111.2" stroke="black" stroke-width="1.6"/>
</g>
<g id="s37">
<polyline points="160.426667,72.8 160.426667,34.4 170.026667,34.4" fill="none" stroke="black" stroke-width="1.6"/>
</g>
<g id="s38">
</g>
<g id="s39">
<polyline points="170.026667,34.4 167.626667,34.4 167.626667,34.4 171.225227,27.68 171.225227,27.68 178.426667,41.12 178.426667,41.12 185.628107,27.68 185.628107,27.68 192.825227,41.12 192.825227,41.12 200.026667,27.68 200.026667,27.68 207.228107,41.12 207.228107,41.12 210.826667,34.4 210.826667,34.4 208.426667,34.4" fill="none" stroke="black" stroke-width="1.6"/>
</g>
<g id="s40">
<text font-size="11pt" stroke-width="0.266667" fill="black" x="173.76" y="39.24" text-anchor="end">R_3</text>
</g>
<g id="s41">
<line x1="176.426667" y1="34.4" x2="186.026667" y2="34.4" stroke="black" stroke-width="1.6"/>
</g>
<g id="s42">
</g>
<g id="s43">
<polyline points="270.506667,0.8 203.306667,34.4 203.306667,34.4 270.506667,68 270.506667,68 270.506667,0.8" fill="none" stroke="black" stroke-width="1.6"/>
</g>
<g id="s44">
<line x1="287.786667" y1="17.6" x2="270.506667" y2="17.6" stroke="black" stroke-width="1.6"/>
</g>
<g id="s45">
<line x1="287.786667" y1="51.2" x2="270.506667" y2="51.2" stroke="black" stroke-width="1.6"/>
</g>
<g id="s46">
<line x1="203.306667" y1="34.4" x2="186.026667" y2="34.4" stroke="black" stroke-width="1.6"/>
</g>
<g id="s47">
<line x1="266.666667" y1="17.6" x2="259.946667" y2="17.6" stroke="black" stroke-width="1.6"/>
</g>
<g id="s48">
<line x1="266.666667" y1="51.2" x2="259.946667" y2="51.2" stroke="black" stroke-width="1.6"/>
</g>
<g id="s49">
<line x1="263.306667" y1="47.84" x2="263.306667" y2="54.56" stroke="black" stroke-width="1.6"/>
</g>
<g id="s50">
<polyline points="287.786667,17.6 297.386667,17.6 297.386667,36.8" fill="none" stroke="black" stroke-width="1.6"/>
</g>
<g id="s51">
<line x1="297.386667" y1="36.8" x2="297.386667" y2="48.32" stroke="black" stroke-width="1.6"/>
</g>
<g id="s52">
<line x1="284.906667" y1="48.32" x2="309.866667" y2="48.32" stroke="black" stroke-width="1.6"/>
</g>
<g id="s53">
<line x1="289.706667" y1="53.12" x2="305.066667" y2="53.12" stroke="black" stroke-width="1.6"/>
</g>
<g id="s54">
<line x1="294.506667" y1="57.92" x2="300.266667" y2="57.92" stroke="black" stroke-width="1.6"/>
</g>
<g id="s55">
<line x1="287.786667" y1="51.2" x2="297.386667" y2="51.2" stroke="black" stroke-width="1.6"/>
</g>
<g id="s56">
<polyline points="297.386667,51.2 297.386667,22.4 287.786667,22.4" fill="none" stroke="black" stroke-width="1.6"/>
</g>
<g id="s57">
</g>
<g id="s58">
<line x1="287.786667" y1="22.4" x2="271.946667" y2="22.4" stroke="black" stroke-width="1.6"/>
</g>
<g id="s59">
<line x1="271.946667" y1="34.88" x2="271.946667" y2="9.92" stroke="black" stroke-width="1.6"/>
</g>
<g id="s60">
<line x1="265.226667" y1="34.88" x2="265.226667" y2="9.92" stroke="black" stroke-width="1.6"/>
</g>
<g id="s61">
<line x1="265.226667" y1="22.4" x2="249.386667" y2="22.4" stroke="black" stroke-width="1.6"/>
</g>
<g id="s62">
<text font-size="11pt" stroke-width="0.266667" fill="black" x="272.773333" y="27.24" text-anchor="start">C_2</text>
</g>
<g id="s63">
<polyline points="249.386667,22.4 239.786667,22.4 239.786667,70.4 208.426667,34.4" fill="none" stroke="black" stroke-width="1.6"/>
</g>
<g id="s64">
<line x1="186.026667" y1="149.6" x2="195.626667" y2="149.6" stroke="black" stroke-width="1.6"/>
</g>
<g id="s65">
</g>
<g id="s66">
<polyline points="195.626667,149.6 193.226667,149.6 193.226667,149.6 196.825227,142.88 196.825227,142.88 204.026667,156.32 204.026667,156.32 211.228107,142.88 211.228107,142.88 218.425227,156.32 218.425227,156.32 225.626667,142.88 225.626667,142.88 232.828107,156.32 232.828107,156.32 236.426667,149.6 236.426667,149.6 234.026667,149.6" fill="none" stroke="black" stroke-width="1.6"/>
</g>
<g id="s67">
<text font-size="11pt" stroke-width="0.266667" fill="black" x="230.293333" y="154.44" text-anchor="start">R_4</text>
</g>
<g id="s68">
<line x1="227.626667" y1="149.6" x2="237.226667" y2="149.6" stroke="black" stroke-width="1.6"/>
</g>
<g id="s69">
</g>
<g id="s70">
<polyline points="254.506667,132.8 321.706667,166.4 321.706667,166.4 254.506667,200 254.506667,200 254.506667,132.8" fill="none" stroke="black" stroke-width="1.6"/>
</g>
<g id="s71">
<line x1="237.226667" y1="149.6" x2="254.506667" y2="149.6" stroke="black" stroke-width="1.6"/>
</g>
<g id="s72">
<line x1="237.226667" y1="183.2" x2="254.506667" y2="183.2" stroke="black" stroke-width="1.6"/>
</g>
<g id="s73">
<line x1="321.706667" y1="166.4" x2="338.986667" y2="166.4" stroke="black" stroke-width="1.6"/>
</g>
<g id="s74">
<line x1="258.346667" y1="149.6" x2="265.066667" y2="149.6" stroke="black" stroke-width="1.6"/>
</g>
<g id="s75">
<line x1="258.346667" y1="183.2" x2="265.066667" y2="183.2" stroke="black" stroke-width="1.6"/>
</g>
<g id="s76">
<line x1="261.706667" y1="179.84" x2="261.706667" y2="186.56" stroke="black" stroke-width="1.6"/>
</g>
<g id="s77">
<polyline points="237.226667,183.2 227.626667,183.2 227.626667,202.4" fill="none" stroke="black" stroke-width="1.6"/>
</g>
<g id="s78">
<line x1="227.626667" y1="202.4" x2="227.626667" y2="213.92" stroke="black" stroke-width="1.6"/>
</g>
<g id="s79">
<line x1="215.146667" y1="213.92" x2="240.106667" y2="213.92" stroke="black" stroke-width="1.6"/>
</g>
<g id="s80">
<line x1="219.946667" y1="218.72" x2="235.306667" y2="218.72" stroke="black" stroke-width="1.6"/>
</g>
<g id="s81">
<line x1="224.746667" y1="223.52" x2="230.506667" y2="223.52" stroke="black" stroke-width="1.6"/>
</g>
<g id="s82">
<polyline points="234.026667,149.6 234.026667,120.8 243.626667,120.8" fill="none" stroke="black" stroke-width="1.6"/>
</g>
<g id="s83">
</g>
<g id="s84">
<polyline points="243.626667,120.8 241.226667,120.8 241.226667,120.8 244.825227,114.08 244.825227,114.08 252.026667,127.52 252.026667,127.52 259.228107,114.08 259.228107,114.08 266.425227,127.52 266.425227,127.52 273.626667,114.08 273.626667,114.08 280.828107,127.52 280.828107,127.52 284.426667,120.8 284.426667,120.8 282.026667,120.8" fill="none" stroke="black" stroke-width="1.6"/>
</g>
<g id="s85">
<text font-size="11pt" stroke-width="0.266667" fill="black" x="247.36" y="125.64" text-anchor="end">R_5</text>
</g>
<g id="s86">
<line x1="250.026667" y1="120.8" x2="259.626667" y2="120.8" stroke="black" stroke-width="1.6"/>
</g>
<g id="s87">
<line x1="259.626667" y1="120.8" x2="259.626667" y2="159.2" stroke="black" stroke-width="1.6"/>
</g>
<g id="s88">
<line x1="259.626667" y1="159.2" x2="250.026667" y2="159.2" stroke="black" stroke-width="1.6"/>
</g>
<g id="s89">
<polyline points="259.626667,120.8 259.626667,72.8 259.626667,51.2 259.626667,51.2 250.026667,51.2" fill="none" stroke="black" stroke-width="1.6"/>
</g>
<g id="s90">
</g>
<g id="s91">
<polyline points="250.026667,51.2 252.426667,51.2 252.426667,51.2 248.828107,57.92 248.828107,57.92 241.626667,44.48 241.626667,44.48 234.425227,57.92 234.425227,57.92 227.228107,44.48 227.228107,44.48 220.026667,57.92 220.026667,57.92 212.825227,44.48 212.825227,44.48 209.226667,51.2 209.226667,51.2 211.626667,51.2" fill="none" stroke="black" stroke-width="1.6"/>
</g>
<g id="s92">
<text font-size="11pt" stroke-width="0.266667" fill="black" x="246.293333" y="56.04" text-anchor="start">R_6</text>
</g>
<g id="s93">
<line x1="243.626667" y1="51.2" x2="234.026667" y2="51.2" stroke="black" stroke-width="1.6"/>
</g>
<g id="s94">
<line x1="259.626667" y1="159.2" x2="269.226667" y2="159.2" stroke="black" stroke-width="1.6"/>
</g>
<g id="s95">
</g>
<g id="s96">
<line x1="269.226667" y1="159.2" x2="285.066667" y2="159.2" stroke="black" stroke-width="1.6"/>
</g>
<g id="s97">
<line x1="285.066667" y1="146.72" x2="285.066667" y2="171.68" stroke="black" stroke-width="1.6"/>
</g>
<g id="s98">
<line x1="291.786667" y1="146.72" x2="291.786667" y2="171.68" stroke="black" stroke-width="1.6"/>
</g>
<g id="s99">
<line x1="291.786667" y1="159.2" x2="307.626667" y2="159.2" stroke="black" stroke-width="1.6"/>
</g>
<g id="s100">
<text font-size="11pt" stroke-width="0.266667" fill="black" x="284.24" y="164.04" text-anchor="end">C_3</text>
</g>
<g id="s101">
<line x1="286.906667" y1="159.2" x2="296.506667" y2="159.2" stroke="black" stroke-width="1.6"/>
</g>
<g id="s102">
</g>
<g id="s103">
<polyline points="296.506667,159.2 296.506667,161.6 296.506667,161.6 289.786667,158.00144 289.786667,158.00144 303.226667,150.8 303.226667,150.8 289.786667,143.59856 289.786667,143.59856 303.226667,136.40144 303.226667,136.40144 289.786667,129.2 289.786667,129.2 303.226667,121.99856 303.226667,121.99856 296.506667,118.4 296.506667,118.4 296.506667,120.8" fill="none" stroke="black" stroke-width="1.6"/>
</g>
<g id="s104">
<text font-size="11pt" stroke-width="0.266667" fill="black" x="311.973333" y="144.84" text-anchor="start">R_7</text>
</g>
<g id="s105">
<circle cx="296.506667" cy="116" r="4.8" fill="none" stroke="black" stroke-width="1.6"/>
</g>
<g id="s106">
</g>
<g id="s107">
<text font-size="11pt" stroke-width="0.266667" fill="black" x="303.973333" y="116" text-anchor="start">$+10V$</text>
</g>
<g id="s108">
</g>
<g id="s109">
</g>
<g id="s110">
<polyline points="296.506667,159.2 296.506667,156.8 296.506667,156.8 303.226667,160.39856 303.226667,160.39856 289.786667,167.6 289.786667,167.6 303.226667,174.80144 303.226667,174.80144 289.786667,181.99856 289.786667,181.99856 303.226667,189.2 303.226667,189.2 289.786667,196.40144 289.786667,196.40144 296.506667,200 296.506667,200 296.506667,197.6" fill="none" stroke="black" stroke-width="1.6"/>
</g>
<g id="s111">
<text font-size="11pt" stroke-width="0.266667" fill="black" x="281.04" y="183.24" text-anchor="end">R_8</text>
</g>
<g id="s112">
<line x1="283.706667" y1="183.24" x2="283.706667" y2="194.76" stroke="black" stroke-width="1.6"/>
</g>
<g id="s113">
<line x1="271.226667" y1="194.76" x2="296.186667" y2="194.76" stroke="black" stroke-width="1.6"/>
</g>
<g id="s114">
<line x1="276.026667" y1="199.56" x2="291.386667" y2="199.56" stroke="black" stroke-width="1.6"/>
</g>
<g id="s115">
<line x1="280.826667" y1="204.36" x2="286.586667" y2="204.36" stroke="black" stroke-width="1.6"/>
</g>
<g id="s116">
</g>
<g id="s117">
<line x1="296.506667" y1="159.2" x2="315.706667" y2="159.2" stroke="black" stroke-width="1.6"/>
</g>
<g id="s118">
</g>
<g id="s119">
<line x1="315.706667" y1="159.2" x2="322.426667" y2="159.2" stroke="black" stroke-width="1.6"/>
</g>
<g id="s120">
<polyline points="322.426667,146.72 322.426667,146.72 322.426667,171.68 322.426667,171.68 347.386667,159.2 347.386667,159.2 322.426667,146.72" fill="none" stroke="black" stroke-width="1.6"/>
</g>
<g id="s121">
<line x1="347.386667" y1="146.72" x2="347.386667" y2="171.68" stroke="black" stroke-width="1.6"/>
</g>
<g id="s122">
<line x1="347.386667" y1="159.2" x2="354.106667" y2="159.2" stroke="black" stroke-width="1.6"/>
</g>
<g id="s123">
<text font-size="11pt" stroke-width="0.266667" fill="black" x="335.28" y="164.04" text-anchor="end">D_1</text>
</g>
<g id="s124">
<line x1="337.946667" y1="159.2" x2="357.146667" y2="159.2" stroke="black" stroke-width="1.6"/>
</g>
<g id="s125">
</g>
<g id="s126">
<line x1="357.146667" y1="159.2" x2="357.146667" y2="175.04" stroke="black" stroke-width="1.6"/>
</g>
<g id="s127">
<line x1="369.626667" y1="175.04" x2="344.666667" y2="175.04" stroke="black" stroke-width="1.6"/>
</g>
<g id="s128">
<line x1="369.626667" y1="181.76" x2="344.666667" y2="181.76" stroke="black" stroke-width="1.6"/>
</g>
<g id="s129">
<line x1="357.146667" y1="181.76" x2="357.146667" y2="197.6" stroke="black" stroke-width="1.6"/>
</g>
<g id="s130">
<text font-size="11pt" stroke-width="0.266667" fill="black" x="372.613333" y="194.52" text-anchor="start">C_4</text>
</g>
<g id="s131">
<line x1="369.946667" y1="194.52" x2="369.946667" y2="206.04" stroke="black" stroke-width="1.6"/>
</g>
<g id="s132">
<line x1="357.466667" y1="206.04" x2="382.426667" y2="206.04" stroke="black" stroke-width="1.6"/>
</g>
<g id="s133">
<line x1="362.266667" y1="210.84" x2="377.626667" y2="210.84" stroke="black" stroke-width="1.6"/>
</g>
<g id="s134">
<line x1="367.066667" y1="215.64" x2="372.826667" y2="215.64" stroke="black" stroke-width="1.6"/>
</g>
<g id="s135">
</g>
<g id="s136">
<line x1="347.546667" y1="159.2" x2="385.946667" y2="159.2" stroke="black" stroke-width="1.6"/>
</g>
<g id="s137">
</g>
<g id="s138">
<polyline points="385.946667,159.2 385.946667,156.8 385.946667,156.8 392.666667,160.39856 392.666667,160.39856 379.226667,167.6 379.226667,167.6 392.666667,174.80144 392.666667,174.80144 379.226667,181.99856 379.226667,181.99856 392.666667,189.2 392.666667,189.2 379.226667,196.40144 379.226667,196.40144 385.946667,200 385.946667,200 385.946667,197.6" fill="none" stroke="black" stroke-width="1.6"/>
</g>
<g id="s139">
<text font-size="11pt" stroke-width="0.266667" fill="black" x="370.48" y="183.24" text-anchor="end">R_9</text>
</g>
<g id="s140">
<line x1="373.146667" y1="183.24" x2="373.146667" y2="194.76" stroke="black" stroke-width="1.6"/>
</g>
<g id="s141">
<line x1="360.666667" y1="194.76" x2="385.626667" y2="194.76" stroke="black" stroke-width="1.6"/>
</g>
<g id="s142">
<line x1="365.466667" y1="199.56" x2="380.826667" y2="199.56" stroke="black" stroke-width="1.6"/>
</g>
<g id="s143">
<line x1="370.266667" y1="204.36" x2="376.026667" y2="204.36" stroke="black" stroke-width="1.6"/>
</g>
<g id="s144">
</g>
<g id="s145">
<line x1="385.946667" y1="159.2" x2="395.546667" y2="159.2" stroke="black" stroke-width="1.6"/>
</g>
<g id="s146">
<circle cx="400.346667" cy="159.2" r="4.8" fill="none" stroke="black" stroke-width="1.6"/>
</g>
<g id="s147">
</g>
<g id="s148">
<text font-size="11pt" stroke-width="0.266667" fill="black" x="407.813333" y="164.04" text-anchor="start">$V_{sa}$</text>
</g>
</svg>
