<svg xmlns="http://www.w3.org/2000/svg" width="307.2" height="227.6" viewBox="0 0 307.2 227.6" font-family="sans-serif" font-size="14.666667" fill="none">
<g id="s0">
<rect x="28" y="0.8" width="72" height="48" fill="none" stroke="black" stroke-width="1.6"/>
<text font-size="11pt" stroke-width="0.2pt" fill="black" x="64" y="22.306667" text-anchor="middle">Agente</text>
<text font-size="11pt" stroke-width="0.2pt" fill="black" x="64" y="36.973333" text-anchor="middle">Externo</text>
</g>
<g id="s1">
<polyline points="64,48.8 64,51.2 49.6,51.2 49.6,50.301515" fill="none" stroke="black" stroke-width="1.6"/>
<polygon stroke-width="0" points="52,44 49.6,53.6 47.2,44" fill="black"/>
</g>
<g id="s2">
<rect x="1.6" y="53.6" width="96" height="48" fill="none" stroke="black" stroke-width="1.6"/>
<text font-size="11pt" stroke-width="0.2pt" fill="black" x="49.6" y="75.106667" text-anchor="middle">Sensores</text>
<text font-size="11pt" stroke-width="0.2pt" fill="black" x="49.6" y="89.773333" text-anchor="middle">Digitais</text>
</g>
<g id="s3">
<polyline points="64,48.8 64,51.2 78.4,51.2 78.4,50.301515" fill="none" stroke="black" stroke-width="1.6"/>
<polygon stroke-width="0" points="80.8,44 78.4,53.6 76,44" fill="black"/>
</g>
<g id="s4">
<rect x="30.4" y="53.6" width="96" height="48" fill="none" stroke="black" stroke-width="1.6"/>
<text font-size="11pt" stroke-width="0.2pt" fill="black" x="78.4" y="75.106667" text-anchor="middle">Sensores</text>
<text font-size="11pt" stroke-width="0.2pt" fill="black" x="78.4" y="89.773333" text-anchor="middle">Analógicos</text>
</g>
<g id="s5">
<line x1="49.6" y1="101.6" x2="49.6" y2="103.101515" stroke="black" stroke-width="1.6"/>
<polygon stroke-width="0" points="52,96.8 49.6,106.4 47.2,96.8" fill="black"/>
</g>
<g id="s6">
<rect x="1.6" y="106.4" width="96" height="48" fill="none" stroke="black" stroke-width="1.6"/>
<text font-size="11pt" stroke-width="0.2pt" fill="black" x="49.6" y="127.906667" text-anchor="middle">Transmissor</text>
<text font-size="11pt" stroke-width="0.2pt" fill="black" x="49.6" y="142.573333" text-anchor="middle">FSK</text>
</g>
<g id="s7">
<line x1="78.4" y1="101.6" x2="78.4" y2="103.101515" stroke="black" stroke-width="1.6"/>
<polygon stroke-width="0" points="80.8,96.8 78.4,106.4 76,96.8" fill="black"/>
</g>
<g id="s8">
<rect x="30.4" y="106.4" width="96" height="48" fill="none" stroke="black" stroke-width="1.6"/>
<text font-size="11pt" stroke-width="0.2pt" fill="black" x="78.4" y="127.906667" text-anchor="middle">Transmissor</text>
<text font-size="11pt" stroke-width="0.2pt" fill="black" x="78.4" y="142.573333" text-anchor="middle">FM</text>
</g>
<g id="s9">
<line x1="49.6" y1="154.4" x2="49.6" y2="155.901515" stroke="black" stroke-width="1.6"/>
<polygon stroke-width="0" points="52,149.6 49.6,159.2 47.2,149.6" fill="black"/>
</g>
<g id="s10">
<rect x="1.6" y="159.2" width="96" height="48" fill="none" stroke="black" stroke-width="1.6"/>
<text font-size="11pt" stroke-width="0.2pt" fill="black" x="49.6" y="180.706667" text-anchor="middle">Receptor</text>
<text font-size="11pt" stroke-width="0.2pt" fill="black" x="49.6" y="195.373333" text-anchor="middle">FSK</text>
</g>
<g id="s11">
<line x1="78.4" y1="154.4" x2="78.4" y2="155.901515" stroke="black" stroke-width="1.6"/>
<polygon stroke-width="0" points="80.8,149.6 78.4,159.2 76,149.6" fill="black"/>
</g>
<g id="s12">
<rect x="30.4" y="159.2" width="96" height="48" fill="none" stroke="black" stroke-width="1.6"/>
<text font-size="11pt" stroke-width="0.2pt" fill="black" x="78.4" y="180.706667" text-anchor="middle">Receptor</text>
<text font-size="11pt" stroke-width="0.2pt" fill="black" x="78.4" y="195.373333" text-anchor="middle">FM</text>
</g>
<g id="s13">
<polyline points="49.6,207.2 49.6,216.8 92.8,216.8 92.8,188 99.101515,188" fill="none" stroke="black" stroke-width="1.6"/>
<polygon stroke-width="0" points="92.8,185.6 102.4,188 92.8,190.4" fill="black"/>
</g>
<g id="s14">
<polyline points="78.4,207.2 78.4,214.4 90.4,214.4 90.4,176 99.101515,176" fill="none" stroke="black" stroke-width="1.6"/>
<polygon stroke-width="0" points="92.8,173.6 102.4,176 92.8,178.4" fill="black"/>
</g>
<g id="s15">
<rect x="102.4" y="158" width="96" height="48" fill="none" stroke="black" stroke-width="1.6"/>
<text font-size="11pt" stroke-width="0.2pt" fill="black" x="150.4" y="179.506667" text-anchor="middle">{\tt Rede}</text>
<text font-size="11pt" stroke-width="0.2pt" fill="black" x="150.4" y="194.173333" text-anchor="middle">{\tt Neural}</text>
</g>
<g id="s16">
<line x1="198.4" y1="182" x2="204.701515" y2="182" stroke="black" stroke-width="1.6"/>
<polygon stroke-width="0" points="198.4,179.6 208,182 198.4,184.4" fill="black"/>
</g>
<g id="s17">
<rect x="208" y="158" width="96" height="48" fill="none" stroke="black" stroke-width="1.6"/>
<text font-size="11pt" stroke-width="0.2pt" fill="black" x="256" y="172.173333" text-anchor="middle">Sistema de</text>
<text font-size="11pt" stroke-width="0.2pt" fill="black" x="256" y="186.84" text-anchor="middle">Controle</text>
<text font-size="11pt" stroke-width="0.2pt" fill="black" x="256" y="201.506667" text-anchor="middle">de Acesso</text>
</g>
<g id="s18">
<polyline points="198.4,174 203.2,174 203.2,164.4 204.701515,164.4" fill="none" stroke="black" stroke-width="1.6"/>
<polygon stroke-width="0" points="198.4,162 208,164.4 198.4,166.8" fill="black"/>
</g>
<g id="s19">
<rect x="208" y="140.4" width="96" height="48" fill="none" stroke="black" stroke-width="1.6"/>
<text font-size="11pt" stroke-width="0.2pt" fill="black" x="256" y="161.906667" text-anchor="middle">Sistema de</text>
<text font-size="11pt" stroke-width="0.2pt" fill="black" x="256" y="176.573333" text-anchor="middle">Alarme</text>
</g>
<g id="s20">
<polyline points="198.4,190 203.2,190 203.2,199.6 204.701515,199.6" fill="none" stroke="black" stroke-width="1.6"/>
<polygon stroke-width="0" points="198.4,197.2 208,199.6 198.4,202" fill="black"/>
</g>
<g id="s21">
<rect x="208" y="175.6" width="96" height="48" fill="none" stroke="black" stroke-width="1.6"/>
<text font-size="11pt" stroke-width="0.2pt" fill="black" x="256" y="197.106667" text-anchor="middle">Sistema de</text>
<text font-size="11pt" stroke-width="0.2pt" fill="black" x="256" y="211.773333" text-anchor="middle">Anúncio</text>
</g>
</svg>
