<svg xmlns="http://www.w3.org/2000/svg" width="250.133333" height="268.92" viewBox="0 0 250.133333 268.92" font-family="sans-serif" font-size="14.666667" fill="none">
<g id="s0">
<line x1="4.266667" y1="250.48" x2="240.968182" y2="250.48" stroke="black" stroke-width="1.6"/>
<polygon stroke-width="0" points="234.666667,248.08 244.266667,250.48 234.666667,252.88" fill="black"/>
</g>
<g id="s1">
<text font-size="11pt" stroke-width="0.266667" fill="black" x="246.933333" y="255.32" text-anchor="start">$V_1$</text>
</g>
<g id="s2">
<line x1="4.266667" y1="250.48" x2="4.266667" y2="13.778485" stroke="black" stroke-width="1.6"/>
<polygon stroke-width="0" points="1.866667,20.08 4.266667,10.48 6.666667,20.08" fill="black"/>
</g>
<g id="s3">
<text font-size="11pt" stroke-width="0.266667" fill="black" x="1.6" y="10.48" text-anchor="end">$V_2$</text>
</g>
<g id="s4">
</g>
<g id="s5">
<text font-size="11pt" stroke-width="0.266667" fill="black" x="1.6" y="154.48" text-anchor="end">$2.8$</text>
</g>
<g id="s6">
</g>
<g id="s7">
<text font-size="11pt" stroke-width="0.266667" fill="black" x="1.6" y="135.28" text-anchor="end">$3$</text>
</g>
<g id="s8">
<text font-size="11pt" stroke-width="0.266667" fill="black" x="65.706667" y="264.92" text-anchor="middle">$0.8$</text>
</g>
<g id="s9">
<text font-size="11pt" stroke-width="0.266667" fill="black" x="81.066667" y="264.92" text-anchor="middle">$1$</text>
</g>
<g id="s10">
<line x1="81.066667" y1="250.48" x2="81.066667" y2="135.28" stroke="black" stroke-width="1.6" stroke-dasharray="5.6,4"/>
</g>
<g id="s11">
<line x1="4.266667" y1="135.28" x2="81.066667" y2="135.28" stroke="black" stroke-width="1.6" stroke-dasharray="5.6,4"/>
</g>
<g id="s12">
<circle cx="81.066667" cy="135.28" r="4.8" fill="none" stroke="black" stroke-width="1.6"/>
</g>
<g id="s13">
<line x1="4.266667" y1="154.48" x2="81.066667" y2="154.48" stroke="black" stroke-width="1.6" stroke-dasharray="5.6,4"/>
</g>
<g id="s14">
<circle cx="81.066667" cy="154.48" r="4.8" fill="none" stroke="black" stroke-width="1.6"/>
</g>
<g id="s15">
<line x1="65.706667" y1="250.48" x2="65.706667" y2="135.28" stroke="black" stroke-width="1.6" stroke-dasharray="5.6,4"/>
</g>
<g id="s16">
<circle cx="65.706667" cy="135.28" r="4.8" fill="none" stroke="black" stroke-width="1.6"/>
</g>
<g id="s17">
</g>
<g id="s18">
<line x1="81.066667" y1="154.48" x2="90.666667" y2="154.48" stroke="black" stroke-width="1.6"/>
</g>
<g id="s19">
<line x1="81.066667" y1="135.28" x2="90.666667" y2="135.28" stroke="black" stroke-width="1.6"/>
</g>
<g id="s20">
<line x1="100.266667" y1="154.48" x2="100.266667" y2="138.578485" stroke="black" stroke-width="1.6"/>
<polygon stroke-width="0" points="97.866667,144.88 100.266667,135.28 102.666667,144.88" fill="black"/>
</g>
<g id="s21">
<text font-size="11pt" stroke-width="0.266667" fill="black" x="100.266667" y="149.72" text-anchor="middle">$^{0.2}$ljust</text>
</g>
<g id="s22">
</g>
<g id="s23">
<line x1="65.706667" y1="135.28" x2="65.706667" y2="106.48" stroke="black" stroke-width="1.6"/>
</g>
<g id="s24">
<line x1="81.066667" y1="135.28" x2="81.066667" y2="106.48" stroke="black" stroke-width="1.6"/>
</g>
<g id="s25">
<line x1="65.706667" y1="116.08" x2="77.768182" y2="116.08" stroke="black" stroke-width="1.6"/>
<polygon stroke-width="0" points="71.466667,113.68 81.066667,116.08 71.466667,118.48" fill="black"/>
</g>
<g id="s26">
<text font-size="11pt" stroke-width="0.266667" fill="black" x="73.386667" y="120.92" text-anchor="middle">$^{0.2}$</text>
</g>
<g id="s27">
<line x1="42.666667" y1="108.4" x2="111.786667" y2="190.96" stroke="black" stroke-width="1.6"/>
</g>
<g id="s28">
<circle cx="65.706667" cy="154.48" r="4.8" fill="none" stroke="black" stroke-width="1.6"/>
</g>
<g id="s29">
<text font-size="11pt" stroke-width="0.266667" fill="black" x="196.266667" y="63.32" text-anchor="middle">classe $1$</text>
</g>
<g id="s30">
<text font-size="11pt" stroke-width="0.266667" fill="black" x="42.666667" y="207.32" text-anchor="middle">classe $2$</text>
</g>
</svg>
