<svg xmlns="http://www.w3.org/2000/svg" width="276.16" height="80" viewBox="0 0 276.16 80" font-family="sans-serif" font-size="14.667">
<g id="s0">
<circle cx="44" cy="59.2" r="4.8" fill="none" stroke="black" stroke-width="1.067"/>
</g>
<g id="s1">
</g>
<g id="s2">
<text x="39.2" y="59.2" text-anchor="middle" dominant-baseline="central">$V_{en}$</text>
</g>
<g id="s3">
<polyline points="48.8,59.2 87.2,59.2" fill="none" stroke="black" stroke-width="1.067"/>
</g>
<g id="s4">
</g>
<g id="s5">
<polyline points="104.48,8.8 171.68,42.4 171.68,42.4 104.48,76 104.48,76 104.48,8.8" fill="none" stroke="black" stroke-width="1.067"/>
</g>
<g id="s6">
<polyline points="87.2,25.6 104.48,25.6" fill="none" stroke="black" stroke-width="1.067"/>
</g>
<g id="s7">
<polyline points="87.2,59.2 104.48,59.2" fill="none" stroke="black" stroke-width="1.067"/>
</g>
<g id="s8">
<polyline points="171.68,42.4 188.96,42.4" fill="none" stroke="black" stroke-width="1.067"/>
</g>
<g id="s9">
<polyline points="108.32,25.6 115.04,25.6" fill="none" stroke="black" stroke-width="1.067"/>
</g>
<g id="s10">
<polyline points="108.32,59.2 115.04,59.2" fill="none" stroke="black" stroke-width="1.067"/>
</g>
<g id="s11">
<polyline points="111.68,55.84 111.68,62.56" fill="none" stroke="black" stroke-width="1.067"/>
</g>
<g id="s12">
<polyline points="188.96,42.4 198.56,42.4 198.56,4 140.96,4 140.96,32.8 87.2,25.6" fill="none" stroke="black" stroke-width="1.067"/>
</g>
<g id="s13">
<polyline points="188.96,42.4 227.36,42.4" fill="none" stroke="black" stroke-width="1.067"/>
</g>
<g id="s14">
<circle cx="232.16" cy="42.4" r="4.8" fill="none" stroke="black" stroke-width="1.067"/>
</g>
<g id="s15">
</g>
<g id="s16">
<text x="236.96" y="42.4" text-anchor="middle" dominant-baseline="central">$V_{sa}$</text>
</g>
</svg>
