<svg xmlns="http://www.w3.org/2000/svg" width="310.8" height="64.8" viewBox="0 0 310.8 64.8" font-family="sans-serif" font-size="14.667">
<g id="s0">
<circle cx="119.6" cy="32.8" r="2.4" fill="none" stroke="black" stroke-width="1.067"/>
</g>
<g id="s1">
<circle cx="119.6" cy="23.2" r="2.4" fill="none" stroke="black" stroke-width="1.067"/>
</g>
<g id="s2">
<circle cx="119.6" cy="42.4" r="2.4" fill="none" stroke="black" stroke-width="1.067"/>
</g>
<g id="s3">
<circle cx="134" cy="32.8" r="2.4" fill="none" stroke="black" stroke-width="1.067"/>
</g>
<g id="s4">
<circle cx="148.4" cy="32.8" r="2.4" fill="none" stroke="black" stroke-width="1.067"/>
</g>
<g id="s5">
<circle cx="148.4" cy="23.2" r="2.4" fill="none" stroke="black" stroke-width="1.067"/>
</g>
<g id="s6">
<circle cx="148.4" cy="42.4" r="2.4" fill="none" stroke="black" stroke-width="1.067"/>
</g>
<g id="s7">
<polyline points="122,32.8 131.6,32.8" fill="none" stroke="black" stroke-width="1.067"/>
</g>
<g id="s8">
<polyline points="122,25.6 131.6,30.4" fill="none" stroke="black" stroke-width="1.067"/>
</g>
<g id="s9">
<polyline points="122,40 131.6,35.2" fill="none" stroke="black" stroke-width="1.067"/>
</g>
<g id="s10">
<polyline points="136.4,32.8 146,32.8" fill="none" stroke="black" stroke-width="1.067"/>
</g>
<g id="s11">
<polyline points="136.4,30.4 146,25.6" fill="none" stroke="black" stroke-width="1.067"/>
</g>
<g id="s12">
<polyline points="136.4,35.2 146,40" fill="none" stroke="black" stroke-width="1.067"/>
</g>
<g id="s13">
<text x="119.6" y="32.8" text-anchor="middle" dominant-baseline="central">$1$</text>
</g>
<g id="s14">
<text x="119.6" y="23.2" text-anchor="middle" dominant-baseline="central">$2$</text>
</g>
<g id="s15">
<text x="119.6" y="42.4" text-anchor="middle" dominant-baseline="central">$n$</text>
</g>
<g id="s16">
<text x="134" y="32.8" text-anchor="middle" dominant-baseline="central">$j$</text>
</g>
<g id="s17">
<text x="148.4" y="32.8" text-anchor="middle" dominant-baseline="central">$1$</text>
</g>
<g id="s18">
<text x="148.4" y="23.2" text-anchor="middle" dominant-baseline="central">$2$</text>
</g>
<g id="s19">
<text x="148.4" y="42.4" text-anchor="middle" dominant-baseline="central">$m$</text>
</g>
<g id="s20">
<text x="78.8" y="32.8" text-anchor="middle" dominant-baseline="central">{\small entradas}</text>
</g>
<g id="s21">
<text x="179.6" y="32.8" text-anchor="middle" dominant-baseline="central">{\small saídas}</text>
</g>
<g id="s22">
<polyline points="189.2,52 141.2,52 134,52" fill="none" stroke="black" stroke-width="1.067"/>
<text x="161.6" y="52" text-anchor="middle" dominant-baseline="central">{\small unidade de processamento}</text>
</g>
<g id="s23">
<polyline points="134,52 134,4 134,44.8" fill="none" stroke="black" stroke-width="1.067"/>
<polygon points="134,44.8 131.6,35.2 136.4,35.2" fill="black"/>
</g>
</svg>
