<svg xmlns="http://www.w3.org/2000/svg" width="411.2" height="167.36" viewBox="0 0 411.2 167.36" font-family="sans-serif" font-size="14.667">
<g id="s0">
<polyline points="52,163.36 52,99.52" fill="none" stroke="black" stroke-width="1.067"/>
</g>
<g id="s1">
<polyline points="36.64,99.52 67.36,99.52" fill="none" stroke="black" stroke-width="1.067"/>
</g>
<g id="s2">
<polyline points="44.32,92.8 59.68,92.8" fill="none" stroke="black" stroke-width="1.067"/>
</g>
<g id="s3">
<polyline points="52,92.8 52,28.96" fill="none" stroke="black" stroke-width="1.067"/>
</g>
<g id="s4">
<polyline points="52,28.96 90.4,28.96" fill="none" stroke="black" stroke-width="1.067"/>
</g>
<g id="s5">
<polyline points="90.4,19.36 90.4,19.36 128.8,19.36 128.8,19.36 128.8,38.56 128.8,38.56 90.4,38.56 90.4,38.56 90.4,19.36" fill="none" stroke="black" stroke-width="1.067"/>
</g>
<g id="s6">
<polyline points="90.4,28.96 128.8,28.96" fill="none" stroke="black" stroke-width="1.067"/>
</g>
<g id="s7">
<polyline points="128.8,28.96 167.2,28.96" fill="none" stroke="black" stroke-width="1.067"/>
</g>
<g id="s8">
<polyline points="167.2,28.96 193.6,28.96" fill="none" stroke="black" stroke-width="1.067"/>
</g>
<g id="s9">
<circle cx="193.6" cy="28.96" r="2.4" fill="rgb(0,0,0)" stroke="black" stroke-width="1.067"/>
</g>
<g id="s10">
<polyline points="193.6,28.96 215.44,9.76" fill="none" stroke="black" stroke-width="1.067"/>
</g>
<g id="s11">
<circle cx="227.2" cy="28.96" r="2.4" fill="rgb(0,0,0)" stroke="black" stroke-width="1.067"/>
</g>
<g id="s12">
<polyline points="227.2,28.96 253.6,28.96" fill="none" stroke="black" stroke-width="1.067"/>
</g>
<g id="s13">
<polyline points="253.6,28.96 359.2,28.96" fill="none" stroke="black" stroke-width="1.067"/>
</g>
<g id="s14">
<polyline points="359.2,28.96 359.2,76.96" fill="none" stroke="black" stroke-width="1.067"/>
</g>
<g id="s15">
<circle cx="359.2" cy="96.16" r="19.2" fill="none" stroke="black" stroke-width="1.067"/>
</g>
<g id="s16">
<polyline points="372.774,109.734 345.626,82.586" fill="none" stroke="black" stroke-width="1.067"/>
</g>
<g id="s17">
<polyline points="345.626,109.734 372.774,82.586" fill="none" stroke="black" stroke-width="1.067"/>
</g>
<g id="s18">
<polyline points="359.2,115.36 359.2,163.36" fill="none" stroke="black" stroke-width="1.067"/>
</g>
<g id="s19">
<polyline points="359.2,163.36 52,163.36" fill="none" stroke="black" stroke-width="1.067"/>
</g>
<g id="s20">
<polyline points="34.72,111.52 34.72,80.8" fill="none" stroke="black" stroke-width="1.067"/>
<polygon points="34.72,80.8 37.12,90.4 32.32,90.4" fill="black"/>
</g>
<g id="s21">
<text x="4" y="96.16" text-anchor="middle" dominant-baseline="central">9V</text>
</g>
<g id="s22">
<text x="114.4" y="4" text-anchor="middle" dominant-baseline="central">F1</text>
</g>
<g id="s23">
<text x="407.2" y="96.16" text-anchor="middle" dominant-baseline="central">L1</text>
</g>
</svg>
