<svg xmlns="http://www.w3.org/2000/svg" width="513.92" height="100.2" viewBox="0 0 513.92 100.2" font-family="sans-serif" font-size="14.666667" fill="none">
<g id="s0">
<polyline points="26.026667,56.213333 26.026667,8.213333 26.026667,8.213333 50.026667,8.213333" fill="none" stroke="black" stroke-width="1.066667"/>
</g>
<g id="s1">
<path d="M 50.026667 8.213333 C 52.854667 9.385333 55.682667 10.557333 58.510667 11.729333 64.166667 14.073333 68.166667 18.073333 70.510667 23.729333 72.854667 29.385333 72.854667 35.041333 70.510667 40.697333 68.166667 46.353333 64.166667 50.353333 58.510667 52.697333 55.682667 53.869333 52.854667 55.041333 50.026667 56.213333" fill="none" stroke="black" stroke-width="1.066667"/>
</g>
<g id="s2">
<line x1="50.026667" y1="56.213333" x2="26.026667" y2="56.213333" stroke="black" stroke-width="1.066667"/>
</g>
<g id="s3">
<line x1="8.746667" y1="17.813333" x2="26.026667" y2="17.813333" stroke="black" stroke-width="1.066667"/>
</g>
<g id="s4">
<line x1="8.746667" y1="46.613333" x2="26.026667" y2="46.613333" stroke="black" stroke-width="1.066667"/>
</g>
<g id="s5">
<line x1="74.026667" y1="32.213333" x2="91.306667" y2="32.213333" stroke="black" stroke-width="1.066667"/>
</g>
<g id="s6">
<path d="M 155.626667 8.213333 C 157.546667 12.213333 159.466667 16.213333 161.386667 20.213333 165.226667 28.213333 165.226667 36.213333 161.386667 44.213333 159.466667 48.213333 157.546667 52.213333 155.626667 56.213333" fill="none" stroke="black" stroke-width="1.066667"/>
</g>
<g id="s7">
<path d="M 155.626667 8.213333 C 160.426667 8.213333 165.226667 8.213333 170.026667 8.213333 179.626667 8.213333 189.226667 12.213333 198.826667 20.213333 203.626667 24.213333 208.426667 28.213333 213.226667 32.213333" fill="none" stroke="black" stroke-width="1.066667"/>
</g>
<g id="s8">
<path d="M 155.626667 56.213333 C 160.426667 56.213333 165.226667 56.213333 170.026667 56.213333 179.626667 56.213333 189.226667 52.213333 198.826667 44.213333 203.626667 40.213333 208.426667 36.213333 213.226667 32.213333" fill="none" stroke="black" stroke-width="1.066667"/>
</g>
<g id="s9">
<line x1="138.346667" y1="17.813333" x2="162.346667" y2="17.813333" stroke="black" stroke-width="1.066667"/>
</g>
<g id="s10">
<line x1="138.346667" y1="46.613333" x2="162.346667" y2="46.613333" stroke="black" stroke-width="1.066667"/>
</g>
<g id="s11">
<line x1="213.226667" y1="32.213333" x2="230.506667" y2="32.213333" stroke="black" stroke-width="1.066667"/>
</g>
<g id="s12">
<path d="M 282.346667 8.213333 C 284.266667 12.213333 286.186667 16.213333 288.106667 20.213333 291.946667 28.213333 291.946667 36.213333 288.106667 44.213333 286.186667 48.213333 284.266667 52.213333 282.346667 56.213333" fill="none" stroke="black" stroke-width="1.066667"/>
</g>
<g id="s13">
<path d="M 290.026667 8.213333 C 291.946667 12.213333 293.866667 16.213333 295.786667 20.213333 299.626667 28.213333 299.626667 36.213333 295.786667 44.213333 293.866667 48.213333 291.946667 52.213333 290.026667 56.213333" fill="none" stroke="black" stroke-width="1.066667"/>
</g>
<g id="s14">
<path d="M 290.026667 8.213333 C 294.826667 8.213333 299.626667 8.213333 304.426667 8.213333 314.026667 8.213333 323.626667 12.213333 333.226667 20.213333 338.026667 24.213333 342.826667 28.213333 347.626667 32.213333" fill="none" stroke="black" stroke-width="1.066667"/>
</g>
<g id="s15">
<path d="M 290.026667 56.213333 C 294.826667 56.213333 299.626667 56.213333 304.426667 56.213333 314.026667 56.213333 323.626667 52.213333 333.226667 44.213333 338.026667 40.213333 342.826667 36.213333 347.626667 32.213333" fill="none" stroke="black" stroke-width="1.066667"/>
</g>
<g id="s16">
<line x1="272.746667" y1="17.813333" x2="294.826667" y2="17.813333" stroke="black" stroke-width="1.066667"/>
</g>
<g id="s17">
<line x1="272.746667" y1="46.613333" x2="294.826667" y2="46.613333" stroke="black" stroke-width="1.066667"/>
</g>
<g id="s18">
<line x1="347.626667" y1="32.213333" x2="364.906667" y2="32.213333" stroke="black" stroke-width="1.066667"/>
</g>
<g id="s19">
<polyline points="429.226667,56.213333 429.226667,8.213333 429.226667,8.213333 453.226667,8.213333" fill="none" stroke="black" stroke-width="1.066667"/>
</g>
<g id="s20">
<path d="M 453.226667 8.213333 C 456.054667 9.385333 458.882667 10.557333 461.710667 11.729333 467.366667 14.073333 471.366667 18.073333 473.710667 23.729333 476.054667 29.385333 476.054667 35.041333 473.710667 40.697333 471.366667 46.353333 467.366667 50.353333 461.710667 52.697333 458.882667 53.869333 456.054667 55.041333 453.226667 56.213333" fill="none" stroke="black" stroke-width="1.066667"/>
</g>
<g id="s21">
<line x1="453.226667" y1="56.213333" x2="429.226667" y2="56.213333" stroke="black" stroke-width="1.066667"/>
</g>
<g id="s22">
<circle cx="482.026667" cy="32.213333" r="4.8" fill="none" stroke="black" stroke-width="1.066667"/>
</g>
<g id="s23">
<line x1="411.946667" y1="17.813333" x2="429.226667" y2="17.813333" stroke="black" stroke-width="1.066667"/>
</g>
<g id="s24">
<line x1="411.946667" y1="46.613333" x2="429.226667" y2="46.613333" stroke="black" stroke-width="1.066667"/>
</g>
<g id="s25">
<line x1="486.826667" y1="32.213333" x2="504.106667" y2="32.213333" stroke="black" stroke-width="1.066667"/>
</g>
<g id="s26">
<text font-size="11pt" stroke-width="0.266667" fill="black" x="50.026667" y="89.853333" text-anchor="middle">AND</text>
</g>
<g id="s27">
<text font-size="11pt" stroke-width="0.266667" fill="black" x="184.426667" y="89.853333" text-anchor="middle">OR</text>
</g>
<g id="s28">
<text font-size="11pt" stroke-width="0.266667" fill="black" x="318.826667" y="89.853333" text-anchor="middle">XOR</text>
</g>
<g id="s29">
<text font-size="11pt" stroke-width="0.266667" fill="black" x="453.226667" y="89.853333" text-anchor="middle">NAND</text>
</g>
</svg>
