<svg xmlns="http://www.w3.org/2000/svg" width="411.2" height="195.24" viewBox="0 0 411.2 195.24" font-family="sans-serif" font-size="14.666667" fill="none">
<g id="s0">
<circle cx="10.666667" cy="29.333333" r="9.6" fill="none" stroke="black" stroke-width="1.066667"/>
</g>
<g id="s1">
<text font-size="11pt" stroke-width="0.266667" fill="black" x="10.666667" y="53.373333" text-anchor="middle">0.1</text>
</g>
<g id="s2">
<circle cx="106.666667" cy="29.333333" r="19.2" fill="none" stroke="black" stroke-width="1.066667"/>
<text font-size="11pt" stroke-width="0.2pt" fill="black" x="106.666667" y="34.173333" text-anchor="middle">0.2</text>
</g>
<g id="s3">
<circle cx="202.666667" cy="29.333333" r="28.8" fill="none" stroke="black" stroke-width="1.066667"/>
<text font-size="11pt" stroke-width="0.2pt" fill="black" x="202.666667" y="34.173333" text-anchor="middle">0.3</text>
</g>
<g id="s4">
</g>
<g id="s5">
<line x1="1.066667" y1="96.533333" x2="46.867677" y2="96.533333" stroke="black" stroke-width="1.066667"/>
<polygon stroke-width="0" points="39.466667,94.133333 49.066667,96.533333 39.466667,98.933333" fill="black"/>
</g>
<g id="s6">
<rect x="49.066667" y="72.533333" width="72" height="48" fill="none" stroke="black" stroke-width="1.066667"/>
<text font-size="11pt" stroke-width="0.2pt" fill="black" x="85.066667" y="101.373333" text-anchor="middle">Input</text>
</g>
<g id="s7">
<line x1="121.066667" y1="96.533333" x2="166.867677" y2="96.533333" stroke="black" stroke-width="1.066667"/>
<polygon stroke-width="0" points="159.466667,94.133333 169.066667,96.533333 159.466667,98.933333" fill="black"/>
</g>
<g id="s8">
<rect x="169.066667" y="72.533333" width="72" height="48" fill="none" stroke="black" stroke-width="1.066667"/>
<text font-size="11pt" stroke-width="0.2pt" fill="black" x="205.066667" y="101.373333" text-anchor="middle">process</text>
</g>
<g id="s9">
<line x1="241.066667" y1="96.533333" x2="286.867677" y2="96.533333" stroke="black" stroke-width="1.066667"/>
<polygon stroke-width="0" points="279.466667,94.133333 289.066667,96.533333 279.466667,98.933333" fill="black"/>
</g>
<g id="s10">
<rect x="289.066667" y="72.533333" width="72" height="48" fill="none" stroke="black" stroke-width="1.066667"/>
<text font-size="11pt" stroke-width="0.2pt" fill="black" x="325.066667" y="101.373333" text-anchor="middle">output</text>
</g>
<g id="s11">
<line x1="361.066667" y1="96.533333" x2="406.867677" y2="96.533333" stroke="black" stroke-width="1.066667"/>
<polygon stroke-width="0" points="399.466667,94.133333 409.066667,96.533333 399.466667,98.933333" fill="black"/>
</g>
<g id="s12">
</g>
<g id="s13">
<text font-size="11pt" stroke-width="0.266667" fill="black" x="1.066667" y="192.573333" text-anchor="middle">0.1</text>
</g>
<g id="s14">
<path d="M 1.066667 168.533333 A 9.6 9.6 0 0 0 10.666667 158.933333" fill="none" stroke="black" stroke-width="1.066667"/>
</g>
<g id="s15">
</g>
<g id="s16">
<text font-size="11pt" stroke-width="0.266667" fill="black" x="97.066667" y="192.573333" text-anchor="middle">0.2</text>
</g>
<g id="s17">
<path d="M 97.066667 168.533333 A 19.2 19.2 0 0 0 116.266667 149.333333" fill="none" stroke="black" stroke-width="1.066667"/>
</g>
<g id="s18">
</g>
<g id="s19">
<text font-size="11pt" stroke-width="0.266667" fill="black" x="193.066667" y="192.573333" text-anchor="middle">0.3</text>
</g>
<g id="s20">
<path d="M 193.066667 168.533333 A 28.8 28.8 0 0 0 221.866667 139.733333" fill="none" stroke="black" stroke-width="1.066667"/>
</g>
</svg>
