<svg xmlns="http://www.w3.org/2000/svg" width="560" height="272" viewBox="0 0 560 272" font-family="sans-serif" font-size="14.667">
<g id="s0">
<rect x="4" y="4" width="72" height="48" fill="none" stroke="black" stroke-width="1.067" stroke-dasharray="1,3" stroke-linecap="round"/>
</g>
<g id="s1">
<polyline points="76,28 124,28" fill="none" stroke="black" stroke-width="1.067" stroke-dasharray="1,3" stroke-linecap="round"/>
</g>
<g id="s2">
</g>
<g id="s3">
<polyline points="172,28 220,28" fill="none" stroke="black" stroke-width="1.067" stroke-dasharray="4,3"/>
</g>
<g id="s4">
<rect x="220" y="4" width="72" height="48" fill="none" stroke="black" stroke-width="1.067" stroke-dasharray="4,3"/>
</g>
<g id="s5">
</g>
<g id="s6">
<rect x="4" y="76" width="72" height="48" fill="none" stroke="black" stroke-width="1.067" stroke-dasharray="4,3"/>
<text x="40" y="100" text-anchor="middle" dominant-baseline="central">default</text>
</g>
<g id="s7">
</g>
<g id="s8">
<rect x="124" y="76" width="72" height="48" fill="none" stroke="black" stroke-width="1.067" stroke-dasharray="4,3"/>
<text x="160" y="100" text-anchor="middle" dominant-baseline="central">0.05</text>
</g>
<g id="s9">
</g>
<g id="s10">
<rect x="244" y="76" width="72" height="48" fill="none" stroke="black" stroke-width="1.067" stroke-dasharray="4,3"/>
<text x="280" y="100" text-anchor="middle" dominant-baseline="central">0.1</text>
</g>
<g id="s11">
</g>
<g id="s12">
<rect x="364" y="76" width="72" height="48" fill="none" stroke="black" stroke-width="1.067" stroke-dasharray="4,3"/>
<text x="400" y="100" text-anchor="middle" dominant-baseline="central">0.15</text>
</g>
<g id="s13">
</g>
<g id="s14">
<rect x="484" y="76" width="72" height="48" fill="none" stroke="black" stroke-width="1.067" stroke-dasharray="4,3"/>
<text x="520" y="100" text-anchor="middle" dominant-baseline="central">0.2</text>
</g>
<g id="s15">
</g>
<g id="s16">
<rect x="4" y="148" width="72" height="48" fill="none" stroke="black" stroke-width="1.067" stroke-dasharray="1,3" stroke-linecap="round"/>
<text x="40" y="172" text-anchor="middle" dominant-baseline="central">default</text>
</g>
<g id="s17">
</g>
<g id="s18">
<rect x="124" y="148" width="72" height="48" fill="none" stroke="black" stroke-width="1.067" stroke-dasharray="1,3" stroke-linecap="round"/>
<text x="160" y="172" text-anchor="middle" dominant-baseline="central">0.05</text>
</g>
<g id="s19">
</g>
<g id="s20">
<rect x="244" y="148" width="72" height="48" fill="none" stroke="black" stroke-width="1.067" stroke-dasharray="1,3" stroke-linecap="round"/>
<text x="280" y="172" text-anchor="middle" dominant-baseline="central">0.1</text>
</g>
<g id="s21">
</g>
<g id="s22">
<rect x="364" y="148" width="72" height="48" fill="none" stroke="black" stroke-width="1.067" stroke-dasharray="1,3" stroke-linecap="round"/>
<text x="400" y="172" text-anchor="middle" dominant-baseline="central">0.15</text>
</g>
<g id="s23">
</g>
<g id="s24">
<rect x="484" y="148" width="72" height="48" fill="none" stroke="black" stroke-width="1.067" stroke-dasharray="1,3" stroke-linecap="round"/>
<text x="520" y="172" text-anchor="middle" dominant-baseline="central">0.2</text>
</g>
<g id="s25">
</g>
<g id="s26">
<rect x="4" y="220" width="72" height="48" rx="4.8" fill="none" stroke="black" stroke-width="1.067"/>
<text x="40" y="244" text-anchor="middle" dominant-baseline="central">0.05</text>
</g>
<g id="s27">
</g>
<g id="s28">
<rect x="124" y="220" width="72" height="48" rx="9.6" fill="none" stroke="black" stroke-width="1.067"/>
<text x="160" y="244" text-anchor="middle" dominant-baseline="central">0.1</text>
</g>
<g id="s29">
</g>
<g id="s30">
<rect x="244" y="220" width="72" height="48" rx="14.4" fill="none" stroke="black" stroke-width="1.067"/>
<text x="280" y="244" text-anchor="middle" dominant-baseline="central">0.15</text>
</g>
<g id="s31">
</g>
<g id="s32">
<rect x="364" y="220" width="72" height="48" rx="19.2" fill="none" stroke="black" stroke-width="1.067"/>
<text x="400" y="244" text-anchor="middle" dominant-baseline="central">0.2</text>
</g>
<g id="s33">
</g>
<g id="s34">
<rect x="484" y="220" width="72" height="48" rx="24" fill="none" stroke="black" stroke-width="1.067"/>
<text x="520" y="244" text-anchor="middle" dominant-baseline="central">0.25</text>
</g>
</svg>
