<svg xmlns="http://www.w3.org/2000/svg" width="536" height="108.8" viewBox="0 0 536 108.8" font-family="sans-serif" font-size="14.667">
<g id="s0">
<polyline points="4,96 52,96" fill="none" stroke="black" stroke-width="1.067"/>
<polygon points="52,96 42.4,98.4 42.4,93.6" fill="black"/>
<text x="28" y="96" text-anchor="middle" dominant-baseline="central">ow!</text>
</g>
<g id="s1">
</g>
<g id="s2">
<polyline points="100,96 148,96" fill="none" stroke="black" stroke-width="1.067"/>
</g>
<g id="s3">
<path d="M 148 96 A 24 24 0 0 1 172 72" fill="none" stroke="black" stroke-width="1.067"/>
</g>
<g id="s4">
<path d="M 172 72 A 24 24 0 0 0 196 48" fill="none" stroke="black" stroke-width="1.067"/>
</g>
<g id="s5">
<polyline points="196,48 244,48" fill="none" stroke="black" stroke-width="1.067"/>
<polygon points="244,48 234.4,50.4 234.4,45.6" fill="black"/>
</g>
<g id="s6">
</g>
<g id="s7">
<polyline points="292,48 340,48" fill="none" stroke="black" stroke-width="1.067"/>
<text x="316" y="48" text-anchor="middle" dominant-baseline="central">1</text>
</g>
<g id="s8">
<polyline points="340,48 388,48" fill="none" stroke="black" stroke-width="1.067"/>
<text x="364" y="39.2" text-anchor="middle" dominant-baseline="central">1</text>
<text x="364" y="56.8" text-anchor="middle" dominant-baseline="central">2</text>
</g>
<g id="s9">
<polyline points="388,48 436,48" fill="none" stroke="black" stroke-width="1.067"/>
<text x="412" y="30.4" text-anchor="middle" dominant-baseline="central">1</text>
<text x="412" y="48" text-anchor="middle" dominant-baseline="central">2</text>
<text x="412" y="65.6" text-anchor="middle" dominant-baseline="central">3</text>
</g>
<g id="s10">
<polyline points="436,48 484,48" fill="none" stroke="black" stroke-width="1.067"/>
<text x="460" y="21.6" text-anchor="middle" dominant-baseline="central">1</text>
<text x="460" y="39.2" text-anchor="middle" dominant-baseline="central">2</text>
<text x="460" y="56.8" text-anchor="middle" dominant-baseline="central">3</text>
<text x="460" y="74.4" text-anchor="middle" dominant-baseline="central">4</text>
</g>
<g id="s11">
<polyline points="484,48 532,48" fill="none" stroke="black" stroke-width="1.067"/>
<text x="508" y="12.8" text-anchor="middle" dominant-baseline="central">1</text>
<text x="508" y="30.4" text-anchor="middle" dominant-baseline="central">2</text>
<text x="508" y="48" text-anchor="middle" dominant-baseline="central">3</text>
<text x="508" y="65.6" text-anchor="middle" dominant-baseline="central">4</text>
<text x="508" y="83.2" text-anchor="middle" dominant-baseline="central">5</text>
</g>
<g id="s12">
</g>
</svg>
