<svg xmlns="http://www.w3.org/2000/svg" width="327.2" height="315.2" viewBox="0 0 327.2 315.2" font-family="sans-serif" font-size="14.666667" fill="none">
<g id="s0">
<rect x="253.066667" y="0.533333" width="72" height="48" fill="none" stroke="black" stroke-width="1.066667"/>
</g>
<g id="s1">
<line x1="289.066667" y1="48.533333" x2="289.066667" y2="94.334344" stroke="black" stroke-width="1.066667"/>
<polygon stroke-width="0" points="291.466667,86.933333 289.066667,96.533333 286.666667,86.933333" fill="black"/>
</g>
<g id="s2">
<ellipse cx="289.066667" cy="120.533333" rx="36" ry="24" fill="none" stroke="black" stroke-width="1.066667"/>
</g>
<g id="s3">
<line x1="289.066667" y1="144.533333" x2="289.066667" y2="190.334344" stroke="black" stroke-width="1.066667"/>
<polygon stroke-width="0" points="291.466667,182.933333 289.066667,192.533333 286.666667,182.933333" fill="black"/>
</g>
<g id="s4">
<circle cx="289.066667" cy="216.533333" r="24" fill="none" stroke="black" stroke-width="1.066667"/>
</g>
<g id="s5">
</g>
<g id="s6">
<rect x="217.066667" y="264.533333" width="72" height="48" fill="none" stroke="black" stroke-width="1.066667"/>
</g>
<g id="s7">
<line x1="217.066667" y1="288.533333" x2="171.265656" y2="288.533333" stroke="black" stroke-width="1.066667"/>
<polygon stroke-width="0" points="178.666667,290.933333 169.066667,288.533333 178.666667,286.133333" fill="black"/>
</g>
<g id="s8">
<ellipse cx="133.066667" cy="288.533333" rx="36" ry="24" fill="none" stroke="black" stroke-width="1.066667"/>
</g>
<g id="s9">
<line x1="97.066667" y1="288.533333" x2="51.265656" y2="288.533333" stroke="black" stroke-width="1.066667"/>
<polygon stroke-width="0" points="58.666667,290.933333 49.066667,288.533333 58.666667,286.133333" fill="black"/>
</g>
<g id="s10">
<circle cx="25.066667" cy="288.533333" r="24" fill="none" stroke="black" stroke-width="1.066667"/>
</g>
<g id="s11">
<rect x="25.066667" y="48.533333" width="72" height="48" fill="none" stroke="black" stroke-width="1.066667"/>
</g>
<g id="s12">
<line x1="97.066667" y1="72.533333" x2="142.867677" y2="72.533333" stroke="black" stroke-width="1.066667"/>
<polygon stroke-width="0" points="135.466667,70.133333 145.066667,72.533333 135.466667,74.933333" fill="black"/>
</g>
<g id="s13">
<circle cx="169.066667" cy="72.533333" r="24" fill="none" stroke="black" stroke-width="1.066667"/>
</g>
<g id="s14">
<line x1="169.066667" y1="96.533333" x2="169.066667" y2="142.334344" stroke="black" stroke-width="1.066667"/>
<polygon stroke-width="0" points="171.466667,134.933333 169.066667,144.533333 166.666667,134.933333" fill="black"/>
</g>
<g id="s15">
<ellipse cx="169.066667" cy="168.533333" rx="36" ry="24" fill="none" stroke="black" stroke-width="1.066667"/>
</g>
</svg>
