<svg xmlns="http://www.w3.org/2000/svg" width="424.4" height="195.24" viewBox="0 0 424.4 195.24" font-family="sans-serif" font-size="14.666667" fill="none">
<g id="s0">
<circle cx="23.866667" cy="29.333333" r="9.6" fill="none" stroke="black" stroke-width="1.066667"/>
</g>
<g id="s1">
<text font-size="11pt" stroke-width="0.266667" fill="black" x="23.866667" y="53.373333" text-anchor="middle">0.1</text>
</g>
<g id="s2">
<circle cx="119.866667" cy="29.333333" r="19.2" fill="none" stroke="black" stroke-width="1.066667"/>
<text font-size="11pt" stroke-width="0.2pt" fill="black" x="119.866667" y="34.173333" text-anchor="middle">0.2</text>
</g>
<g id="s3">
<circle cx="215.866667" cy="29.333333" r="28.8" fill="none" stroke="black" stroke-width="1.066667"/>
<text font-size="11pt" stroke-width="0.2pt" fill="black" x="215.866667" y="34.173333" text-anchor="middle">0.3</text>
</g>
<g id="s4">
</g>
<g id="s5">
<line x1="14.266667" y1="96.533333" x2="60.067677" y2="96.533333" stroke="black" stroke-width="1.066667"/>
<polygon stroke-width="0" points="52.666667,94.133333 62.266667,96.533333 52.666667,98.933333" fill="black"/>
</g>
<g id="s6">
<rect x="62.266667" y="72.533333" width="72" height="48" fill="none" stroke="black" stroke-width="1.066667"/>
<text font-size="11pt" stroke-width="0.2pt" fill="black" x="98.266667" y="101.373333" text-anchor="middle">Input</text>
</g>
<g id="s7">
<line x1="134.266667" y1="96.533333" x2="180.067677" y2="96.533333" stroke="black" stroke-width="1.066667"/>
<polygon stroke-width="0" points="172.666667,94.133333 182.266667,96.533333 172.666667,98.933333" fill="black"/>
</g>
<g id="s8">
<rect x="182.266667" y="72.533333" width="72" height="48" fill="none" stroke="black" stroke-width="1.066667"/>
<text font-size="11pt" stroke-width="0.2pt" fill="black" x="218.266667" y="101.373333" text-anchor="middle">process</text>
</g>
<g id="s9">
<line x1="254.266667" y1="96.533333" x2="300.067677" y2="96.533333" stroke="black" stroke-width="1.066667"/>
<polygon stroke-width="0" points="292.666667,94.133333 302.266667,96.533333 292.666667,98.933333" fill="black"/>
</g>
<g id="s10">
<rect x="302.266667" y="72.533333" width="72" height="48" fill="none" stroke="black" stroke-width="1.066667"/>
<text font-size="11pt" stroke-width="0.2pt" fill="black" x="338.266667" y="101.373333" text-anchor="middle">output</text>
</g>
<g id="s11">
<line x1="374.266667" y1="96.533333" x2="420.067677" y2="96.533333" stroke="black" stroke-width="1.066667"/>
<polygon stroke-width="0" points="412.666667,94.133333 422.266667,96.533333 412.666667,98.933333" fill="black"/>
</g>
<g id="s12">
</g>
<g id="s13">
<text font-size="11pt" stroke-width="0.266667" fill="black" x="14.266667" y="192.573333" text-anchor="middle">0.1</text>
</g>
<g id="s14">
<path d="M 14.266667 168.533333 A 9.6 9.6 0 0 0 23.866667 158.933333" fill="none" stroke="black" stroke-width="1.066667"/>
</g>
<g id="s15">
</g>
<g id="s16">
<text font-size="11pt" stroke-width="0.266667" fill="black" x="110.266667" y="192.573333" text-anchor="middle">0.2</text>
</g>
<g id="s17">
<path d="M 110.266667 168.533333 A 19.2 19.2 0 0 0 129.466667 149.333333" fill="none" stroke="black" stroke-width="1.066667"/>
</g>
<g id="s18">
</g>
<g id="s19">
<text font-size="11pt" stroke-width="0.266667" fill="black" x="206.266667" y="192.573333" text-anchor="middle">0.3</text>
</g>
<g id="s20">
<path d="M 206.266667 168.533333 A 28.8 28.8 0 0 0 235.066667 139.733333" fill="none" stroke="black" stroke-width="1.066667"/>
</g>
</svg>
