<svg xmlns="http://www.w3.org/2000/svg" width="711.2" height="223.6" viewBox="0 0 711.2 223.6" font-family="sans-serif" font-size="14.667">
<g id="s0">
<polyline points="108.8,52 60.8,4" fill="none" stroke="black" stroke-width="1.067"/>
<polygon points="60.8,4 69.285,9.091 65.891,12.485" fill="black"/>
</g>
<g id="s1">
<polyline points="60.8,4 108.8,4" fill="none" stroke="black" stroke-width="1.067" stroke-dasharray="1,3" stroke-linecap="round"/>
</g>
<g id="s2">
<polyline points="108.8,52 60.8,52" fill="none" stroke="black" stroke-width="1.067" stroke-dasharray="1,3" stroke-linecap="round"/>
</g>
<g id="s3">
<polyline points="60.8,4 60.8,52" fill="none" stroke="black" stroke-width="1.067" stroke-dasharray="1,3" stroke-linecap="round"/>
</g>
<g id="s4">
<polyline points="108.8,4 108.8,52" fill="none" stroke="black" stroke-width="1.067" stroke-dasharray="1,3" stroke-linecap="round"/>
</g>
<g id="s5">
<text x="84.8" y="71.2" text-anchor="middle" dominant-baseline="central">arrow up left </text>
</g>
<g id="s6">
<polyline points="279.6,52 183.6,4" fill="none" stroke="black" stroke-width="1.067"/>
<polygon points="183.6,4 193.26,6.147 191.113,10.44" fill="black"/>
</g>
<g id="s7">
<polyline points="183.6,4 279.6,4" fill="none" stroke="black" stroke-width="1.067" stroke-dasharray="1,3" stroke-linecap="round"/>
</g>
<g id="s8">
<polyline points="279.6,52 183.6,52" fill="none" stroke="black" stroke-width="1.067" stroke-dasharray="1,3" stroke-linecap="round"/>
</g>
<g id="s9">
<polyline points="183.6,4 183.6,52" fill="none" stroke="black" stroke-width="1.067" stroke-dasharray="1,3" stroke-linecap="round"/>
</g>
<g id="s10">
<polyline points="231.6,4 231.6,52" fill="none" stroke="black" stroke-width="1.067" stroke-dasharray="1,3" stroke-linecap="round"/>
</g>
<g id="s11">
<polyline points="279.6,4 279.6,52" fill="none" stroke="black" stroke-width="1.067" stroke-dasharray="1,3" stroke-linecap="round"/>
</g>
<g id="s12">
<text x="231.6" y="71.2" text-anchor="middle" dominant-baseline="central">arrow up left 1</text>
</g>
<g id="s13">
<polyline points="463.6,52 319.6,4" fill="none" stroke="black" stroke-width="1.067"/>
<polygon points="319.6,4 329.466,4.759 327.948,9.313" fill="black"/>
</g>
<g id="s14">
<polyline points="319.6,4 463.6,4" fill="none" stroke="black" stroke-width="1.067" stroke-dasharray="1,3" stroke-linecap="round"/>
</g>
<g id="s15">
<polyline points="463.6,52 319.6,52" fill="none" stroke="black" stroke-width="1.067" stroke-dasharray="1,3" stroke-linecap="round"/>
</g>
<g id="s16">
<polyline points="319.6,4 319.6,52" fill="none" stroke="black" stroke-width="1.067" stroke-dasharray="1,3" stroke-linecap="round"/>
</g>
<g id="s17">
<polyline points="367.6,4 367.6,52" fill="none" stroke="black" stroke-width="1.067" stroke-dasharray="1,3" stroke-linecap="round"/>
</g>
<g id="s18">
<polyline points="415.6,4 415.6,52" fill="none" stroke="black" stroke-width="1.067" stroke-dasharray="1,3" stroke-linecap="round"/>
</g>
<g id="s19">
<polyline points="463.6,4 463.6,52" fill="none" stroke="black" stroke-width="1.067" stroke-dasharray="1,3" stroke-linecap="round"/>
</g>
<g id="s20">
<text x="391.6" y="71.2" text-anchor="middle" dominant-baseline="central">arrow up left 1.5</text>
</g>
<g id="s21">
<polyline points="677.6,52 485.6,4" fill="none" stroke="black" stroke-width="1.067"/>
<polygon points="485.6,4 495.495,4 494.331,8.657" fill="black"/>
</g>
<g id="s22">
<polyline points="485.6,4 677.6,4" fill="none" stroke="black" stroke-width="1.067" stroke-dasharray="1,3" stroke-linecap="round"/>
</g>
<g id="s23">
<polyline points="677.6,52 485.6,52" fill="none" stroke="black" stroke-width="1.067" stroke-dasharray="1,3" stroke-linecap="round"/>
</g>
<g id="s24">
<polyline points="485.6,4 485.6,52" fill="none" stroke="black" stroke-width="1.067" stroke-dasharray="1,3" stroke-linecap="round"/>
</g>
<g id="s25">
<polyline points="533.6,4 533.6,52" fill="none" stroke="black" stroke-width="1.067" stroke-dasharray="1,3" stroke-linecap="round"/>
</g>
<g id="s26">
<polyline points="581.6,4 581.6,52" fill="none" stroke="black" stroke-width="1.067" stroke-dasharray="1,3" stroke-linecap="round"/>
</g>
<g id="s27">
<polyline points="629.6,4 629.6,52" fill="none" stroke="black" stroke-width="1.067" stroke-dasharray="1,3" stroke-linecap="round"/>
</g>
<g id="s28">
<polyline points="677.6,4 677.6,52" fill="none" stroke="black" stroke-width="1.067" stroke-dasharray="1,3" stroke-linecap="round"/>
</g>
<g id="s29">
<text x="581.6" y="71.2" text-anchor="middle" dominant-baseline="central">arrow up left 2</text>
</g>
<g id="s30">
</g>
<g id="s31">
<polyline points="104.8,162 176.8,162 176.8,162 167.2,210 167.2,210 23.2,210 23.2,210 32.8,162 32.8,162 104.8,162" fill="none" stroke="black" stroke-width="1.067"/>
</g>
<g id="s32">
</g>
<g id="s33">
<text x="104.8" y="162" text-anchor="middle" dominant-baseline="central">N</text>
</g>
<g id="s34">
<text x="176.8" y="162" text-anchor="middle" dominant-baseline="central">NE</text>
</g>
<g id="s35">
<text x="172" y="186" text-anchor="middle" dominant-baseline="central">E</text>
</g>
<g id="s36">
<text x="167.2" y="210" text-anchor="middle" dominant-baseline="central">SE</text>
</g>
<g id="s37">
<text x="95.2" y="210" text-anchor="middle" dominant-baseline="central">S</text>
</g>
<g id="s38">
<text x="23.2" y="210" text-anchor="middle" dominant-baseline="central">SW</text>
</g>
<g id="s39">
<text x="28" y="186" text-anchor="middle" dominant-baseline="central">W</text>
</g>
<g id="s40">
<text x="32.8" y="162" text-anchor="middle" dominant-baseline="central">NW</text>
</g>
<g id="s41">
<polyline points="292,166.8 364,171.6 364,171.6 364,219.6 364,219.6 220,210 220,210 220,162 220,162 292,166.8" fill="none" stroke="black" stroke-width="1.067"/>
</g>
<g id="s42">
<polyline points="512.8,166.8 623.2,162 623.2,162 642.4,210 642.4,210 421.6,219.6 421.6,219.6 402.4,171.6 402.4,171.6 512.8,166.8" fill="none" stroke="black" stroke-width="1.067"/>
</g>
<g id="s43">
<text x="522.4" y="190.8" text-anchor="middle" dominant-baseline="central">\small\tt slantbox(2.3,,-0.2,0.1,fill 0.9)</text>
</g>
</svg>
