<svg xmlns="http://www.w3.org/2000/svg" width="332" height="320" viewBox="0 0 332 320" font-family="sans-serif" font-size="14.667">
<g id="s0">
<rect x="256" y="4" width="72" height="48" fill="none" stroke="black" stroke-width="1.067"/>
</g>
<g id="s1">
<polyline points="292,52 292,100" fill="none" stroke="black" stroke-width="1.067"/>
<polygon points="292,100 289.6,90.4 294.4,90.4" fill="black"/>
</g>
<g id="s2">
<ellipse cx="292" cy="124" rx="36" ry="24" fill="none" stroke="black" stroke-width="1.067"/>
</g>
<g id="s3">
<polyline points="292,148 292,196" fill="none" stroke="black" stroke-width="1.067"/>
<polygon points="292,196 289.6,186.4 294.4,186.4" fill="black"/>
</g>
<g id="s4">
<circle cx="292" cy="220" r="24" fill="none" stroke="black" stroke-width="1.067"/>
</g>
<g id="s5">
</g>
<g id="s6">
<rect x="220" y="268" width="72" height="48" fill="none" stroke="black" stroke-width="1.067"/>
</g>
<g id="s7">
<polyline points="220,292 172,292" fill="none" stroke="black" stroke-width="1.067"/>
<polygon points="172,292 181.6,289.6 181.6,294.4" fill="black"/>
</g>
<g id="s8">
<ellipse cx="136" cy="292" rx="36" ry="24" fill="none" stroke="black" stroke-width="1.067"/>
</g>
<g id="s9">
<polyline points="100,292 52,292" fill="none" stroke="black" stroke-width="1.067"/>
<polygon points="52,292 61.6,289.6 61.6,294.4" fill="black"/>
</g>
<g id="s10">
<circle cx="28" cy="292" r="24" fill="none" stroke="black" stroke-width="1.067"/>
</g>
<g id="s11">
<rect x="28" y="52" width="72" height="48" fill="none" stroke="black" stroke-width="1.067"/>
</g>
<g id="s12">
<polyline points="100,76 148,76" fill="none" stroke="black" stroke-width="1.067"/>
<polygon points="148,76 138.4,78.4 138.4,73.6" fill="black"/>
</g>
<g id="s13">
<circle cx="172" cy="76" r="24" fill="none" stroke="black" stroke-width="1.067"/>
</g>
<g id="s14">
<polyline points="172,100 172,148" fill="none" stroke="black" stroke-width="1.067"/>
<polygon points="172,148 169.6,138.4 174.4,138.4" fill="black"/>
</g>
<g id="s15">
<ellipse cx="172" cy="172" rx="36" ry="24" fill="none" stroke="black" stroke-width="1.067"/>
</g>
</svg>
