<svg xmlns="http://www.w3.org/2000/svg" width="608" height="123.2" viewBox="0 0 608 123.2" font-family="sans-serif" font-size="14.666667" fill="none">
<g id="s0">
<ellipse cx="37.066667" cy="24.533333" rx="36" ry="24" fill="none" stroke="black" stroke-width="1.066667"/>
<text font-size="11pt" stroke-width="0.2pt" fill="black" x="37.066667" y="29.373333" text-anchor="middle">document</text>
</g>
<g id="s1">
<line x1="73.066667" y1="24.533333" x2="118.867677" y2="24.533333" stroke="black" stroke-width="1.066667"/>
<polygon stroke-width="0" points="111.466667,22.133333 121.066667,24.533333 111.466667,26.933333" fill="black"/>
</g>
<g id="s2">
<rect x="121.066667" y="0.533333" width="72" height="48" fill="none" stroke="black" stroke-width="1.066667"/>
<text font-size="11pt" stroke-width="0.2pt" fill="black" x="157.066667" y="29.373333" text-anchor="middle">PIC</text>
</g>
<g id="s3">
<line x1="193.066667" y1="24.533333" x2="238.867677" y2="24.533333" stroke="black" stroke-width="1.066667"/>
<polygon stroke-width="0" points="231.466667,22.133333 241.066667,24.533333 231.466667,26.933333" fill="black"/>
</g>
<g id="s4">
<rect x="241.066667" y="0.533333" width="72" height="48" fill="none" stroke="black" stroke-width="1.066667" stroke-dasharray="5.6,4"/>
<text font-size="11pt" stroke-width="0.2pt" fill="black" x="277.066667" y="22.04" text-anchor="middle">TBL/EQN</text>
<text font-size="11pt" stroke-width="0.2pt" fill="black" x="277.066667" y="36.706667" text-anchor="middle">(optional)</text>
</g>
<g id="s5">
<line x1="313.066667" y1="24.533333" x2="358.867677" y2="24.533333" stroke="black" stroke-width="1.066667"/>
<polygon stroke-width="0" points="351.466667,22.133333 361.066667,24.533333 351.466667,26.933333" fill="black"/>
</g>
<g id="s6">
<rect x="361.066667" y="0.533333" width="72" height="48" fill="none" stroke="black" stroke-width="1.066667"/>
<text font-size="11pt" stroke-width="0.2pt" fill="black" x="397.066667" y="29.373333" text-anchor="middle">TROFF</text>
</g>
<g id="s7">
<line x1="433.066667" y1="24.533333" x2="478.867677" y2="24.533333" stroke="black" stroke-width="1.066667"/>
<polygon stroke-width="0" points="471.466667,22.133333 481.066667,24.533333 471.466667,26.933333" fill="black"/>
</g>
<g id="s8">
<ellipse cx="517.066667" cy="24.533333" rx="36" ry="24" fill="none" stroke="black" stroke-width="1.066667"/>
<text font-size="11pt" stroke-width="0.2pt" fill="black" x="517.066667" y="29.373333" text-anchor="middle">typesetter</text>
</g>
<g id="s9">
<ellipse cx="37.066667" cy="96.533333" rx="36" ry="24" fill="none" stroke="black" stroke-width="1.066667"/>
<text font-size="11pt" stroke-width="0.2pt" fill="black" x="37.066667" y="101.373333" text-anchor="middle">document</text>
</g>
<g id="s10">
<line x1="73.066667" y1="96.533333" x2="118.867677" y2="96.533333" stroke="black" stroke-width="1.066667"/>
<polygon stroke-width="0" points="111.466667,94.133333 121.066667,96.533333 111.466667,98.933333" fill="black"/>
</g>
<g id="s11">
<rect x="121.066667" y="72.533333" width="72" height="48" fill="none" stroke="black" stroke-width="1.066667"/>
<text font-size="11pt" stroke-width="0.2pt" fill="black" x="157.066667" y="101.373333" text-anchor="middle">{\em gpic}(1)</text>
</g>
<g id="s12">
<line x1="193.066667" y1="96.533333" x2="238.867677" y2="96.533333" stroke="black" stroke-width="1.066667"/>
<polygon stroke-width="0" points="231.466667,94.133333 241.066667,96.533333 231.466667,98.933333" fill="black"/>
</g>
<g id="s13">
<rect x="241.066667" y="72.533333" width="124.8" height="48" fill="none" stroke="black" stroke-width="1.066667" stroke-dasharray="5.6,4"/>
<text font-size="11pt" stroke-width="0.2pt" fill="black" x="303.466667" y="94.04" text-anchor="middle">{\em gtbl}(1) or {\em geqn}(1)</text>
<text font-size="11pt" stroke-width="0.2pt" fill="black" x="303.466667" y="108.706667" text-anchor="middle">(optional)</text>
</g>
<g id="s14">
<line x1="365.866667" y1="96.533333" x2="411.667677" y2="96.533333" stroke="black" stroke-width="1.066667"/>
<polygon stroke-width="0" points="404.266667,94.133333 413.866667,96.533333 404.266667,98.933333" fill="black"/>
</g>
<g id="s15">
<rect x="413.866667" y="72.533333" width="72" height="48" fill="none" stroke="black" stroke-width="1.066667"/>
<text font-size="11pt" stroke-width="0.2pt" fill="black" x="449.866667" y="101.373333" text-anchor="middle">{\em gtroff}(1)</text>
</g>
<g id="s16">
<line x1="485.866667" y1="96.533333" x2="531.667677" y2="96.533333" stroke="black" stroke-width="1.066667"/>
<polygon stroke-width="0" points="524.266667,94.133333 533.866667,96.533333 524.266667,98.933333" fill="black"/>
</g>
<g id="s17">
<ellipse cx="569.866667" cy="96.533333" rx="36" ry="24" fill="none" stroke="black" stroke-width="1.066667"/>
<text font-size="11pt" stroke-width="0.2pt" fill="black" x="569.866667" y="101.373333" text-anchor="middle">Postscript</text>
</g>
</svg>
