<svg xmlns="http://www.w3.org/2000/svg" width="531.2" height="75.4" viewBox="0 0 531.2 75.4" font-family="sans-serif" font-size="14.666667" fill="none">
<g id="s0">
<line x1="1.066667" y1="72.733333" x2="46.867677" y2="72.733333" stroke="black" stroke-width="1.066667"/>
<polygon stroke-width="0" points="39.466667,70.333333 49.066667,72.733333 39.466667,75.133333" fill="black"/>
<text font-size="11pt" stroke-width="0.2pt" fill="black" x="25.066667" y="77.573333" text-anchor="middle">ow!</text>
</g>
<g id="s1">
</g>
<g id="s2">
<line x1="97.066667" y1="72.733333" x2="145.066667" y2="72.733333" stroke="black" stroke-width="1.066667"/>
</g>
<g id="s3">
<path d="M 145.066667 72.733333 A 24 24 0 0 0 169.066667 48.733333" fill="none" stroke="black" stroke-width="1.066667"/>
</g>
<g id="s4">
<path d="M 169.066667 48.733333 A 24 24 0 0 1 193.066667 24.733333" fill="none" stroke="black" stroke-width="1.066667"/>
</g>
<g id="s5">
<line x1="193.066667" y1="24.733333" x2="238.867677" y2="24.733333" stroke="black" stroke-width="1.066667"/>
<polygon stroke-width="0" points="231.466667,22.333333 241.066667,24.733333 231.466667,27.133333" fill="black"/>
</g>
<g id="s6">
</g>
<g id="s7">
<line x1="289.066667" y1="24.733333" x2="337.066667" y2="24.733333" stroke="black" stroke-width="1.066667"/>
<text font-size="11pt" stroke-width="0.2pt" fill="black" x="313.066667" y="29.573333" text-anchor="middle">1</text>
</g>
<g id="s8">
<line x1="337.066667" y1="24.733333" x2="385.066667" y2="24.733333" stroke="black" stroke-width="1.066667"/>
<text font-size="11pt" stroke-width="0.2pt" fill="black" x="361.066667" y="22.24" text-anchor="middle">1</text>
<text font-size="11pt" stroke-width="0.2pt" fill="black" x="361.066667" y="36.906667" text-anchor="middle">2</text>
</g>
<g id="s9">
<line x1="385.066667" y1="24.733333" x2="433.066667" y2="24.733333" stroke="black" stroke-width="1.066667"/>
<text font-size="11pt" stroke-width="0.2pt" fill="black" x="409.066667" y="14.906667" text-anchor="middle">1</text>
<text font-size="11pt" stroke-width="0.2pt" fill="black" x="409.066667" y="29.573333" text-anchor="middle">2</text>
<text font-size="11pt" stroke-width="0.2pt" fill="black" x="409.066667" y="44.24" text-anchor="middle">3</text>
</g>
<g id="s10">
<line x1="433.066667" y1="24.733333" x2="481.066667" y2="24.733333" stroke="black" stroke-width="1.066667"/>
<text font-size="11pt" stroke-width="0.2pt" fill="black" x="457.066667" y="7.573333" text-anchor="middle">1</text>
<text font-size="11pt" stroke-width="0.2pt" fill="black" x="457.066667" y="22.24" text-anchor="middle">2</text>
<text font-size="11pt" stroke-width="0.2pt" fill="black" x="457.066667" y="36.906667" text-anchor="middle">3</text>
<text font-size="11pt" stroke-width="0.2pt" fill="black" x="457.066667" y="51.573333" text-anchor="middle">4</text>
</g>
<g id="s11">
<line x1="481.066667" y1="24.733333" x2="529.066667" y2="24.733333" stroke="black" stroke-width="1.066667"/>
<text font-size="11pt" stroke-width="0.2pt" fill="black" x="505.066667" y="0.24" text-anchor="middle">1</text>
<text font-size="11pt" stroke-width="0.2pt" fill="black" x="505.066667" y="14.906667" text-anchor="middle">2</text>
<text font-size="11pt" stroke-width="0.2pt" fill="black" x="505.066667" y="29.573333" text-anchor="middle">3</text>
<text font-size="11pt" stroke-width="0.2pt" fill="black" x="505.066667" y="44.24" text-anchor="middle">4</text>
<text font-size="11pt" stroke-width="0.2pt" fill="black" x="505.066667" y="58.906667" text-anchor="middle">5</text>
</g>
<g id="s12">
</g>
</svg>
