<svg xmlns="http://www.w3.org/2000/svg" width="156.8" height="108.8" viewBox="0 0 156.8 108.8" font-family="sans-serif" font-size="14.666667" fill="none">
<g id="s0">
<rect x="1.066667" y="34.133333" width="96" height="48" fill="Goldenrod" stroke="black" stroke-width="1.066667"/>
<text font-size="11pt" stroke-width="0.2pt" fill="black" x="49.066667" y="55.64" text-anchor="middle">Master</text>
<text font-size="11pt" stroke-width="0.2pt" fill="black" x="49.066667" y="70.306667" text-anchor="middle">1</text>
</g>
<g id="s1">
<polyline points="58.666667,24.533333 106.666667,24.533333 106.666667,24.533333 97.066667,34.133333 97.066667,34.133333 1.066667,34.133333 1.066667,34.133333 10.666667,24.533333 10.666667,24.533333 58.666667,24.533333" fill="yellow" stroke-width="0" stroke="black"/>
<polyline points="58.666667,24.533333 106.666667,24.533333 106.666667,24.533333 97.066667,34.133333 97.066667,34.133333 1.066667,34.133333 1.066667,34.133333 10.666667,24.533333 10.666667,24.533333 58.666667,24.533333" fill="none" stroke="black" stroke-width="1.066667"/>
</g>
<g id="s2">
<polyline points="101.866667,29.333333 106.666667,24.533333 106.666667,24.533333 106.666667,72.533333 106.666667,72.533333 97.066667,82.133333 97.066667,82.133333 97.066667,34.133333 97.066667,34.133333 101.866667,29.333333" fill="#ffb529" stroke-width="0" stroke="black"/>
<polyline points="101.866667,29.333333 106.666667,24.533333 106.666667,24.533333 106.666667,72.533333 106.666667,72.533333 97.066667,82.133333 97.066667,82.133333 97.066667,34.133333 97.066667,34.133333 101.866667,29.333333" fill="none" stroke="black" stroke-width="1.066667"/>
</g>
<g id="s3">
</g>
<g id="s4">
<rect x="97.066667" y="10.133333" width="48" height="96" fill="Goldenrod" stroke="black" stroke-width="1.066667"/>
<text font-size="11pt" stroke-width="0.2pt" fill="black" x="121.066667" y="62.973333" text-anchor="middle">Slave</text>
</g>
<g id="s5">
<polyline points="130.666667,0.533333 154.666667,0.533333 154.666667,0.533333 145.066667,10.133333 145.066667,10.133333 97.066667,10.133333 97.066667,10.133333 106.666667,0.533333 106.666667,0.533333 130.666667,0.533333" fill="yellow" stroke-width="0" stroke="black"/>
<polyline points="130.666667,0.533333 154.666667,0.533333 154.666667,0.533333 145.066667,10.133333 145.066667,10.133333 97.066667,10.133333 97.066667,10.133333 106.666667,0.533333 106.666667,0.533333 130.666667,0.533333" fill="none" stroke="black" stroke-width="1.066667"/>
</g>
<g id="s6">
<polyline points="149.866667,5.333333 154.666667,0.533333 154.666667,0.533333 154.666667,96.533333 154.666667,96.533333 145.066667,106.133333 145.066667,106.133333 145.066667,10.133333 145.066667,10.133333 149.866667,5.333333" fill="#ffb529" stroke-width="0" stroke="black"/>
<polyline points="149.866667,5.333333 154.666667,0.533333 154.666667,0.533333 154.666667,96.533333 154.666667,96.533333 145.066667,106.133333 145.066667,106.133333 145.066667,10.133333 145.066667,10.133333 149.866667,5.333333" fill="none" stroke="black" stroke-width="1.066667"/>
</g>
</svg>
