<svg xmlns="http://www.w3.org/2000/svg" width="697.6" height="468.8" viewBox="0 0 697.6 468.8" font-family="sans-serif" font-size="14.667">
<g id="s0">
<text x="55.6" y="76" text-anchor="middle" dominant-baseline="central">input</text>
</g>
<g id="s1">
<polyline points="91.6,76 139.6,76" fill="none" stroke="black" stroke-width="1.067"/>
<polygon points="139.6,76 130,78.4 130,73.6" fill="black"/>
</g>
<g id="s2">
<text x="175.6" y="76" text-anchor="middle" dominant-baseline="central">output</text>
</g>
<g id="s3">
</g>
<g id="s4">
<polyline points="259.6,76 259.6,28" fill="none" stroke="black" stroke-width="1.067"/>
<text x="259.6" y="52" text-anchor="middle" dominant-baseline="central">ljust text</text>
</g>
<g id="s5">
</g>
<g id="s6">
<polyline points="403.6,52 403.6,4" fill="none" stroke="black" stroke-width="1.067"/>
<text x="403.6" y="28" text-anchor="middle" dominant-baseline="central">rjust text</text>
</g>
<g id="s7">
</g>
<g id="s8">
<polyline points="19.6,124 67.6,124" fill="none" stroke="black" stroke-width="1.067"/>
<polygon points="67.6,124 58,126.4 58,121.6" fill="black"/>
<text x="43.6" y="124" text-anchor="middle" dominant-baseline="central">on top of</text>
</g>
<g id="s9">
</g>
<g id="s10">
<polyline points="115.6,124 163.6,124" fill="none" stroke="black" stroke-width="1.067"/>
<polygon points="163.6,124 154,126.4 154,121.6" fill="black"/>
<text x="139.6" y="115.2" text-anchor="middle" dominant-baseline="central">above</text>
<text x="139.6" y="132.8" text-anchor="middle" dominant-baseline="central">below</text>
</g>
<g id="s11">
</g>
<g id="s12">
<polyline points="211.6,124 259.6,124" fill="none" stroke="black" stroke-width="1.067"/>
<polygon points="259.6,124 250,126.4 250,121.6" fill="black"/>
<text x="235.6" y="124" text-anchor="middle" dominant-baseline="central">above</text>
</g>
<g id="s13">
</g>
<g id="s14">
<polyline points="307.6,124 355.6,124" fill="none" stroke="black" stroke-width="1.067"/>
<polygon points="355.6,124 346,126.4 346,121.6" fill="black"/>
<text x="331.6" y="124" text-anchor="middle" dominant-baseline="central">below</text>
</g>
<g id="s15">
</g>
<g id="s16">
<polyline points="403.6,124 451.6,124" fill="none" stroke="black" stroke-width="1.067"/>
<polygon points="451.6,124 442,126.4 442,121.6" fill="black"/>
<text x="427.6" y="106.4" text-anchor="middle" dominant-baseline="central">above</text>
<text x="427.6" y="124" text-anchor="middle" dominant-baseline="central">on top of</text>
<text x="427.6" y="141.6" text-anchor="middle" dominant-baseline="central">below</text>
</g>
<g id="s17">
<text x="92" y="213.6" text-anchor="middle" dominant-baseline="central">PV</text>
<text x="92" y="231.2" text-anchor="middle" dominant-baseline="central">Ts</text>
</g>
<g id="s18">
<polyline points="92,198.4 92,246.4" fill="none" stroke="black" stroke-width="0.533"/>
</g>
<g id="s19">
<text x="92" y="246.4" text-anchor="middle" dominant-baseline="central">\tt  \"PV\"  \"Ts\" </text>
</g>
<g id="s20">
</g>
<g id="s21">
<text x="245.6" y="213.6" text-anchor="middle" dominant-baseline="central">PV</text>
<text x="245.6" y="231.2" text-anchor="end" dominant-baseline="central">Ts</text>
</g>
<g id="s22">
<polyline points="245.6,198.4 245.6,246.4" fill="none" stroke="black" stroke-width="0.533"/>
</g>
<g id="s23">
<text x="245.6" y="246.4" text-anchor="middle" dominant-baseline="central">\tt  \"PV\" rjust  \"Ts\" </text>
</g>
<g id="s24">
</g>
<g id="s25">
<text x="399.2" y="213.6" text-anchor="middle" dominant-baseline="central">PV</text>
<text x="399.2" y="231.2" text-anchor="middle" dominant-baseline="central">Ts</text>
</g>
<g id="s26">
<polyline points="399.2,198.4 399.2,246.4" fill="none" stroke="black" stroke-width="0.533"/>
</g>
<g id="s27">
<text x="399.2" y="246.4" text-anchor="middle" dominant-baseline="central">\tt  \"PV\"  \"Ts\" rjust </text>
</g>
<g id="s28">
</g>
<g id="s29">
<text x="552.8" y="213.6" text-anchor="middle" dominant-baseline="central">PV</text>
<text x="552.8" y="231.2" text-anchor="end" dominant-baseline="central">Ts</text>
</g>
<g id="s30">
<polyline points="552.8,198.4 552.8,246.4" fill="none" stroke="black" stroke-width="0.533"/>
</g>
<g id="s31">
<text x="552.8" y="246.4" text-anchor="middle" dominant-baseline="central">\tt  \"PV\" rjust  \"Ts\" rjust </text>
</g>
<g id="s32">
<text x="92" y="318.4" text-anchor="middle" dominant-baseline="central">PV</text>
<text x="92" y="336" text-anchor="middle" dominant-baseline="central">Ts</text>
</g>
<g id="s33">
<polyline points="92,303.2 92,351.2" fill="none" stroke="black" stroke-width="0.533"/>
</g>
<g id="s34">
<text x="92" y="351.2" text-anchor="middle" dominant-baseline="central">\tt  \"PV\"  \"Ts\" </text>
</g>
<g id="s35">
</g>
<g id="s36">
<text x="245.6" y="318.4" text-anchor="middle" dominant-baseline="central">PV</text>
<text x="245.6" y="336" text-anchor="start" dominant-baseline="central">Ts</text>
</g>
<g id="s37">
<polyline points="245.6,303.2 245.6,351.2" fill="none" stroke="black" stroke-width="0.533"/>
</g>
<g id="s38">
<text x="245.6" y="351.2" text-anchor="middle" dominant-baseline="central">\tt  \"PV\" ljust  \"Ts\" </text>
</g>
<g id="s39">
</g>
<g id="s40">
<text x="399.2" y="318.4" text-anchor="middle" dominant-baseline="central">PV</text>
<text x="399.2" y="336" text-anchor="middle" dominant-baseline="central">Ts</text>
</g>
<g id="s41">
<polyline points="399.2,303.2 399.2,351.2" fill="none" stroke="black" stroke-width="0.533"/>
</g>
<g id="s42">
<text x="399.2" y="351.2" text-anchor="middle" dominant-baseline="central">\tt  \"PV\"  \"Ts\" ljust </text>
</g>
<g id="s43">
</g>
<g id="s44">
<text x="552.8" y="318.4" text-anchor="middle" dominant-baseline="central">PV</text>
<text x="552.8" y="336" text-anchor="start" dominant-baseline="central">Ts</text>
</g>
<g id="s45">
<polyline points="552.8,303.2 552.8,351.2" fill="none" stroke="black" stroke-width="0.533"/>
</g>
<g id="s46">
<text x="552.8" y="351.2" text-anchor="middle" dominant-baseline="central">\tt  \"PV\" ljust  \"Ts\" ljust </text>
</g>
<g id="s47">
</g>
<g id="s48">
<text x="160" y="423.2" text-anchor="middle" dominant-baseline="central">PV</text>
<text x="160" y="440.8" text-anchor="start" dominant-baseline="central">Ts</text>
</g>
<g id="s49">
<polyline points="160,408 160,456" fill="none" stroke="black" stroke-width="0.533"/>
</g>
<g id="s50">
<text x="160" y="456" text-anchor="middle" dominant-baseline="central">\tt  \"PV\" ljust  \"Ts\" rjust </text>
</g>
<g id="s51">
</g>
<g id="s52">
<text x="424" y="423.2" text-anchor="middle" dominant-baseline="central">PV</text>
<text x="424" y="440.8" text-anchor="end" dominant-baseline="central">Ts</text>
</g>
<g id="s53">
<polyline points="424,408 424,456" fill="none" stroke="black" stroke-width="0.533"/>
</g>
<g id="s54">
<text x="424" y="456" text-anchor="middle" dominant-baseline="central">\tt  \"PV\" rjust  \"Ts\" ljust </text>
</g>
</svg>
