<svg xmlns="http://www.w3.org/2000/svg" width="550.4" height="203.2" viewBox="0 0 550.4 203.2" font-family="sans-serif" font-size="14.667">
<g id="s0">
<rect x="42.4" y="12.8" width="144" height="96" fill="none" stroke="black" stroke-width="1.067"/>
</g>
<g id="s1">
</g>
<g id="s2">
<circle cx="186.4" cy="60.8" r="1.92" fill="rgb(0,0,0)" stroke="black" stroke-width="1.067"/>
</g>
<g id="s3">
<text x="188.32" y="60.8" text-anchor="middle" dominant-baseline="central"> .e</text>
</g>
<g id="s4">
<circle cx="186.4" cy="12.8" r="1.92" fill="rgb(0,0,0)" stroke="black" stroke-width="1.067"/>
</g>
<g id="s5">
<text x="188.32" y="12.8" text-anchor="middle" dominant-baseline="central"> .ne</text>
</g>
<g id="s6">
<circle cx="186.4" cy="108.8" r="1.92" fill="rgb(0,0,0)" stroke="black" stroke-width="1.067"/>
</g>
<g id="s7">
<text x="188.32" y="108.8" text-anchor="middle" dominant-baseline="central"> .se</text>
</g>
<g id="s8">
<circle cx="114.4" cy="108.8" r="1.92" fill="rgb(0,0,0)" stroke="black" stroke-width="1.067"/>
</g>
<g id="s9">
<text x="116.32" y="108.8" text-anchor="middle" dominant-baseline="central">.s</text>
</g>
<g id="s10">
<circle cx="114.4" cy="12.8" r="1.92" fill="rgb(0,0,0)" stroke="black" stroke-width="1.067"/>
</g>
<g id="s11">
<text x="116.32" y="12.8" text-anchor="middle" dominant-baseline="central">.n</text>
</g>
<g id="s12">
<circle cx="42.4" cy="108.8" r="1.92" fill="rgb(0,0,0)" stroke="black" stroke-width="1.067"/>
</g>
<g id="s13">
<text x="44.32" y="108.8" text-anchor="middle" dominant-baseline="central">.sw </text>
</g>
<g id="s14">
<circle cx="42.4" cy="60.8" r="1.92" fill="rgb(0,0,0)" stroke="black" stroke-width="1.067"/>
</g>
<g id="s15">
<text x="44.32" y="60.8" text-anchor="middle" dominant-baseline="central">.w </text>
</g>
<g id="s16">
<circle cx="42.4" cy="12.8" r="1.92" fill="rgb(0,0,0)" stroke="black" stroke-width="1.067"/>
</g>
<g id="s17">
<text x="44.32" y="12.8" text-anchor="middle" dominant-baseline="central">.nw </text>
</g>
<g id="s18">
<circle cx="114.4" cy="60.8" r="1.92" fill="rgb(0,0,0)" stroke="black" stroke-width="1.067"/>
</g>
<g id="s19">
<text x="116.32" y="60.8" text-anchor="middle" dominant-baseline="central">.c</text>
</g>
<g id="s20">
<circle cx="282.4" cy="60.8" r="48" fill="none" stroke="black" stroke-width="1.067"/>
</g>
<g id="s21">
<circle cx="330.4" cy="60.8" r="1.92" fill="rgb(0,0,0)" stroke="black" stroke-width="1.067"/>
</g>
<g id="s22">
<text x="332.32" y="60.8" text-anchor="middle" dominant-baseline="central"> .e</text>
</g>
<g id="s23">
<circle cx="330.4" cy="12.8" r="1.92" fill="rgb(0,0,0)" stroke="black" stroke-width="1.067"/>
</g>
<g id="s24">
<text x="332.32" y="12.8" text-anchor="middle" dominant-baseline="central"> .ne</text>
</g>
<g id="s25">
<circle cx="330.4" cy="108.8" r="1.92" fill="rgb(0,0,0)" stroke="black" stroke-width="1.067"/>
</g>
<g id="s26">
<text x="332.32" y="108.8" text-anchor="middle" dominant-baseline="central"> .se</text>
</g>
<g id="s27">
<circle cx="282.4" cy="108.8" r="1.92" fill="rgb(0,0,0)" stroke="black" stroke-width="1.067"/>
</g>
<g id="s28">
<text x="284.32" y="108.8" text-anchor="middle" dominant-baseline="central">.s</text>
</g>
<g id="s29">
<circle cx="282.4" cy="12.8" r="1.92" fill="rgb(0,0,0)" stroke="black" stroke-width="1.067"/>
</g>
<g id="s30">
<text x="284.32" y="12.8" text-anchor="middle" dominant-baseline="central">.n</text>
</g>
<g id="s31">
<circle cx="234.4" cy="108.8" r="1.92" fill="rgb(0,0,0)" stroke="black" stroke-width="1.067"/>
</g>
<g id="s32">
<text x="236.32" y="108.8" text-anchor="middle" dominant-baseline="central">.sw </text>
</g>
<g id="s33">
<circle cx="234.4" cy="60.8" r="1.92" fill="rgb(0,0,0)" stroke="black" stroke-width="1.067"/>
</g>
<g id="s34">
<text x="236.32" y="60.8" text-anchor="middle" dominant-baseline="central">.w </text>
</g>
<g id="s35">
<circle cx="234.4" cy="12.8" r="1.92" fill="rgb(0,0,0)" stroke="black" stroke-width="1.067"/>
</g>
<g id="s36">
<text x="236.32" y="12.8" text-anchor="middle" dominant-baseline="central">.nw </text>
</g>
<g id="s37">
<circle cx="282.4" cy="60.8" r="1.92" fill="rgb(0,0,0)" stroke="black" stroke-width="1.067"/>
</g>
<g id="s38">
<text x="284.32" y="60.8" text-anchor="middle" dominant-baseline="central">.c</text>
</g>
<g id="s39">
<ellipse cx="450.4" cy="60.8" rx="72" ry="48" fill="none" stroke="black" stroke-width="1.067"/>
</g>
<g id="s40">
<circle cx="522.4" cy="60.8" r="1.92" fill="rgb(0,0,0)" stroke="black" stroke-width="1.067"/>
</g>
<g id="s41">
<text x="524.32" y="60.8" text-anchor="middle" dominant-baseline="central"> .e</text>
</g>
<g id="s42">
<circle cx="522.4" cy="12.8" r="1.92" fill="rgb(0,0,0)" stroke="black" stroke-width="1.067"/>
</g>
<g id="s43">
<text x="524.32" y="12.8" text-anchor="middle" dominant-baseline="central"> .ne</text>
</g>
<g id="s44">
<circle cx="522.4" cy="108.8" r="1.92" fill="rgb(0,0,0)" stroke="black" stroke-width="1.067"/>
</g>
<g id="s45">
<text x="524.32" y="108.8" text-anchor="middle" dominant-baseline="central"> .se</text>
</g>
<g id="s46">
<circle cx="450.4" cy="108.8" r="1.92" fill="rgb(0,0,0)" stroke="black" stroke-width="1.067"/>
</g>
<g id="s47">
<text x="452.32" y="108.8" text-anchor="middle" dominant-baseline="central">.s</text>
</g>
<g id="s48">
<circle cx="450.4" cy="12.8" r="1.92" fill="rgb(0,0,0)" stroke="black" stroke-width="1.067"/>
</g>
<g id="s49">
<text x="452.32" y="12.8" text-anchor="middle" dominant-baseline="central">.n</text>
</g>
<g id="s50">
<circle cx="378.4" cy="108.8" r="1.92" fill="rgb(0,0,0)" stroke="black" stroke-width="1.067"/>
</g>
<g id="s51">
<text x="380.32" y="108.8" text-anchor="middle" dominant-baseline="central">.sw </text>
</g>
<g id="s52">
<circle cx="378.4" cy="60.8" r="1.92" fill="rgb(0,0,0)" stroke="black" stroke-width="1.067"/>
</g>
<g id="s53">
<text x="380.32" y="60.8" text-anchor="middle" dominant-baseline="central">.w </text>
</g>
<g id="s54">
<circle cx="378.4" cy="12.8" r="1.92" fill="rgb(0,0,0)" stroke="black" stroke-width="1.067"/>
</g>
<g id="s55">
<text x="380.32" y="12.8" text-anchor="middle" dominant-baseline="central">.nw </text>
</g>
<g id="s56">
<circle cx="450.4" cy="60.8" r="1.92" fill="rgb(0,0,0)" stroke="black" stroke-width="1.067"/>
</g>
<g id="s57">
<text x="452.32" y="60.8" text-anchor="middle" dominant-baseline="central">.c</text>
</g>
<g id="s58">
<polyline points="42.4,190.4 138.4,142.4" fill="none" stroke="black" stroke-width="1.067"/>
</g>
<g id="s59">
<circle cx="42.4" cy="190.4" r="1.92" fill="rgb(0,0,0)" stroke="black" stroke-width="1.067"/>
</g>
<g id="s60">
<text x="42.4" y="188.48" text-anchor="middle" dominant-baseline="central">.start</text>
</g>
<g id="s61">
<circle cx="90.4" cy="166.4" r="1.92" fill="rgb(0,0,0)" stroke="black" stroke-width="1.067"/>
</g>
<g id="s62">
<text x="90.4" y="164.48" text-anchor="middle" dominant-baseline="central">.center</text>
</g>
<g id="s63">
<circle cx="138.4" cy="142.4" r="1.92" fill="rgb(0,0,0)" stroke="black" stroke-width="1.067"/>
</g>
<g id="s64">
<text x="138.4" y="140.48" text-anchor="middle" dominant-baseline="central">.end</text>
</g>
<g id="s65">
</g>
<g id="s66">
<polyline points="162.4,142.4 258.4,142.4 162.4,190.4 258.4,190.4" fill="none" stroke="black" stroke-width="1.067"/>
</g>
<g id="s67">
<circle cx="162.4" cy="142.4" r="1.92" fill="rgb(0,0,0)" stroke="black" stroke-width="1.067"/>
</g>
<g id="s68">
<text x="164.32" y="142.4" text-anchor="middle" dominant-baseline="central">.start</text>
</g>
<g id="s69">
<circle cx="210.4" cy="166.4" r="1.92" fill="rgb(0,0,0)" stroke="black" stroke-width="1.067"/>
</g>
<g id="s70">
<text x="212.32" y="166.4" text-anchor="middle" dominant-baseline="central">.center</text>
</g>
<g id="s71">
<circle cx="258.4" cy="190.4" r="1.92" fill="rgb(0,0,0)" stroke="black" stroke-width="1.067"/>
</g>
<g id="s72">
<text x="260.32" y="190.4" text-anchor="middle" dominant-baseline="central">.end</text>
</g>
<g id="s73">
</g>
<g id="s74">
<path d="M 354.4 190.4 A 48 48 0 0 1 306.4 142.4" fill="none" stroke="black" stroke-width="1.067"/>
</g>
<g id="s75">
<circle cx="306.4" cy="142.4" r="1.92" fill="rgb(0,0,0)" stroke="black" stroke-width="1.067"/>
</g>
<g id="s76">
<text x="304.48" y="142.4" text-anchor="middle" dominant-baseline="central">.end</text>
</g>
<g id="s77">
<circle cx="354.4" cy="190.4" r="1.92" fill="rgb(0,0,0)" stroke="black" stroke-width="1.067"/>
</g>
<g id="s78">
<text x="352.48" y="190.4" text-anchor="middle" dominant-baseline="central">.start</text>
</g>
<g id="s79">
<circle cx="306.4" cy="190.4" r="1.92" fill="rgb(0,0,0)" stroke="black" stroke-width="1.067"/>
</g>
<g id="s80">
<text x="304.48" y="190.4" text-anchor="middle" dominant-baseline="central">.center</text>
</g>
<g id="s81">
<circle cx="354.4" cy="142.4" r="1.92" fill="rgb(0,0,0)" stroke="black" stroke-width="1.067"/>
</g>
<g id="s82">
<text x="352.48" y="142.4" text-anchor="middle" dominant-baseline="central"> .ne</text>
</g>
<g id="s83">
</g>
<g id="s84">
<path d="M 402.4 142.4 C 426.4 142.4 522.4 139.2 546.4 142.4 C 570.4 145.6 554.4 153.6 546.4 161.6 C 538.4 169.6 522.4 185.6 498.4 190.4 C 474.4 195.2 418.4 190.4 402.4 190.4" fill="none" stroke="black" stroke-width="1.067"/>
</g>
<g id="s85">
<circle cx="402.4" cy="142.4" r="1.92" fill="rgb(0,0,0)" stroke="black" stroke-width="1.067"/>
</g>
<g id="s86">
<text x="400.48" y="142.4" text-anchor="middle" dominant-baseline="central">.start</text>
</g>
<g id="s87">
<circle cx="402.4" cy="166.4" r="1.92" fill="rgb(0,0,0)" stroke="black" stroke-width="1.067"/>
</g>
<g id="s88">
<text x="400.48" y="166.4" text-anchor="middle" dominant-baseline="central">.center</text>
</g>
<g id="s89">
<circle cx="402.4" cy="190.4" r="1.92" fill="rgb(0,0,0)" stroke="black" stroke-width="1.067"/>
</g>
<g id="s90">
<text x="400.48" y="190.4" text-anchor="middle" dominant-baseline="central">.end</text>
</g>
</svg>
