<svg xmlns="http://www.w3.org/2000/svg" width="161.6" height="113.6" viewBox="0 0 161.6 113.6" font-family="sans-serif" font-size="14.667">
<g id="s0">
<rect x="4" y="37.6" width="96" height="48" fill="Goldenrod" stroke="black" stroke-width="1.067"/>
<text x="52" y="52.8" text-anchor="middle" dominant-baseline="central">Master</text>
<text x="52" y="70.4" text-anchor="middle" dominant-baseline="central">1</text>
</g>
<g id="s1">
<polyline points="61.6,28 109.6,28 109.6,28 100,37.6 100,37.6 4,37.6 4,37.6 13.6,28 13.6,28 61.6,28" fill="none" stroke="black" stroke-width="1.067"/>
</g>
<g id="s2">
<polyline points="104.8,32.8 109.6,28 109.6,28 109.6,76 109.6,76 100,85.6 100,85.6 100,37.6 100,37.6 104.8,32.8" fill="none" stroke="black" stroke-width="1.067"/>
</g>
<g id="s3">
</g>
<g id="s4">
<rect x="100" y="13.6" width="48" height="96" fill="Goldenrod" stroke="black" stroke-width="1.067"/>
<text x="124" y="61.6" text-anchor="middle" dominant-baseline="central">Slave</text>
</g>
<g id="s5">
<polyline points="133.6,4 157.6,4 157.6,4 148,13.6 148,13.6 100,13.6 100,13.6 109.6,4 109.6,4 133.6,4" fill="none" stroke="black" stroke-width="1.067"/>
</g>
<g id="s6">
<polyline points="152.8,8.8 157.6,4 157.6,4 157.6,100 157.6,100 148,109.6 148,109.6 148,13.6 148,13.6 152.8,8.8" fill="none" stroke="black" stroke-width="1.067"/>
</g>
</svg>
