<svg xmlns="http://www.w3.org/2000/svg" width="480.311486" height="284.075276" viewBox="0 0 480.311486 284.075276" font-family="sans-serif" font-size="14.666667" fill="none">
<g id="s0">
<line x1="1.245944" y1="252.926671" x2="55.114443" y2="252.926671" stroke="black" stroke-width="1.066667"/>
<polygon stroke-width="0" points="46.099935,250.123297 57.313433,252.926671 46.099935,255.730045" fill="black"/>
<text font-size="11pt" stroke-width="0.2pt" fill="black" x="29.279689" y="250.433338" text-anchor="middle">source</text>
<text font-size="11pt" stroke-width="0.2pt" fill="black" x="29.279689" y="265.100004" text-anchor="middle">code</text>
</g>
<g id="s1">
<rect x="57.313433" y="224.892927" width="84.101233" height="56.067489" fill="none" stroke="black" stroke-width="1.066667"/>
<text font-size="11pt" stroke-width="0.2pt" fill="black" x="99.364049" y="250.433338" text-anchor="middle">lexical</text>
<text font-size="11pt" stroke-width="0.2pt" fill="black" x="99.364049" y="265.100004" text-anchor="middle">analyzer</text>
</g>
<g id="s2">
<line x1="141.414666" y1="252.926671" x2="195.283165" y2="252.926671" stroke="black" stroke-width="1.066667"/>
<polygon stroke-width="0" points="186.268657,250.123297 197.482154,252.926671 186.268657,255.730045" fill="black"/>
<text font-size="11pt" stroke-width="0.2pt" fill="black" x="169.44841" y="250.260004" text-anchor="middle">tokens</text>
</g>
<g id="s3">
<rect x="197.482154" y="224.892927" width="84.101233" height="56.067489" fill="none" stroke="black" stroke-width="1.066667"/>
<text font-size="11pt" stroke-width="0.2pt" fill="black" x="239.532771" y="257.766671" text-anchor="middle">parser</text>
</g>
<g id="s4">
<line x1="281.583387" y1="252.926671" x2="335.451886" y2="252.926671" stroke="black" stroke-width="1.066667"/>
<polygon stroke-width="0" points="326.437378,250.123297 337.650876,252.926671 326.437378,255.730045" fill="black"/>
<text font-size="11pt" stroke-width="0.2pt" fill="black" x="309.617132" y="235.766671" text-anchor="middle">inter-</text>
<text font-size="11pt" stroke-width="0.2pt" fill="black" x="309.617132" y="250.433338" text-anchor="middle">mediate\strut</text>
<text font-size="11pt" stroke-width="0.2pt" fill="black" x="309.617132" y="265.100004" text-anchor="middle">code</text>
<text font-size="11pt" stroke-width="0.2pt" fill="black" x="309.617132" y="279.766671" text-anchor="middle">\strut</text>
</g>
<g id="s5">
<rect x="337.650876" y="224.892927" width="84.101233" height="56.067489" fill="none" stroke="black" stroke-width="1.066667"/>
<text font-size="11pt" stroke-width="0.2pt" fill="black" x="379.701493" y="250.433338" text-anchor="middle">semantic</text>
<text font-size="11pt" stroke-width="0.2pt" fill="black" x="379.701493" y="265.100004" text-anchor="middle">checker</text>
</g>
<g id="s6">
<line x1="421.752109" y1="252.926671" x2="475.620608" y2="252.926671" stroke="black" stroke-width="1.066667"/>
<polygon stroke-width="0" points="466.6061,250.123297 477.819598,252.926671 466.6061,255.730045" fill="black"/>
</g>
<g id="s7">
<line x1="99.364049" y1="222.693937" x2="99.364049" y2="171.024428" stroke="black" stroke-width="1.066667"/>
<polygon stroke-width="0" points="96.560675,180.038936 99.364049,168.825438 102.167424,180.038936" fill="black"/>
<polygon stroke-width="0" points="102.167424,213.679429 99.364049,224.892927 96.560675,213.679429" fill="black"/>
</g>
<g id="s8">
<rect x="57.313433" y="112.757949" width="84.101233" height="56.067489" fill="none" stroke="black" stroke-width="1.066667"/>
<text font-size="11pt" stroke-width="0.2pt" fill="black" x="99.364049" y="138.29836" text-anchor="middle">lexical</text>
<text font-size="11pt" stroke-width="0.2pt" fill="black" x="99.364049" y="152.965027" text-anchor="middle">corrector</text>
</g>
<g id="s9">
<line x1="239.532771" y1="222.693937" x2="239.532771" y2="171.024428" stroke="black" stroke-width="1.066667"/>
<polygon stroke-width="0" points="236.729396,180.038936 239.532771,168.825438 242.336145,180.038936" fill="black"/>
<polygon stroke-width="0" points="242.336145,213.679429 239.532771,224.892927 236.729396,213.679429" fill="black"/>
</g>
<g id="s10">
<rect x="197.482154" y="112.757949" width="84.101233" height="56.067489" fill="none" stroke="black" stroke-width="1.066667"/>
<text font-size="11pt" stroke-width="0.2pt" fill="black" x="239.532771" y="138.29836" text-anchor="middle">syntactic</text>
<text font-size="11pt" stroke-width="0.2pt" fill="black" x="239.532771" y="152.965027" text-anchor="middle">corrector</text>
</g>
<g id="s11">
<line x1="239.532771" y1="112.757949" x2="239.532771" y2="58.88945" stroke="black" stroke-width="1.066667"/>
<polygon stroke-width="0" points="236.729396,67.903958 239.532771,56.690461 242.336145,67.903958" fill="black"/>
</g>
<g id="s12">
<rect x="197.482154" y="0.622972" width="84.101233" height="56.067489" fill="none" stroke="black" stroke-width="1.066667"/>
<text font-size="11pt" stroke-width="0.2pt" fill="black" x="239.532771" y="18.83005" text-anchor="middle">diagnostic</text>
<text font-size="11pt" stroke-width="0.2pt" fill="black" x="239.532771" y="33.496716" text-anchor="middle">message</text>
<text font-size="11pt" stroke-width="0.2pt" fill="black" x="239.532771" y="48.163383" text-anchor="middle">printer</text>
</g>
<g id="s13">
<line x1="283.782377" y1="28.656716" x2="335.451886" y2="28.656716" stroke="black" stroke-width="1.066667"/>
<polygon stroke-width="0" points="326.437378,25.853342 337.650876,28.656716 326.437378,31.460091" fill="black"/>
<polygon stroke-width="0" points="292.796885,31.460091 281.583387,28.656716 292.796885,25.853342" fill="black"/>
</g>
<g id="s14">
<rect x="337.650876" y="0.622972" width="84.101233" height="56.067489" fill="none" stroke="black" stroke-width="1.066667"/>
<text font-size="11pt" stroke-width="0.2pt" fill="black" x="379.701493" y="26.163383" text-anchor="middle">symbol</text>
<text font-size="11pt" stroke-width="0.2pt" fill="black" x="379.701493" y="40.83005" text-anchor="middle">table</text>
</g>
<g id="s15">
<line x1="141.414666" y1="112.757949" x2="195.927234" y2="58.245381" stroke="black" stroke-width="1.066667"/>
<polygon stroke-width="0" points="187.570729,62.637316 197.482154,56.690461 191.535299,66.601886" fill="black"/>
</g>
<g id="s16">
<line x1="337.650876" y1="224.892927" x2="282.278769" y2="58.776606" stroke="black" stroke-width="1.066667"/>
<polygon stroke-width="0" points="282.469892,68.215024 281.583387,56.690461 287.788921,66.442014" fill="black"/>
</g>
<g id="s17">
<line x1="379.701493" y1="222.693937" x2="379.701493" y2="58.88945" stroke="black" stroke-width="1.066667"/>
<polygon stroke-width="0" points="376.898118,67.903958 379.701493,56.690461 382.504867,67.903958" fill="black"/>
<polygon stroke-width="0" points="382.504867,213.679429 379.701493,224.892927 376.898118,213.679429" fill="black"/>
</g>
</svg>
