<svg xmlns="http://www.w3.org/2000/svg" width="564.8" height="51.2" viewBox="0 0 564.8 51.2" font-family="sans-serif" font-size="14.666667" fill="none">
<g id="s0">
<polyline points="1.066667,0.533333 97.066667,0.533333 1.066667,48.533333 97.066667,48.533333" fill="none" stroke="black" stroke-width="1.066667" stroke-dasharray="5.6,4"/>
</g>
<g id="s1">
<path d="M 1.066667 0.533333 C 17.066667 0.533333 33.066667 0.533333 49.066667 0.533333 81.066667 0.533333 81.066667 8.533333 49.066667 24.533333 17.066667 40.533333 17.066667 48.533333 49.066667 48.533333 65.066667 48.533333 81.066667 48.533333 97.066667 48.533333" fill="none" stroke="black" stroke-width="1.066667"/>
</g>
<g id="s2">
</g>
<g id="s3">
<line x1="121.066667" y1="48.533333" x2="214.867677" y2="48.533333" stroke="black" stroke-width="1.066667"/>
<polygon stroke-width="0" points="207.466667,46.133333 217.066667,48.533333 207.466667,50.933333" fill="black"/>
<text font-size="11pt" stroke-width="0.2pt" fill="black" x="171.733333" y="45.866667" text-anchor="start">ljust above</text>
</g>
<g id="s4">
</g>
<g id="s5">
<path d="M 265.066667 48.533333 C 273.066667 48.533333 281.066667 48.533333 289.066667 48.533333 305.066667 48.533333 313.066667 40.533333 313.066667 24.533333 313.066667 8.533333 305.066667 0.533333 289.066667 0.533333 273.066667 0.533333 265.066667 8.166835 265.066667 23.433838 265.066667 31.06734 265.066667 38.700842 265.066667 46.334344" fill="none" stroke="black" stroke-width="1.066667"/>
<polygon stroke-width="0" points="267.466667,38.933333 265.066667,48.533333 262.666667,38.933333" fill="black"/>
</g>
<g id="s6">
</g>
<g id="s7">
<path d="M 370.666667 48.533333 C 378.666667 48.533333 386.666667 48.533333 394.666667 48.533333 410.666667 48.533333 410.666667 40.533333 394.666667 24.533333 378.666667 8.533333 370.666667 8.166835 370.666667 23.433838 370.666667 31.06734 370.666667 38.700842 370.666667 46.334344" fill="none" stroke="black" stroke-width="1.066667"/>
<polygon stroke-width="0" points="373.066667,38.933333 370.666667,48.533333 368.266667,38.933333" fill="black"/>
</g>
<g id="s8">
</g>
<g id="s9">
<path d="M 514.666667 48.533333 C 506.666667 48.533333 498.666667 48.533333 490.666667 48.533333 474.666667 48.533333 474.666667 40.533333 490.666667 24.533333 506.666667 8.533333 522.407513 8.27418 537.889206 23.755873 545.630053 31.49672 553.3709 39.237566 561.111746 46.978413" fill="none" stroke="black" stroke-width="1.066667"/>
<polygon stroke-width="0" points="557.575498,40.048052 562.666667,48.533333 554.181385,43.442165" fill="black"/>
</g>
</svg>
