<svg xmlns="http://www.w3.org/2000/svg" width="143.36" height="104" viewBox="0 0 143.36 104" font-family="sans-serif" font-size="14.666667" fill="none">
<g id="s0">
<rect x="42.346667" y="5.333333" width="9.6" height="48" fill="none" stroke="black" stroke-width="1.066667"/>
</g>
<g id="s1">
<rect x="51.946667" y="5.333333" width="9.6" height="48" fill="none" stroke="black" stroke-width="1.066667"/>
</g>
<g id="s2">
<rect x="61.546667" y="5.333333" width="9.6" height="48" fill="none" stroke="black" stroke-width="1.066667"/>
</g>
<g id="s3">
<rect x="71.146667" y="5.333333" width="19.2" height="48" fill="none" stroke="black" stroke-width="1.066667"/>
<text font-size="11pt" stroke-width="0.2pt" fill="black" x="80.746667" y="34.173333" text-anchor="middle">...</text>
</g>
<g id="s4">
<rect x="90.346667" y="5.333333" width="9.6" height="48" fill="none" stroke="black" stroke-width="1.066667"/>
</g>
<g id="s5">
<rect x="5.866667" y="77.333333" width="19.2" height="19.2" fill="none" stroke="black" stroke-width="1.066667"/>
</g>
<g id="s6">
</g>
<g id="s7">
<rect x="28.906667" y="77.333333" width="19.2" height="19.2" fill="none" stroke="black" stroke-width="1.066667"/>
</g>
<g id="s8">
</g>
<g id="s9">
<rect x="51.946667" y="77.333333" width="19.2" height="19.2" fill="none" stroke="black" stroke-width="1.066667"/>
</g>
<g id="s10">
</g>
<g id="s11">
<text font-size="11pt" stroke-width="0.2pt" fill="black" x="94.186667" y="91.773333" text-anchor="middle">...</text>
</g>
<g id="s12">
</g>
<g id="s13">
<rect x="117.226667" y="77.333333" width="19.2" height="19.2" fill="none" stroke="black" stroke-width="1.066667"/>
</g>
<g id="s14">
<line x1="47.146667" y1="29.333333" x2="7.300494" y2="75.666092" stroke="black" stroke-width="1.066667"/>
<polygon stroke-width="0" points="13.945888,71.61965 5.866667,77.333333 10.306599,68.489861" fill="black"/>
</g>
<g id="s15">
<line x1="56.746667" y1="29.333333" x2="30.00994" y2="75.431139" stroke="black" stroke-width="1.066667"/>
<polygon stroke-width="0" points="35.799235,70.233157 28.906667,77.333333 31.647085,67.824911" fill="black"/>
</g>
<g id="s16">
<line x1="66.346667" y1="29.333333" x2="52.578542" y2="75.227083" stroke="black" stroke-width="1.066667"/>
<polygon stroke-width="0" points="57.003989,68.827836 51.946667,77.333333 52.406423,67.448566" fill="black"/>
</g>
<g id="s17">
<line x1="95.146667" y1="29.333333" x2="116.307697" y2="75.335572" stroke="black" stroke-width="1.066667"/>
<polygon stroke-width="0" points="115.39515,67.608852 117.226667,77.333333 111.034396,69.614798" fill="black"/>
</g>
<g id="s18">
<rect x="1.066667" y="0.533333" width="140.16" height="100.8" fill="none" stroke="black" stroke-width="1.066667" stroke-dasharray="5.6,4"/>
</g>
</svg>
