<svg xmlns="http://www.w3.org/2000/svg" width="569.6" height="64.8" viewBox="0 0 569.6 64.8" font-family="sans-serif" font-size="14.667">
<g id="s0">
<polyline points="4,4 100,4 4,52 100,52" fill="none" stroke="black" stroke-width="1.067" stroke-dasharray="4,3"/>
</g>
<g id="s1">
<path d="M 4 4 C 20 4 100 -4 100 4 C 100 12 4 44 4 52 C 4 60 84 52 100 52" fill="none" stroke="black" stroke-width="1.067"/>
</g>
<g id="s2">
</g>
<g id="s3">
<polyline points="124,52 220,52" fill="none" stroke="black" stroke-width="1.067"/>
<polygon points="220,52 210.4,54.4 210.4,49.6" fill="black"/>
<text x="172" y="52" text-anchor="middle" dominant-baseline="central">ljust above</text>
</g>
<g id="s4">
</g>
<g id="s5">
<path d="M 268 52 C 276 52 308 60 316 52 C 324 44 324 12 316 4 C 308 -4 276 -4 268 4 C 260 12 268 44 268 52" fill="none" stroke="black" stroke-width="1.067"/>
<polygon points="268,52 265.6,42.4 270.4,42.4" fill="black"/>
</g>
<g id="s6">
</g>
<g id="s7">
<path d="M 373.6 52 C 381.6 52 421.6 60 421.6 52 C 421.6 44 381.6 4 373.6 4 C 365.6 4 373.6 44 373.6 52" fill="none" stroke="black" stroke-width="1.067"/>
<polygon points="373.6,52 371.2,42.4 376,42.4" fill="black"/>
</g>
<g id="s8">
</g>
<g id="s9">
<path d="M 517.6 52 C 509.6 52 469.6 60 469.6 52 C 469.6 44 501.6 4 517.6 4 C 533.6 4 557.6 44 565.6 52" fill="none" stroke="black" stroke-width="1.067"/>
<polygon points="565.6,52 557.115,46.909 560.509,43.515" fill="black"/>
</g>
</svg>
