<svg xmlns="http://www.w3.org/2000/svg" width="591.2" height="579.2" viewBox="0 0 591.2 579.2" font-family="sans-serif" font-size="14.666667" fill="none">
<g id="s0">
<rect x="1.066667" y="0.533333" width="72" height="48" fill="none" stroke="black" stroke-width="1.066667"/>
<text font-size="11pt" stroke-width="0.2pt" fill="black" x="37.066667" y="22.04" text-anchor="middle">{\bf ms}</text>
<text font-size="11pt" stroke-width="0.2pt" fill="black" x="37.066667" y="36.706667" text-anchor="middle">sources</text>
</g>
<g id="s1">
</g>
<g id="s2">
<rect x="121.066667" y="0.533333" width="72" height="48" fill="none" stroke="black" stroke-width="1.066667"/>
<text font-size="11pt" stroke-width="0.2pt" fill="black" x="157.066667" y="22.04" text-anchor="middle">{\bf HTML}</text>
<text font-size="11pt" stroke-width="0.2pt" fill="black" x="157.066667" y="36.706667" text-anchor="middle">sources</text>
</g>
<g id="s3">
</g>
<g id="s4">
<rect x="241.066667" y="0.533333" width="144" height="48" fill="none" stroke="black" stroke-width="1.066667"/>
<text font-size="11pt" stroke-width="0.2pt" fill="black" x="313.066667" y="22.04" text-anchor="middle">{\bf linuxdoc-sgml}</text>
<text font-size="11pt" stroke-width="0.2pt" fill="black" x="313.066667" y="36.706667" text-anchor="middle">sources</text>
</g>
<g id="s5">
</g>
<g id="s6">
<rect x="433.066667" y="0.533333" width="72" height="48" fill="none" stroke="black" stroke-width="1.066667"/>
<text font-size="11pt" stroke-width="0.2pt" fill="black" x="469.066667" y="22.04" text-anchor="middle">{\bf Texinfo}</text>
<text font-size="11pt" stroke-width="0.2pt" fill="black" x="469.066667" y="36.706667" text-anchor="middle">sources</text>
</g>
<g id="s7">
<line x1="37.066667" y1="48.533333" x2="37.066667" y2="72.533333" stroke="black" stroke-width="1.066667"/>
</g>
<g id="s8">
<line x1="37.066667" y1="72.533333" x2="37.066667" y2="96.533333" stroke="black" stroke-width="1.066667"/>
</g>
<g id="s9">
<line x1="157.066667" y1="48.533333" x2="157.066667" y2="72.533333" stroke="black" stroke-width="1.066667"/>
</g>
<g id="s10">
<rect x="121.066667" y="72.533333" width="72" height="24" rx="12" fill="none" stroke="black" stroke-width="1.066667"/>
<text font-size="11pt" stroke-width="0.2pt" fill="black" x="157.066667" y="89.373333" text-anchor="middle">{\bf html2ms}</text>
</g>
<g id="s11">
<line x1="157.066667" y1="96.533333" x2="157.066667" y2="120.533333" stroke="black" stroke-width="1.066667"/>
</g>
<g id="s12">
<line x1="313.066667" y1="48.533333" x2="313.066667" y2="72.533333" stroke="black" stroke-width="1.066667"/>
</g>
<g id="s13">
<rect x="277.066667" y="72.533333" width="72" height="24" rx="12" fill="none" stroke="black" stroke-width="1.066667"/>
<text font-size="11pt" stroke-width="0.2pt" fill="black" x="313.066667" y="89.373333" text-anchor="middle">{\bf format}</text>
</g>
<g id="s14">
<line x1="313.066667" y1="96.533333" x2="313.066667" y2="120.533333" stroke="black" stroke-width="1.066667"/>
</g>
<g id="s15">
<line x1="469.066667" y1="48.533333" x2="469.066667" y2="72.533333" stroke="black" stroke-width="1.066667"/>
</g>
<g id="s16">
<rect x="433.066667" y="72.533333" width="72" height="24" rx="12" fill="none" stroke="black" stroke-width="1.066667"/>
<text font-size="11pt" stroke-width="0.2pt" fill="black" x="469.066667" y="89.373333" text-anchor="middle">{\bf texi2roff}</text>
</g>
<g id="s17">
<line x1="469.066667" y1="96.533333" x2="469.066667" y2="120.533333" stroke="black" stroke-width="1.066667"/>
</g>
<g id="s18">
</g>
<g id="s19">
<rect x="205.066667" y="216.533333" width="96" height="72" fill="none" stroke="black" stroke-width="1.066667"/>
<text font-size="11pt" stroke-width="0.2pt" fill="black" x="253.066667" y="242.706667" text-anchor="middle">{\bf ms}</text>
<text font-size="11pt" stroke-width="0.2pt" fill="black" x="253.066667" y="257.373333" text-anchor="middle">intermediate</text>
<text font-size="11pt" stroke-width="0.2pt" fill="black" x="253.066667" y="272.04" text-anchor="middle">form</text>
</g>
<g id="s20">
<line x1="37.066667" y1="96.533333" x2="203.277275" y2="215.255197" stroke="black" stroke-width="1.066667"/>
<polygon stroke-width="0" points="198.649797,209.000486 205.066667,216.533333 195.859854,212.906407" fill="black"/>
</g>
<g id="s21">
<line x1="157.066667" y1="120.533333" x2="235.658908" y2="214.844023" stroke="black" stroke-width="1.066667"/>
<polygon stroke-width="0" points="232.764628,207.621966 237.066667,216.533333 229.077165,210.694852" fill="black"/>
</g>
<g id="s22">
<line x1="313.066667" y1="120.533333" x2="269.982886" y2="214.534309" stroke="black" stroke-width="1.066667"/>
<polygon stroke-width="0" points="275.248307,208.806282 269.066667,216.533333 270.884796,206.80634" fill="black"/>
</g>
<g id="s23">
<line x1="469.066667" y1="120.533333" x2="302.975924" y2="215.442329" stroke="black" stroke-width="1.066667"/>
<polygon stroke-width="0" points="310.592534,213.854183 301.066667,216.533333 308.211067,209.686616" fill="black"/>
</g>
<g id="s24">
</g>
<g id="s25">
<polyline points="205.066667,288.533333 157.066667,312.533333 157.066667,334.334344" fill="none" stroke="black" stroke-width="1.066667"/>
<polygon stroke-width="0" points="159.466667,326.933333 157.066667,336.533333 154.666667,326.933333" fill="black"/>
</g>
<g id="s26">
<rect x="121.066667" y="336.533333" width="72" height="24" rx="12" fill="none" stroke="black" stroke-width="1.066667"/>
<text font-size="11pt" stroke-width="0.2pt" fill="black" x="157.066667" y="353.373333" text-anchor="middle">{\bf pic}</text>
</g>
<g id="s27">
<line x1="157.066667" y1="360.533333" x2="157.066667" y2="382.334344" stroke="black" stroke-width="1.066667"/>
<polygon stroke-width="0" points="159.466667,374.933333 157.066667,384.533333 154.666667,374.933333" fill="black"/>
</g>
<g id="s28">
<rect x="121.066667" y="384.533333" width="72" height="24" rx="12" fill="none" stroke="black" stroke-width="1.066667"/>
<text font-size="11pt" stroke-width="0.2pt" fill="black" x="157.066667" y="401.373333" text-anchor="middle">{\bf eqn}</text>
</g>
<g id="s29">
<line x1="157.066667" y1="408.533333" x2="157.066667" y2="430.334344" stroke="black" stroke-width="1.066667"/>
<polygon stroke-width="0" points="159.466667,422.933333 157.066667,432.533333 154.666667,422.933333" fill="black"/>
</g>
<g id="s30">
<rect x="121.066667" y="432.533333" width="72" height="24" rx="12" fill="none" stroke="black" stroke-width="1.066667"/>
<text font-size="11pt" stroke-width="0.2pt" fill="black" x="157.066667" y="449.373333" text-anchor="middle">{\bf tbl}</text>
</g>
<g id="s31">
<line x1="157.066667" y1="456.533333" x2="157.066667" y2="478.334344" stroke="black" stroke-width="1.066667"/>
<polygon stroke-width="0" points="159.466667,470.933333 157.066667,480.533333 154.666667,470.933333" fill="black"/>
</g>
<g id="s32">
<rect x="121.066667" y="480.533333" width="72" height="24" rx="12" fill="none" stroke="black" stroke-width="1.066667"/>
<text font-size="11pt" stroke-width="0.2pt" fill="black" x="157.066667" y="497.373333" text-anchor="middle">{\bf groff}</text>
</g>
<g id="s33">
<line x1="157.066667" y1="504.533333" x2="157.066667" y2="526.334344" stroke="black" stroke-width="1.066667"/>
<polygon stroke-width="0" points="159.466667,518.933333 157.066667,528.533333 154.666667,518.933333" fill="black"/>
</g>
<g id="s34">
<rect x="121.066667" y="528.533333" width="72" height="48" fill="none" stroke="black" stroke-width="1.066667"/>
<text font-size="11pt" stroke-width="0.2pt" fill="black" x="157.066667" y="557.373333" text-anchor="middle">PostScript</text>
</g>
<g id="s35">
</g>
<g id="s36">
<polyline points="301.066667,288.533333 349.066667,312.533333 349.066667,334.334344" fill="none" stroke="black" stroke-width="1.066667"/>
<polygon stroke-width="0" points="351.466667,326.933333 349.066667,336.533333 346.666667,326.933333" fill="black"/>
</g>
<g id="s37">
<rect x="313.066667" y="336.533333" width="72" height="24" rx="12" fill="none" stroke="black" stroke-width="1.066667" stroke-dasharray="0.5,5.333333" stroke-linecap="round"/>
<text font-size="11pt" stroke-width="0.2pt" fill="black" x="349.066667" y="353.373333" text-anchor="middle">{\bf pic2img}</text>
</g>
<g id="s38">
<line x1="349.066667" y1="360.533333" x2="349.066667" y2="382.334344" stroke="black" stroke-width="1.066667"/>
<polygon stroke-width="0" points="351.466667,374.933333 349.066667,384.533333 346.666667,374.933333" fill="black"/>
</g>
<g id="s39">
<rect x="313.066667" y="384.533333" width="72" height="24" rx="12" fill="none" stroke="black" stroke-width="1.066667" stroke-dasharray="0.5,5.333333" stroke-linecap="round"/>
<text font-size="11pt" stroke-width="0.2pt" fill="black" x="349.066667" y="401.373333" text-anchor="middle">{\bf eqn2html}</text>
</g>
<g id="s40">
<line x1="349.066667" y1="408.533333" x2="349.066667" y2="430.334344" stroke="black" stroke-width="1.066667"/>
<polygon stroke-width="0" points="351.466667,422.933333 349.066667,432.533333 346.666667,422.933333" fill="black"/>
</g>
<g id="s41">
<rect x="313.066667" y="432.533333" width="72" height="24" rx="12" fill="none" stroke="black" stroke-width="1.066667" stroke-dasharray="0.5,5.333333" stroke-linecap="round"/>
<text font-size="11pt" stroke-width="0.2pt" fill="black" x="349.066667" y="449.373333" text-anchor="middle">{\bf tbl2html}</text>
</g>
<g id="s42">
<line x1="349.066667" y1="456.533333" x2="349.066667" y2="478.334344" stroke="black" stroke-width="1.066667"/>
<polygon stroke-width="0" points="351.466667,470.933333 349.066667,480.533333 346.666667,470.933333" fill="black"/>
</g>
<g id="s43">
<rect x="313.066667" y="480.533333" width="72" height="24" rx="12" fill="none" stroke="black" stroke-width="1.066667"/>
<text font-size="11pt" stroke-width="0.2pt" fill="black" x="349.066667" y="497.373333" text-anchor="middle">{\bf ms2html}</text>
</g>
<g id="s44">
<line x1="349.066667" y1="504.533333" x2="349.066667" y2="526.334344" stroke="black" stroke-width="1.066667"/>
<polygon stroke-width="0" points="351.466667,518.933333 349.066667,528.533333 346.666667,518.933333" fill="black"/>
</g>
<g id="s45">
<rect x="313.066667" y="528.533333" width="72" height="48" fill="none" stroke="black" stroke-width="1.066667"/>
<text font-size="11pt" stroke-width="0.2pt" fill="black" x="349.066667" y="557.373333" text-anchor="middle">HTML</text>
</g>
<g id="s46">
<rect x="493.066667" y="372.533333" width="96" height="48" fill="none" stroke="black" stroke-width="1.066667" stroke-dasharray="5.6,4"/>
<text font-size="11pt" stroke-width="0.2pt" fill="black" x="541.066667" y="394.04" text-anchor="middle">These tools</text>
<text font-size="11pt" stroke-width="0.2pt" fill="black" x="541.066667" y="408.706667" text-anchor="middle">don't yet exist</text>
</g>
<g id="s47">
<line x1="493.066667" y1="372.533333" x2="396.584688" y2="351.092894" stroke="black" stroke-width="1.066667" stroke-dasharray="5.6,4"/>
<polygon stroke-width="0" points="403.288825,355.041247 394.438062,350.615866 404.330091,350.355549" fill="black"/>
</g>
<g id="s48">
<line x1="493.066667" y1="396.533333" x2="396.865656" y2="396.533333" stroke="black" stroke-width="1.066667" stroke-dasharray="5.6,4"/>
<polygon stroke-width="0" points="404.266667,398.933333 394.666667,396.533333 404.266667,394.133333" fill="black"/>
</g>
<g id="s49">
<line x1="493.066667" y1="420.533333" x2="396.584688" y2="441.973773" stroke="black" stroke-width="1.066667" stroke-dasharray="5.6,4"/>
<polygon stroke-width="0" points="404.330091,442.711117 394.438062,442.450801 403.288825,438.02542" fill="black"/>
</g>
</svg>
