<svg xmlns="http://www.w3.org/2000/svg" width="561.923" height="118.074" viewBox="0 0 561.923 118.074" font-family="sans-serif" font-size="14.667">
<g id="s0">
</g>
<g id="s1">
<rect x="16.783" y="12.522" width="17.044" height="34.088" fill="rgb(0,0,0)" stroke="black" stroke-width="1.067"/>
</g>
<g id="s2">
<rect x="16.783" y="46.609" width="17.044" height="34.088" fill="rgb(255,255,255)" stroke="black" stroke-width="1.067"/>
</g>
<g id="s3">
</g>
<g id="s4">
<rect x="59.392" y="12.522" width="17.044" height="34.088" fill="rgb(0,0,0)" stroke="black" stroke-width="1.067"/>
</g>
<g id="s5">
<rect x="59.392" y="46.609" width="17.044" height="34.088" fill="rgb(255,255,255)" stroke="black" stroke-width="1.067"/>
</g>
<g id="s6">
</g>
<g id="s7">
<rect x="102.002" y="12.522" width="17.044" height="34.088" fill="rgb(255,255,255)" stroke="black" stroke-width="1.067"/>
</g>
<g id="s8">
<rect x="102.002" y="46.609" width="17.044" height="34.088" fill="rgb(0,0,0)" stroke="black" stroke-width="1.067"/>
</g>
<g id="s9">
</g>
<g id="s10">
<rect x="144.611" y="12.522" width="17.044" height="34.088" fill="rgb(255,255,255)" stroke="black" stroke-width="1.067"/>
</g>
<g id="s11">
<rect x="144.611" y="46.609" width="17.044" height="34.088" fill="rgb(0,0,0)" stroke="black" stroke-width="1.067"/>
</g>
<g id="s12">
</g>
<g id="s13">
<rect x="187.221" y="12.522" width="17.044" height="34.088" fill="rgb(0,0,0)" stroke="black" stroke-width="1.067"/>
</g>
<g id="s14">
<rect x="187.221" y="46.609" width="17.044" height="34.088" fill="rgb(255,255,255)" stroke="black" stroke-width="1.067"/>
</g>
<g id="s15">
</g>
<g id="s16">
<rect x="229.83" y="12.522" width="17.044" height="34.088" fill="rgb(255,255,255)" stroke="black" stroke-width="1.067"/>
</g>
<g id="s17">
<rect x="229.83" y="46.609" width="17.044" height="34.088" fill="rgb(0,0,0)" stroke="black" stroke-width="1.067"/>
</g>
<g id="s18">
<rect x="4" y="4" width="255.657" height="85.219" fill="none" stroke="black" stroke-width="1.067"/>
</g>
<g id="s19">
<text x="131.828" y="106.263" text-anchor="middle" dominant-baseline="central">Jumpers in state 110010</text>
</g>
<g id="s20">
</g>
<g id="s21">
</g>
<g id="s22">
<rect x="315.049" y="12.522" width="17.044" height="34.088" fill="rgb(0,0,0)" stroke="black" stroke-width="1.067"/>
</g>
<g id="s23">
<rect x="315.049" y="46.609" width="17.044" height="34.088" fill="rgb(255,255,255)" stroke="black" stroke-width="1.067"/>
</g>
<g id="s24">
</g>
<g id="s25">
<rect x="357.658" y="12.522" width="17.044" height="34.088" fill="rgb(255,255,255)" stroke="black" stroke-width="1.067"/>
</g>
<g id="s26">
<rect x="357.658" y="46.609" width="17.044" height="34.088" fill="rgb(0,0,0)" stroke="black" stroke-width="1.067"/>
</g>
<g id="s27">
</g>
<g id="s28">
<rect x="400.268" y="12.522" width="17.044" height="34.088" fill="rgb(0,0,0)" stroke="black" stroke-width="1.067"/>
</g>
<g id="s29">
<rect x="400.268" y="46.609" width="17.044" height="34.088" fill="rgb(255,255,255)" stroke="black" stroke-width="1.067"/>
</g>
<g id="s30">
</g>
<g id="s31">
<rect x="442.877" y="12.522" width="17.044" height="34.088" fill="rgb(255,255,255)" stroke="black" stroke-width="1.067"/>
</g>
<g id="s32">
<rect x="442.877" y="46.609" width="17.044" height="34.088" fill="rgb(0,0,0)" stroke="black" stroke-width="1.067"/>
</g>
<g id="s33">
</g>
<g id="s34">
<rect x="485.487" y="12.522" width="17.044" height="34.088" fill="rgb(0,0,0)" stroke="black" stroke-width="1.067"/>
</g>
<g id="s35">
<rect x="485.487" y="46.609" width="17.044" height="34.088" fill="rgb(255,255,255)" stroke="black" stroke-width="1.067"/>
</g>
<g id="s36">
</g>
<g id="s37">
<rect x="528.096" y="12.522" width="17.044" height="34.088" fill="rgb(0,0,0)" stroke="black" stroke-width="1.067"/>
</g>
<g id="s38">
<rect x="528.096" y="46.609" width="17.044" height="34.088" fill="rgb(255,255,255)" stroke="black" stroke-width="1.067"/>
</g>
<g id="s39">
<rect x="302.266" y="4" width="255.657" height="85.219" fill="none" stroke="black" stroke-width="1.067"/>
</g>
<g id="s40">
<text x="430.094" y="106.263" text-anchor="middle" dominant-baseline="central">Jumpers in state 101011</text>
</g>
</svg>
