<svg xmlns="http://www.w3.org/2000/svg" width="742.75122" height="254.321951" viewBox="0 0 742.75122 254.321951" font-family="sans-serif" font-size="14.666667" fill="none">
<g id="s0">
<line x1="85.501823" y1="77.801626" x2="49.066667" y2="77.801626" stroke="black" stroke-width="1.066667"/>
<polygon stroke-width="0" points="79.973984,75.869919 87.700813,77.801626 79.973984,79.733333" fill="black"/>
</g>
<g id="s1">
<text font-size="11pt" stroke-width="0.2pt" fill="black" x="25.066667" y="82.641626" text-anchor="middle">nums </text>
</g>
<g id="s2">
<ellipse cx="131.164228" cy="77.801626" rx="43.463415" ry="19.317073" fill="rgb(179,179,179)" stroke="black" stroke-width="1.066667"/>
<text font-size="11pt" stroke-width="0.2pt" fill="black" x="131.164228" y="82.641626" text-anchor="middle">generate</text>
</g>
<g id="s3">
</g>
<g id="s4">
<rect x="213.261789" y="58.484553" width="57.95122" height="38.634146" fill="none" stroke="black" stroke-width="1.066667"/>
<text font-size="11pt" stroke-width="0.2pt" fill="black" x="242.237398" y="82.641626" text-anchor="middle">sort0</text>
</g>
<g id="s5">
</g>
<g id="s6">
</g>
<g id="s7">
<rect x="213.261789" y="135.752846" width="57.95122" height="38.634146" fill="none" stroke="black" stroke-width="1.066667"/>
<text font-size="11pt" stroke-width="0.2pt" fill="black" x="242.237398" y="159.909919" text-anchor="middle">sort1</text>
</g>
<g id="s8">
</g>
<g id="s9">
</g>
<g id="s10">
<rect x="213.261789" y="213.021138" width="57.95122" height="38.634146" fill="none" stroke="black" stroke-width="1.066667"/>
<text font-size="11pt" stroke-width="0.2pt" fill="black" x="242.237398" y="237.178211" text-anchor="middle">sort2</text>
</g>
<g id="s11">
<path d="M 161.897503 91.460859 C 167.882607 109.145296 173.867712 126.829733 179.852816 144.51417 191.823026 179.883043 200.124586 199.883936 204.757499 204.516849 207.073955 206.833305 209.390412 209.149761 211.706868 211.466218" fill="none" stroke="black" stroke-width="1.066667"/>
<polygon stroke-width="0" points="209.164019,206.191521 213.261789,213.021138 206.432172,208.923368" fill="black"/>
</g>
<g id="s12">
<path d="M 161.897503 91.460859 C 167.882607 96.267247 173.867712 101.073635 179.852816 105.880023 191.823026 115.492799 200.124586 122.615643 204.757499 127.248556 207.073955 129.565012 209.390412 131.881469 211.706868 134.197925" fill="none" stroke="black" stroke-width="1.066667"/>
<polygon stroke-width="0" points="209.164019,128.923229 213.261789,135.752846 206.432172,131.655075" fill="black"/>
</g>
<g id="s13">
<line x1="174.627642" y1="77.801626" x2="211.062799" y2="77.801626" stroke="black" stroke-width="1.066667"/>
<polygon stroke-width="0" points="205.534959,75.869919 213.261789,77.801626 205.534959,79.733333" fill="black"/>
</g>
<g id="s14">
</g>
<g id="s15">
<rect x="309.847154" y="58.484553" width="57.95122" height="38.634146" fill="none" stroke="black" stroke-width="1.066667"/>
<text font-size="11pt" stroke-width="0.2pt" fill="black" x="338.822764" y="82.641626" text-anchor="middle">sample</text>
</g>
<g id="s16">
<path d="M 271.213008 213.021138 C 275.076423 196.279675 278.939837 179.538211 282.803252 162.796748 290.530081 129.313821 296.709952 110.255901 301.342865 105.622989 303.659321 103.306532 305.975778 100.990076 308.292234 98.67362" fill="none" stroke="black" stroke-width="1.066667"/>
<polygon stroke-width="0" points="303.017538,101.216469 309.847154,97.118699 305.749384,103.948316" fill="black"/>
</g>
<g id="s17">
<path d="M 271.213008 135.752846 C 275.076423 131.889431 278.939837 128.026016 282.803252 124.162602 290.530081 116.435772 296.709952 110.255901 301.342865 105.622989 303.659321 103.306532 305.975778 100.990076 308.292234 98.67362" fill="none" stroke="black" stroke-width="1.066667"/>
<polygon stroke-width="0" points="303.017538,101.216469 309.847154,97.118699 305.749384,103.948316" fill="black"/>
</g>
<g id="s18">
<line x1="271.213008" y1="77.801626" x2="307.648165" y2="77.801626" stroke="black" stroke-width="1.066667"/>
<polygon stroke-width="0" points="302.120325,75.869919 309.847154,77.801626 302.120325,79.733333" fill="black"/>
</g>
<g id="s19">
<line x1="367.798374" y1="77.801626" x2="404.233531" y2="77.801626" stroke="black" stroke-width="1.066667"/>
<polygon stroke-width="0" points="398.705691,75.869919 406.43252,77.801626 398.705691,79.733333" fill="black"/>
</g>
<g id="s20">
<rect x="406.43252" y="58.484553" width="57.95122" height="38.634146" fill="none" stroke="black" stroke-width="1.066667"/>
<text font-size="11pt" stroke-width="0.2pt" fill="black" x="435.40813" y="82.641626" text-anchor="middle">split0</text>
</g>
<g id="s21">
</g>
<g id="s22">
</g>
<g id="s23">
<rect x="406.43252" y="135.752846" width="57.95122" height="38.634146" fill="none" stroke="black" stroke-width="1.066667"/>
<text font-size="11pt" stroke-width="0.2pt" fill="black" x="435.40813" y="159.909919" text-anchor="middle">split1</text>
</g>
<g id="s24">
</g>
<g id="s25">
</g>
<g id="s26">
<rect x="406.43252" y="213.021138" width="57.95122" height="38.634146" fill="none" stroke="black" stroke-width="1.066667"/>
<text font-size="11pt" stroke-width="0.2pt" fill="black" x="435.40813" y="237.178211" text-anchor="middle">split2</text>
</g>
<g id="s27">
<path d="M 367.798374 97.118699 C 371.661789 113.860163 375.525203 130.601626 379.388618 147.343089 387.115447 180.826016 393.295318 199.883936 397.928231 204.516849 400.244687 206.833305 402.561143 209.149761 404.8776 211.466218" fill="none" stroke="black" stroke-width="1.066667"/>
<polygon stroke-width="0" points="402.33475,206.191521 406.43252,213.021138 399.602904,208.923368" fill="black"/>
</g>
<g id="s28">
<path d="M 367.798374 97.118699 C 371.661789 100.982114 375.525203 104.845528 379.388618 108.708943 387.115447 116.435772 393.295318 122.615643 397.928231 127.248556 400.244687 129.565012 402.561143 131.881469 404.8776 134.197925" fill="none" stroke="black" stroke-width="1.066667"/>
<polygon stroke-width="0" points="402.33475,128.923229 406.43252,135.752846 399.602904,131.655075" fill="black"/>
</g>
<g id="s29">
<line x1="367.798374" y1="77.801626" x2="404.233531" y2="77.801626" stroke="black" stroke-width="1.066667"/>
<polygon stroke-width="0" points="398.705691,75.869919 406.43252,77.801626 398.705691,79.733333" fill="black"/>
</g>
<g id="s30">
<line x1="271.213008" y1="232.338211" x2="404.233531" y2="232.338211" stroke="black" stroke-width="1.066667"/>
<polygon stroke-width="0" points="398.705691,230.406504 406.43252,232.338211 398.705691,234.269919" fill="black"/>
</g>
<g id="s31">
<line x1="271.213008" y1="155.069919" x2="404.233531" y2="155.069919" stroke="black" stroke-width="1.066667"/>
<polygon stroke-width="0" points="398.705691,153.138211 406.43252,155.069919 398.705691,157.001626" fill="black"/>
</g>
<g id="s32">
</g>
<g id="s33">
<line x1="242.237398" y1="58.484553" x2="242.237398" y2="39.16748" stroke="black" stroke-width="1.066667"/>
</g>
<g id="s34">
<path d="M 242.237398 39.16748 A 19.317073 19.317073 0 0 1 261.554472 19.850407" fill="none" stroke="black" stroke-width="1.066667"/>
</g>
<g id="s35">
</g>
<g id="s36">
<line x1="435.40813" y1="56.285563" x2="435.40813" y2="39.16748" stroke="black" stroke-width="1.066667"/>
<polygon stroke-width="0" points="437.339837,50.757724 435.40813,58.484553 433.476423,50.757724" fill="black"/>
</g>
<g id="s37">
<path d="M 435.40813 39.16748 A 19.317073 19.317073 0 0 0 416.091057 19.850407" fill="none" stroke="black" stroke-width="1.066667"/>
</g>
<g id="s38">
<line x1="261.554472" y1="19.850407" x2="416.091057" y2="19.850407" stroke="black" stroke-width="1.066667"/>
</g>
<g id="s39">
</g>
<g id="s40">
<rect x="557.105691" y="58.484553" width="57.95122" height="38.634146" fill="none" stroke="black" stroke-width="1.066667"/>
<text font-size="11pt" stroke-width="0.2pt" fill="black" x="586.081301" y="82.641626" text-anchor="middle">merge0</text>
</g>
<g id="s41">
</g>
<g id="s42">
</g>
<g id="s43">
<rect x="557.105691" y="135.752846" width="57.95122" height="38.634146" fill="none" stroke="black" stroke-width="1.066667"/>
<text font-size="11pt" stroke-width="0.2pt" fill="black" x="586.081301" y="159.909919" text-anchor="middle">merge1</text>
</g>
<g id="s44">
</g>
<g id="s45">
</g>
<g id="s46">
<rect x="557.105691" y="213.021138" width="57.95122" height="38.634146" fill="none" stroke="black" stroke-width="1.066667"/>
<text font-size="11pt" stroke-width="0.2pt" fill="black" x="586.081301" y="237.178211" text-anchor="middle">merge2</text>
</g>
<g id="s47">
<line x1="464.38374" y1="232.338211" x2="554.906701" y2="232.338211" stroke="black" stroke-width="1.066667"/>
<polygon stroke-width="0" points="549.378862,230.406504 557.105691,232.338211 549.378862,234.269919" fill="black"/>
</g>
<g id="s48">
<path d="M 464.38374 174.386992 C 477.261789 178.250407 490.139837 182.113821 503.017886 185.977236 528.773984 193.704065 543.968489 199.883936 548.601402 204.516849 550.917858 206.833305 553.234314 209.149761 555.550771 211.466218" fill="none" stroke="black" stroke-width="1.066667"/>
<polygon stroke-width="0" points="553.007921,206.191521 557.105691,213.021138 550.276074,208.923368" fill="black"/>
</g>
<g id="s49">
<path d="M 464.38374 97.118699 C 477.261789 113.860163 490.139837 130.601626 503.017886 147.343089 528.773984 180.826016 543.968489 199.883936 548.601402 204.516849 550.917858 206.833305 553.234314 209.149761 555.550771 211.466218" fill="none" stroke="black" stroke-width="1.066667"/>
<polygon stroke-width="0" points="553.007921,206.191521 557.105691,213.021138 550.276074,208.923368" fill="black"/>
</g>
<g id="s50">
<path d="M 464.38374 213.021138 C 477.261789 209.157724 490.139837 205.294309 503.017886 201.430894 528.773984 193.704065 543.968489 187.524194 548.601402 182.891281 550.917858 180.574825 553.234314 178.258369 555.550771 175.941912" fill="none" stroke="black" stroke-width="1.066667"/>
<polygon stroke-width="0" points="550.276074,178.484762 557.105691,174.386992 553.007921,181.216609" fill="black"/>
</g>
<g id="s51">
<line x1="464.38374" y1="155.069919" x2="554.906701" y2="155.069919" stroke="black" stroke-width="1.066667"/>
<polygon stroke-width="0" points="549.378862,153.138211 557.105691,155.069919 549.378862,157.001626" fill="black"/>
</g>
<g id="s52">
<path d="M 464.38374 97.118699 C 477.261789 100.982114 490.139837 104.845528 503.017886 108.708943 528.773984 116.435772 543.968489 122.615643 548.601402 127.248556 550.917858 129.565012 553.234314 131.881469 555.550771 134.197925" fill="none" stroke="black" stroke-width="1.066667"/>
<polygon stroke-width="0" points="553.007921,128.923229 557.105691,135.752846 550.276074,131.655075" fill="black"/>
</g>
<g id="s53">
<path d="M 464.38374 213.021138 C 477.261789 196.279675 490.139837 179.538211 503.017886 162.796748 528.773984 129.313821 543.968489 110.255901 548.601402 105.622989 550.917858 103.306532 553.234314 100.990076 555.550771 98.67362" fill="none" stroke="black" stroke-width="1.066667"/>
<polygon stroke-width="0" points="550.276074,101.216469 557.105691,97.118699 553.007921,103.948316" fill="black"/>
</g>
<g id="s54">
<path d="M 464.38374 135.752846 C 477.261789 131.889431 490.139837 128.026016 503.017886 124.162602 528.773984 116.435772 543.968489 110.255901 548.601402 105.622989 550.917858 103.306532 553.234314 100.990076 555.550771 98.67362" fill="none" stroke="black" stroke-width="1.066667"/>
<polygon stroke-width="0" points="550.276074,101.216469 557.105691,97.118699 553.007921,103.948316" fill="black"/>
</g>
<g id="s55">
<line x1="464.38374" y1="77.801626" x2="554.906701" y2="77.801626" stroke="black" stroke-width="1.066667"/>
<polygon stroke-width="0" points="549.378862,75.869919 557.105691,77.801626 549.378862,79.733333" fill="black"/>
</g>
<g id="s56">
</g>
<g id="s57">
<ellipse cx="697.154472" cy="77.801626" rx="43.463415" ry="19.317073" fill="rgb(179,179,179)" stroke="black" stroke-width="1.066667"/>
<text font-size="11pt" stroke-width="0.2pt" fill="black" x="697.154472" y="82.641626" text-anchor="middle">output</text>
</g>
<g id="s58">
<path d="M 615.056911 213.021138 C 621.042015 195.336702 627.02712 177.652265 633.012224 159.967828 644.982433 124.598955 653.283994 104.598062 657.916907 99.965149 660.233363 97.648693 662.549819 95.332236 664.866276 93.01578" fill="none" stroke="black" stroke-width="1.066667"/>
<polygon stroke-width="0" points="659.59158,95.558629 666.421196,91.460859 662.323426,98.290476" fill="black"/>
</g>
<g id="s59">
<path d="M 615.056911 135.752846 C 621.042015 130.946458 627.02712 126.14007 633.012224 121.333682 644.982433 111.720906 653.283994 104.598062 657.916907 99.965149 660.233363 97.648693 662.549819 95.332236 664.866276 93.01578" fill="none" stroke="black" stroke-width="1.066667"/>
<polygon stroke-width="0" points="659.59158,95.558629 666.421196,91.460859 662.323426,98.290476" fill="black"/>
</g>
<g id="s60">
<line x1="615.056911" y1="77.801626" x2="651.492067" y2="77.801626" stroke="black" stroke-width="1.066667"/>
<polygon stroke-width="0" points="645.964228,75.869919 653.691057,77.801626 645.964228,79.733333" fill="black"/>
</g>
<g id="s61">
</g>
<g id="s62">
<line x1="131.164228" y1="58.484553" x2="131.164228" y2="19.850407" stroke="black" stroke-width="1.066667"/>
</g>
<g id="s63">
<path d="M 131.164228 19.850407 A 19.317073 19.317073 0 0 1 150.481301 0.533333" fill="none" stroke="black" stroke-width="1.066667"/>
</g>
<g id="s64">
</g>
<g id="s65">
<line x1="697.154472" y1="56.285563" x2="697.154472" y2="19.850407" stroke="black" stroke-width="1.066667"/>
<polygon stroke-width="0" points="699.086179,50.757724 697.154472,58.484553 695.222764,50.757724" fill="black"/>
</g>
<g id="s66">
<path d="M 697.154472 19.850407 A 19.317073 19.317073 0 0 0 677.837398 0.533333" fill="none" stroke="black" stroke-width="1.066667"/>
</g>
<g id="s67">
<line x1="150.481301" y1="0.533333" x2="677.837398" y2="0.533333" stroke="black" stroke-width="1.066667"/>
</g>
</svg>
