<svg xmlns="http://www.w3.org/2000/svg" width="382.4" height="190.4" viewBox="0 0 382.4 190.4" font-family="sans-serif" font-size="14.667">
<g id="s0">
<circle cx="23.2" cy="167.2" r="19.2" fill="none" stroke="black" stroke-width="1.067"/>
<text x="23.2" y="167.2" text-anchor="middle" dominant-baseline="central">1</text>
</g>
<g id="s1">
<circle cx="71.2" cy="167.2" r="19.2" fill="none" stroke="black" stroke-width="1.067"/>
<text x="71.2" y="167.2" text-anchor="middle" dominant-baseline="central">-1</text>
</g>
<g id="s2">
<circle cx="47.2" cy="119.2" r="19.2" fill="none" stroke="black" stroke-width="1.067"/>
<text x="47.2" y="119.2" text-anchor="middle" dominant-baseline="central">10</text>
</g>
<g id="s3">
<polyline points="38.613,136.373 31.787,150.027" fill="none" stroke="black" stroke-width="1.067"/>
</g>
<g id="s4">
<polyline points="55.787,136.373 62.613,150.027" fill="none" stroke="black" stroke-width="1.067"/>
</g>
<g id="s5">
<circle cx="119.2" cy="167.2" r="19.2" fill="none" stroke="black" stroke-width="1.067"/>
<text x="119.2" y="167.2" text-anchor="middle" dominant-baseline="central">8</text>
</g>
<g id="s6">
<circle cx="167.2" cy="167.2" r="19.2" fill="none" stroke="black" stroke-width="1.067"/>
<text x="167.2" y="167.2" text-anchor="middle" dominant-baseline="central">78</text>
</g>
<g id="s7">
<circle cx="143.2" cy="119.2" r="19.2" fill="none" stroke="black" stroke-width="1.067"/>
<text x="143.2" y="119.2" text-anchor="middle" dominant-baseline="central">89</text>
</g>
<g id="s8">
<polyline points="134.613,136.373 127.787,150.027" fill="none" stroke="black" stroke-width="1.067"/>
</g>
<g id="s9">
<polyline points="151.787,136.373 158.613,150.027" fill="none" stroke="black" stroke-width="1.067"/>
</g>
<g id="s10">
<circle cx="95.2" cy="71.2" r="19.2" fill="none" stroke="black" stroke-width="1.067"/>
<text x="95.2" y="71.2" text-anchor="middle" dominant-baseline="central">100</text>
</g>
<g id="s11">
<polyline points="81.624,84.776 60.776,105.624" fill="none" stroke="black" stroke-width="1.067"/>
</g>
<g id="s12">
<polyline points="108.776,84.776 129.624,105.624" fill="none" stroke="black" stroke-width="1.067"/>
</g>
<g id="s13">
<circle cx="215.2" cy="167.2" r="19.2" fill="none" stroke="black" stroke-width="1.067"/>
<text x="215.2" y="167.2" text-anchor="middle" dominant-baseline="central">9</text>
</g>
<g id="s14">
<circle cx="263.2" cy="167.2" r="19.2" fill="none" stroke="black" stroke-width="1.067"/>
<text x="263.2" y="167.2" text-anchor="middle" dominant-baseline="central">87</text>
</g>
<g id="s15">
<circle cx="239.2" cy="119.2" r="19.2" fill="none" stroke="black" stroke-width="1.067"/>
<text x="239.2" y="119.2" text-anchor="middle" dominant-baseline="central">98</text>
</g>
<g id="s16">
<polyline points="230.613,136.373 223.787,150.027" fill="none" stroke="black" stroke-width="1.067"/>
</g>
<g id="s17">
<polyline points="247.787,136.373 254.613,150.027" fill="none" stroke="black" stroke-width="1.067"/>
</g>
<g id="s18">
<circle cx="311.2" cy="167.2" r="19.2" fill="none" stroke="black" stroke-width="1.067"/>
<text x="311.2" y="167.2" text-anchor="middle" dominant-baseline="central">97</text>
</g>
<g id="s19">
<circle cx="359.2" cy="167.2" r="19.2" fill="none" stroke="black" stroke-width="1.067"/>
<text x="359.2" y="167.2" text-anchor="middle" dominant-baseline="central">967</text>
</g>
<g id="s20">
<circle cx="335.2" cy="119.2" r="19.2" fill="none" stroke="black" stroke-width="1.067"/>
<text x="335.2" y="119.2" text-anchor="middle" dominant-baseline="central">978</text>
</g>
<g id="s21">
<polyline points="326.613,136.373 319.787,150.027" fill="none" stroke="black" stroke-width="1.067"/>
</g>
<g id="s22">
<polyline points="343.787,136.373 350.613,150.027" fill="none" stroke="black" stroke-width="1.067"/>
</g>
<g id="s23">
<circle cx="287.2" cy="71.2" r="19.2" fill="none" stroke="black" stroke-width="1.067"/>
<text x="287.2" y="71.2" text-anchor="middle" dominant-baseline="central">989</text>
</g>
<g id="s24">
<polyline points="273.624,84.776 252.776,105.624" fill="none" stroke="black" stroke-width="1.067"/>
</g>
<g id="s25">
<polyline points="300.776,84.776 321.624,105.624" fill="none" stroke="black" stroke-width="1.067"/>
</g>
<g id="s26">
<circle cx="191.2" cy="23.2" r="19.2" fill="none" stroke="black" stroke-width="1.067"/>
<text x="191.2" y="23.2" text-anchor="middle" dominant-baseline="central">1000</text>
</g>
<g id="s27">
<polyline points="174.027,31.787 112.373,62.613" fill="none" stroke="black" stroke-width="1.067"/>
</g>
<g id="s28">
<polyline points="208.373,31.787 270.027,62.613" fill="none" stroke="black" stroke-width="1.067"/>
</g>
</svg>
