<svg xmlns="http://www.w3.org/2000/svg" width="884.8" height="97.6" viewBox="0 0 884.8 97.6" font-family="sans-serif" font-size="14.667">
<g id="s0">
<polyline points="98.4,52 50.4,4" fill="none" stroke="black" stroke-width="1.067"/>
<polygon points="50.4,4 58.885,9.091 55.491,12.485" fill="black"/>
</g>
<g id="s1">
<rect x="50.4" y="4" width="48" height="48" fill="none" stroke="black" stroke-width="1.067" stroke-dasharray="1,3" stroke-linecap="round"/>
</g>
<g id="s2">
</g>
<g id="s3">
<text x="74.4" y="84.8" text-anchor="middle" dominant-baseline="central">\bf line up left</text>
</g>
<g id="s4">
</g>
<g id="s5">
<polyline points="324.4,52 228.4,4" fill="none" stroke="black" stroke-width="1.067"/>
<polygon points="228.4,4 238.06,6.147 235.913,10.44" fill="black"/>
</g>
<g id="s6">
<rect x="228.4" y="4" width="48" height="48" fill="none" stroke="black" stroke-width="1.067" stroke-dasharray="1,3" stroke-linecap="round"/>
</g>
<g id="s7">
<rect x="276.4" y="4" width="48" height="48" fill="none" stroke="black" stroke-width="1.067" stroke-dasharray="1,3" stroke-linecap="round"/>
</g>
<g id="s8">
</g>
<g id="s9">
<text x="276.4" y="84.8" text-anchor="middle" dominant-baseline="central">\bf arrow up left 1</text>
</g>
<g id="s10">
</g>
<g id="s11">
<polyline points="572.4,52 428.4,4" fill="none" stroke="black" stroke-width="1.067"/>
<polygon points="428.4,4 438.266,4.759 436.748,9.313" fill="black"/>
</g>
<g id="s12">
<rect x="428.4" y="4" width="48" height="48" fill="none" stroke="black" stroke-width="1.067" stroke-dasharray="1,3" stroke-linecap="round"/>
</g>
<g id="s13">
<rect x="476.4" y="4" width="48" height="48" fill="none" stroke="black" stroke-width="1.067" stroke-dasharray="1,3" stroke-linecap="round"/>
</g>
<g id="s14">
<rect x="524.4" y="4" width="48" height="48" fill="none" stroke="black" stroke-width="1.067" stroke-dasharray="1,3" stroke-linecap="round"/>
</g>
<g id="s15">
</g>
<g id="s16">
<text x="500.4" y="84.8" text-anchor="middle" dominant-baseline="central">\bf arrow up left 1.5</text>
</g>
<g id="s17">
</g>
<g id="s18">
<polyline points="832.8,52 640.8,4" fill="none" stroke="black" stroke-width="1.067"/>
<polygon points="640.8,4 650.695,4 649.531,8.657" fill="black"/>
</g>
<g id="s19">
<rect x="640.8" y="4" width="48" height="48" fill="none" stroke="black" stroke-width="1.067" stroke-dasharray="1,3" stroke-linecap="round"/>
</g>
<g id="s20">
<rect x="688.8" y="4" width="48" height="48" fill="none" stroke="black" stroke-width="1.067" stroke-dasharray="1,3" stroke-linecap="round"/>
</g>
<g id="s21">
<rect x="736.8" y="4" width="48" height="48" fill="none" stroke="black" stroke-width="1.067" stroke-dasharray="1,3" stroke-linecap="round"/>
</g>
<g id="s22">
<rect x="784.8" y="4" width="48" height="48" fill="none" stroke="black" stroke-width="1.067" stroke-dasharray="1,3" stroke-linecap="round"/>
</g>
<g id="s23">
</g>
<g id="s24">
<text x="736.8" y="84.8" text-anchor="middle" dominant-baseline="central">\bf arrow up left 2</text>
</g>
<g id="s25">
</g>
</svg>
