<svg xmlns="http://www.w3.org/2000/svg" width="420.266667" height="147.2" viewBox="0 0 420.266667 147.2" font-family="sans-serif" font-size="14.666667" fill="none">
<g id="s0">
<circle cx="25.066667" cy="72.533333" r="24" fill="none" stroke="black" stroke-width="1.066667"/>
<text font-size="11pt" stroke-width="0.2pt" fill="black" x="25.066667" y="77.373333" text-anchor="middle">DISK</text>
</g>
<g id="s1">
<line x1="49.066667" y1="72.533333" x2="94.867677" y2="72.533333" stroke="black" stroke-width="1.066667"/>
<polygon stroke-width="0" points="87.466667,70.133333 97.066667,72.533333 87.466667,74.933333" fill="black"/>
<text font-size="11pt" stroke-width="0.2pt" fill="black" x="73.066667" y="70.04" text-anchor="middle">char</text>
<text font-size="11pt" stroke-width="0.2pt" fill="black" x="73.066667" y="84.706667" text-anchor="middle">defns</text>
</g>
<g id="s2">
<rect x="97.066667" y="48.533333" width="72" height="48" fill="none" stroke="black" stroke-width="1.066667"/>
<text font-size="11pt" stroke-width="0.2pt" fill="black" x="133.066667" y="70.04" text-anchor="middle">CPU</text>
<text font-size="11pt" stroke-width="0.2pt" fill="black" x="133.066667" y="84.706667" text-anchor="middle">(16-bit mini)</text>
</g>
<g id="s3">
<line x1="133.066667" y1="46.334344" x2="133.066667" y2="0.533333" stroke="black" stroke-width="1.066667"/>
<polygon stroke-width="0" points="135.466667,38.933333 133.066667,48.533333 130.666667,38.933333" fill="black"/>
<text font-size="11pt" stroke-width="0.2pt" fill="black" x="130.4" y="29.373333" text-anchor="end">input</text>
</g>
<g id="s4">
<line x1="169.066667" y1="72.533333" x2="214.867677" y2="72.533333" stroke="black" stroke-width="1.066667"/>
<polygon stroke-width="0" points="207.466667,70.133333 217.066667,72.533333 207.466667,74.933333" fill="black"/>
</g>
<g id="s5">
<text font-size="11pt" stroke-width="0.266667" fill="black" x="219.733333" y="77.373333" text-anchor="start">  CRT</text>
</g>
<g id="s6">
<polyline points="217.066667,79.733333 217.066667,65.333333 265.066667,65.333333 313.066667,41.333333 313.066667,103.733333 265.066667,79.733333 217.066667,79.733333" fill="none" stroke="black" stroke-width="1.066667"/>
</g>
<g id="s7">
<line x1="317.866667" y1="0.533333" x2="317.866667" y2="142.334344" stroke="black" stroke-width="1.066667"/>
<polygon stroke-width="0" points="320.266667,134.933333 317.866667,144.533333 315.466667,134.933333" fill="black"/>
</g>
<g id="s8">
<text font-size="11pt" stroke-width="0.266667" fill="black" x="320.533333" y="125.373333" text-anchor="start"> ... paper</text>
</g>
<g id="s9">
<circle cx="312.586667" cy="24.533333" r="4.8" fill="none" stroke="black" stroke-width="1.066667"/>
</g>
<g id="s10">
<circle cx="323.146667" cy="24.533333" r="4.8" fill="none" stroke="black" stroke-width="1.066667"/>
</g>
<g id="s11">
<text font-size="11pt" stroke-width="0.266667" fill="black" x="330.133333" y="29.373333" text-anchor="start">   rollers</text>
</g>
</svg>
