<svg xmlns="http://www.w3.org/2000/svg" width="555.2" height="269.44" viewBox="0 0 555.2 269.44" font-family="sans-serif" font-size="14.667">
<g id="s0">
<circle cx="124" cy="134.72" r="24" fill="none" stroke="black" stroke-width="1.067"/>
</g>
<g id="s1">
<polyline points="124,110.72 124,14.72" fill="none" stroke="black" stroke-width="1.067"/>
</g>
<g id="s2">
<polyline points="124,158.72 124,254.72" fill="none" stroke="black" stroke-width="1.067"/>
</g>
<g id="s3">
<polyline points="148,134.72 244,134.72" fill="none" stroke="black" stroke-width="1.067"/>
</g>
<g id="s4">
<polyline points="100,134.72 4,134.72" fill="none" stroke="black" stroke-width="1.067"/>
</g>
<g id="s5">
<rect x="167.2" y="177.92" width="72" height="48" fill="none" stroke="black" stroke-width="1.067" stroke-dasharray="4,3"/>
</g>
<g id="s6">
</g>
<g id="s7">
<circle cx="412" cy="134.72" r="24" fill="none" stroke="black" stroke-width="1.067"/>
</g>
<g id="s8">
<polyline points="412,110.72 412,14.72" fill="none" stroke="black" stroke-width="1.067"/>
</g>
<g id="s9">
<polyline points="412,158.72 412,254.72" fill="none" stroke="black" stroke-width="1.067"/>
</g>
<g id="s10">
<polyline points="436,134.72 532,134.72" fill="none" stroke="black" stroke-width="1.067"/>
</g>
<g id="s11">
<polyline points="388,134.72 292,134.72" fill="none" stroke="black" stroke-width="1.067"/>
</g>
<g id="s12">
<rect x="455.2" y="177.92" width="72" height="48" fill="none" stroke="black" stroke-width="1.067" stroke-dasharray="4,3"/>
</g>
<g id="s13">
</g>
<g id="s14">
<circle cx="412" cy="14.72" r="1.92" fill="rgb(128,128,128)" stroke="black" stroke-width="1.067"/>
</g>
<g id="s15">
<text x="412" y="12.8" text-anchor="middle" dominant-baseline="central"></text>
</g>
<g id="s16">
<circle cx="532" cy="14.72" r="1.92" fill="rgb(128,128,128)" stroke="black" stroke-width="1.067"/>
</g>
<g id="s17">
<text x="533.92" y="12.8" text-anchor="middle" dominant-baseline="central"></text>
</g>
<g id="s18">
<circle cx="292" cy="14.72" r="1.92" fill="rgb(128,128,128)" stroke="black" stroke-width="1.067"/>
</g>
<g id="s19">
<text x="290.08" y="12.8" text-anchor="middle" dominant-baseline="central"></text>
</g>
<g id="s20">
<circle cx="292" cy="134.72" r="1.92" fill="rgb(128,128,128)" stroke="black" stroke-width="1.067"/>
</g>
<g id="s21">
<text x="290.08" y="134.72" text-anchor="middle" dominant-baseline="central"></text>
</g>
<g id="s22">
<circle cx="532" cy="134.72" r="1.92" fill="rgb(128,128,128)" stroke="black" stroke-width="1.067"/>
</g>
<g id="s23">
<text x="533.92" y="134.72" text-anchor="middle" dominant-baseline="central"></text>
</g>
<g id="s24">
<circle cx="292" cy="254.72" r="1.92" fill="rgb(128,128,128)" stroke="black" stroke-width="1.067"/>
</g>
<g id="s25">
<text x="290.08" y="256.64" text-anchor="middle" dominant-baseline="central"></text>
</g>
<g id="s26">
<circle cx="412" cy="254.72" r="1.92" fill="rgb(128,128,128)" stroke="black" stroke-width="1.067"/>
</g>
<g id="s27">
<text x="412" y="256.64" text-anchor="middle" dominant-baseline="central"></text>
</g>
<g id="s28">
<circle cx="532" cy="254.72" r="1.92" fill="rgb(128,128,128)" stroke="black" stroke-width="1.067"/>
</g>
<g id="s29">
<text x="533.92" y="256.64" text-anchor="middle" dominant-baseline="central"></text>
</g>
<g id="s30">
<circle cx="412" cy="134.72" r="1.92" fill="rgb(128,128,128)" stroke="black" stroke-width="1.067"/>
</g>
<g id="s31">
<text x="412" y="134.72" text-anchor="middle" dominant-baseline="central"></text>
</g>
</svg>
