<svg xmlns="http://www.w3.org/2000/svg" width="278.40704" height="105.44" viewBox="0 0 278.40704 105.44" font-family="sans-serif" font-size="14.666667" fill="none">
<g id="s0">
<line x1="12.586667" y1="38.453333" x2="58.387677" y2="38.453333" stroke="black" stroke-width="1.066667"/>
<polygon stroke-width="0" points="50.986667,36.053333 60.586667,38.453333 50.986667,40.853333" fill="black"/>
<svg x="32.388627" y="29.471787" xmlns="http://www.w3.org/2000/svg" viewBox="0 0 8.39608 6.31488" width="8.39608" height="6.31488"><path d="M6.424 6.461546 Q5.456 6.461546 5.089334 5.640213 Q5.001334 5.713547 4.913333 5.801547 Q4.18 6.476213 3.417333 6.476213 Q2.64 6.476213 2.148667 6.124213 Q1.657333 5.772213 1.525333 5.112213 Q1.510667 5.009546 1.510667 4.657547 Q1.510667 4.305547 1.54 4.11488 Q1.642667 3.484213 2.214667 1.95888 Q2.537333 1.093546 2.537333 0.756213 Q2.537333 0.550879 2.500667 0.470213 Q2.464 0.389546 2.332 0.389546 L2.258667 0.389546 Q1.921333 0.389546 1.613333 0.697546 Q1.144 1.16688 0.894667 2.105546 Q0.894667 2.120213 0.88 2.15688 Q0.865333 2.193546 0.858 2.20088 Q0.850667 2.208213 0.836 2.22288 Q0.821333 2.237546 0.784667 2.237546 Q0.748 2.237546 0.718667 2.237546 Q0.689333 2.237546 0.601333 2.237546 L0.396 2.237546 Q0.278667 2.120213 0.352 1.900213 Q0.645333 0.888213 1.261333 0.301547 Q1.774667 -0.167787 2.317333 -0.167787 Q2.933333 -0.167787 3.3 0.17688 Q3.666667 0.521546 3.666667 1.064213 Q3.666667 1.357546 3.402667 2.04688 Q2.801333 3.660213 2.684 4.437547 Q2.669333 4.55488 2.669333 4.77488 Q2.669333 5.332213 2.845333 5.625546 Q3.021333 5.91888 3.490667 5.91888 Q4.106667 5.91888 4.605333 5.39088 Q4.898667 5.097547 4.972 4.921546 Q5.001334 4.86288 5.529334 2.692213 Q5.969334 0.932213 6.057333 0.631546 Q6.145334 0.33088 6.262667 0.213546 Q6.512 -0.006454 6.790667 -0.006454 Q6.996 -0.006454 7.135334 0.103546 Q7.274667 0.213546 7.274667 0.41888 L6.16 5.08288 Q6.145334 5.156213 6.145334 5.317546 Q6.145334 5.933547 6.556 5.933547 Q6.893333 5.889546 7.128 5.376213 Q7.289334 5.03888 7.509334 4.188213 Q7.538667 4.07088 7.802667 4.07088 Q8.081333 4.07088 8.081333 4.188213 Q8.081333 4.24688 8.037333 4.42288 Q7.597333 6.153546 6.776 6.432213 Q6.658667 6.461546 6.424 6.461546 L6.424 6.461546 Z" fill="rgba(0,0,0,1)" fill-rule="nonzero" stroke="none"/></svg>
</g>
<g id="s1">
<circle cx="73.870187" cy="38.453333" r="13.28352" fill="none" stroke="black" stroke-width="1.066667"/>
</g>
<g id="s2">
<line x1="87.153707" y1="38.453333" x2="120.753707" y2="38.453333" stroke="black" stroke-width="1.066667"/>
</g>
<g id="s3">
<defs><linearGradient id="grad0" gradientUnits="objectBoundingBox" x1="0.5" y1="1" x2="0.5" y2="0">
<stop offset="0" stop-color="honeydew"/>
<stop offset="1" stop-color="white"/>
</linearGradient></defs>
<rect x="120.753707" y="12.053333" width="96" height="52.8" fill="url(#grad0)" stroke="black" stroke-width="1.066667"/>
<svg x="153.846654" y="31.12" xmlns="http://www.w3.org/2000/svg" viewBox="0 0 29.814107 14.666667" width="29.814107" height="14.666667"><path d="M4.722667 11.322667 Q2.992 11.322667 1.862667 10.23 Q0.733333 9.137333 0.733333 7.304 Q0.733333 5.544 1.833333 3.886666 Q2.493333 2.874666 3.461334 2.097333 Q4.429334 1.32 5.602667 0.938666 Q6.468 0.674666 7.186667 0.674666 Q7.714667 0.674666 7.802667 0.689333 Q8.682667 0.835999 9.284 1.422667 Q9.313334 1.452 9.401334 1.569333 Q9.489334 1.686666 9.555334 1.774667 Q9.621334 1.862666 9.636001 1.862666 Q9.68 1.862666 10.032001 1.481333 L10.633334 0.879999 L10.853333 0.66 L10.941334 0.66 Q11.146667 0.66 11.146667 0.762667 Q11.146667 0.879999 10.662667 2.801333 Q10.178667 4.722666 10.149334 4.825333 Q10.120001 4.898666 10.076 4.920666 Q10.032001 4.942667 9.812 4.942667 L9.577333 4.942667 Q9.504001 4.869333 9.496667 4.847333 Q9.489334 4.825333 9.518667 4.590666 Q9.548 4.297333 9.548 3.945333 Q9.548 2.728 9.012667 2.031333 Q8.477334 1.334666 7.48 1.334666 Q6.702667 1.334666 5.793334 1.701333 Q4.326667 2.317333 3.454 3.747333 Q2.581333 5.177333 2.317333 7.186666 Q2.288 7.450666 2.288 7.758667 Q2.288 8.594666 2.581333 9.210667 Q3.270667 10.545333 5.089334 10.648 L5.177333 10.648 Q5.969334 10.648 6.629333 10.310667 Q7.289334 9.973333 7.538667 9.445333 Q7.582667 9.328 7.758667 8.631333 Q7.934667 7.934667 7.934667 7.861333 Q7.934667 7.744 7.736667 7.714666 Q7.538667 7.685333 6.864 7.670667 L6.321333 7.670667 Q6.233334 7.582666 6.226 7.553333 Q6.218667 7.524 6.262667 7.274667 Q6.321333 7.084 6.409334 6.996 L6.658667 6.996 Q7.245334 7.025333 8.712 7.025333 Q9.093333 7.025333 9.621334 7.018 Q10.149334 7.010667 10.369333 7.010667 Q10.574667 7.010667 10.574667 7.128 Q10.574667 7.172 10.545334 7.348 Q10.530667 7.392 10.516001 7.458 Q10.501334 7.524 10.494 7.546 Q10.486667 7.568 10.464667 7.604667 Q10.442667 7.641333 10.413334 7.648666 Q10.384001 7.656 10.325334 7.663333 Q10.266667 7.670667 10.178667 7.670667 L10.046667 7.670667 Q9.474667 7.670667 9.416 7.876 Q9.401334 7.890666 9.02 9.401333 Q8.638667 10.912 8.594667 10.956 Q8.521334 11.029333 8.433333 10.970667 Q8.301333 10.897333 8.074 10.640667 Q7.846667 10.384 7.773334 10.237333 Q7.773334 10.222667 7.744 10.244667 Q7.714667 10.266666 7.656 10.310667 Q7.172 10.765333 6.38 11.044 Q5.588 11.322667 4.722667 11.322667 L4.722667 11.322667 Z" fill="rgba(0,0,0,1)" fill-rule="nonzero" stroke="none"/><path d="M16.415667 14.534667 Q16.415667 14.666667 16.151667 14.666667 L15.961 14.666667 Q15.858334 14.578667 15.550333 14.314667 Q12.910334 11.909333 12.910334 7.333333 Q12.910334 5.544 13.335667 4.062666 Q14.010334 1.759999 15.550333 0.351999 Q15.653 0.264 15.785 0.153999 Q15.917 0.044 15.961 0 L16.151667 0 Q16.327667 0 16.371666 0.044 Q16.415667 0.087999 16.415667 0.132 Q16.415667 0.190666 16.254333 0.351999 Q13.981 2.757333 13.981 7.333333 Q13.981 11.909333 16.254333 14.314667 Q16.415667 14.476 16.415667 14.534667 L16.415667 14.534667 Z" fill="rgba(0,0,0,1)" fill-rule="nonzero" stroke="none"/><path d="M18.966053 8.653334 Q19.244719 8.653334 19.413385 8.814667 Q19.582052 8.976 19.582052 9.24 Q19.582052 9.489333 19.442719 9.724 Q19.303387 9.958667 19.06872 10.076 Q18.878052 10.149333 18.863386 10.149333 Q18.819386 10.164 18.80472 10.171333 Q18.790052 10.178667 18.80472 10.193334 Q18.848719 10.266666 19.06872 10.384 Q19.494053 10.604 20.183386 10.604 Q21.298054 10.604 21.75272 9.885333 Q21.972719 9.518666 21.972719 9.210667 Q21.972719 8.741333 21.48872 8.506666 Q21.35672 8.418667 20.755386 8.301333 Q20.682053 8.286667 20.528053 8.25 Q20.374052 8.213333 20.32272 8.205999 Q20.271385 8.198667 20.176052 8.169333 Q20.080719 8.139999 20.029387 8.118 Q19.978052 8.096 19.912052 8.059334 Q19.846052 8.022667 19.758053 7.964 Q19.156719 7.538667 19.156719 6.761333 Q19.156719 5.94 19.758053 5.28 Q20.43272 4.517333 21.635386 4.517333 Q23.058052 4.517333 23.351387 5.514667 Q23.38072 5.588 23.38072 5.793333 Q23.38072 6.204 23.160719 6.460667 Q22.94072 6.717333 22.574053 6.717333 Q22.339386 6.717333 22.192719 6.585333 Q22.046053 6.453333 22.046053 6.218667 Q22.046053 5.734666 22.486053 5.514667 Q22.603386 5.456 22.618053 5.456 Q22.662052 5.456 22.603386 5.382667 Q22.251387 5.06 21.591385 5.06 Q21.019386 5.06 20.623386 5.382667 Q20.227386 5.705333 20.227386 6.218667 Q20.227386 6.482666 20.447386 6.688 Q20.594053 6.82 21.195385 6.952 Q21.870052 7.098666 22.075386 7.201333 Q22.764719 7.509333 22.999386 8.228 Q23.028719 8.316 23.043386 8.609333 Q23.043386 9.108 22.794052 9.650666 Q22.075386 11.146667 20.095387 11.146667 Q18.526052 11.146667 18.115385 10.237333 Q18.01272 10.017333 18.01272 9.724 Q18.01272 9.269333 18.284052 8.961333 Q18.555386 8.653334 18.966053 8.653334 L18.966053 8.653334 Z" fill="rgba(0,0,0,1)" fill-rule="nonzero" stroke="none"/><path d="M24.990385 0.014667 L25.049053 0 Q25.122387 0 25.195719 0 L25.371719 0 Q25.474386 0.087999 25.782387 0.351999 Q28.422386 2.757333 28.422386 7.333333 Q28.422386 9.137333 27.997053 10.589334 Q27.322386 12.906667 25.782387 14.314667 Q25.67972 14.402667 25.54772 14.512667 Q25.41572 14.622667 25.371719 14.666667 L25.195719 14.666667 Q25.01972 14.666667 24.968386 14.637333 Q24.917053 14.608 24.917053 14.490667 Q24.931719 14.476 25.078386 14.3 Q27.351719 11.938666 27.351719 7.333333 Q27.351719 2.728 25.078386 0.366666 Q24.931719 0.190666 24.917053 0.176 Q24.917053 0.058666 24.990385 0.014667 L24.990385 0.014667 Z" fill="rgba(0,0,0,1)" fill-rule="nonzero" stroke="none"/></svg>
</g>
<g id="s4">
<line x1="216.753707" y1="38.453333" x2="262.554717" y2="38.453333" stroke="black" stroke-width="1.066667"/>
<polygon stroke-width="0" points="255.153707,36.053333 264.753707,38.453333 255.153707,40.853333" fill="black"/>
<svg x="236.8952" y="26.62" xmlns="http://www.w3.org/2000/svg" viewBox="0 0 7.717013 9.166667" width="7.717013" height="9.166667"><path d="M6.776 -0.006454 Q6.981334 -0.006454 7.128 0.103546 Q7.274667 0.213546 7.274667 0.404213 Q7.274667 0.59488 6.556 3.484213 Q5.837334 6.373547 5.734667 6.652213 Q5.5 7.37088 4.979333 7.979547 Q4.458667 8.588213 3.769333 8.940213 Q2.977334 9.321547 2.288 9.321547 Q1.173333 9.321547 0.777333 8.617546 Q0.630667 8.412213 0.630667 8.03088 Q0.630667 7.532213 0.909333 7.253547 Q1.217333 6.97488 1.554667 6.97488 Q2.2 6.97488 2.2 7.59088 Q2.2 8.133547 1.686667 8.38288 Q1.657333 8.397547 1.613333 8.419546 Q1.569333 8.441546 1.54 8.456213 Q1.510667 8.470881 1.496 8.470881 L1.452 8.485546 Q1.496 8.573546 1.76 8.676213 Q1.994667 8.764214 2.229333 8.764214 L2.346667 8.764214 Q2.596 8.764214 2.728 8.73488 Q3.285333 8.573546 3.784 7.98688 Q4.282667 7.400213 4.546667 6.57888 Q4.708 6.09488 4.708 6.00688 Q4.708 5.992213 4.678667 6.014213 Q4.649333 6.036213 4.590667 6.080213 Q4.048 6.476213 3.388 6.476213 Q2.64 6.476213 2.156 6.124213 Q1.672 5.772213 1.525333 5.112213 Q1.510667 5.009546 1.510667 4.657547 Q1.510667 4.305547 1.54 4.11488 Q1.642667 3.484213 2.214667 1.95888 Q2.537333 1.093546 2.537333 0.756213 Q2.537333 0.550879 2.500667 0.470213 Q2.464 0.389546 2.332 0.389546 L2.258667 0.389546 Q1.921333 0.389546 1.613333 0.697546 Q1.144 1.16688 0.894667 2.105546 Q0.894667 2.120213 0.88 2.15688 Q0.865333 2.193546 0.858 2.20088 Q0.850667 2.208213 0.836 2.22288 Q0.821333 2.237546 0.784667 2.237546 Q0.748 2.237546 0.718667 2.237546 Q0.689333 2.237546 0.601333 2.237546 L0.396 2.237546 Q0.278667 2.120213 0.352 1.900213 Q0.66 0.873546 1.276 0.301547 Q1.774667 -0.167787 2.317333 -0.167787 Q2.933333 -0.167787 3.3 0.169546 Q3.666667 0.50688 3.666667 1.108213 Q3.637333 1.38688 3.622667 1.416213 Q3.622667 1.504213 3.402667 2.04688 Q2.801333 3.67488 2.684 4.437547 Q2.669333 4.55488 2.669333 4.77488 Q2.669333 5.332213 2.845333 5.625546 Q3.021333 5.91888 3.490667 5.91888 Q3.828 5.91888 4.128667 5.74288 Q4.429334 5.56688 4.583333 5.398213 Q4.737333 5.229547 4.972 4.936213 Q4.972 4.921546 5.243333 3.82888 Q5.514667 2.736213 5.808 1.60688 Q6.101334 0.477546 6.145334 0.389546 Q6.336 -0.006454 6.776 -0.006454 L6.776 -0.006454 Z" fill="rgba(0,0,0,1)" fill-rule="nonzero" stroke="none"/></svg>
</g>
<g id="s5">
<polyline points="240.753707,38.453333 240.753707,91.253333 73.870187,91.253333 73.870187,53.935843" fill="none" stroke="black" stroke-width="1.066667"/>
<polygon stroke-width="0" points="71.470187,61.336853 73.870187,51.736853 76.270187,61.336853" fill="black"/>
</g>
<g id="s6">
<svg x="55.722006" y="64.08352" xmlns="http://www.w3.org/2000/svg" viewBox="0 0 15.481514 9.77768" width="15.481514" height="9.77768"><path d="M1.232 4.88884 Q1.232 4.698174 1.437333 4.595507 L9.958667 4.595507 Q10.178667 4.71284 10.178667 4.88884 Q10.178667 5.06484 9.958667 5.182173 L1.437333 5.182173 Q1.232 5.079507 1.232 4.88884 L1.232 4.88884 Z" fill="rgba(0,0,0,1)" fill-rule="nonzero" stroke="none"/></svg>
</g>
</svg>
